<svg width="57" height="58" viewBox="0 0 57 58" fill="none" xmlns="http://www.w3.org/2000/svg">
<rect x="1" y="1.40137" width="55" height="55" rx="3" fill="white" stroke="#00BAA4" stroke-width="2"/>
<g clip-path="url(#clip0_1839_2390)">
<mask id="path-2-outside-1_1839_2390" maskUnits="userSpaceOnUse" x="12.9985" y="11.9995" width="31" height="31" fill="black">
<rect fill="white" x="12.9985" y="11.9995" width="31" height="31"/>
<path d="M42.9992 41.6852C42.8177 41.893 42.5836 41.9257 42.319 41.9257C37.656 41.92 32.9928 41.9186 28.3294 41.9214C28.2347 41.9245 28.14 41.9219 28.0456 41.9136C27.6981 41.8725 27.542 41.5292 27.7406 41.2426C27.7926 41.1755 27.85 41.1129 27.9123 41.0553L29.975 38.992C30.0388 38.9274 30.0984 38.8586 30.2055 38.743H29.8232C25.5751 38.743 21.3278 38.748 17.0798 38.7345C15.5966 38.7295 14.2645 37.5287 14.0574 36.0569C14.0212 35.8055 14.0022 35.5519 14.0007 35.2979C13.9978 29.4163 13.9978 23.5345 14.0007 17.6525C14.0007 15.9743 15.0831 14.6266 16.723 14.3081C17.5827 14.1407 17.8125 14.2074 17.7905 15.1593C17.7642 16.2821 17.7841 17.4056 17.7841 18.5292V18.8697H18.1118C22.3123 18.8697 26.5131 18.8713 30.7141 18.8746C30.8064 18.8771 30.8982 18.8593 30.983 18.8225C31.0678 18.7858 31.1435 18.7309 31.2049 18.6618C32.9072 16.9491 34.615 15.2392 36.3282 13.5321C37.0425 12.8186 37.7468 12.8228 38.4661 13.5399C38.8335 13.9066 39.2037 14.2712 39.5662 14.6422C40.1712 15.2607 40.1741 15.9998 39.5662 16.619C38.9179 17.2787 38.2611 17.9305 37.605 18.5824C37.5256 18.6499 37.4409 18.7108 37.3517 18.7647L37.3993 18.8562C37.495 18.8604 37.5915 18.8682 37.6872 18.8682H40.3493C40.8685 18.8682 41.0082 19.0101 41.0089 19.5201V27.9459C41.2423 27.7168 41.4345 27.5317 41.6204 27.3445C41.8062 27.1572 41.98 26.9834 42.1616 26.8047C42.4907 26.4791 42.7006 26.4883 42.9992 26.8416V41.6852ZM14.8589 33.4048C14.9604 33.3175 15.0299 33.2629 15.0973 33.1984C15.5254 32.7952 16.0595 32.5223 16.6372 32.4117C16.8748 32.3699 16.9209 32.2699 16.9152 32.0571C16.9062 31.2835 16.9062 30.5094 16.9152 29.7348C16.9195 29.4291 17.1053 29.2383 17.3472 29.2383C17.589 29.2383 17.7728 29.4291 17.7784 29.7107C17.7874 30.7108 17.7874 31.7114 17.7784 32.7125C17.7749 33.0189 17.599 33.165 17.2911 33.1891C17.1314 33.1982 16.9725 33.2174 16.8152 33.2466C15.4959 33.5204 14.4745 34.973 15.0164 36.3824C15.364 37.2903 16.2442 37.8925 17.3259 37.8933C21.8376 37.897 26.3495 37.8954 30.8616 37.8883C30.9965 37.8816 31.1249 37.8282 31.2248 37.7372C31.7284 37.2535 32.2178 36.7534 32.7143 36.2611C32.9732 36.0044 33.2108 35.9774 33.4059 36.1682C33.6009 36.359 33.5754 36.6052 33.3307 36.8626C33.2846 36.9102 33.2371 36.9563 33.1888 37.0045C31.922 38.2704 30.6533 39.5379 29.3827 40.8071C29.3118 40.878 29.2508 40.9489 29.1649 41.0468H42.1275V39.0438C41.8906 39.0438 41.675 39.0487 41.4593 39.0438C41.1196 39.0331 40.9408 38.8792 40.943 38.6104C40.9451 38.3415 41.1373 38.1883 41.4679 38.1848C41.6899 38.1798 41.9119 38.1848 42.1495 38.1848V36.9158C41.8743 36.9158 41.6381 36.9265 41.404 36.9158C41.0884 36.8967 40.9139 36.6988 40.9515 36.4243C40.9891 36.1498 41.1934 36.0604 41.4374 36.0505C41.6686 36.0405 41.8998 36.0505 42.1325 36.0505V34.778C41.8906 34.778 41.6658 34.778 41.4416 34.778C41.1324 34.773 40.9451 34.6141 40.9451 34.3588C40.9451 34.1034 41.1231 33.9332 41.431 33.9289C41.6636 33.9247 41.897 33.9289 42.1311 33.9289V32.6451C41.8941 32.6451 41.6778 32.6501 41.4622 32.6451C41.1217 32.6352 40.9437 32.4834 40.9458 32.2138C40.9479 31.9443 41.1402 31.7883 41.47 31.7883C41.692 31.784 41.914 31.7883 42.1289 31.7883V28.119L42.058 28.0722C41.9963 28.1674 41.9278 28.2579 41.853 28.3432C39.8726 30.3292 37.8911 32.3127 35.9083 34.2935C35.5075 34.6943 35.111 35.0986 34.7025 35.4937C34.5025 35.6887 34.2351 35.7001 34.0641 35.5412C33.8825 35.3688 33.8932 35.1078 34.0925 34.8858C34.1428 34.8298 34.1982 34.778 34.2514 34.7248C36.1476 32.8286 38.044 30.9335 39.9407 29.0397C40.006 28.9808 40.0576 28.9083 40.0918 28.8273C40.126 28.7462 40.1419 28.6587 40.1386 28.5708C40.1339 25.7383 40.1325 22.9061 40.1344 20.0741C40.1344 19.9748 40.1244 19.8754 40.118 19.757H39.7797C38.7789 19.757 37.7787 19.7634 36.7779 19.752C36.6722 19.7464 36.5666 19.7642 36.4685 19.804C36.3704 19.8439 36.2823 19.9048 36.2105 19.9826C33.6201 22.585 31.0105 25.1697 28.4329 27.7849C27.8882 28.3375 27.3108 28.7602 26.5561 28.961C26.0596 29.0922 25.59 29.2979 25.1084 29.4702L25.119 29.5192H33.1534C33.2382 29.5149 33.3232 29.5149 33.408 29.5192C33.5181 29.5237 33.6222 29.5705 33.6988 29.6497C33.7754 29.7289 33.8186 29.8346 33.8194 29.9448C33.8182 30.0541 33.7749 30.1588 33.6986 30.2371C33.6223 30.3155 33.5187 30.3614 33.4094 30.3654C33.3066 30.3739 33.2023 30.3704 33.098 30.3704H24.858C23.8004 30.3704 22.7436 30.3704 21.686 30.3704C21.3675 30.3704 21.193 30.2171 21.1895 29.9561C21.1845 29.6837 21.3675 29.5234 21.6966 29.5199C22.0463 29.5163 22.396 29.5071 22.7443 29.5199C22.9457 29.5298 23.0394 29.466 23.1067 29.2688C23.5167 28.0762 23.9369 26.8872 24.3672 25.7017C24.4338 25.5171 24.5376 25.3481 24.6722 25.2052C25.229 24.6278 25.8028 24.066 26.3703 23.4986C26.4235 23.4454 26.4759 23.3901 26.5341 23.3425C26.7334 23.1808 26.9554 23.1829 27.1207 23.3425C27.286 23.5021 27.308 23.7532 27.1207 23.949C26.8036 24.2852 26.471 24.6072 26.144 24.9342C25.9128 25.164 25.6787 25.3917 25.4567 25.6102L27.3718 27.536L36.1339 18.7704L34.179 16.8219C34.1308 16.9059 34.0747 16.9853 34.0116 17.0588C32.1986 18.8765 30.3838 20.6928 28.567 22.5077C28.4905 22.5914 28.4067 22.668 28.3166 22.7368C28.1251 22.8687 27.9343 22.8389 27.7782 22.6786C27.7064 22.6145 27.6613 22.5258 27.652 22.4299C27.6427 22.3341 27.6697 22.2383 27.7279 22.1615C27.789 22.0777 27.8581 22 27.9343 21.9296C28.5812 21.2803 29.2283 20.6323 29.8757 19.9854C29.9374 19.9237 29.9934 19.8556 30.0743 19.7655H17.7841V20.1202C17.7841 22.6505 17.7841 25.1804 17.7841 27.7097C17.7873 27.8411 17.7727 27.9724 17.7408 28.0999C17.6855 28.2956 17.5373 28.3836 17.3337 28.3836C17.1301 28.3836 16.9897 28.2758 16.9478 28.0757C16.9225 27.9368 16.9113 27.7956 16.9145 27.6544C16.9145 23.6142 16.9145 19.5738 16.9145 15.5331V15.1387C16.7413 15.1843 16.5706 15.239 16.4031 15.3026C15.3618 15.7693 14.8575 16.5992 14.8554 17.7192C14.8469 22.8735 14.8469 28.0277 14.8554 33.182C14.849 33.2388 14.8547 33.3012 14.8589 33.4048ZM38.2093 16.7715C38.4774 16.4999 38.7484 16.2388 39.0037 15.9643C39.2165 15.7395 39.2165 15.5146 38.9945 15.2877C38.5831 14.8621 38.1618 14.4429 37.7369 14.0293C37.5567 13.8541 37.3305 13.7839 37.1304 13.9733C36.8332 14.257 36.563 14.567 36.292 14.8578L38.2093 16.7715ZM34.9295 16.192L36.8354 18.0993L37.5191 17.4312L35.6296 15.5083L34.9295 16.192ZM26.5362 28.0346L25.0006 26.4912C24.5147 27.5877 24.5147 27.5877 25.2474 28.2942C25.2609 28.307 25.2723 28.3283 25.2879 28.3325C25.368 28.3531 25.4602 28.4034 25.529 28.3822C25.8787 28.2736 26.2206 28.146 26.5362 28.0346Z"/>
</mask>
<path d="M42.9992 41.6852C42.8177 41.893 42.5836 41.9257 42.319 41.9257C37.656 41.92 32.9928 41.9186 28.3294 41.9214C28.2347 41.9245 28.14 41.9219 28.0456 41.9136C27.6981 41.8725 27.542 41.5292 27.7406 41.2426C27.7926 41.1755 27.85 41.1129 27.9123 41.0553L29.975 38.992C30.0388 38.9274 30.0984 38.8586 30.2055 38.743H29.8232C25.5751 38.743 21.3278 38.748 17.0798 38.7345C15.5966 38.7295 14.2645 37.5287 14.0574 36.0569C14.0212 35.8055 14.0022 35.5519 14.0007 35.2979C13.9978 29.4163 13.9978 23.5345 14.0007 17.6525C14.0007 15.9743 15.0831 14.6266 16.723 14.3081C17.5827 14.1407 17.8125 14.2074 17.7905 15.1593C17.7642 16.2821 17.7841 17.4056 17.7841 18.5292V18.8697H18.1118C22.3123 18.8697 26.5131 18.8713 30.7141 18.8746C30.8064 18.8771 30.8982 18.8593 30.983 18.8225C31.0678 18.7858 31.1435 18.7309 31.2049 18.6618C32.9072 16.9491 34.615 15.2392 36.3282 13.5321C37.0425 12.8186 37.7468 12.8228 38.4661 13.5399C38.8335 13.9066 39.2037 14.2712 39.5662 14.6422C40.1712 15.2607 40.1741 15.9998 39.5662 16.619C38.9179 17.2787 38.2611 17.9305 37.605 18.5824C37.5256 18.6499 37.4409 18.7108 37.3517 18.7647L37.3993 18.8562C37.495 18.8604 37.5915 18.8682 37.6872 18.8682H40.3493C40.8685 18.8682 41.0082 19.0101 41.0089 19.5201V27.9459C41.2423 27.7168 41.4345 27.5317 41.6204 27.3445C41.8062 27.1572 41.98 26.9834 42.1616 26.8047C42.4907 26.4791 42.7006 26.4883 42.9992 26.8416V41.6852ZM14.8589 33.4048C14.9604 33.3175 15.0299 33.2629 15.0973 33.1984C15.5254 32.7952 16.0595 32.5223 16.6372 32.4117C16.8748 32.3699 16.9209 32.2699 16.9152 32.0571C16.9062 31.2835 16.9062 30.5094 16.9152 29.7348C16.9195 29.4291 17.1053 29.2383 17.3472 29.2383C17.589 29.2383 17.7728 29.4291 17.7784 29.7107C17.7874 30.7108 17.7874 31.7114 17.7784 32.7125C17.7749 33.0189 17.599 33.165 17.2911 33.1891C17.1314 33.1982 16.9725 33.2174 16.8152 33.2466C15.4959 33.5204 14.4745 34.973 15.0164 36.3824C15.364 37.2903 16.2442 37.8925 17.3259 37.8933C21.8376 37.897 26.3495 37.8954 30.8616 37.8883C30.9965 37.8816 31.1249 37.8282 31.2248 37.7372C31.7284 37.2535 32.2178 36.7534 32.7143 36.2611C32.9732 36.0044 33.2108 35.9774 33.4059 36.1682C33.6009 36.359 33.5754 36.6052 33.3307 36.8626C33.2846 36.9102 33.2371 36.9563 33.1888 37.0045C31.922 38.2704 30.6533 39.5379 29.3827 40.8071C29.3118 40.878 29.2508 40.9489 29.1649 41.0468H42.1275V39.0438C41.8906 39.0438 41.675 39.0487 41.4593 39.0438C41.1196 39.0331 40.9408 38.8792 40.943 38.6104C40.9451 38.3415 41.1373 38.1883 41.4679 38.1848C41.6899 38.1798 41.9119 38.1848 42.1495 38.1848V36.9158C41.8743 36.9158 41.6381 36.9265 41.404 36.9158C41.0884 36.8967 40.9139 36.6988 40.9515 36.4243C40.9891 36.1498 41.1934 36.0604 41.4374 36.0505C41.6686 36.0405 41.8998 36.0505 42.1325 36.0505V34.778C41.8906 34.778 41.6658 34.778 41.4416 34.778C41.1324 34.773 40.9451 34.6141 40.9451 34.3588C40.9451 34.1034 41.1231 33.9332 41.431 33.9289C41.6636 33.9247 41.897 33.9289 42.1311 33.9289V32.6451C41.8941 32.6451 41.6778 32.6501 41.4622 32.6451C41.1217 32.6352 40.9437 32.4834 40.9458 32.2138C40.9479 31.9443 41.1402 31.7883 41.47 31.7883C41.692 31.784 41.914 31.7883 42.1289 31.7883V28.119L42.058 28.0722C41.9963 28.1674 41.9278 28.2579 41.853 28.3432C39.8726 30.3292 37.8911 32.3127 35.9083 34.2935C35.5075 34.6943 35.111 35.0986 34.7025 35.4937C34.5025 35.6887 34.2351 35.7001 34.0641 35.5412C33.8825 35.3688 33.8932 35.1078 34.0925 34.8858C34.1428 34.8298 34.1982 34.778 34.2514 34.7248C36.1476 32.8286 38.044 30.9335 39.9407 29.0397C40.006 28.9808 40.0576 28.9083 40.0918 28.8273C40.126 28.7462 40.1419 28.6587 40.1386 28.5708C40.1339 25.7383 40.1325 22.9061 40.1344 20.0741C40.1344 19.9748 40.1244 19.8754 40.118 19.757H39.7797C38.7789 19.757 37.7787 19.7634 36.7779 19.752C36.6722 19.7464 36.5666 19.7642 36.4685 19.804C36.3704 19.8439 36.2823 19.9048 36.2105 19.9826C33.6201 22.585 31.0105 25.1697 28.4329 27.7849C27.8882 28.3375 27.3108 28.7602 26.5561 28.961C26.0596 29.0922 25.59 29.2979 25.1084 29.4702L25.119 29.5192H33.1534C33.2382 29.5149 33.3232 29.5149 33.408 29.5192C33.5181 29.5237 33.6222 29.5705 33.6988 29.6497C33.7754 29.7289 33.8186 29.8346 33.8194 29.9448C33.8182 30.0541 33.7749 30.1588 33.6986 30.2371C33.6223 30.3155 33.5187 30.3614 33.4094 30.3654C33.3066 30.3739 33.2023 30.3704 33.098 30.3704H24.858C23.8004 30.3704 22.7436 30.3704 21.686 30.3704C21.3675 30.3704 21.193 30.2171 21.1895 29.9561C21.1845 29.6837 21.3675 29.5234 21.6966 29.5199C22.0463 29.5163 22.396 29.5071 22.7443 29.5199C22.9457 29.5298 23.0394 29.466 23.1067 29.2688C23.5167 28.0762 23.9369 26.8872 24.3672 25.7017C24.4338 25.5171 24.5376 25.3481 24.6722 25.2052C25.229 24.6278 25.8028 24.066 26.3703 23.4986C26.4235 23.4454 26.4759 23.3901 26.5341 23.3425C26.7334 23.1808 26.9554 23.1829 27.1207 23.3425C27.286 23.5021 27.308 23.7532 27.1207 23.949C26.8036 24.2852 26.471 24.6072 26.144 24.9342C25.9128 25.164 25.6787 25.3917 25.4567 25.6102L27.3718 27.536L36.1339 18.7704L34.179 16.8219C34.1308 16.9059 34.0747 16.9853 34.0116 17.0588C32.1986 18.8765 30.3838 20.6928 28.567 22.5077C28.4905 22.5914 28.4067 22.668 28.3166 22.7368C28.1251 22.8687 27.9343 22.8389 27.7782 22.6786C27.7064 22.6145 27.6613 22.5258 27.652 22.4299C27.6427 22.3341 27.6697 22.2383 27.7279 22.1615C27.789 22.0777 27.8581 22 27.9343 21.9296C28.5812 21.2803 29.2283 20.6323 29.8757 19.9854C29.9374 19.9237 29.9934 19.8556 30.0743 19.7655H17.7841V20.1202C17.7841 22.6505 17.7841 25.1804 17.7841 27.7097C17.7873 27.8411 17.7727 27.9724 17.7408 28.0999C17.6855 28.2956 17.5373 28.3836 17.3337 28.3836C17.1301 28.3836 16.9897 28.2758 16.9478 28.0757C16.9225 27.9368 16.9113 27.7956 16.9145 27.6544C16.9145 23.6142 16.9145 19.5738 16.9145 15.5331V15.1387C16.7413 15.1843 16.5706 15.239 16.4031 15.3026C15.3618 15.7693 14.8575 16.5992 14.8554 17.7192C14.8469 22.8735 14.8469 28.0277 14.8554 33.182C14.849 33.2388 14.8547 33.3012 14.8589 33.4048ZM38.2093 16.7715C38.4774 16.4999 38.7484 16.2388 39.0037 15.9643C39.2165 15.7395 39.2165 15.5146 38.9945 15.2877C38.5831 14.8621 38.1618 14.4429 37.7369 14.0293C37.5567 13.8541 37.3305 13.7839 37.1304 13.9733C36.8332 14.257 36.563 14.567 36.292 14.8578L38.2093 16.7715ZM34.9295 16.192L36.8354 18.0993L37.5191 17.4312L35.6296 15.5083L34.9295 16.192ZM26.5362 28.0346L25.0006 26.4912C24.5147 27.5877 24.5147 27.5877 25.2474 28.2942C25.2609 28.307 25.2723 28.3283 25.2879 28.3325C25.368 28.3531 25.4602 28.4034 25.529 28.3822C25.8787 28.2736 26.2206 28.146 26.5362 28.0346Z" fill="#00BAA4"/>
<path d="M42.9992 41.6852C42.8177 41.893 42.5836 41.9257 42.319 41.9257C37.656 41.92 32.9928 41.9186 28.3294 41.9214C28.2347 41.9245 28.14 41.9219 28.0456 41.9136C27.6981 41.8725 27.542 41.5292 27.7406 41.2426C27.7926 41.1755 27.85 41.1129 27.9123 41.0553L29.975 38.992C30.0388 38.9274 30.0984 38.8586 30.2055 38.743H29.8232C25.5751 38.743 21.3278 38.748 17.0798 38.7345C15.5966 38.7295 14.2645 37.5287 14.0574 36.0569C14.0212 35.8055 14.0022 35.5519 14.0007 35.2979C13.9978 29.4163 13.9978 23.5345 14.0007 17.6525C14.0007 15.9743 15.0831 14.6266 16.723 14.3081C17.5827 14.1407 17.8125 14.2074 17.7905 15.1593C17.7642 16.2821 17.7841 17.4056 17.7841 18.5292V18.8697H18.1118C22.3123 18.8697 26.5131 18.8713 30.7141 18.8746C30.8064 18.8771 30.8982 18.8593 30.983 18.8225C31.0678 18.7858 31.1435 18.7309 31.2049 18.6618C32.9072 16.9491 34.615 15.2392 36.3282 13.5321C37.0425 12.8186 37.7468 12.8228 38.4661 13.5399C38.8335 13.9066 39.2037 14.2712 39.5662 14.6422C40.1712 15.2607 40.1741 15.9998 39.5662 16.619C38.9179 17.2787 38.2611 17.9305 37.605 18.5824C37.5256 18.6499 37.4409 18.7108 37.3517 18.7647L37.3993 18.8562C37.495 18.8604 37.5915 18.8682 37.6872 18.8682H40.3493C40.8685 18.8682 41.0082 19.0101 41.0089 19.5201V27.9459C41.2423 27.7168 41.4345 27.5317 41.6204 27.3445C41.8062 27.1572 41.98 26.9834 42.1616 26.8047C42.4907 26.4791 42.7006 26.4883 42.9992 26.8416V41.6852ZM14.8589 33.4048C14.9604 33.3175 15.0299 33.2629 15.0973 33.1984C15.5254 32.7952 16.0595 32.5223 16.6372 32.4117C16.8748 32.3699 16.9209 32.2699 16.9152 32.0571C16.9062 31.2835 16.9062 30.5094 16.9152 29.7348C16.9195 29.4291 17.1053 29.2383 17.3472 29.2383C17.589 29.2383 17.7728 29.4291 17.7784 29.7107C17.7874 30.7108 17.7874 31.7114 17.7784 32.7125C17.7749 33.0189 17.599 33.165 17.2911 33.1891C17.1314 33.1982 16.9725 33.2174 16.8152 33.2466C15.4959 33.5204 14.4745 34.973 15.0164 36.3824C15.364 37.2903 16.2442 37.8925 17.3259 37.8933C21.8376 37.897 26.3495 37.8954 30.8616 37.8883C30.9965 37.8816 31.1249 37.8282 31.2248 37.7372C31.7284 37.2535 32.2178 36.7534 32.7143 36.2611C32.9732 36.0044 33.2108 35.9774 33.4059 36.1682C33.6009 36.359 33.5754 36.6052 33.3307 36.8626C33.2846 36.9102 33.2371 36.9563 33.1888 37.0045C31.922 38.2704 30.6533 39.5379 29.3827 40.8071C29.3118 40.878 29.2508 40.9489 29.1649 41.0468H42.1275V39.0438C41.8906 39.0438 41.675 39.0487 41.4593 39.0438C41.1196 39.0331 40.9408 38.8792 40.943 38.6104C40.9451 38.3415 41.1373 38.1883 41.4679 38.1848C41.6899 38.1798 41.9119 38.1848 42.1495 38.1848V36.9158C41.8743 36.9158 41.6381 36.9265 41.404 36.9158C41.0884 36.8967 40.9139 36.6988 40.9515 36.4243C40.9891 36.1498 41.1934 36.0604 41.4374 36.0505C41.6686 36.0405 41.8998 36.0505 42.1325 36.0505V34.778C41.8906 34.778 41.6658 34.778 41.4416 34.778C41.1324 34.773 40.9451 34.6141 40.9451 34.3588C40.9451 34.1034 41.1231 33.9332 41.431 33.9289C41.6636 33.9247 41.897 33.9289 42.1311 33.9289V32.6451C41.8941 32.6451 41.6778 32.6501 41.4622 32.6451C41.1217 32.6352 40.9437 32.4834 40.9458 32.2138C40.9479 31.9443 41.1402 31.7883 41.47 31.7883C41.692 31.784 41.914 31.7883 42.1289 31.7883V28.119L42.058 28.0722C41.9963 28.1674 41.9278 28.2579 41.853 28.3432C39.8726 30.3292 37.8911 32.3127 35.9083 34.2935C35.5075 34.6943 35.111 35.0986 34.7025 35.4937C34.5025 35.6887 34.2351 35.7001 34.0641 35.5412C33.8825 35.3688 33.8932 35.1078 34.0925 34.8858C34.1428 34.8298 34.1982 34.778 34.2514 34.7248C36.1476 32.8286 38.044 30.9335 39.9407 29.0397C40.006 28.9808 40.0576 28.9083 40.0918 28.8273C40.126 28.7462 40.1419 28.6587 40.1386 28.5708C40.1339 25.7383 40.1325 22.9061 40.1344 20.0741C40.1344 19.9748 40.1244 19.8754 40.118 19.757H39.7797C38.7789 19.757 37.7787 19.7634 36.7779 19.752C36.6722 19.7464 36.5666 19.7642 36.4685 19.804C36.3704 19.8439 36.2823 19.9048 36.2105 19.9826C33.6201 22.585 31.0105 25.1697 28.4329 27.7849C27.8882 28.3375 27.3108 28.7602 26.5561 28.961C26.0596 29.0922 25.59 29.2979 25.1084 29.4702L25.119 29.5192H33.1534C33.2382 29.5149 33.3232 29.5149 33.408 29.5192C33.5181 29.5237 33.6222 29.5705 33.6988 29.6497C33.7754 29.7289 33.8186 29.8346 33.8194 29.9448C33.8182 30.0541 33.7749 30.1588 33.6986 30.2371C33.6223 30.3155 33.5187 30.3614 33.4094 30.3654C33.3066 30.3739 33.2023 30.3704 33.098 30.3704H24.858C23.8004 30.3704 22.7436 30.3704 21.686 30.3704C21.3675 30.3704 21.193 30.2171 21.1895 29.9561C21.1845 29.6837 21.3675 29.5234 21.6966 29.5199C22.0463 29.5163 22.396 29.5071 22.7443 29.5199C22.9457 29.5298 23.0394 29.466 23.1067 29.2688C23.5167 28.0762 23.9369 26.8872 24.3672 25.7017C24.4338 25.5171 24.5376 25.3481 24.6722 25.2052C25.229 24.6278 25.8028 24.066 26.3703 23.4986C26.4235 23.4454 26.4759 23.3901 26.5341 23.3425C26.7334 23.1808 26.9554 23.1829 27.1207 23.3425C27.286 23.5021 27.308 23.7532 27.1207 23.949C26.8036 24.2852 26.471 24.6072 26.144 24.9342C25.9128 25.164 25.6787 25.3917 25.4567 25.6102L27.3718 27.536L36.1339 18.7704L34.179 16.8219C34.1308 16.9059 34.0747 16.9853 34.0116 17.0588C32.1986 18.8765 30.3838 20.6928 28.567 22.5077C28.4905 22.5914 28.4067 22.668 28.3166 22.7368C28.1251 22.8687 27.9343 22.8389 27.7782 22.6786C27.7064 22.6145 27.6613 22.5258 27.652 22.4299C27.6427 22.3341 27.6697 22.2383 27.7279 22.1615C27.789 22.0777 27.8581 22 27.9343 21.9296C28.5812 21.2803 29.2283 20.6323 29.8757 19.9854C29.9374 19.9237 29.9934 19.8556 30.0743 19.7655H17.7841V20.1202C17.7841 22.6505 17.7841 25.1804 17.7841 27.7097C17.7873 27.8411 17.7727 27.9724 17.7408 28.0999C17.6855 28.2956 17.5373 28.3836 17.3337 28.3836C17.1301 28.3836 16.9897 28.2758 16.9478 28.0757C16.9225 27.9368 16.9113 27.7956 16.9145 27.6544C16.9145 23.6142 16.9145 19.5738 16.9145 15.5331V15.1387C16.7413 15.1843 16.5706 15.239 16.4031 15.3026C15.3618 15.7693 14.8575 16.5992 14.8554 17.7192C14.8469 22.8735 14.8469 28.0277 14.8554 33.182C14.849 33.2388 14.8547 33.3012 14.8589 33.4048ZM38.2093 16.7715C38.4774 16.4999 38.7484 16.2388 39.0037 15.9643C39.2165 15.7395 39.2165 15.5146 38.9945 15.2877C38.5831 14.8621 38.1618 14.4429 37.7369 14.0293C37.5567 13.8541 37.3305 13.7839 37.1304 13.9733C36.8332 14.257 36.563 14.567 36.292 14.8578L38.2093 16.7715ZM34.9295 16.192L36.8354 18.0993L37.5191 17.4312L35.6296 15.5083L34.9295 16.192ZM26.5362 28.0346L25.0006 26.4912C24.5147 27.5877 24.5147 27.5877 25.2474 28.2942C25.2609 28.307 25.2723 28.3283 25.2879 28.3325C25.368 28.3531 25.4602 28.4034 25.529 28.3822C25.8787 28.2736 26.2206 28.146 26.5362 28.0346Z" stroke="#00BAA4" stroke-width="0.6" mask="url(#path-2-outside-1_1839_2390)"/>
<path d="M37.144 38.909C36.4177 38.909 35.6914 38.909 34.9657 38.909C34.7409 38.909 34.5472 38.8643 34.4543 38.6401C34.3614 38.416 34.4664 38.2443 34.6246 38.0862C36.1193 36.5947 37.6124 35.1009 39.1038 33.6048C39.2641 33.4438 39.4407 33.3487 39.6592 33.436C39.8777 33.5232 39.9351 33.7197 39.9351 33.946C39.9351 35.4078 39.9351 36.8697 39.9351 38.3309C39.9351 38.7565 39.777 38.9061 39.3521 38.9068C38.6153 38.9083 37.8793 38.909 37.144 38.909ZM35.9956 38.0379H39.0457V34.9794L35.9956 38.0379Z" fill="#00BAA4"/>
</g>
<defs>
<clipPath id="clip0_1839_2390">
<rect width="29" height="28.9255" fill="white" transform="translate(14 13)"/>
</clipPath>
</defs>
</svg>
