<svg width="57" height="58" viewBox="0 0 57 58" fill="none" xmlns="http://www.w3.org/2000/svg">
<rect x="1" y="1.40137" width="55" height="55" rx="3" fill="white" stroke="#00BAA4" stroke-width="2"/>
<g clip-path="url(#clip0_1839_2389)">
<path d="M29.0123 17.4019H41.7367C42.5417 17.4019 42.999 17.8608 42.999 18.6655V39.1603C42.999 39.9306 42.5393 40.401 41.7774 40.4014C33.247 40.4014 24.7166 40.4014 16.1864 40.4014C15.4844 40.4014 15.0015 39.9106 15.0015 39.2004C15.0015 32.335 15.0015 25.4694 15.0015 18.6037C15.0015 17.8878 15.4901 17.4023 16.2076 17.4023L29.0123 17.4019ZM41.2758 38.8294V21.9524H16.7272V38.8277L41.2758 38.8294ZM41.2896 19.6845C41.2908 19.5124 41.2412 19.3438 41.1471 19.2C41.053 19.0562 40.9186 18.9436 40.7608 18.8765C40.6031 18.8093 40.4291 18.7907 40.2608 18.8228C40.0925 18.855 39.9374 18.9365 39.8152 19.0571C39.693 19.1777 39.6091 19.332 39.5741 19.5005C39.5391 19.669 39.5546 19.8441 39.6185 20.0038C39.6825 20.1634 39.7922 20.3004 39.9336 20.3975C40.0751 20.4946 40.242 20.5474 40.4133 20.5493C40.6436 20.5503 40.8649 20.4598 41.029 20.2976C41.1932 20.1354 41.2868 19.9146 41.2896 19.6833V19.6845ZM38.6998 19.687C38.7021 19.5725 38.6815 19.4588 38.6394 19.3525C38.5973 19.2462 38.5344 19.1494 38.4545 19.0678C38.3746 18.9862 38.2793 18.9214 38.1742 18.8774C38.0691 18.8333 37.9562 18.8108 37.8423 18.8111C37.6711 18.8096 37.5033 18.8591 37.3602 18.9534C37.217 19.0477 37.1049 19.1825 37.038 19.3408C36.9712 19.4992 36.9525 19.6738 36.9845 19.8428C37.0165 20.0118 37.0977 20.1674 37.2177 20.29C37.3378 20.4126 37.4913 20.4967 37.6589 20.5316C37.8266 20.5665 38.0007 20.5507 38.1594 20.4861C38.3181 20.4216 38.4541 20.3112 38.5503 20.1689C38.6465 20.0267 38.6986 19.8589 38.6998 19.687ZM34.3995 19.6821C34.3997 19.7963 34.4224 19.9094 34.4663 20.0149C34.5102 20.1203 34.5744 20.216 34.6551 20.2964C34.7359 20.3769 34.8317 20.4405 34.937 20.4837C35.0423 20.5269 35.1551 20.5488 35.2688 20.5481C35.3825 20.5476 35.495 20.5247 35.5999 20.4806C35.7047 20.4365 35.7999 20.3721 35.88 20.291C35.9601 20.21 36.0235 20.1139 36.0666 20.0082C36.1097 19.9025 36.1317 19.7893 36.1313 19.6751C36.1308 19.5609 36.108 19.4479 36.0641 19.3425C36.0202 19.2372 35.9561 19.1415 35.8754 19.0611C35.7947 18.9806 35.699 18.9169 35.5938 18.8736C35.4886 18.8303 35.376 18.8082 35.2623 18.8087C35.1484 18.8086 35.0356 18.8311 34.9305 18.8751C34.8253 18.919 34.7298 18.9834 34.6496 19.0646C34.5694 19.1458 34.506 19.2422 34.463 19.3482C34.4201 19.4542 34.3985 19.5676 34.3995 19.6821Z" fill="#00BAA4"/>
<path d="M27.2603 33.6391C27.5787 32.6937 27.8759 31.8122 28.1728 30.9302C28.583 29.7128 28.9919 28.495 29.3997 27.2767C29.4404 27.154 29.4884 27.0791 29.6322 27.0816C29.9885 27.0881 30.3452 27.0816 30.7365 27.0816C30.618 27.4391 30.5129 27.7599 30.405 28.0798C29.8044 29.8568 29.2005 31.633 28.606 33.4121C28.5511 33.5757 28.4713 33.6412 28.3063 33.6387C27.9716 33.6354 27.6365 33.6391 27.2603 33.6391Z" fill="#00BAA4"/>
<path d="M26.1886 28.3804C26.1886 28.7612 26.198 29.0991 26.1805 29.4358C26.1772 29.4988 26.0779 29.5851 26.005 29.6121C25.2183 29.9058 24.4279 30.1893 23.6388 30.4761C23.5956 30.492 23.5537 30.5117 23.4686 30.5468C23.7455 30.6442 23.9825 30.7289 24.2207 30.8107C24.8164 31.0152 25.4109 31.2231 26.0091 31.4194C26.139 31.4603 26.1988 31.5225 26.1964 31.6612C26.1915 31.997 26.1964 32.3329 26.1964 32.7068L24.4312 32.0044C23.8204 31.7614 23.2096 31.5135 22.5988 31.2783C22.4766 31.2308 22.4021 31.1695 22.4029 31.0328C22.405 30.6941 22.3981 30.3558 22.4107 30.0179C22.4156 29.9801 22.4292 29.944 22.4504 29.9124C22.4716 29.8808 22.4998 29.8546 22.5328 29.8359C23.7308 29.3527 24.9324 28.8782 26.1886 28.3804Z" fill="#00BAA4"/>
<path d="M31.8175 32.703C31.8175 32.3189 31.8106 31.9613 31.8256 31.605C31.8256 31.5576 31.9343 31.4983 32.0032 31.4729C32.7528 31.1964 33.5049 30.9256 34.2562 30.6547C34.3376 30.6249 34.419 30.5926 34.5449 30.5443C34.3091 30.4625 34.1141 30.3921 33.9178 30.325C33.2773 30.1054 32.6376 29.8832 31.995 29.6705C31.8684 29.6296 31.8024 29.5707 31.8053 29.4283C31.8118 29.0921 31.8053 28.755 31.8053 28.3823L33.7455 29.1522C34.2867 29.3674 34.8254 29.5891 35.3699 29.7949C35.5246 29.8534 35.6077 29.9323 35.6048 30.1C35.5991 30.4318 35.6024 30.764 35.5877 31.0949C35.5819 31.1295 35.5682 31.1623 35.5476 31.1907C35.527 31.2191 35.5002 31.2423 35.4692 31.2585C34.2712 31.7355 33.068 32.2088 31.8175 32.703Z" fill="#00BAA4"/>
</g>
<defs>
<clipPath id="clip0_1839_2389">
<rect width="28" height="23" fill="white" transform="translate(15 17.4014)"/>
</clipPath>
</defs>
</svg>
