<svg width="57" height="58" viewBox="0 0 57 58" fill="none" xmlns="http://www.w3.org/2000/svg">
<rect x="1" y="1.40137" width="55" height="55" rx="3" fill="white" stroke="#00BAA4" stroke-width="2"/>
<g clip-path="url(#clip0_1839_2406)">
<path d="M14 17.0214C14.1361 16.8312 14.2831 16.6486 14.4404 16.4743C14.8574 16.0544 15.2929 15.6475 15.7191 15.2392C16.0104 14.9622 16.2327 14.9315 16.5801 15.1312C17.8673 15.8704 19.1496 16.6159 20.4361 17.3551C20.5493 17.4126 20.643 17.5002 20.706 17.6075C20.769 17.7148 20.7985 17.8373 20.7913 17.9604C20.7863 18.3057 20.7806 18.6511 20.7955 18.9957C20.7989 19.1089 20.842 19.2176 20.9177 19.3042C23.1583 21.4766 25.4026 23.6452 27.6507 25.8099C27.6818 25.8363 27.7143 25.8612 27.7481 25.8844C27.8191 25.816 27.8901 25.7586 27.9555 25.6957C29.21 24.4888 30.465 23.2823 31.7205 22.0759C31.8626 21.9391 31.9102 21.827 31.8626 21.6259C31.1948 18.7297 33.0979 15.8219 36.1 15.1489C37.0779 14.9256 38.1 14.9572 39.0609 15.2406C39.6534 15.4129 39.7791 15.8615 39.3486 16.2855C38.6759 16.9482 37.9989 17.6095 37.3176 18.2613C37.1706 18.4015 37.1386 18.5499 37.1116 18.74C37.0257 19.3349 37.2217 19.7993 37.719 20.1528C37.7268 20.158 37.7336 20.1645 37.7389 20.172C38.109 20.7191 38.6375 20.9003 39.2861 20.7875C39.4194 20.7691 39.5447 20.7151 39.6477 20.6316C40.3396 19.9744 41.018 19.3048 41.7035 18.6415C42.2008 18.1628 42.6562 18.266 42.8359 18.9219C42.9294 19.2432 42.9784 19.575 42.9815 19.9087C42.9744 20.5769 43.0597 21.2464 42.8799 21.9125C42.3386 23.9189 40.4341 25.565 38.2958 25.8605C37.5668 25.9579 36.8259 25.9348 36.105 25.7921C36.0539 25.7853 36.0019 25.7888 35.9522 25.8023C35.9026 25.8159 35.8564 25.8392 35.8166 25.8707C34.769 26.8664 33.7271 27.8667 32.6909 28.8716C32.6574 28.9083 32.6261 28.9469 32.5971 28.9871L33.4027 29.7031C33.7465 29.4016 34.0598 28.9509 34.5706 29.3995C34.8547 29.6457 34.7667 29.9035 34.2665 30.4629C34.4086 30.5888 34.5507 30.716 34.6928 30.8425C37.0986 32.9666 39.503 35.0925 41.906 37.2203C42.1897 37.4847 42.4379 37.7822 42.6448 38.1059C42.9024 38.4796 43.0254 38.9243 42.995 39.3718C42.9581 39.91 43.0661 40.4571 42.8103 40.9782C42.296 42.0259 41.4713 42.6879 40.2842 42.9156C40.2414 42.9286 40.2002 42.946 40.1613 42.9676H39.1987C38.3388 42.7921 37.5602 42.355 36.9781 41.7209C34.7489 39.3635 32.4977 37.0254 30.2578 34.677C30.2053 34.6055 30.1625 34.5278 30.1307 34.4458C29.4835 34.9929 29.2484 35.0483 28.9607 34.7877C28.673 34.5272 28.7319 34.3049 29.2754 33.6573L28.5316 32.8763C27.4454 33.922 26.3756 34.9464 25.3164 35.9811C25.2822 36.0251 25.2579 36.0755 25.245 36.1291C25.2322 36.1827 25.2311 36.2383 25.2418 36.2923C25.3782 36.9283 25.4343 37.5643 25.3306 38.2105C25.0209 40.1439 23.9653 41.5697 22.141 42.4198C21.567 42.6872 20.9085 42.787 20.289 42.9669H19.0998C18.7816 42.8985 18.4662 42.8034 18.1444 42.7583C17.4887 42.666 17.2841 42.0819 17.8425 41.5957C18.5479 40.9802 19.2064 40.3141 19.8777 39.6638C19.9633 39.5849 20.0195 39.4811 20.0376 39.3683C20.1036 38.4793 20.0994 38.4793 19.4472 37.8536C19.4184 37.8298 19.3918 37.8037 19.3677 37.7756C19.0039 37.275 18.5152 37.0917 17.8851 37.1772C17.6975 37.2032 17.5548 37.2381 17.4191 37.3728C16.7357 38.0498 16.0461 38.7214 15.3504 39.3875C14.9242 39.7978 14.4397 39.6822 14.2905 39.1139C14.1662 38.6427 14.0966 38.1565 14.0064 37.6778V37.4043C14.0455 37.1198 14.0774 36.8332 14.125 36.5501C14.3232 35.3371 14.9642 34.2318 15.933 33.433C17.3843 32.2219 19.0629 31.7842 20.9539 32.1788C21.0237 32.1998 21.0984 32.2002 21.1684 32.18C21.2385 32.1598 21.3006 32.1198 21.3468 32.0652C21.7304 31.6775 22.1282 31.3041 22.5239 30.9259L25.3704 28.1904C25.2712 28.1266 25.1762 28.0567 25.0863 27.9812C23.1327 26.1005 21.1543 24.2417 19.2441 22.3207C18.6424 21.7162 18.047 21.3572 17.1711 21.5001C16.8238 21.5568 16.5965 21.3845 16.4181 21.0898C15.712 19.9326 14.9853 18.7872 14.2735 17.6335C14.1732 17.452 14.0831 17.2655 14.0036 17.0747L14 17.0214ZM37.8767 16.1467C37.3034 16.0496 36.792 16.1235 36.2897 16.2404C33.8602 16.808 32.2981 19.3178 33.0653 21.6943C33.1804 22.0506 33.0987 22.3098 32.8252 22.5724C31.6225 23.7138 30.4326 24.8675 29.2384 26.0171C26.7824 28.3805 24.3278 30.7461 21.8746 33.1136C21.6196 33.3605 21.3567 33.446 21.0101 33.3338C20.8035 33.2722 20.5917 33.2283 20.3771 33.2025C19.2324 33.0322 18.0635 33.2915 17.1117 33.9269C16.1599 34.5623 15.4979 35.5253 15.2624 36.6171C15.1702 37.0494 15.1498 37.4931 15.202 37.9315C15.7745 37.3844 16.3222 36.8749 16.8593 36.3518C16.941 36.2643 17.0415 36.1949 17.1539 36.1486C17.2663 36.1023 17.3878 36.0802 17.51 36.0837C17.9533 36.0926 18.3966 36.0939 18.8398 36.0837C18.9668 36.079 19.0932 36.1017 19.2098 36.1501C19.3264 36.1985 19.4304 36.2714 19.514 36.3634C19.8734 36.7238 20.2244 37.0972 20.6186 37.4186C21.0619 37.779 21.2139 38.1982 21.1941 38.7535C21.1408 40.2191 21.3582 39.7684 20.2855 40.8209L19.2696 41.818C19.3109 41.8317 19.3532 41.8427 19.3961 41.8508C19.48 41.8637 19.5647 41.8707 19.6497 41.872C20.4311 41.8576 21.1848 41.7099 21.8725 41.3345C23.7635 40.3025 24.6273 38.307 24.0399 36.2923C23.9326 35.923 24.0058 35.6611 24.2864 35.3916C27.9354 31.8911 31.5789 28.3849 35.217 24.8729C35.4799 24.6199 35.7406 24.5433 36.1043 24.6459C38.325 25.2689 40.5989 24.2527 41.5473 22.2209C41.8682 21.5423 41.9905 20.7922 41.901 20.0516C41.3327 20.5871 40.7786 21.1034 40.2331 21.6293C40.1538 21.7128 40.0568 21.779 39.9487 21.8235C39.8407 21.868 39.724 21.8897 39.6065 21.8872C39.1533 21.8803 38.7003 21.8803 38.2475 21.8872C38.125 21.8913 38.0032 21.8688 37.8909 21.8215C37.7786 21.7741 37.6788 21.7031 37.5989 21.6136C37.2388 21.2423 36.8886 20.8552 36.4943 20.5194C36.0794 20.1686 35.9501 19.7671 35.9672 19.2447C36.0162 17.7401 35.791 18.2189 36.8822 17.1206C37.199 16.8053 37.5243 16.4955 37.8767 16.1467ZM30.9114 33.7291C30.9262 33.7532 30.943 33.7761 30.9618 33.7975C33.3142 36.2558 35.6672 38.7139 38.0209 41.1717C38.2337 41.3989 38.4956 41.5785 38.7881 41.698C39.0807 41.8174 39.3969 41.8738 39.7145 41.8631C40.1656 41.8545 40.6038 41.7164 40.9728 41.4665C41.3419 41.2166 41.625 40.8663 41.7859 40.4605C42.1134 39.5988 41.8797 38.6824 41.1629 38.0512C38.7173 35.8874 36.2703 33.7252 33.8218 31.5647C33.6982 31.4559 33.5732 31.3492 33.4801 31.2685L30.9114 33.7291ZM26.9617 26.6278C26.8692 26.5721 26.7811 26.5099 26.6981 26.4418C24.4722 24.2989 22.2449 22.155 20.0162 20.0099C19.747 19.7528 19.6156 19.484 19.6376 19.1209C19.6561 18.8145 19.7371 18.4459 19.5964 18.2141C19.4494 17.9713 19.0736 17.8537 18.7922 17.6902C17.9632 17.2115 17.1314 16.7328 16.2796 16.2397C15.9955 16.5201 15.7113 16.7868 15.4485 17.0693C15.4219 17.1096 15.4059 17.1557 15.4019 17.2033C15.398 17.251 15.4061 17.2989 15.4257 17.3428C16.021 18.3198 16.6253 19.2921 17.2386 20.2595C17.2698 20.2996 17.3092 20.3331 17.3545 20.3578C17.3997 20.3825 17.4498 20.3979 17.5015 20.4031C17.7931 20.4209 18.0856 20.4223 18.3774 20.4073C18.7027 20.3908 18.9507 20.503 19.1801 20.7259C21.4136 22.8893 23.6503 25.0494 25.8904 27.2063C25.966 27.2898 26.0351 27.3785 26.0971 27.4717C26.3934 27.1769 26.647 26.9328 26.9617 26.6278ZM31.8008 29.7838L29.3663 32.1261L30.0483 32.8373L32.5481 30.4397L31.8008 29.7838Z" fill="#00BAA4"/>
<path d="M25.1225 32.9399C24.5847 32.9446 24.3077 32.5193 24.503 32.1561C24.5489 32.0769 24.6066 32.0045 24.6742 31.9414C26.9877 29.7124 29.3019 27.4839 31.6168 25.2559C31.8129 25.0671 32.0338 24.9693 32.3045 25.0603C32.3795 25.0875 32.4475 25.1299 32.5039 25.1847C32.5602 25.2396 32.6037 25.3054 32.6312 25.3779C32.6587 25.4503 32.6696 25.5277 32.6633 25.6046C32.6569 25.6815 32.6334 25.7561 32.5943 25.8235C32.5407 25.9089 32.4755 25.9871 32.4004 26.056C30.1068 28.2658 27.8113 30.4736 25.5139 32.6793C25.3937 32.7796 25.2624 32.867 25.1225 32.9399Z" fill="#00BAA4"/>
<path d="M34.2702 24.0255C34.2689 24.1671 34.2108 24.3027 34.1078 24.4039C34.0049 24.505 33.8652 24.5638 33.7182 24.5678C33.5665 24.5686 33.4207 24.5114 33.3127 24.4089C33.2048 24.3063 33.1434 24.1668 33.1421 24.0207C33.1449 23.8742 33.2075 23.7347 33.3164 23.6323C33.4253 23.5299 33.5717 23.4729 33.7239 23.4736C33.8709 23.4811 34.0094 23.5425 34.1109 23.6451C34.2125 23.7477 34.2695 23.8838 34.2702 24.0255Z" fill="#00BAA4"/>
<path d="M23.9631 33.9407C23.9605 34.0859 23.899 34.2245 23.7917 34.3267C23.6845 34.4289 23.54 34.4867 23.3891 34.4878C23.2424 34.4831 23.1033 34.4244 23.0002 34.3239C22.8971 34.2234 22.838 34.0887 22.835 33.9475C22.835 33.8754 22.8498 33.8039 22.8786 33.7373C22.9073 33.6707 22.9495 33.6103 23.0027 33.5594C23.0558 33.5086 23.1189 33.4684 23.1882 33.4411C23.2576 33.4138 23.3319 33.4 23.4068 33.4004C23.5538 33.4047 23.6934 33.4632 23.7969 33.5637C23.9004 33.6642 23.9599 33.7992 23.9631 33.9407Z" fill="#00BAA4"/>
<path d="M34.2639 33.858C34.335 33.8969 34.4991 33.9523 34.612 34.0631C36.2866 35.6588 37.9565 37.2602 39.6217 38.8673C39.8923 39.1279 39.9058 39.4698 39.6714 39.688C39.4284 39.9198 39.1031 39.9109 38.8189 39.6374C37.1524 38.0462 35.4884 36.4521 33.827 34.855C33.6338 34.6697 33.5244 34.4557 33.6388 34.1931C33.7333 33.9715 33.913 33.8552 34.2639 33.858Z" fill="#00BAA4"/>
</g>
<defs>
<clipPath id="clip0_1839_2406">
<rect width="29" height="27.9643" fill="white" transform="translate(14 15)"/>
</clipPath>
</defs>
</svg>
