<svg width="57" height="58" viewBox="0 0 57 58" fill="none" xmlns="http://www.w3.org/2000/svg">
<rect x="1" y="1.40112" width="55" height="55" rx="3" fill="white" stroke="#00BAA4" stroke-width="2"/>
<mask id="path-2-outside-1_1839_2380" maskUnits="userSpaceOnUse" x="17.0015" y="14.0022" width="26" height="29" fill="black">
<rect fill="white" x="17.0015" y="14.0022" width="26" height="29"/>
<path d="M19.0236 42.5556C18.8527 42.4782 18.6874 42.389 18.529 42.2889C18.183 42.0409 18.0279 41.685 18.0031 41.271C17.9994 41.2084 18.0031 41.1452 18.0031 41.0826C18.0031 33.9419 18.0031 26.8026 18.0031 19.6648C18.0031 19.2953 18.0759 18.9531 18.3229 18.6634C18.6237 18.3154 19.0171 18.1925 19.4658 18.1932C20.7318 18.1932 21.9979 18.1932 23.2639 18.1932C23.4402 18.1932 23.5443 18.1688 23.6281 17.9733C23.9108 17.2939 24.4498 16.9474 25.1935 16.9158C25.4303 16.9058 25.667 16.9115 25.9038 16.9158C26.1223 16.9158 26.2345 16.8317 26.2491 16.5995C26.3102 15.665 27.0256 15.0065 27.9682 15.0022C28.296 15.0022 28.6238 15.0022 28.9516 15.0022C29.3648 15.0021 29.7635 15.1521 30.0718 15.4237C30.38 15.6952 30.5761 16.0693 30.6226 16.4744C30.6758 16.9058 30.6853 16.9144 31.1267 16.9151C31.3176 16.9151 31.5091 16.9101 31.7 16.9187C32.4583 16.9532 32.9879 17.3234 33.2734 18.0092C33.3412 18.1724 33.4315 18.1954 33.5794 18.1954C34.8634 18.1916 36.1476 18.1916 37.4321 18.1954C38.1671 18.1954 38.6705 18.5642 38.83 19.2018C38.8544 19.3065 38.8662 19.4136 38.865 19.521C38.865 20.5696 38.865 21.6189 38.865 22.6689C38.865 23.0039 38.7149 23.1843 38.4461 23.18C38.1773 23.1757 38.0469 23.0032 38.0469 22.6768C38.0469 21.6812 38.0469 20.6855 38.0469 19.6899C38.0469 19.1709 37.8954 19.0235 37.3636 19.0221H36.9149V19.3549C36.9149 21.2292 36.9149 23.1038 36.9149 24.9786C36.9149 25.3855 36.7794 25.5868 36.507 25.5896C36.2345 25.5925 36.0859 25.3826 36.0859 24.9865V19.0451H33.4184C33.4118 19.1012 33.4002 19.1687 33.3973 19.2363C33.3754 19.8754 32.9602 20.2887 32.3104 20.3067C31.9098 20.3175 31.5091 20.3067 31.1085 20.3067H24.771C23.8969 20.3067 23.5582 19.9947 23.4919 19.1299C23.4858 19.0986 23.477 19.0678 23.4657 19.0379H20.7908V39.159C20.7908 39.54 20.8061 39.5558 21.1878 39.5558C22.982 39.5558 24.7761 39.5558 26.5703 39.5594C26.7568 39.5594 26.8711 39.517 26.9454 39.3372C27.7089 37.4905 28.9122 35.9269 30.1783 34.3929C33.1234 30.8345 36.0189 27.2373 38.9327 23.6545C39.5155 22.9356 40.3306 22.7199 41.0838 23.0887C42.0694 23.5725 42.3105 24.7795 41.5937 25.6709C40.7786 26.6823 39.9547 27.6837 39.1345 28.6937C36.4242 32.024 33.7122 35.3528 30.9985 38.6802C30.7902 38.9354 30.5097 39.1324 30.262 39.3552C30.2045 39.407 30.1448 39.4551 30.0435 39.5392C30.1841 39.5464 30.2708 39.555 30.3575 39.555H35.6853C36.0859 39.555 36.0867 39.5551 36.0867 39.1446C36.0867 37.2698 36.0823 35.3957 36.094 33.5209C36.095 33.3472 36.1591 33.1796 36.2746 33.0486C36.4844 32.8452 36.8472 32.999 36.9011 33.2901C36.9148 33.388 36.9194 33.4869 36.9149 33.5856C36.9149 35.4513 36.9149 37.3167 36.9149 39.182C36.9149 40.0266 36.5456 40.3853 35.6766 40.3853C33.5269 40.3853 31.3787 40.3817 29.2284 40.3918C29.0725 40.3918 28.9057 40.4723 28.7644 40.5507C28.6204 40.645 28.4847 40.751 28.3586 40.8677C27.6346 41.4514 26.9403 41.2695 26.5922 40.3853H21.1405C20.3611 40.3853 19.9604 39.9936 19.9604 39.2301V19.03C19.7055 19.03 19.4709 19.0127 19.24 19.035C19.0091 19.0573 18.8845 19.2047 18.8568 19.4268C18.8477 19.525 18.8448 19.6237 18.8481 19.7223C18.8481 26.8256 18.8481 33.929 18.8481 41.0323C18.8481 41.6146 18.9814 41.7469 19.5649 41.7469H37.3207C37.8939 41.7469 38.0411 41.5995 38.0411 41.028V31.1795C38.0411 30.7676 38.1715 30.5714 38.4468 30.5699C38.7222 30.5685 38.8606 30.7669 38.8606 31.1738C38.8606 34.4382 38.8475 37.7033 38.8701 40.9676C38.8759 41.7584 38.5903 42.2932 37.8233 42.5563L19.0236 42.5556ZM37.9121 26.2115L29.1453 36.9858L30.4704 38.0267L39.2357 27.2538L37.9121 26.2115ZM28.4497 19.4807C29.7065 19.4807 30.9633 19.4807 32.2201 19.4807C32.4022 19.4807 32.5574 19.4584 32.5581 19.2349C32.5677 18.9843 32.5609 18.7334 32.5377 18.4837C32.4809 18.038 32.1349 17.7475 31.6811 17.7375C31.4348 17.7324 31.1894 17.7375 30.9431 17.7375C30.2875 17.7281 29.8505 17.3227 29.8002 16.6779C29.7565 16.133 29.4141 15.8152 28.8591 15.808C28.5764 15.808 28.2945 15.808 28.0119 15.808C27.4503 15.8152 27.097 16.1495 27.0576 16.7038C27.0146 17.3191 26.5871 17.7231 25.9562 17.7368C25.7013 17.7425 25.4463 17.7368 25.1914 17.7368C25.0773 17.736 24.9641 17.7574 24.8585 17.7998C24.7528 17.8423 24.6566 17.9048 24.5754 17.9839C24.4942 18.063 24.4296 18.1572 24.3853 18.2609C24.341 18.3647 24.3179 18.476 24.3172 18.5886C24.3121 18.7683 24.3172 18.9481 24.3172 19.127C24.3172 19.452 24.3434 19.4779 24.6814 19.4779C25.9368 19.4807 27.1929 19.4817 28.4497 19.4807ZM38.4293 25.5731L39.7551 26.6169C40.1922 26.0749 40.6292 25.5609 41.035 25.0225C41.2972 24.6724 41.1931 24.1814 40.8485 23.9147C40.6824 23.7848 40.4724 23.7224 40.2613 23.74C40.0501 23.7576 39.8538 23.854 39.7121 24.0096C39.278 24.5142 38.8664 25.039 38.4308 25.5731H38.4293ZM28.701 37.681C28.2909 38.4911 27.8917 39.2711 27.5034 40.0532C27.4634 40.1345 27.4896 40.2466 27.4852 40.3408C27.5879 40.3142 27.7132 40.3163 27.7897 40.2574C28.3462 39.8261 28.894 39.3825 29.444 38.9426C29.5824 38.8319 29.7179 38.719 29.8709 38.5946L28.701 37.681Z"/>
</mask>
<path d="M19.0236 42.5556C18.8527 42.4782 18.6874 42.389 18.529 42.2889C18.183 42.0409 18.0279 41.685 18.0031 41.271C17.9994 41.2084 18.0031 41.1452 18.0031 41.0826C18.0031 33.9419 18.0031 26.8026 18.0031 19.6648C18.0031 19.2953 18.0759 18.9531 18.3229 18.6634C18.6237 18.3154 19.0171 18.1925 19.4658 18.1932C20.7318 18.1932 21.9979 18.1932 23.2639 18.1932C23.4402 18.1932 23.5443 18.1688 23.6281 17.9733C23.9108 17.2939 24.4498 16.9474 25.1935 16.9158C25.4303 16.9058 25.667 16.9115 25.9038 16.9158C26.1223 16.9158 26.2345 16.8317 26.2491 16.5995C26.3102 15.665 27.0256 15.0065 27.9682 15.0022C28.296 15.0022 28.6238 15.0022 28.9516 15.0022C29.3648 15.0021 29.7635 15.1521 30.0718 15.4237C30.38 15.6952 30.5761 16.0693 30.6226 16.4744C30.6758 16.9058 30.6853 16.9144 31.1267 16.9151C31.3176 16.9151 31.5091 16.9101 31.7 16.9187C32.4583 16.9532 32.9879 17.3234 33.2734 18.0092C33.3412 18.1724 33.4315 18.1954 33.5794 18.1954C34.8634 18.1916 36.1476 18.1916 37.4321 18.1954C38.1671 18.1954 38.6705 18.5642 38.83 19.2018C38.8544 19.3065 38.8662 19.4136 38.865 19.521C38.865 20.5696 38.865 21.6189 38.865 22.6689C38.865 23.0039 38.7149 23.1843 38.4461 23.18C38.1773 23.1757 38.0469 23.0032 38.0469 22.6768C38.0469 21.6812 38.0469 20.6855 38.0469 19.6899C38.0469 19.1709 37.8954 19.0235 37.3636 19.0221H36.9149V19.3549C36.9149 21.2292 36.9149 23.1038 36.9149 24.9786C36.9149 25.3855 36.7794 25.5868 36.507 25.5896C36.2345 25.5925 36.0859 25.3826 36.0859 24.9865V19.0451H33.4184C33.4118 19.1012 33.4002 19.1687 33.3973 19.2363C33.3754 19.8754 32.9602 20.2887 32.3104 20.3067C31.9098 20.3175 31.5091 20.3067 31.1085 20.3067H24.771C23.8969 20.3067 23.5582 19.9947 23.4919 19.1299C23.4858 19.0986 23.477 19.0678 23.4657 19.0379H20.7908V39.159C20.7908 39.54 20.8061 39.5558 21.1878 39.5558C22.982 39.5558 24.7761 39.5558 26.5703 39.5594C26.7568 39.5594 26.8711 39.517 26.9454 39.3372C27.7089 37.4905 28.9122 35.9269 30.1783 34.3929C33.1234 30.8345 36.0189 27.2373 38.9327 23.6545C39.5155 22.9356 40.3306 22.7199 41.0838 23.0887C42.0694 23.5725 42.3105 24.7795 41.5937 25.6709C40.7786 26.6823 39.9547 27.6837 39.1345 28.6937C36.4242 32.024 33.7122 35.3528 30.9985 38.6802C30.7902 38.9354 30.5097 39.1324 30.262 39.3552C30.2045 39.407 30.1448 39.4551 30.0435 39.5392C30.1841 39.5464 30.2708 39.555 30.3575 39.555H35.6853C36.0859 39.555 36.0867 39.5551 36.0867 39.1446C36.0867 37.2698 36.0823 35.3957 36.094 33.5209C36.095 33.3472 36.1591 33.1796 36.2746 33.0486C36.4844 32.8452 36.8472 32.999 36.9011 33.2901C36.9148 33.388 36.9194 33.4869 36.9149 33.5856C36.9149 35.4513 36.9149 37.3167 36.9149 39.182C36.9149 40.0266 36.5456 40.3853 35.6766 40.3853C33.5269 40.3853 31.3787 40.3817 29.2284 40.3918C29.0725 40.3918 28.9057 40.4723 28.7644 40.5507C28.6204 40.645 28.4847 40.751 28.3586 40.8677C27.6346 41.4514 26.9403 41.2695 26.5922 40.3853H21.1405C20.3611 40.3853 19.9604 39.9936 19.9604 39.2301V19.03C19.7055 19.03 19.4709 19.0127 19.24 19.035C19.0091 19.0573 18.8845 19.2047 18.8568 19.4268C18.8477 19.525 18.8448 19.6237 18.8481 19.7223C18.8481 26.8256 18.8481 33.929 18.8481 41.0323C18.8481 41.6146 18.9814 41.7469 19.5649 41.7469H37.3207C37.8939 41.7469 38.0411 41.5995 38.0411 41.028V31.1795C38.0411 30.7676 38.1715 30.5714 38.4468 30.5699C38.7222 30.5685 38.8606 30.7669 38.8606 31.1738C38.8606 34.4382 38.8475 37.7033 38.8701 40.9676C38.8759 41.7584 38.5903 42.2932 37.8233 42.5563L19.0236 42.5556ZM37.9121 26.2115L29.1453 36.9858L30.4704 38.0267L39.2357 27.2538L37.9121 26.2115ZM28.4497 19.4807C29.7065 19.4807 30.9633 19.4807 32.2201 19.4807C32.4022 19.4807 32.5574 19.4584 32.5581 19.2349C32.5677 18.9843 32.5609 18.7334 32.5377 18.4837C32.4809 18.038 32.1349 17.7475 31.6811 17.7375C31.4348 17.7324 31.1894 17.7375 30.9431 17.7375C30.2875 17.7281 29.8505 17.3227 29.8002 16.6779C29.7565 16.133 29.4141 15.8152 28.8591 15.808C28.5764 15.808 28.2945 15.808 28.0119 15.808C27.4503 15.8152 27.097 16.1495 27.0576 16.7038C27.0146 17.3191 26.5871 17.7231 25.9562 17.7368C25.7013 17.7425 25.4463 17.7368 25.1914 17.7368C25.0773 17.736 24.9641 17.7574 24.8585 17.7998C24.7528 17.8423 24.6566 17.9048 24.5754 17.9839C24.4942 18.063 24.4296 18.1572 24.3853 18.2609C24.341 18.3647 24.3179 18.476 24.3172 18.5886C24.3121 18.7683 24.3172 18.9481 24.3172 19.127C24.3172 19.452 24.3434 19.4779 24.6814 19.4779C25.9368 19.4807 27.1929 19.4817 28.4497 19.4807ZM38.4293 25.5731L39.7551 26.6169C40.1922 26.0749 40.6292 25.5609 41.035 25.0225C41.2972 24.6724 41.1931 24.1814 40.8485 23.9147C40.6824 23.7848 40.4724 23.7224 40.2613 23.74C40.0501 23.7576 39.8538 23.854 39.7121 24.0096C39.278 24.5142 38.8664 25.039 38.4308 25.5731H38.4293ZM28.701 37.681C28.2909 38.4911 27.8917 39.2711 27.5034 40.0532C27.4634 40.1345 27.4896 40.2466 27.4852 40.3408C27.5879 40.3142 27.7132 40.3163 27.7897 40.2574C28.3462 39.8261 28.894 39.3825 29.444 38.9426C29.5824 38.8319 29.7179 38.719 29.8709 38.5946L28.701 37.681Z" fill="#00BAA4"/>
<path d="M19.0236 42.5556C18.8527 42.4782 18.6874 42.389 18.529 42.2889C18.183 42.0409 18.0279 41.685 18.0031 41.271C17.9994 41.2084 18.0031 41.1452 18.0031 41.0826C18.0031 33.9419 18.0031 26.8026 18.0031 19.6648C18.0031 19.2953 18.0759 18.9531 18.3229 18.6634C18.6237 18.3154 19.0171 18.1925 19.4658 18.1932C20.7318 18.1932 21.9979 18.1932 23.2639 18.1932C23.4402 18.1932 23.5443 18.1688 23.6281 17.9733C23.9108 17.2939 24.4498 16.9474 25.1935 16.9158C25.4303 16.9058 25.667 16.9115 25.9038 16.9158C26.1223 16.9158 26.2345 16.8317 26.2491 16.5995C26.3102 15.665 27.0256 15.0065 27.9682 15.0022C28.296 15.0022 28.6238 15.0022 28.9516 15.0022C29.3648 15.0021 29.7635 15.1521 30.0718 15.4237C30.38 15.6952 30.5761 16.0693 30.6226 16.4744C30.6758 16.9058 30.6853 16.9144 31.1267 16.9151C31.3176 16.9151 31.5091 16.9101 31.7 16.9187C32.4583 16.9532 32.9879 17.3234 33.2734 18.0092C33.3412 18.1724 33.4315 18.1954 33.5794 18.1954C34.8634 18.1916 36.1476 18.1916 37.4321 18.1954C38.1671 18.1954 38.6705 18.5642 38.83 19.2018C38.8544 19.3065 38.8662 19.4136 38.865 19.521C38.865 20.5696 38.865 21.6189 38.865 22.6689C38.865 23.0039 38.7149 23.1843 38.4461 23.18C38.1773 23.1757 38.0469 23.0032 38.0469 22.6768C38.0469 21.6812 38.0469 20.6855 38.0469 19.6899C38.0469 19.1709 37.8954 19.0235 37.3636 19.0221H36.9149V19.3549C36.9149 21.2292 36.9149 23.1038 36.9149 24.9786C36.9149 25.3855 36.7794 25.5868 36.507 25.5896C36.2345 25.5925 36.0859 25.3826 36.0859 24.9865V19.0451H33.4184C33.4118 19.1012 33.4002 19.1687 33.3973 19.2363C33.3754 19.8754 32.9602 20.2887 32.3104 20.3067C31.9098 20.3175 31.5091 20.3067 31.1085 20.3067H24.771C23.8969 20.3067 23.5582 19.9947 23.4919 19.1299C23.4858 19.0986 23.477 19.0678 23.4657 19.0379H20.7908V39.159C20.7908 39.54 20.8061 39.5558 21.1878 39.5558C22.982 39.5558 24.7761 39.5558 26.5703 39.5594C26.7568 39.5594 26.8711 39.517 26.9454 39.3372C27.7089 37.4905 28.9122 35.9269 30.1783 34.3929C33.1234 30.8345 36.0189 27.2373 38.9327 23.6545C39.5155 22.9356 40.3306 22.7199 41.0838 23.0887C42.0694 23.5725 42.3105 24.7795 41.5937 25.6709C40.7786 26.6823 39.9547 27.6837 39.1345 28.6937C36.4242 32.024 33.7122 35.3528 30.9985 38.6802C30.7902 38.9354 30.5097 39.1324 30.262 39.3552C30.2045 39.407 30.1448 39.4551 30.0435 39.5392C30.1841 39.5464 30.2708 39.555 30.3575 39.555H35.6853C36.0859 39.555 36.0867 39.5551 36.0867 39.1446C36.0867 37.2698 36.0823 35.3957 36.094 33.5209C36.095 33.3472 36.1591 33.1796 36.2746 33.0486C36.4844 32.8452 36.8472 32.999 36.9011 33.2901C36.9148 33.388 36.9194 33.4869 36.9149 33.5856C36.9149 35.4513 36.9149 37.3167 36.9149 39.182C36.9149 40.0266 36.5456 40.3853 35.6766 40.3853C33.5269 40.3853 31.3787 40.3817 29.2284 40.3918C29.0725 40.3918 28.9057 40.4723 28.7644 40.5507C28.6204 40.645 28.4847 40.751 28.3586 40.8677C27.6346 41.4514 26.9403 41.2695 26.5922 40.3853H21.1405C20.3611 40.3853 19.9604 39.9936 19.9604 39.2301V19.03C19.7055 19.03 19.4709 19.0127 19.24 19.035C19.0091 19.0573 18.8845 19.2047 18.8568 19.4268C18.8477 19.525 18.8448 19.6237 18.8481 19.7223C18.8481 26.8256 18.8481 33.929 18.8481 41.0323C18.8481 41.6146 18.9814 41.7469 19.5649 41.7469H37.3207C37.8939 41.7469 38.0411 41.5995 38.0411 41.028V31.1795C38.0411 30.7676 38.1715 30.5714 38.4468 30.5699C38.7222 30.5685 38.8606 30.7669 38.8606 31.1738C38.8606 34.4382 38.8475 37.7033 38.8701 40.9676C38.8759 41.7584 38.5903 42.2932 37.8233 42.5563L19.0236 42.5556ZM37.9121 26.2115L29.1453 36.9858L30.4704 38.0267L39.2357 27.2538L37.9121 26.2115ZM28.4497 19.4807C29.7065 19.4807 30.9633 19.4807 32.2201 19.4807C32.4022 19.4807 32.5574 19.4584 32.5581 19.2349C32.5677 18.9843 32.5609 18.7334 32.5377 18.4837C32.4809 18.038 32.1349 17.7475 31.6811 17.7375C31.4348 17.7324 31.1894 17.7375 30.9431 17.7375C30.2875 17.7281 29.8505 17.3227 29.8002 16.6779C29.7565 16.133 29.4141 15.8152 28.8591 15.808C28.5764 15.808 28.2945 15.808 28.0119 15.808C27.4503 15.8152 27.097 16.1495 27.0576 16.7038C27.0146 17.3191 26.5871 17.7231 25.9562 17.7368C25.7013 17.7425 25.4463 17.7368 25.1914 17.7368C25.0773 17.736 24.9641 17.7574 24.8585 17.7998C24.7528 17.8423 24.6566 17.9048 24.5754 17.9839C24.4942 18.063 24.4296 18.1572 24.3853 18.2609C24.341 18.3647 24.3179 18.476 24.3172 18.5886C24.3121 18.7683 24.3172 18.9481 24.3172 19.127C24.3172 19.452 24.3434 19.4779 24.6814 19.4779C25.9368 19.4807 27.1929 19.4817 28.4497 19.4807ZM38.4293 25.5731L39.7551 26.6169C40.1922 26.0749 40.6292 25.5609 41.035 25.0225C41.2972 24.6724 41.1931 24.1814 40.8485 23.9147C40.6824 23.7848 40.4724 23.7224 40.2613 23.74C40.0501 23.7576 39.8538 23.854 39.7121 24.0096C39.278 24.5142 38.8664 25.039 38.4308 25.5731H38.4293ZM28.701 37.681C28.2909 38.4911 27.8917 39.2711 27.5034 40.0532C27.4634 40.1345 27.4896 40.2466 27.4852 40.3408C27.5879 40.3142 27.7132 40.3163 27.7897 40.2574C28.3462 39.8261 28.894 39.3825 29.444 38.9426C29.5824 38.8319 29.7179 38.719 29.8709 38.5946L28.701 37.681Z" stroke="#00BAA4" stroke-width="0.6" mask="url(#path-2-outside-1_1839_2380)"/>
<path d="M30.9918 28.3651C31.9018 28.3651 32.8119 28.3651 33.722 28.3651C33.821 28.3651 33.95 28.3485 34.0133 28.4003C34.1335 28.5009 34.2931 28.6447 34.2945 28.7719C34.296 28.8992 34.1437 29.0537 34.0206 29.1479C33.9419 29.2083 33.7941 29.1918 33.6775 29.1918C31.8938 29.1918 30.1099 29.1918 28.3257 29.1918C28.2079 29.1945 28.0902 29.1814 27.976 29.1529C27.7866 29.1005 27.6985 28.9588 27.7014 28.7676C27.6959 28.681 27.7225 28.5954 27.776 28.5265C27.8296 28.4577 27.9066 28.4103 27.9928 28.3931C28.09 28.3715 28.1896 28.3621 28.2892 28.3651C29.1896 28.3641 30.0904 28.3641 30.9918 28.3651Z" fill="#00BAA4"/>
<path d="M31.024 22.5962C31.9336 22.5962 32.8436 22.5962 33.7542 22.5962C33.8518 22.5962 33.9837 22.5862 34.0412 22.6401C34.1548 22.7486 34.286 22.8917 34.3027 23.0333C34.3253 23.218 34.1869 23.3669 33.9771 23.3992C33.8779 23.4126 33.7778 23.4182 33.6777 23.4157H28.3266C28.2719 23.4157 28.2173 23.4157 28.1627 23.4157C27.8618 23.3992 27.6965 23.2482 27.7023 22.9974C27.7081 22.7465 27.8859 22.6027 28.1838 22.5962C28.43 22.5912 28.6755 22.5962 28.921 22.5962H31.024Z" fill="#00BAA4"/>
<path d="M31.0005 25.218C30.0725 25.218 29.1445 25.218 28.2157 25.218C27.8937 25.218 27.7058 25.0743 27.7007 24.8241C27.7007 24.6084 27.7976 24.4647 28.0176 24.4172C28.1162 24.401 28.2163 24.3945 28.3162 24.3978C30.0994 24.3978 31.8832 24.3978 33.6674 24.3978C34.1044 24.3978 34.312 24.5294 34.3149 24.8025C34.3179 25.0757 34.1015 25.2195 33.6768 25.2195L31.0005 25.218Z" fill="#00BAA4"/>
<path d="M24.0904 36.1051L25.2406 34.4877C25.2898 34.4132 25.3428 34.3412 25.3994 34.272C25.556 34.0902 25.776 34.0564 25.9581 34.1793C26.0024 34.2072 26.0406 34.2435 26.0705 34.2862C26.1004 34.3289 26.1213 34.377 26.1321 34.4277C26.1429 34.4785 26.1433 34.5308 26.1333 34.5817C26.1233 34.6326 26.1031 34.6811 26.0739 34.7242C25.6143 35.3891 25.1539 36.0555 24.6651 36.6996C24.4124 37.0318 23.9498 37.0526 23.6184 36.7837C23.3102 36.5329 23.0145 36.2676 22.7209 35.9995C22.5272 35.8226 22.5148 35.5681 22.6728 35.4035C22.8309 35.2389 23.0669 35.2324 23.2607 35.3927C23.5375 35.6199 23.8048 35.8578 24.0904 36.1051Z" fill="#00BAA4"/>
<path d="M24.0906 30.2889L25.2779 28.6182C25.3175 28.5583 25.3603 28.5004 25.4061 28.445C25.4715 28.363 25.5664 28.3091 25.671 28.2945C25.7757 28.2799 25.882 28.3057 25.9678 28.3666C26.0112 28.3958 26.0483 28.4333 26.0769 28.4768C26.1055 28.5203 26.1251 28.569 26.1345 28.62C26.144 28.671 26.143 28.7234 26.1318 28.774C26.1205 28.8247 26.0992 28.8726 26.069 28.9151C25.6138 29.5729 25.1585 30.2313 24.6762 30.8697C24.4169 31.2133 23.9478 31.237 23.6098 30.9574C23.309 30.7115 23.0198 30.4542 22.732 30.1918C22.5354 30.0128 22.5135 29.7662 22.6628 29.5959C22.8122 29.4255 23.0649 29.4097 23.2704 29.58C23.5421 29.8043 23.8036 30.0394 24.0906 30.2889Z" fill="#00BAA4"/>
<path d="M24.0898 24.3921L25.2517 22.7595C25.2991 22.6934 25.342 22.6244 25.3974 22.5625C25.5628 22.3677 25.7871 22.3354 25.9765 22.4741C26.0619 22.5361 26.1195 22.6286 26.1369 22.7318C26.1543 22.8351 26.1302 22.941 26.0698 23.0269C25.9088 23.2764 25.7296 23.5143 25.5598 23.7573C25.294 24.1318 25.0325 24.5092 24.7586 24.8795C24.4395 25.3108 23.9653 25.3661 23.5559 25.0175C23.2878 24.7889 23.0234 24.5545 22.7612 24.3195C22.5426 24.1246 22.5084 23.8881 22.6636 23.7055C22.8318 23.5093 23.0715 23.51 23.3097 23.7127C23.561 23.9291 23.8123 24.1505 24.0898 24.3921Z" fill="#00BAA4"/>
<path d="M29.5526 30.1674C30.0079 30.1674 30.4624 30.1674 30.917 30.1674C31.2316 30.1674 31.4232 30.3313 31.4196 30.575C31.4159 30.8187 31.2207 30.9775 30.9097 30.9782C30.0093 30.9782 29.1087 30.9782 28.2079 30.9782C27.8881 30.9782 27.7053 30.8309 27.698 30.58C27.6907 30.3291 27.867 30.1702 28.1875 30.1674C28.6428 30.1638 29.098 30.1674 29.5526 30.1674Z" fill="#00BAA4"/>
</svg>
