<svg width="53" height="53" viewBox="0 0 53 53" fill="none" xmlns="http://www.w3.org/2000/svg">
<circle cx="26.5" cy="26.5" r="26.5" fill="white"/>
<path d="M26 37.7778C27.65 37.7778 29.0625 37.1468 30.2375 35.8847C31.4125 34.6227 32 33.1056 32 31.3333V24.8889C32 23.1167 31.4125 21.5995 30.2375 20.3375C29.0625 19.0755 27.65 18.4444 26 18.4444C24.35 18.4444 22.9375 19.0755 21.7625 20.3375C20.5875 21.5995 20 23.1167 20 24.8889V31.3333C20 33.1056 20.5875 34.6227 21.7625 35.8847C22.9375 37.1468 24.35 37.7778 26 37.7778ZM23 32.9444H29V29.7222H23V32.9444ZM23 26.5H29V23.2778H23V26.5ZM26 41C24.375 41 22.8688 40.5704 21.4813 39.7111C20.0938 38.8519 19 37.6704 18.2 36.1667H14V32.9444H17.15C17.075 32.4074 17.0313 31.8704 17.0188 31.3333C17.0063 30.7963 17 30.2593 17 29.7222H14V26.5H17C17 25.963 17.0063 25.4259 17.0188 24.8889C17.0313 24.3519 17.075 23.8148 17.15 23.2778H14V20.0556H18.2C18.55 19.438 18.9438 18.8606 19.3813 18.3236C19.8188 17.7866 20.325 17.3167 20.9 16.9139L18.5 14.2556L20.6 12L23.825 15.4639C24.525 15.2222 25.2375 15.1014 25.9625 15.1014C26.6875 15.1014 27.4 15.2222 28.1 15.4639L31.4 12L33.5 14.2556L31.025 16.9139C31.6 17.3167 32.1188 17.7799 32.5813 18.3035C33.0438 18.8271 33.45 19.4111 33.8 20.0556H38V23.2778H34.85C34.925 23.8148 34.9688 24.3519 34.9813 24.8889C34.9938 25.4259 35 25.963 35 26.5H38V29.7222H35C35 30.2593 34.9938 30.7963 34.9813 31.3333C34.9688 31.8704 34.925 32.4074 34.85 32.9444H38V36.1667H33.8C33 37.6704 31.9063 38.8519 30.5188 39.7111C29.1313 40.5704 27.625 41 26 41Z" fill="#09B5AB"/>
</svg>
