<svg width="30" height="23" viewBox="0 0 30 23" fill="none" xmlns="http://www.w3.org/2000/svg">
<path d="M0 23V18.6875H3V2.875C3 2.08437 3.29375 1.40755 3.88125 0.844531C4.46875 0.28151 5.175 0 6 0H28.5V2.875H6V18.6875H15V23H0ZM19.5 23C19.075 23 18.7188 22.8622 18.4313 22.5867C18.1438 22.3112 18 21.9698 18 21.5625V7.1875C18 6.78021 18.1438 6.4388 18.4313 6.16328C18.7188 5.88776 19.075 5.75 19.5 5.75H28.5C28.925 5.75 29.2813 5.88776 29.5688 6.16328C29.8563 6.4388 30 6.78021 30 7.1875V21.5625C30 21.9698 29.8563 22.3112 29.5688 22.5867C29.2813 22.8622 28.925 23 28.5 23H19.5ZM21 18.6875H27V8.625H21V18.6875Z" fill="#09B5AB"/>
</svg>
