<?xml version="1.0" encoding="utf-8"?>
<!-- Generator: Adobe Illustrator 26.0.1, SVG Export Plug-In . SVG Version: 6.00 Build 0)  -->
<svg version="1.1" id="Layer_1" xmlns="http://www.w3.org/2000/svg" xmlns:xlink="http://www.w3.org/1999/xlink" x="0px" y="0px"
	 viewBox="0 0 52.84 37.15" style="enable-background:new 0 0 52.84 37.15;" xml:space="preserve">
<style type="text/css">
	.st0{fill:#A1A1A1;}
</style>
<g>
	<path class="st0" d="M52.84,33.23c-0.15,0.41-0.29,0.83-0.42,1.18c-5.32-5.28-10.63-10.55-15.95-15.83
		C41.78,13.33,47.1,8.06,52.43,2.78c0.11,0.3,0.26,0.72,0.41,1.14C52.84,13.69,52.84,23.46,52.84,33.23z"/>
	<path class="st0" d="M2.77,0.29c0.67-0.1,1.34-0.27,2-0.27C11.4-0.01,18.02,0,24.64,0c7.81,0,15.61,0,23.42,0
		c0.71,0,1.39,0.12,2.12,0.46c-0.8,0.79-1.55,1.51-2.29,2.25c-6.67,6.68-13.33,13.37-20,20.05c-0.95,0.95-1.98,0.96-2.92,0.01
		C17.66,15.44,10.35,8.11,3.04,0.78c-0.1-0.1-0.19-0.2-0.28-0.3C2.76,0.42,2.77,0.35,2.77,0.29z"/>
	<path class="st0" d="M34.15,20.86c5.33,5.28,10.63,10.55,16.07,15.94c-0.71,0.13-1.3,0.32-1.9,0.34c-1.87,0.04-3.75,0.02-5.62,0.02
		c-12.6,0-25.21,0-37.81-0.01c-0.7,0-1.41-0.17-2.21-0.28c5.44-5.39,10.75-10.66,16.06-15.92c1.31,1.3,2.74,2.72,4.17,4.13
		c1.55,1.53,3.7,1.95,5.59,1.03c0.57-0.28,1.1-0.71,1.56-1.15c1.29-1.24,2.53-2.53,3.8-3.79C33.97,21.03,34.09,20.91,34.15,20.86z"
		/>
	<path class="st0" d="M0.44,2.74C5.77,8.03,11.08,13.29,16.4,18.57C11.08,23.85,5.77,29.12,0.44,34.41
		c-0.27-0.48-0.43-1.09-0.44-1.74c0-1.74,0-3.47,0-5.21c0-7.58,0-15.17,0-22.75C0,3.98,0.14,3.31,0.44,2.74z"/>
</g>
<g>
	<path class="st0" d="M100,4.42c0,9.42,0,18.83,0,28.25c-0.02,0.08-0.06,0.16-0.07,0.24c-0.42,2.42-2.51,4.18-4.96,4.18
		c-9,0-18.01,0-27.01,0c-2.79,0-5.04-2.25-5.04-5.04c0-9,0-18.01,0-27.01c0-2.16,1.36-4.06,3.41-4.76C66.65,0.16,67,0.09,67.33,0
		c9.42,0,18.83,0,28.25,0c0.07,0.02,0.13,0.06,0.2,0.07c1.96,0.38,3.27,1.52,3.96,3.38C99.85,3.76,99.91,4.09,100,4.42z
		 M82.75,16.43c-0.03-0.01-0.06-0.01-0.09-0.02c0-0.33,0.01-0.66,0-0.99c-0.02-0.55-0.26-0.79-0.81-0.79c-1.06,0-2.12,0-3.19,0
		c-0.65,0-0.9,0.25-0.9,0.89c0,4.57,0,9.15,0,13.72c0,0.63,0.27,0.9,0.91,0.9c0.99,0,1.98,0,2.97,0c0.78,0,1-0.21,1-0.98
		c0-2.34-0.01-4.68,0.01-7.02c0.01-0.88,0.2-1.72,0.7-2.47c0.55-0.83,1.35-1.16,2.33-1.07c1.03,0.09,1.74,0.63,1.99,1.61
		c0.19,0.74,0.28,1.52,0.29,2.28c0.04,2.26,0.01,4.51,0.01,6.77c0,0.63,0.25,0.87,0.88,0.88c1.07,0,2.15,0,3.22,0
		c0.64,0,0.91-0.27,0.91-0.9c0-2.51,0.02-5.02-0.03-7.53c-0.02-1.07-0.15-2.14-0.35-3.19c-0.24-1.27-0.84-2.39-1.92-3.17
		c-0.99-0.72-2.12-0.94-3.31-0.95C85.52,14.36,83.86,14.79,82.75,16.43z M75.54,22.37c0-2.28,0-4.56,0-6.84
		c0-0.64-0.26-0.91-0.89-0.91c-1.03,0-2.05,0-3.08,0c-0.62,0-0.91,0.29-0.91,0.91c0,4.56,0,9.12,0,13.68c0,0.62,0.31,0.92,0.94,0.93
		c0.97,0,1.93,0,2.9,0c0.79,0,1.04-0.24,1.04-1.03C75.54,26.86,75.54,24.61,75.54,22.37z M76.25,10.14
		c0.01-1.75-1.38-3.17-3.12-3.19c-1.72-0.01-3.16,1.4-3.19,3.13c-0.02,1.71,1.4,3.16,3.1,3.17C74.83,13.27,76.24,11.9,76.25,10.14z"
		/>
</g>
</svg>
