<svg width="53" height="53" viewBox="0 0 53 53" fill="none" xmlns="http://www.w3.org/2000/svg">
<circle cx="26.5" cy="26.5" r="26.5" fill="white"/>
<path d="M19.5714 41C18.8643 41 18.2589 40.7419 17.7554 40.2256C17.2518 39.7093 17 39.0886 17 38.3636V14.6364C17 13.9114 17.2518 13.2907 17.7554 12.7744C18.2589 12.2581 18.8643 12 19.5714 12H32.4286C33.1357 12 33.7411 12.2581 34.2446 12.7744C34.7482 13.2907 35 13.9114 35 14.6364V38.3636C35 39.0886 34.7482 39.7093 34.2446 40.2256C33.7411 40.7419 33.1357 41 32.4286 41H19.5714ZM19.5714 34.4091V38.3636H32.4286V34.4091H19.5714ZM26 37.7045C26.3643 37.7045 26.6696 37.5782 26.9161 37.3256C27.1625 37.0729 27.2857 36.7598 27.2857 36.3864C27.2857 36.0129 27.1625 35.6998 26.9161 35.4472C26.6696 35.1945 26.3643 35.0682 26 35.0682C25.6357 35.0682 25.3304 35.1945 25.0839 35.4472C24.8375 35.6998 24.7143 36.0129 24.7143 36.3864C24.7143 36.7598 24.8375 37.0729 25.0839 37.3256C25.3304 37.5782 25.6357 37.7045 26 37.7045ZM19.5714 31.7727H32.4286V18.5909H19.5714V31.7727ZM19.5714 15.9545H32.4286V14.6364H19.5714V15.9545Z" fill="#09B5AB"/>
</svg>
