<svg width="53" height="53" viewBox="0 0 53 53" fill="none" xmlns="http://www.w3.org/2000/svg">
<circle cx="26.5" cy="26.5" r="26.5" fill="white"/>
<path d="M14 38C13.175 38 12.4688 37.7185 11.8813 37.1555C11.2937 36.5924 11 35.9156 11 35.125V17.875C11 17.0844 11.2937 16.4076 11.8813 15.8445C12.4688 15.2815 13.175 15 14 15H38C38.825 15 39.5313 15.2815 40.1188 15.8445C40.7063 16.4076 41 17.0844 41 17.875V35.125C41 35.9156 40.7063 36.5924 40.1188 37.1555C39.5313 37.7185 38.825 38 38 38H14ZM14 35.125H38V20.75H14V35.125ZM19.25 33.6875L17.15 31.675L21.0125 27.9375L17.1125 24.2L19.25 22.1875L25.25 27.9375L19.25 33.6875ZM26 33.6875V30.8125H35V33.6875H26Z" fill="#00BAA4"/>
</svg>
