<svg width="53" height="53" viewBox="0 0 53 53" fill="none" xmlns="http://www.w3.org/2000/svg">
<circle cx="26.5" cy="26.5" r="26.5" fill="white"/>
<path d="M11 38V33.6875H14V17.875C14 17.0844 14.2938 16.4076 14.8813 15.8445C15.4688 15.2815 16.175 15 17 15H39.5V17.875H17V33.6875H26V38H11ZM30.5 38C30.075 38 29.7188 37.8622 29.4313 37.5867C29.1438 37.3112 29 36.9698 29 36.5625V22.1875C29 21.7802 29.1438 21.4388 29.4313 21.1633C29.7188 20.8878 30.075 20.75 30.5 20.75H39.5C39.925 20.75 40.2813 20.8878 40.5688 21.1633C40.8563 21.4388 41 21.7802 41 22.1875V36.5625C41 36.9698 40.8563 37.3112 40.5688 37.5867C40.2813 37.8622 39.925 38 39.5 38H30.5ZM32 33.6875H38V23.625H32V33.6875Z" fill="#09B5AB"/>
</svg>
