<svg width="42" height="45" viewBox="0 0 42 45" fill="none" xmlns="http://www.w3.org/2000/svg">
<g clip-path="url(#clip0_1256_18483)">
<path d="M40.5138 22.3891C39.2804 23.1044 38.0722 23.2899 36.8166 22.8823C35.9354 22.6013 35.1461 22.1066 34.6951 21.2719C33.7457 19.5125 32.7783 17.7404 32.4498 15.7323C32.2131 14.2904 32.0864 12.8261 31.9612 11.3674C31.8637 10.2432 31.989 9.86238 32.7852 8.02989C28.9878 5.20527 24.7518 3.84074 19.8394 4.08104C20.0329 4.47311 20.1359 4.79633 20.3294 5.04788C20.6983 5.52848 21.1228 5.96412 21.5168 6.42506C22.597 7.68981 22.5608 9.19206 21.4026 10.3908C20.4964 11.3281 19.5651 12.2429 18.6506 13.1732C17.6998 14.1415 16.5347 14.5673 15.2025 14.5785C14.2281 14.5869 13.2425 14.4998 12.2793 14.6249C11.5346 14.738 10.8153 14.9815 10.1536 15.3444C9.38106 15.7561 8.70592 16.3534 7.96815 16.8354C6.69166 17.6687 5.33443 16.9478 5.27179 15.4133C5.24952 14.8511 5.27179 14.289 5.27179 13.7269C5.29445 13.1629 5.24107 12.5985 5.1131 12.049C4.63424 12.8261 4.12337 13.585 3.68766 14.3846C3.31042 15.0774 3.01531 15.818 2.68819 16.5389C2.50026 16.952 2.2483 17.3202 1.74161 17.0898C1.26971 16.8747 1.24465 16.463 1.47573 16.0231C2.40421 14.2539 3.3313 12.4846 4.26675 10.6999C3.75865 9.56306 3.05846 8.32078 2.63807 6.98717C1.70541 4.03607 2.99165 1.26907 5.60866 0.300827C6.25269 0.0657591 6.93834 -0.0305336 7.62147 0.01815C8.30459 0.0668336 8.97005 0.259414 9.57497 0.58349C10.1799 0.907565 10.7109 1.35595 11.1337 1.89977C11.5566 2.44359 11.8619 3.07078 12.0301 3.74096C12.0927 3.98829 12.1582 4.23562 12.2417 4.55322C12.914 4.30308 13.5669 4.03045 14.2378 3.81544C21.024 1.63585 27.3424 2.63079 33.1889 6.71033C33.5564 6.96609 33.7889 7.03073 34.2065 6.76373C36.0022 5.61702 37.8606 5.59875 39.6187 6.80308C41.3768 8.0074 42.1104 9.77666 41.7332 11.8621C41.5174 13.0552 40.9439 14.1808 40.5625 15.3472C40.4706 15.6283 40.3941 15.981 40.4873 16.2339C44.7803 27.8528 38.7626 40.4442 27.0139 44.067C16.1185 47.4256 4.81103 41.4489 1.12215 30.6985C-0.140417 27.0125 -0.322773 23.2505 0.455371 19.4338C0.508268 19.1682 0.583438 18.8365 0.768578 18.6918C0.953718 18.547 1.36576 18.5175 1.51331 18.6412C1.69428 18.7901 1.79172 19.1597 1.76805 19.4211C1.6386 21.0245 1.32539 22.6252 1.32817 24.2244C1.34905 33.422 8.27161 41.6106 17.2279 43.3124C22.1532 44.2528 27.2484 43.2632 31.4765 40.5449C35.7045 37.8266 38.7475 33.584 39.9862 28.6805C40.5133 26.6286 40.6916 24.5013 40.5138 22.3891ZM18.6394 4.17519C16.4441 4.41228 14.3082 5.04282 12.3322 6.0372C12.2653 6.07863 12.2073 6.13319 12.1616 6.19763C12.1159 6.26208 12.0835 6.3351 12.0663 6.41241C11.6487 8.62713 10.446 10.402 9.01913 12.0588C8.38437 12.798 7.73568 13.4782 6.59422 13.0805C6.59422 13.8829 6.5803 14.6066 6.59422 15.3289C6.60814 15.884 6.82947 16.0091 7.29023 15.7084C7.98625 15.2488 8.66834 14.7654 9.34626 14.2778C10.3288 13.5615 11.5174 13.1912 12.7289 13.2238C13.5641 13.2379 14.3993 13.1985 15.2345 13.2337C16.2535 13.2772 17.0762 12.902 17.7778 12.1811C18.5879 11.3464 19.4148 10.5271 20.2319 9.69937C21.2411 8.67913 21.2314 8.10718 20.2946 7.00122C19.5999 6.18194 18.6617 5.50178 18.6394 4.17519ZM3.66817 5.58048C3.81434 7.77272 5.23699 9.80898 6.9993 11.6583C7.09535 11.7609 7.47815 11.7637 7.57281 11.6583C9.21401 9.92983 10.6005 8.03832 10.8844 5.57064C11.1434 3.30673 9.54253 1.39414 7.37932 1.29436C5.37202 1.20442 3.6626 2.93714 3.66817 5.57907V5.58048ZM33.2836 11.1089C33.3643 13.1859 34.954 16.3084 36.6245 17.5971C36.7483 17.6912 37.1256 17.6519 37.2383 17.5324C38.8447 15.8461 40.1616 13.9756 40.4873 11.5684C40.685 10.0718 40.1699 8.83371 38.9784 7.9526C37.7868 7.07149 36.4658 7.01527 35.1795 7.70527C33.8599 8.41775 33.2376 9.58694 33.2836 11.1075V11.1089ZM34.1536 16.8326L34.0617 16.886C34.5754 18.0243 35.0361 19.1963 35.6194 20.2952C36.5019 21.9408 38.7278 22.2879 40.0906 21.0484C40.1545 20.9891 40.2049 20.9167 40.2386 20.8359C40.2722 20.7552 40.2882 20.668 40.2855 20.5805C40.0447 19.445 39.7704 18.3166 39.4739 17.042C38.9171 17.6561 38.5371 18.1212 38.1139 18.547C37.3274 19.3396 36.463 19.3396 35.6876 18.5386C35.1614 17.9891 34.6631 17.4017 34.1536 16.8312V16.8326Z" fill="#00BAA4"/>
<path d="M13.2436 24.4267C13.4956 24.2342 13.7336 24.0192 14.0009 23.8506C15.695 22.784 17.4657 22.6645 19.1932 23.6735C20.9457 24.6952 21.7823 26.3239 21.6682 28.3672C21.5151 31.1342 20.0729 33.2857 18.2995 35.2657C17.758 35.8714 17.1859 36.3365 16.2045 36.0906C16.2045 37.2331 16.1265 38.3095 16.2281 39.3677C16.32 40.336 17.5408 40.7351 18.4345 40.128C19.9337 39.1092 21.3675 37.9891 22.9029 37.0364C24.9673 35.7477 26.5361 34.0122 27.8098 31.9647C27.9574 31.7272 28.0882 31.4307 28.3137 31.3056C28.5392 31.1805 28.9805 31.078 29.1489 31.2058C29.3174 31.3337 29.4371 31.8621 29.3188 32.0321C28.0952 33.7845 27.0595 35.7013 25.2485 36.9633C23.2273 38.3686 21.2097 39.7828 19.1959 41.2058C18.2563 41.8649 17.2638 41.9633 16.2574 41.4054C15.2509 40.8475 14.8083 39.913 14.8264 38.7719C14.8431 37.7418 14.8974 36.7131 14.9656 35.6803C14.9838 35.4629 14.9568 35.2441 14.8864 35.0379C14.8159 34.8317 14.7035 34.6427 14.5563 34.483C13.0947 32.7123 11.9198 30.7632 11.8627 28.3911C11.8265 26.9085 12.0994 25.44 11.8739 23.9265C11.775 23.2646 12.2219 22.4425 12.6005 21.7989C13.2255 20.7365 13.9842 19.7528 14.7053 18.7494C15.0893 18.1889 15.5942 17.7235 16.182 17.3883C16.7698 17.0532 17.4252 16.8569 18.099 16.8143C18.3064 16.7975 18.621 16.5698 18.6711 16.3815C19.317 13.9532 22.0774 12.2584 24.7084 13.0088C27.2071 13.7227 28.755 16.241 28.2316 18.9771C28.0325 20.0184 27.6302 21.0203 27.2864 22.1558L30.2737 24.2975C32.2768 25.7365 32.5427 27.7179 31.0045 29.6685C30.7261 30.0142 30.4268 30.2545 30.0078 29.9495C29.5888 29.6446 29.6584 29.2862 29.9354 28.9138C30.105 28.6901 30.2599 28.4554 30.399 28.2112C30.8848 27.354 30.7512 26.3351 29.9814 25.7421C28.8678 24.8764 27.6943 24.0782 26.5208 23.2323C25.8888 23.9686 25.3125 24.6923 24.6819 25.3641C23.837 26.262 22.953 26.2424 22.0983 25.343C20.471 23.6328 19.1542 21.7356 18.6308 19.3719C18.5459 18.9869 18.5013 18.592 18.4303 18.1493C17.3014 18.11 16.4453 18.5976 15.805 19.4619C15.0421 20.492 14.2877 21.5333 13.6139 22.6238C13.3091 23.1198 13.2102 23.748 13.0181 24.3101L13.2436 24.4267ZM23.4054 24.816C24.8601 23.3138 26.0475 21.8129 26.6614 19.9186C26.9732 18.956 27.1959 17.999 26.9259 16.9675C26.4373 15.1069 24.7557 13.9504 22.818 14.1991C21.1392 14.4141 19.7945 15.9655 19.8084 17.7812C19.8307 20.6971 21.4775 22.7783 23.4096 24.816H23.4054ZM16.7738 34.9959C17.3501 34.327 17.8679 33.7902 18.305 33.1957C19.4883 31.6035 20.4293 29.9017 20.3666 27.8205C20.3096 25.9065 18.6405 24.3073 16.7265 24.3073C14.8124 24.3073 13.142 25.9178 13.142 27.8472C13.149 30.7983 14.8041 32.895 16.778 34.9959H16.7738Z" fill="#00BAA4"/>
<path d="M7.26222 7.89212C6.90061 7.89277 6.54249 7.82073 6.20875 7.68021C5.87501 7.53968 5.57231 7.33349 5.31833 7.07365C5.06434 6.8138 4.86413 6.50551 4.72939 6.16675C4.59465 5.82799 4.52806 5.46553 4.53351 5.10052C4.53896 4.73551 4.61635 4.37525 4.76114 4.04075C4.90594 3.70624 5.11526 3.40418 5.37689 3.15219C5.63853 2.90019 5.94724 2.7033 6.28503 2.573C6.62282 2.4427 6.98292 2.3816 7.34435 2.39325C8.84217 2.41152 10.0922 3.70438 10.0518 5.19117C10.0452 5.55367 9.9676 5.91128 9.82363 6.24345C9.67967 6.57561 9.47212 6.8758 9.21291 7.12676C8.95371 7.37773 8.64795 7.57454 8.31319 7.70588C7.97843 7.83722 7.62127 7.90051 7.26222 7.89212ZM8.71271 5.15182C8.71271 4.36486 8.02366 3.65519 7.26918 3.66643C6.89758 3.68718 6.54704 3.84722 6.28621 4.11521C6.02538 4.3832 5.87305 4.73984 5.85905 5.11528C5.85118 5.30792 5.88167 5.5002 5.9487 5.68074C6.01574 5.86128 6.11796 6.02641 6.24932 6.16637C6.38068 6.30632 6.53851 6.41826 6.71347 6.49556C6.88844 6.57286 7.07698 6.61394 7.26796 6.61638C7.45893 6.61883 7.64844 6.58258 7.82529 6.50979C8.00214 6.43699 8.16274 6.32913 8.29757 6.19258C8.4324 6.05603 8.53874 5.89356 8.61028 5.7148C8.68183 5.53603 8.71713 5.3446 8.7141 5.15182H8.71271Z" fill="#00BAA4"/>
<path d="M39.6157 11.0876C39.6091 11.6322 39.4427 12.1625 39.1375 12.6116C38.8324 13.0608 38.4022 13.4085 37.9013 13.6108C37.4004 13.8132 36.8514 13.8611 36.3235 13.7485C35.7957 13.6359 35.3128 13.3679 34.9358 12.9783C34.5588 12.5887 34.3047 12.095 34.2056 11.5597C34.1065 11.0243 34.1668 10.4713 34.379 9.97059C34.5911 9.46984 34.9455 9.04382 35.3975 8.74637C35.8494 8.44893 36.3785 8.29342 36.918 8.29949C37.6404 8.31278 38.3287 8.61283 38.8336 9.13466C39.3385 9.65649 39.6195 10.3581 39.6157 11.0876ZM36.8637 9.64575C36.6729 9.64793 36.4845 9.68832 36.3093 9.7646C36.1342 9.84088 35.9757 9.95151 35.8433 10.0901C35.7108 10.2287 35.6069 10.3924 35.5376 10.5719C35.4683 10.7513 35.435 10.9428 35.4396 11.1353C35.4609 11.5218 35.6323 11.8843 35.9166 12.1439C36.201 12.4036 36.5753 12.5396 36.9583 12.5224C37.1489 12.5218 37.3374 12.4826 37.5127 12.4071C37.688 12.3316 37.8465 12.2214 37.9788 12.0829C38.1111 11.9445 38.2146 11.7806 38.283 11.6011C38.3514 11.4215 38.3835 11.2299 38.3773 11.0377C38.371 10.8454 38.3266 10.6563 38.2467 10.4817C38.1667 10.3071 38.0529 10.1504 37.9119 10.021C37.7708 9.89159 37.6055 9.79207 37.4257 9.72834C37.2459 9.66461 37.0553 9.63796 36.8651 9.64997L36.8637 9.64575Z" fill="#00BAA4"/>
<path d="M20.6592 18.2167C20.6495 16.5051 21.8731 15.2319 23.3709 15.1968C23.5113 15.1972 23.6513 15.2128 23.7885 15.2432C24.1894 15.3218 24.5026 15.5059 24.4511 15.9823C24.3996 16.4587 24.0697 16.5234 23.6563 16.581C23.222 16.64 22.7334 16.7454 22.4034 17.0026C21.8968 17.3975 21.8397 18.0186 22.1153 18.599C22.2306 18.8713 22.4305 19.0984 22.6849 19.246C22.9393 19.3935 23.2343 19.4535 23.5254 19.4168C24.188 19.3733 24.5861 18.9953 24.7977 18.3966C24.8437 18.2687 24.7852 18.0776 24.859 17.9891C25.065 17.7488 25.303 17.389 25.555 17.3651C25.9726 17.3272 26.1772 17.6869 26.1508 18.1296C26.0881 19.1751 25.594 19.9565 24.6906 20.4413C23.7593 20.9388 22.8099 20.8882 21.9218 20.3078C21.5614 20.0862 21.2587 19.7808 21.039 19.417C20.8194 19.0532 20.6892 18.6417 20.6592 18.2167Z" fill="#00BAA4"/>
<path d="M16.7768 25.3963C17.1359 25.395 17.4918 25.4652 17.824 25.6029C18.1562 25.7407 18.4582 25.9432 18.7128 26.1989C18.9674 26.4546 19.1696 26.7585 19.3077 27.0932C19.4458 27.4278 19.5171 27.7867 19.5177 28.1493C19.5232 28.52 19.4553 28.8881 19.318 29.2321C19.1806 29.576 18.9767 29.8888 18.718 30.152C18.4594 30.4153 18.1513 30.6238 17.8118 30.7653C17.4723 30.9068 17.1082 30.9785 16.7409 30.976C16.3736 30.9736 16.0105 30.8971 15.6728 30.7512C15.3352 30.6052 15.0298 30.3926 14.7746 30.1259C14.5194 29.8592 14.3196 29.5438 14.1867 29.1981C14.0539 28.8524 13.9908 28.4834 14.0011 28.1127C14.0128 27.3811 14.3117 26.684 14.8322 26.1747C15.3526 25.6654 16.052 25.3854 16.7768 25.3963ZM16.735 26.7018C16.5446 26.7016 16.3562 26.7404 16.1811 26.8159C16.006 26.8914 15.8479 27.0021 15.7165 27.1411C15.585 27.2801 15.4829 27.4446 15.4163 27.6247C15.3497 27.8048 15.32 27.9966 15.3291 28.1886C15.3476 28.5632 15.5032 28.9176 15.7658 29.1829C16.0284 29.4483 16.3793 29.6058 16.7503 29.6248C17.516 29.6248 18.1911 28.9334 18.1869 28.138C18.1901 27.946 18.1544 27.7554 18.0822 27.5778C18.01 27.4001 17.9027 27.2392 17.7668 27.1048C17.631 26.9704 17.4694 26.8654 17.292 26.7961C17.1146 26.7268 16.9251 26.6947 16.735 26.7018Z" fill="#00BAA4"/>
</g>
<defs>
<clipPath id="clip0_1256_18483">
<rect width="41.875" height="45" fill="white"/>
</clipPath>
</defs>
</svg>
