<svg width="48" height="45" viewBox="0 0 48 45" fill="none" xmlns="http://www.w3.org/2000/svg">
<g clip-path="url(#clip0_1256_18502)">
<path d="M29.9904 40.45C24.7998 41.4607 22.6792 41.2199 18.688 40.4307C18.5183 41.1327 18.374 41.8464 18.1716 42.5439C17.6984 44.1694 16.237 45.1226 14.4855 44.9866C13.0078 44.8713 11.658 43.6241 11.481 42.1641C11.3515 41.0913 11.2682 40.0125 11.1699 38.9353C11.1119 38.2984 11.1164 37.6511 10.9929 37.0275C10.9333 36.732 10.6848 36.4364 10.4437 36.2222C7.89009 33.9937 6.02397 31.3264 5.18913 28.0178C4.97335 27.1636 4.85281 26.2859 4.68614 25.4022C3.99416 25.3253 3.21289 25.349 2.50156 25.1391C0.208347 24.4623 -0.62352 21.8068 0.498533 19.6996C0.729194 19.271 1.1548 19.045 1.54023 19.342C1.77386 19.5223 1.87059 20.0011 1.86166 20.3409C1.84529 20.9586 1.58189 21.5881 1.64588 22.1881C1.75005 23.1472 2.57597 23.7737 3.55218 23.8343C4.44506 23.8905 4.70697 23.6865 4.83942 22.8117C5.80224 16.484 9.66692 12.4498 15.2831 9.80763C15.9067 9.51209 16.5629 9.28747 17.2772 9.00079C16.7266 6.21821 17.3591 3.75187 19.5437 1.80422C21.1003 0.4181 22.9574 -0.161175 25.0304 0.0309307C27.2224 0.239291 28.9725 1.26189 30.2493 3.04551C31.413 4.67102 31.5886 5.60938 31.4309 8.91212C32.7256 9.5239 34.0068 10.146 35.309 10.7238C35.4712 10.7948 35.7688 10.6736 35.9578 10.5642C37.2971 9.7899 38.7257 9.39534 40.2838 9.49287C41.2808 9.55494 41.8374 10.0116 42.01 10.9913C42.263 12.4217 41.8612 13.7709 41.4148 15.0994C41.2213 15.6728 41.2198 16.122 41.5874 16.6628C42.0864 17.4241 42.5095 18.2318 42.8508 19.0745C43.202 19.9065 43.4327 20.7902 43.7526 21.764C44.0502 21.764 44.4386 21.7551 44.8271 21.764C46.4491 21.8083 47.6233 22.9772 47.6411 24.5894C47.658 26.0169 47.658 27.4454 47.6411 28.8749C47.6247 30.5004 46.4744 31.6604 44.8434 31.6973C43.9505 31.718 42.9237 31.4402 42.2035 31.7919C41.4832 32.1436 41.1454 33.1455 40.5665 33.7972C39.7957 34.6602 38.9296 35.4419 38.1528 36.299C37.9024 36.5762 37.7385 36.9196 37.681 37.2876C37.4995 38.8008 37.3834 40.3214 37.2346 41.839C37.062 43.5916 35.7331 44.9053 34.0664 44.9866C32.2434 45.0767 30.7835 43.9714 30.3966 42.2129C30.2597 41.6262 30.1228 41.0366 29.9904 40.45ZM29.6168 12.1705C30.282 12.4173 30.9175 12.571 31.4547 12.8887C31.7002 13.0365 31.9011 13.5345 31.8371 13.8182C31.797 14.0192 31.2999 14.1581 30.9859 14.2615C30.8535 14.3029 30.663 14.1699 30.5023 14.1138C28.6408 13.4387 26.6798 13.0737 24.6986 13.0335C22.4172 12.9772 20.1469 13.3669 18.0168 14.1803C17.5272 14.3709 17.0049 14.4566 16.7683 13.8315C16.5317 13.2064 16.935 12.936 17.4588 12.7542C17.9826 12.5725 18.4901 12.3759 19.0228 12.1809C18.7029 11.7376 18.3785 11.3844 18.1716 10.9721C17.9305 10.4918 17.6478 10.5169 17.2132 10.6765C14.9961 11.474 12.9467 12.6719 11.1684 14.2098C6.73976 18.0623 5.15193 23.7471 7.08352 28.9487C8.01361 31.4535 9.58656 33.5016 11.6342 35.2202C12.0033 35.5291 12.4125 35.9916 12.4721 36.429C12.7057 38.1314 12.8128 39.853 12.9527 41.5671C13.0435 42.6621 13.728 43.4143 14.7385 43.4882C15.6775 43.5606 16.5049 42.9163 16.7609 41.8878C16.9439 41.1489 17.1061 40.4101 17.2653 39.6712C17.4513 38.7949 17.7758 38.5673 18.6047 38.7934C22.3701 39.8346 26.3509 39.83 30.1139 38.7801C30.8579 38.5762 31.2181 38.8097 31.3892 39.5781C31.5603 40.3465 31.7151 41.112 31.8892 41.8774C32.1184 42.8808 32.9681 43.5562 33.9042 43.503C34.8759 43.4394 35.6155 42.7109 35.7182 41.6706C35.8804 40.0066 35.9831 38.3353 36.1869 36.6758C36.2405 36.2399 36.4697 35.7138 36.7986 35.4404C38.3812 34.127 39.7269 32.5553 40.7778 30.793C40.952 30.4974 41.4177 30.2521 41.7689 30.2225C42.705 30.1442 43.6529 30.2019 44.5964 30.1945C45.5741 30.1871 46.0845 29.7319 46.1068 28.7729C46.1356 27.4193 46.1356 26.0647 46.1068 24.7091C46.086 23.7885 45.6411 23.3673 44.7259 23.3171C44.33 23.2949 43.9327 23.3171 43.5354 23.3082C42.4862 23.3008 42.3448 23.2151 42.1603 22.1822C41.8083 20.2411 41.0176 18.4045 39.8478 16.8106C39.5233 16.3673 39.5174 15.9654 39.6677 15.4408C40.01 14.2438 40.2719 13.0217 40.5278 11.8026C40.6647 11.1583 40.3403 10.9307 39.69 10.9765C38.4484 11.0476 37.2565 11.4855 36.2673 12.2341C35.8075 12.5828 35.4116 12.5784 34.9101 12.3035C33.9815 11.7922 33.0321 11.312 32.0604 10.8879C30.9324 10.3943 30.9204 10.4283 30.2136 11.4036C30.0365 11.643 29.8505 11.8735 29.6168 12.1705ZM24.3548 1.52049C24.2062 1.51006 24.057 1.51006 23.9084 1.52049C23.6643 1.553 23.4217 1.60472 23.1807 1.65792C20.9127 2.14705 19.4246 3.53908 18.813 5.7143C18.2014 7.88953 18.813 9.80911 20.4782 11.343C20.7505 11.5927 21.2684 11.6607 21.6762 11.6681C23.4277 11.6991 25.1807 11.64 26.9308 11.6962C27.4933 11.7139 27.9174 11.6504 28.3281 11.2529C29.1372 10.4647 29.6923 9.45561 29.9229 8.35367C30.1535 7.25173 30.0493 6.10659 29.6234 5.06357C29.1976 4.02055 28.4693 3.12666 27.531 2.49533C26.5927 1.86399 25.4867 1.52366 24.3533 1.51753L24.3548 1.52049Z" fill="#00BAA4"/>
<path d="M39.0277 21.4421C39.0277 21.7376 39.126 22.0819 39.0039 22.3124C38.8447 22.608 38.5352 22.9715 38.2435 23.0203C38.0471 23.0528 37.6125 22.6198 37.559 22.342C37.4458 21.7627 37.4458 21.1672 37.559 20.5879C37.617 20.3042 38.0218 19.951 38.3119 19.9067C38.5114 19.8757 38.8626 20.2865 38.9995 20.5687C39.1155 20.8081 39.0233 21.1465 39.0233 21.4421H39.0277Z" fill="#00BAA4"/>
<path d="M24.3369 3.1565C26.5438 3.1565 28.4203 5.0214 28.4173 7.20697C28.4143 9.39254 26.514 11.2648 24.3324 11.2648C22.1508 11.2648 20.2519 9.37628 20.2534 7.19958C20.2549 5.02287 22.13 3.15502 24.3369 3.1565ZM26.8503 7.23505C26.8561 6.57528 26.6016 5.93947 26.1413 5.46364C25.6811 4.9878 25.0516 4.70973 24.3875 4.68891C23.0124 4.64901 21.8026 5.82824 21.8041 7.20106C21.8107 7.86041 22.0781 8.49074 22.5486 8.95602C23.0191 9.42131 23.655 9.68424 24.319 9.68808C24.6477 9.69297 24.974 9.63329 25.2794 9.51249C25.5847 9.3917 25.863 9.21215 26.0983 8.98419C26.3335 8.75623 26.5211 8.48434 26.6501 8.18416C26.7792 7.88398 26.8472 7.56143 26.8503 7.23505Z" fill="#00BAA4"/>
</g>
<defs>
<clipPath id="clip0_1256_18502">
<rect width="47.6471" height="45" fill="white"/>
</clipPath>
</defs>
</svg>
