<svg width="46" height="45" viewBox="0 0 46 45" fill="none" xmlns="http://www.w3.org/2000/svg">
<g clip-path="url(#clip0_1256_18416)">
<path d="M6.97213 27.797C9.00779 25.7441 11.0435 23.7565 13.0022 21.692C13.4824 21.1573 14.0758 20.7364 14.7391 20.4599C15.4024 20.1833 16.119 20.058 16.8368 20.0931C20.0404 20.1489 23.2459 20.0931 26.4571 20.1123C29.1508 20.1239 30.6073 21.3514 31.1114 24.1221C32.1177 23.1293 33.0528 22.1845 34.011 21.2648C36.037 19.3196 38.4748 18.5904 41.1647 19.2869C42.4153 19.6101 43.5601 20.4163 44.6934 21.1013C45.3611 21.5054 45.3822 22.1037 44.7896 22.6983C41.0133 26.4887 37.2402 30.2823 33.4703 34.0791C32.5083 35.0411 31.3019 35.3932 29.9724 35.3952C27.2787 35.3952 24.585 35.4144 21.8913 35.3817C21.5747 35.3649 21.2584 35.4201 20.9662 35.5431C20.6739 35.666 20.4133 35.8536 20.2039 36.0917C19.4131 36.9286 18.5627 37.7098 17.77 38.4833C17.8027 38.6257 17.7969 38.7007 17.8316 38.7411C18.9475 40.0283 18.9494 40.0283 17.6988 41.2597C16.604 42.3391 15.4861 43.3973 14.4183 44.5018C13.8006 45.1406 13.3004 45.1848 12.65 44.5287C8.6993 40.5523 4.73766 36.5836 0.765105 32.6226C-0.0237614 31.8318 -0.0179891 31.6279 0.786269 30.8101C1.94071 29.6557 3.09515 28.5012 4.24958 27.3468C5.27319 26.3232 5.38863 26.3232 6.41031 27.3045C6.56231 27.4488 6.73163 27.5854 6.97213 27.797ZM16.5617 37.3462C17.4313 36.4496 18.3049 35.5568 19.1707 34.6525C19.4869 34.3128 19.8727 34.0454 20.3017 33.8684C20.7307 33.6914 21.1929 33.6091 21.6566 33.627C24.3503 33.6577 27.044 33.6096 29.7377 33.65C30.2964 33.6711 30.853 33.5712 31.3694 33.357C31.8859 33.1427 32.3498 32.8194 32.7296 32.409C35.9389 29.1381 39.1829 25.9018 42.4095 22.6482C42.625 22.4308 42.8174 22.1903 43.0503 21.9229C42.8309 21.7632 42.6866 21.6381 42.5269 21.5381C41.3726 20.8583 40.0249 20.582 38.6963 20.7527C37.3676 20.9234 36.1335 21.5314 35.1885 22.4809C33.4126 24.2375 31.7156 26.075 29.932 27.824C29.5499 28.1817 29.0571 28.3983 28.5351 28.4378C26.3263 28.5012 24.1098 28.4531 21.9029 28.4724C21.2468 28.4724 20.6695 28.3185 20.6753 27.595C20.6811 26.8716 21.2833 26.7503 21.9183 26.7503C23.5518 26.7696 25.1892 26.7831 26.8208 26.7503C28.4524 26.7176 29.5433 25.3862 29.2836 23.7873C29.0912 22.5809 28.0637 21.8459 26.486 21.8363C23.6345 21.8209 20.7773 21.9344 17.9316 21.7959C16.046 21.7035 14.6511 22.2442 13.3812 23.6622C11.7284 25.5093 9.864 27.1679 8.11503 28.8841L16.5617 37.3462ZM2.40056 31.6413L13.5601 42.824L16.3885 39.9379L5.24817 28.7783L2.40056 31.6413Z" fill="#00BAA4"/>
<path d="M23.7459 0.00579637C28.76 0.0173408 32.8987 4.18294 32.8891 9.20859C32.8886 11.0307 32.3472 12.8117 31.3334 14.3257C30.3196 15.8398 28.879 17.0187 27.1944 17.7131C25.5098 18.4075 23.6569 18.586 21.8707 18.2261C20.0844 17.8661 18.4453 16.9839 17.1611 15.6913C15.8768 14.3987 15.0053 12.7538 14.657 10.9653C14.3087 9.17679 14.4992 7.32511 15.2045 5.64503C15.9099 3.96494 17.0981 2.5321 18.6187 1.52815C20.1393 0.524209 21.9238 -0.00563475 23.7459 0.00579637ZM16.1824 9.27786C16.1897 10.762 16.6369 12.2107 17.4675 13.4407C18.2981 14.6707 19.4749 15.6268 20.8489 16.188C22.2229 16.7492 23.7324 16.8903 25.1867 16.5935C26.6409 16.2967 27.9744 15.5753 29.0187 14.5206C30.0629 13.4659 30.7709 12.1252 31.0531 10.6681C31.3353 9.21098 31.1791 7.7029 30.6042 6.33457C30.0293 4.96625 29.0615 3.79914 27.8233 2.98085C26.585 2.16257 25.132 1.72986 23.6478 1.73745C21.6631 1.7607 19.7673 2.56417 18.3703 3.97414C16.9733 5.3841 16.1873 7.28725 16.1824 9.27209V9.27786Z" fill="#00BAA4"/>
<path d="M23.671 12.3601C23.3354 12.3593 23.0012 12.3166 22.6762 12.2331C22.3676 12.1587 22.0682 12.0503 21.7834 11.9099C21.5669 11.8116 21.374 11.6679 21.2178 11.4885L21.8316 10.3937C22.0804 10.6172 22.3688 10.7921 22.682 10.9094C22.9976 11.0306 23.3329 11.0926 23.671 11.0922C23.9749 11.1096 24.2767 11.0323 24.5349 10.8709C24.6345 10.8018 24.715 10.7085 24.7688 10.5998C24.8227 10.4911 24.8481 10.3706 24.8427 10.2494C24.8537 10.0801 24.7985 9.91318 24.6888 9.78381C24.5793 9.66934 24.4411 9.58629 24.2886 9.5433C24.111 9.48936 23.9305 9.44568 23.7479 9.41246C23.4959 9.36821 23.2419 9.31241 22.9783 9.24892C22.7269 9.18634 22.4867 9.08508 22.2664 8.94876C22.0439 8.80607 21.8633 8.60688 21.743 8.37155C21.5998 8.05212 21.5338 7.7034 21.5506 7.35371C21.5506 6.66747 21.7604 6.13642 22.1798 5.76059C22.5993 5.38476 23.1899 5.1962 23.9519 5.19492C24.3136 5.19859 24.6721 5.26365 25.012 5.38732C25.3742 5.51438 25.7138 5.69817 26.0183 5.93183L25.4565 7.05356C25.2285 6.87187 24.975 6.7247 24.7042 6.6168C24.4652 6.5192 24.21 6.46763 23.9519 6.4648C23.6723 6.44551 23.3935 6.51268 23.1534 6.6572C23.0616 6.71901 22.9871 6.80323 22.9369 6.90188C22.8867 7.00053 22.8626 7.11036 22.8667 7.22095C22.854 7.40772 22.9147 7.59208 23.036 7.73468C23.1599 7.85968 23.3145 7.94992 23.4843 7.99635C23.6767 8.05407 23.8691 8.1041 24.0769 8.14835C24.3251 8.2003 24.5733 8.26572 24.8177 8.34076C25.0576 8.41316 25.2843 8.52359 25.4892 8.66785C25.6967 8.81655 25.8634 9.01504 25.9741 9.24507C26.1103 9.54702 26.1761 9.87598 26.1665 10.2071V10.2167C26.1843 10.5126 26.1351 10.8087 26.0225 11.0829C25.9098 11.3571 25.7368 11.6023 25.5161 11.8002C25.0762 12.1735 24.4611 12.3601 23.671 12.3601ZM23.1476 5.49507V4.39258H24.4752V5.49507H23.1476ZM23.1476 13.1432V11.9772H24.4752V13.1432H23.1476Z" fill="#00BAA4"/>
</g>
<defs>
<clipPath id="clip0_1256_18416">
<rect width="45.0308" height="45" fill="white" transform="translate(0.17627)"/>
</clipPath>
</defs>
</svg>
