<svg width="45" height="45" viewBox="0 0 45 45" fill="none" xmlns="http://www.w3.org/2000/svg">
<g clip-path="url(#clip0_1256_18423)">
<path d="M20.0695 23.1882C21.3974 25.2993 21.3974 27.334 20.0695 29.2712C21.2865 30.5502 21.1352 32.1411 20.8774 33.693C20.6511 35.0499 19.4805 35.9781 18.1122 35.9871C14.2894 36.011 10.466 36.011 6.64223 35.9871C5.98388 35.9955 5.34414 35.7686 4.83807 35.3472C4.332 34.9259 3.99282 34.3377 3.88153 33.6885C3.62974 32.1621 3.46638 30.5892 4.67137 29.3117C3.36746 27.301 3.37495 25.3083 4.66388 23.1642C3.58478 22.2286 3.74065 20.8491 3.76463 19.5071C3.79161 17.8068 5.06105 16.5188 6.76213 16.5084C10.509 16.4914 14.2559 16.4914 18.0028 16.5084C19.7023 16.5084 20.9703 17.8023 21.0003 19.5071C21.0198 20.8236 21.1726 22.1821 20.0695 23.1882ZM12.327 22.503H16.8232C19.2872 22.503 19.5285 22.2615 19.5105 19.819C19.5015 18.549 18.956 18.0018 17.6805 18.0003C14.4372 18.0003 11.1924 18.0527 7.95064 17.9823C5.53915 17.9298 5.15697 18.4951 5.25289 20.7576C5.30385 21.9227 5.8404 22.4955 7.01392 22.5C8.78095 22.503 10.5555 22.503 12.327 22.503ZM12.3435 28.5006H16.9102C19.2587 28.5006 19.5165 28.2382 19.506 25.8751C19.506 24.5166 18.9725 23.9979 17.5846 23.9979C14.3653 23.9979 11.14 24.0488 7.92966 23.9799C5.5976 23.9289 5.15097 24.4642 5.24989 26.6968C5.30385 27.9488 5.82241 28.4961 7.10385 28.4961C8.85039 28.4991 10.5969 28.5006 12.3435 28.5006ZM12.3869 34.4982H16.9536C19.2437 34.4982 19.5135 34.2238 19.5015 31.9042C19.5015 30.5262 18.977 29.997 17.6116 29.9955H7.8817C5.4837 29.9955 5.2409 30.2474 5.25439 32.6629C5.25439 33.9419 5.80293 34.4937 7.06938 34.4967C8.8439 34.4982 10.6154 34.4982 12.3869 34.4982Z" fill="#00BAA4"/>
<path d="M13.4721 9.22883L12.1337 8.74002C12.294 8.32619 12.4334 7.96633 12.5743 7.60798C11.2629 7.15816 8.98481 8.2962 8.68955 9.72213L9.78514 9.7926C9.75666 10.2859 9.73118 10.7417 9.70421 11.1975C3.06174 10.8422 -0.897959 18.1278 3.18314 23.5406L2.07257 24.4837C0.50937 22.515 -0.228016 20.3304 0.062742 17.9044C0.531851 13.9894 2.71103 11.3985 6.44592 10.1075C6.70911 10.0081 6.92385 9.81099 7.04542 9.5572C8.08705 6.96473 10.1928 5.73822 12.9685 6.09058C13.2023 6.12057 13.568 5.91065 13.7179 5.70224C15.9135 2.70344 18.8406 0.805197 22.4856 0.191942C29.1535 -0.92661 35.4303 2.89086 37.578 9.3068C37.7383 9.78511 37.9677 9.96503 38.4248 10.0895C44.105 11.6234 46.7788 18.3182 43.7363 23.3577C43.6359 23.5256 43.5145 23.68 43.3602 23.9035L42.1612 23.0773C43.7858 20.4773 43.9926 17.8159 42.5418 15.1305C41.5976 13.3777 40.1438 12.2006 38.143 11.5964C38.191 12.2576 38.2299 12.8244 38.2749 13.4496H36.7761C36.6637 10.139 35.4992 7.25112 33.1117 4.90306C31.3977 3.20182 29.1984 2.07444 26.8169 1.67635C21.8276 0.808197 16.0544 3.13826 13.4721 9.22883Z" fill="#00BAA4"/>
<path d="M35.2673 20.2539C36.216 20.2539 37.1647 20.2539 38.1149 20.2539C39.9569 20.2659 41.2323 21.5194 41.2458 23.3427C41.2568 24.7921 41.2568 26.2415 41.2458 27.6909C41.2263 29.4692 39.9554 30.7347 38.1569 30.7497C36.2085 30.7617 34.2601 30.7617 32.3117 30.7497C30.5342 30.7377 29.2693 29.4527 29.2573 27.6624C29.2463 26.214 29.2463 24.7646 29.2573 23.3142C29.2738 21.5359 30.5537 20.2749 32.3462 20.2584C33.3189 20.2539 34.2931 20.2539 35.2673 20.2539ZM35.2118 29.2503C36.21 29.2503 37.2081 29.2743 38.2093 29.2503C39.3663 29.2143 39.756 28.5681 39.7545 26.7793C39.7545 25.4403 39.2704 24.8061 38.2048 24.7566C37.9308 24.7394 37.656 24.7394 37.382 24.7566C35.6794 24.896 34.4459 24.2678 33.725 22.6574C33.5808 22.3198 33.319 22.046 32.9883 21.8868C32.6575 21.7277 32.2802 21.6941 31.9265 21.7923C31.2011 21.9767 30.7635 22.563 30.7575 23.4071C30.747 24.8046 30.744 26.202 30.7575 27.6055C30.768 28.655 31.3735 29.2458 32.4481 29.2548C33.3608 29.2593 34.2886 29.2503 35.2118 29.2503ZM35.0439 21.7533C35.4801 22.9528 35.8758 23.2287 36.9923 23.2617C37.8916 23.2872 38.7983 23.3682 39.7036 23.4251C39.7725 22.482 39.227 21.7908 38.2498 21.7608C37.2006 21.7248 36.153 21.7533 35.0439 21.7533Z" fill="#00BAA4"/>
<path d="M35.2327 44.994C34.2585 44.994 33.2843 45.003 32.3116 44.994C30.5626 44.973 29.2766 43.7105 29.2572 41.9802C29.2407 40.4808 29.2377 38.9814 29.2572 37.482C29.2811 35.7892 30.5641 34.5192 32.2682 34.5042C34.2665 34.4862 36.2648 34.4862 38.2632 34.5042C39.9582 34.5237 41.2217 35.8087 41.2427 37.515C41.2592 39.0144 41.2637 40.5138 41.2427 42.0132C41.2172 43.706 39.9343 44.967 38.2317 44.9925C37.232 45.0075 36.2324 44.994 35.2327 44.994ZM35.2132 43.4946C36.2114 43.4946 37.2095 43.5186 38.2107 43.4946C39.3812 43.4586 39.7589 42.8124 39.7544 40.9456C39.7544 39.6816 39.2508 39.0489 38.2032 38.9964C37.9292 38.9792 37.6544 38.9792 37.3804 38.9964C35.6778 39.1359 34.4458 38.5061 33.7234 36.8973C33.579 36.5599 33.3171 36.2864 32.9863 36.1275C32.6556 35.9687 32.2784 35.9353 31.9249 36.0336C31.1995 36.2195 30.7634 36.8058 30.7574 37.6515C30.7469 39.0489 30.7439 40.4463 30.7574 41.8423C30.7679 42.8919 31.3749 43.4826 32.4495 43.4916C33.3682 43.5081 34.29 43.4946 35.2132 43.4946ZM35.0843 35.9976C35.3691 37.0862 35.8472 37.464 36.8573 37.497C37.8075 37.533 38.7562 37.605 39.705 37.6605C39.7514 36.7233 39.2344 36.0396 38.3021 36.0021C37.2365 35.9676 36.1649 35.9976 35.0843 35.9976Z" fill="#00BAA4"/>
<path d="M24.0056 26.2336H21.7935V24.8062H27.7045V26.2321H25.5553V39.7267H27.7075V41.2261C26.6929 41.2261 25.6527 41.2771 24.6216 41.2066C24.0716 41.1691 23.9996 40.6668 24.0011 40.178C24.0081 36.8074 24.0081 33.4377 24.0011 30.069L24.0056 26.2336Z" fill="#00BAA4"/>
<path d="M13.541 20.9467V19.5417H17.9683V20.9467H13.541Z" fill="#00BAA4"/>
<path d="M6.91695 19.3901C7.11178 19.6795 7.48797 19.9899 7.452 20.2493C7.41603 20.5087 7.01287 20.8955 6.72511 20.942C6.52877 20.9735 6.07914 20.5297 6.06416 20.2778C6.04617 19.9944 6.38939 19.69 6.57523 19.3946L6.91695 19.3901Z" fill="#00BAA4"/>
<path d="M8.87102 21.1146C8.66869 20.8297 8.28651 20.5253 8.31498 20.2674C8.34346 20.0096 8.73913 19.6107 9.02389 19.5597C9.22173 19.5237 9.68184 19.9556 9.70283 20.206C9.72681 20.4879 9.38959 20.8057 9.20974 21.1056L8.87102 21.1146Z" fill="#00BAA4"/>
<path d="M12.1174 20.4038C11.8312 20.6017 11.5179 20.9811 11.2631 20.9481C11.0083 20.9151 10.6142 20.5148 10.5662 20.2284C10.5332 20.032 10.9724 19.5761 11.2227 19.5596C11.5059 19.5401 11.8222 19.8805 12.1114 20.0649L12.1174 20.4038Z" fill="#00BAA4"/>
<path d="M17.9746 25.5632V26.9502H13.5518V25.5632H17.9746Z" fill="#00BAA4"/>
<path d="M7.60614 26.4568C7.30639 26.6353 6.96918 26.9936 6.71439 26.9426C6.4596 26.8917 6.0984 26.4643 6.06992 26.172C6.05044 25.9755 6.51955 25.5542 6.77434 25.5542C7.0576 25.5542 7.34086 25.9156 7.62563 26.1195L7.60614 26.4568Z" fill="#00BAA4"/>
<path d="M8.82178 27.1031C8.63594 26.8032 8.29422 26.5033 8.31221 26.22C8.33019 25.9696 8.77982 25.5272 8.97615 25.5587C9.26391 25.6052 9.66558 25.9771 9.70155 26.2514C9.73752 26.5258 9.35833 26.8227 9.162 27.1121L8.82178 27.1031Z" fill="#00BAA4"/>
<path d="M12.1203 26.3865C11.8355 26.5889 11.5313 26.9712 11.2735 26.9427C11.0157 26.9143 10.617 26.5184 10.5661 26.2335C10.5301 26.0356 10.9632 25.5753 11.212 25.5543C11.4953 25.5318 11.8115 25.8677 12.1113 26.0491L12.1203 26.3865Z" fill="#00BAA4"/>
<path d="M13.522 32.9523V31.5593H17.9493V32.9523H13.522Z" fill="#00BAA4"/>
<path d="M6.58402 33.1053C6.39368 32.8129 6.04896 32.5056 6.06395 32.2297C6.07744 31.9778 6.51358 31.5294 6.71741 31.5579C7.00517 31.6014 7.41283 31.9673 7.45179 32.2402C7.49076 32.5131 7.11757 32.8174 6.92423 33.1098L6.58402 33.1053Z" fill="#00BAA4"/>
<path d="M9.85887 32.4441C9.55912 32.627 9.2294 32.9899 8.97461 32.9434C8.71982 32.8969 8.35113 32.4726 8.31816 32.1817C8.29568 31.9868 8.76778 31.558 9.01358 31.5535C9.29534 31.5535 9.5846 31.9058 9.86936 32.1037L9.85887 32.4441Z" fill="#00BAA4"/>
<path d="M12.1203 32.3855C11.8355 32.5879 11.5313 32.9703 11.2735 32.9418C11.0157 32.9133 10.617 32.5174 10.5661 32.2326C10.5301 32.0346 10.9632 31.5743 11.212 31.5533C11.4953 31.5308 11.8115 31.8667 12.1113 32.0481L12.1203 32.3855Z" fill="#00BAA4"/>
</g>
<defs>
<clipPath id="clip0_1256_18423">
<rect width="45" height="45" fill="white"/>
</clipPath>
</defs>
</svg>
