<svg width="45" height="45" viewBox="0 0 45 45" fill="none" xmlns="http://www.w3.org/2000/svg">
<g clip-path="url(#clip0_1765_2282)">
<path d="M25.9346 39.7535C24.0353 37.0093 23.3802 34.0499 23.5616 30.8162H6.83242C6.645 30.8262 6.45713 30.8234 6.27009 30.8078C5.74573 30.7389 5.36616 30.4477 5.36194 29.9104C5.35772 29.3731 5.73729 29.0791 6.26025 29.0046C6.44748 28.9919 6.63535 28.9919 6.82258 29.0046H23.5039V25.8919H6.94207C6.7551 25.8919 6.56672 25.9003 6.37975 25.8919C5.77103 25.8525 5.29868 25.4446 5.35772 24.9579C5.42661 24.3953 5.79774 24.1042 6.36288 24.0774C6.54985 24.069 6.73823 24.0774 6.9252 24.0774H23.4814C23.608 23.4262 24.0648 23.2011 24.6469 23.0295C26.57 22.4669 28.4763 21.8382 30.391 21.2446C30.7228 21.1419 30.9463 21.0421 30.9435 20.5976C30.921 17.0109 30.9294 13.4242 30.9266 9.83604C30.917 9.74121 30.9005 9.6472 30.8774 9.55473C30.6412 9.54066 30.3952 9.51393 30.1492 9.51393C28.7434 9.51393 27.3376 9.52378 25.9318 9.5069C24.1843 9.48299 23.2003 8.48152 23.2003 6.7388C23.2003 5.12407 23.2003 3.50371 23.2003 1.81584C22.9191 1.79896 22.6689 1.77083 22.4229 1.77083C16.0039 1.77083 9.58406 1.77083 3.16325 1.77083C1.95847 1.77083 1.75744 1.96354 1.75744 3.1563C1.75744 7.51756 1.75744 11.8779 1.75744 16.2373C1.75744 17.257 1.46644 17.7212 0.847881 17.6945C0.270093 17.6692 0.00439453 17.2106 0.00439453 16.2457C0.00439453 11.8151 0.00439453 7.38394 0.00439453 2.95234C0.00439453 1.05208 1.05453 0.00981928 2.96503 0.00981928C9.85163 0.00981928 16.7401 0.00607464 23.6304 -0.001427C23.8851 -0.0119503 24.139 0.0328952 24.3747 0.130026C24.6103 0.227156 24.8221 0.374262 24.9955 0.561196C27.3516 2.94578 29.7209 5.31583 32.1033 7.67134C32.2982 7.85211 32.4514 8.07324 32.5522 8.31933C32.6529 8.56541 32.6988 8.83053 32.6867 9.09619C32.6698 12.5901 32.6782 16.084 32.6782 19.5779V20.3655C32.8188 20.4021 32.8737 20.4344 32.9046 20.4204C33.9125 19.9731 34.8727 20.17 35.8793 20.5076C38.6164 21.4162 41.3872 22.2461 44.1469 23.09C44.7092 23.2644 44.9903 23.602 44.9903 24.2153C44.9749 27.0762 45.0339 29.9372 44.9693 32.7953C44.8371 38.617 40.3104 43.8986 34.5775 44.9676C34.1847 45.0169 33.7858 44.9814 33.4079 44.8635C31.3618 44.3371 29.4682 43.3363 27.8802 41.9421C27.5696 41.6834 27.182 41.535 26.7781 41.5202C18.8596 41.4958 10.9402 41.4897 3.01986 41.5019C1.02501 41.5159 0.00439453 40.4877 0.00439453 38.4876C0.00439453 34.0091 0.00439449 29.5307 0.0142352 25.0536C0.0142352 24.7455 0.0845254 24.3714 0.268687 24.1506C0.370512 24.049 0.494929 23.9729 0.63176 23.9287C0.768591 23.8845 0.913949 23.8732 1.05594 23.896C1.31742 23.9748 1.57047 24.2701 1.6984 24.5332C1.81086 24.7652 1.75885 25.0845 1.75885 25.3644C1.75885 29.6779 1.75885 33.9913 1.75885 38.3048C1.75885 39.5636 1.9402 39.7493 3.16466 39.7493H25.9346V39.7535ZM25.309 24.664C25.309 27.2984 25.2921 29.8528 25.309 32.4C25.3484 37.2316 28.6464 41.6158 33.2715 42.9914C33.6932 43.1152 34.16 43.2474 34.5677 43.1715C38.9707 42.3571 42.9618 37.8265 43.1515 33.3326C43.2668 30.6179 43.2021 27.8948 43.2331 25.1745C43.2331 24.7849 43.1108 24.6021 42.7228 24.4839C40.0714 23.6695 37.4285 22.8242 34.7785 22.0056C34.5154 21.914 34.2319 21.8984 33.9603 21.9606C31.0827 22.8467 28.2148 23.7525 25.309 24.664ZM24.9702 3.2449C24.9702 4.50096 24.9505 5.77671 24.9814 7.06089C24.9927 7.53631 25.3512 7.73886 25.8038 7.74449C26.4125 7.75293 27.0227 7.74449 27.6314 7.74449H29.435L24.9702 3.2449Z" fill="#00BAA4"/>
<path d="M13.7813 12.1189C13.7813 11.2384 13.7701 10.4662 13.7813 9.69539C13.7954 8.98367 14.1539 8.61515 14.8652 8.60671C16.1286 8.59171 17.3938 8.59171 18.6609 8.60671C19.42 8.60671 19.7855 8.9682 19.7982 9.72211C19.8108 10.476 19.7982 11.2595 19.7982 12.1203C20.5897 12.1203 21.3291 12.1203 22.07 12.1203C22.957 12.1203 23.3043 12.4649 23.3099 13.3468C23.3202 14.5405 23.3202 15.7351 23.3099 16.9307C23.3099 17.8112 22.9556 18.1474 22.0686 18.1586C21.3896 18.1657 20.7106 18.1586 20.033 18.1685C19.9531 18.1832 19.8746 18.2044 19.7982 18.2318C19.7982 18.8943 19.7982 19.5863 19.7982 20.2783C19.7982 21.3825 19.4959 21.675 18.3713 21.6764C17.2466 21.6779 16.122 21.6764 14.9973 21.6764C14.1187 21.6764 13.7813 21.3234 13.7743 20.4359C13.7743 19.7129 13.7743 18.9885 13.7743 18.16C13.0039 18.16 12.2645 18.16 11.525 18.16C10.5972 18.16 10.2598 17.8197 10.2598 16.8941C10.2598 15.6986 10.2598 14.5039 10.2598 13.3102C10.2598 12.4747 10.6168 12.1315 11.4617 12.1231C12.211 12.1076 12.9547 12.1189 13.7813 12.1189ZM21.4866 13.9938C21.4191 13.9722 21.35 13.9562 21.2799 13.946C20.6009 13.946 19.9219 13.946 19.2415 13.9376C18.3516 13.9277 18.0072 13.5901 18.0002 12.7153C17.9931 11.9712 18.0002 11.2285 18.0002 10.4648H15.5808C15.5808 11.2257 15.5808 11.9473 15.5808 12.6688C15.5723 13.5986 15.2377 13.9347 14.3155 13.9347C13.5761 13.9347 12.8366 13.9347 12.1154 13.9347V16.257C12.1667 16.2867 12.2222 16.3085 12.2799 16.3217C12.9364 16.3217 13.5915 16.3315 14.2481 16.3357C15.2673 16.3357 15.5836 16.655 15.5892 17.679C15.5892 18.3935 15.5892 19.1095 15.5892 19.7888H17.9988C17.9988 19.0054 17.9988 18.2796 17.9988 17.5538C17.9988 16.6747 18.346 16.3372 19.2387 16.3315C19.9795 16.3315 20.7204 16.3315 21.488 16.3315L21.4866 13.9938Z" fill="#00BAA4"/>
<path d="M11.4588 35.7406C9.8435 35.7406 8.22541 35.7406 6.61435 35.7406C5.83553 35.7406 5.34912 35.3833 5.34912 34.8334C5.34912 34.2834 5.83975 33.9247 6.61435 33.9233C9.89458 33.9233 13.1706 33.9233 16.4424 33.9233C17.2085 33.9233 17.6992 34.3115 17.6711 34.8671C17.6443 35.4016 17.1804 35.7378 16.441 35.7392C14.7807 35.749 13.119 35.7406 11.4588 35.7406Z" fill="#00BAA4"/>
<path d="M1.73776 20.748C1.73706 20.9818 1.64718 21.2064 1.48649 21.3761C1.3258 21.5457 1.10643 21.6476 0.873186 21.6609C0.639045 21.645 0.419526 21.5412 0.258473 21.3705C0.0974192 21.1997 0.00668585 20.9744 0.00439453 20.7396C0.0353224 20.2206 0.364282 19.9392 0.847881 19.8717C1.29212 19.8084 1.73214 20.2768 1.73776 20.748Z" fill="#00BAA4"/>
<path d="M41.4758 29.8162C41.4491 31.6813 41.6164 33.5577 40.936 35.3679C39.831 38.3217 37.801 40.3049 34.8137 41.2825C34.4363 41.3859 34.0368 41.3756 33.6652 41.2529C29.7289 39.987 27.183 36.555 27.0775 32.348C27.0311 30.5195 27.0775 28.691 27.0593 26.8624C27.0522 26.1901 27.3559 25.8399 27.9815 25.6514C29.8793 25.0817 31.7617 24.4657 33.6637 23.9129C34.063 23.8025 34.4847 23.8025 34.884 23.9129C36.7861 24.4657 38.6684 25.086 40.5663 25.6556C41.2312 25.8539 41.511 26.2407 41.4843 26.937C41.4421 27.8935 41.4758 28.8569 41.4758 29.8162ZM39.7172 30.4435C39.7172 29.5771 39.6947 28.7093 39.727 27.8428C39.7425 27.3969 39.6033 27.1803 39.1647 27.0523C37.7322 26.6388 36.3207 26.1549 34.8854 25.7527C34.4875 25.6465 34.0687 25.6465 33.6708 25.7527C32.2144 26.1648 30.7804 26.6543 29.3268 27.0805C28.943 27.193 28.8137 27.3618 28.8207 27.7584C28.8446 29.2803 28.7757 30.8064 28.8418 32.3255C28.9824 35.6506 30.6005 38.0235 33.6455 39.3681C34.0534 39.5211 34.5028 39.5211 34.9107 39.3681C36.8437 38.6002 38.2115 37.2175 39.0803 35.3257C39.779 33.7672 39.7298 32.1047 39.7115 30.4435H39.7172Z" fill="#00BAA4"/>
<path d="M33.4627 33.0204C34.5016 31.9598 35.4098 31.0189 36.3348 30.0948C36.8367 29.5926 37.3667 29.5476 37.7237 29.9752C38.137 30.4703 37.974 30.9176 37.5564 31.3311C36.4459 32.4325 35.3465 33.5464 34.2317 34.645C33.6694 35.2076 33.2968 35.2076 32.7359 34.6618C32.1314 34.0767 31.5372 33.4817 30.9533 32.8769C30.5035 32.4099 30.4683 31.8797 30.8606 31.5224C31.347 31.0808 31.8067 31.2284 32.213 31.6476C32.6192 32.0667 32.9932 32.514 33.4627 33.0204Z" fill="#00BAA4"/>
</g>
<defs>
<clipPath id="clip0_1765_2282">
<rect width="45" height="45" fill="white"/>
</clipPath>
</defs>
</svg>
