<svg width="45" height="45" viewBox="0 0 45 45" fill="none" xmlns="http://www.w3.org/2000/svg">
<g clip-path="url(#clip0_1256_18444)">
<path d="M2.42462 28.9051C2.20741 28.6719 1.90803 28.488 1.83025 28.2338C1.73779 27.9348 1.72605 27.4863 1.89188 27.2681C2.01516 27.1111 2.52881 27.129 2.78124 27.2531C3.09383 27.4026 3.31984 27.7465 3.5796 28.0111C5.67237 30.1419 7.76417 32.2727 9.85499 34.4036C9.9768 34.5261 10.172 34.6472 10.1896 34.7863C10.2278 35.0957 10.2909 35.5771 10.1324 35.6952C9.91662 35.8567 9.39123 35.8866 9.19751 35.7236C8.67945 35.2901 8.26853 34.725 7.76368 34.1539C7.17665 35.4994 7.59344 36.6953 8.66624 37.25C9.16037 37.5057 9.73104 37.5622 10.2643 37.4081C10.7975 37.2541 11.254 36.9008 11.5427 36.4188C11.8413 35.9264 11.9436 35.3363 11.8287 34.7695C11.7138 34.2027 11.3904 33.7022 10.9249 33.3705C10.8006 33.2918 10.6722 33.2199 10.5403 33.1553C10.1001 32.9176 9.89461 32.4975 10.1984 32.1222C10.376 31.9025 10.9205 31.7769 11.1934 31.886C13.248 32.6993 13.9495 35.5622 12.595 37.4174C12.0663 38.1607 11.2843 38.6762 10.4022 38.8632C9.52 39.0501 8.60109 38.8949 7.82532 38.428C7.05941 37.9717 6.48299 37.2467 6.20395 36.3887C5.92491 35.5307 5.96236 34.5986 6.30931 33.7667C6.39443 33.5634 6.48835 33.3646 6.58521 33.1463L5.62248 32.1327C4.44841 33.3048 4.16664 35.6519 4.96207 37.395C5.45898 38.5027 6.31688 39.401 7.39014 39.9376C8.46339 40.4741 9.68586 40.6158 10.85 40.3386C12.0017 40.0585 13.0239 39.3838 13.7453 38.4274C14.4667 37.4709 14.8435 36.291 14.8125 35.0853C14.7837 33.88 14.3472 32.7218 13.5768 31.8065C12.8064 30.8912 11.7494 30.275 10.5844 30.0622C9.93077 29.9703 9.26729 29.9793 8.61635 30.0891C8.12177 30.1564 7.76075 30.0756 7.63453 29.5928C7.48778 29.0471 7.82092 28.8079 8.3243 28.6659C10.9513 27.9289 14.1946 29.4612 15.5155 32.1746C16.7189 34.6442 16.534 37.0751 14.8932 39.2667C13.2524 41.4583 11.0026 42.3418 8.34778 41.7782C5.66944 41.2101 3.94503 39.458 3.26848 36.7731C2.74895 34.7115 3.23178 32.7785 4.52913 31.01L3.36827 30.0906C2.34096 31.297 1.75393 32.8174 1.60717 34.5082C1.51341 35.6518 1.65401 36.8027 2.02005 37.888C2.38609 38.9733 2.96959 39.9692 3.73351 40.8127C4.49744 41.6561 5.42511 42.3285 6.45768 42.7873C7.49025 43.2462 8.60518 43.4814 9.73171 43.478C13.8233 43.4616 17.3044 40.2145 17.7315 36.0166C18.1512 31.8875 15.3599 28.026 11.3519 27.1709C9.7899 26.8244 8.16151 26.9672 6.6806 27.5805C6.16989 27.7898 5.68412 27.893 5.45664 27.2726C5.22917 26.6522 5.70466 26.4085 6.19043 26.2081C11.2785 24.1152 17.2722 27.0872 18.7808 32.4676C20.5038 38.6104 16.2859 44.6097 10.0164 44.9446C5.25118 45.1987 0.816143 41.388 0.262864 36.5638C-0.0834854 33.6172 0.516758 31.4854 2.42462 28.9051Z" fill="#00BAA4"/>
<path d="M42.413 15.3309C42.3281 15.5268 42.2228 15.7127 42.0989 15.8856C41.6117 16.4088 41.1406 16.9619 40.5858 17.403C40.3583 17.5839 39.9225 17.5839 39.604 17.527C39.3369 17.4792 39.105 17.2281 38.857 17.0696C37.9515 16.4851 36.8552 16.9754 36.6409 18.0608C36.3577 19.4929 36.3078 19.5348 34.8798 19.5363H34.6597C32.6976 19.5647 32.9148 19.5363 32.5508 17.7827C32.404 17.0905 31.161 16.5434 30.571 16.9425C28.9185 18.0608 29.0888 17.8963 27.8046 16.5942C27.6733 16.447 27.5337 16.3077 27.3864 16.1771C26.792 15.6957 26.7494 15.177 27.2235 14.573C27.6975 13.969 27.9851 13.4189 27.5273 12.5802C27.2455 12.0629 26.9006 11.9493 26.4647 11.8477C25.0896 11.5248 25.0867 11.5307 25.0867 10.0971V10.0223C25.0984 7.97122 24.8988 8.11623 26.7876 7.69465C27.5742 7.51973 28.0101 6.29386 27.5639 5.60169C26.6262 4.14859 26.5836 4.28313 27.8296 3.01989L27.9837 2.85993C29.08 1.72525 29.08 1.72525 30.3949 2.59382C30.5918 2.72467 30.8174 2.80387 31.0516 2.82436C31.2858 2.84486 31.5214 2.80602 31.7373 2.7113C31.9532 2.61658 32.1427 2.46892 32.289 2.28149C32.4353 2.09405 32.5338 1.87266 32.5757 1.63704C32.6271 1.36944 32.6976 1.10483 32.7577 0.83873C32.8649 0.361835 33.132 0.11965 33.6383 0.13759C34.2737 0.161509 34.9107 0.165994 35.5461 0.13759C36.0833 0.11367 36.3694 0.35735 36.4795 0.871619C36.525 1.08988 36.5896 1.30367 36.6351 1.52193C36.8978 2.7493 37.9442 3.18732 38.9832 2.50562C40.1382 1.74767 40.1382 1.74767 41.1097 2.74033L41.2668 2.88982C42.6639 4.31901 42.6375 4.07384 41.6014 5.69887C41.2448 6.25798 41.7144 7.47339 42.3469 7.65727C44.1403 8.18051 44.1403 8.18051 44.1403 10.1389C44.1403 11.5277 44.1403 11.5277 42.7857 11.8342C41.5368 12.1183 41.1273 13.1797 41.8289 14.3009C42.0299 14.6373 42.2134 14.9826 42.413 15.3309ZM39.8476 16.0321C40.6651 15.5597 40.7854 15.0738 40.213 14.4325C39.7346 13.8988 39.6539 13.3292 40.1074 12.6878C40.3431 12.3377 40.5036 11.9409 40.5785 11.5233C40.6944 10.9178 41.0716 10.713 41.5911 10.6263C41.8318 10.5859 42.115 10.5919 42.2941 10.4588C42.3955 10.384 42.4808 10.2887 42.5447 10.1789C42.6086 10.0691 42.6496 9.94711 42.6654 9.82049C42.6654 9.59624 42.4423 9.18214 42.3058 9.17766C41.1024 9.13879 40.5066 8.47951 40.307 7.33735C40.2821 7.21439 40.2282 7.09946 40.1499 7.00248C39.6466 6.37758 39.7669 5.80651 40.2057 5.18908C40.7825 4.37134 40.7516 4.34891 39.8931 3.61189C39.0434 4.32948 38.2435 4.62548 36.9873 4.10523C35.731 3.58499 35.3143 2.79564 35.188 1.63555H33.9964C33.9611 2.85843 33.4357 3.52668 32.2632 4.08729C30.9805 4.70172 30.1733 4.28612 29.328 3.62684C28.5707 4.07533 28.4049 4.53728 28.9684 5.15918C29.5012 5.7482 29.4087 6.30433 29.0902 7.04284C28.6206 8.1536 28.2655 9.20307 26.8228 9.22848C26.7186 9.22848 26.5513 9.67697 26.544 9.92364C26.544 10.1015 26.748 10.4394 26.8698 10.4424C28.1363 10.4813 28.7189 11.2317 28.9538 12.3948C28.9805 12.517 29.0347 12.6311 29.1122 12.7282C29.5701 13.3157 29.4381 13.839 29.0403 14.413C28.4401 15.2831 28.4665 15.31 29.3339 16.0381C30.1909 15.301 30.9981 15.0305 32.247 15.5642C33.4959 16.0979 33.9494 16.8498 34.0228 18.0488H35.1822C35.3172 16.8902 35.6635 16.0964 36.9271 15.5761C38.1907 15.0559 38.9891 15.2308 39.8476 16.0321Z" fill="#00BAA4"/>
<path d="M16.5131 13.507C15.0895 11.8117 14.818 9.84727 14.7769 7.75283C14.7079 4.23517 11.6231 1.4321 8.04071 1.47396C4.61684 1.52031 1.64646 4.48034 1.57308 7.91727C1.48502 11.9298 4.46421 14.984 8.40907 14.9571C9.13983 14.9598 9.86934 15.0188 10.5914 15.1335C11.0463 15.2022 11.4719 15.4684 11.3574 16.0305C11.243 16.5926 10.7998 16.615 10.3155 16.5657C9.17662 16.4535 8.03044 16.4162 6.89453 16.2846C3.65851 15.9094 0.764437 12.8462 0.237575 9.54828C-0.450721 5.23381 2.41693 1.23626 6.33098 0.224171C10.7337 -0.914994 15.5562 2.31713 16.1168 6.91714C16.2225 7.77824 16.2151 8.65429 16.2856 9.51988C16.4323 11.3811 17.5932 12.6204 18.848 13.8015C19.5818 14.4951 19.9589 15.3218 19.5818 16.3429C19.459 16.666 19.2761 16.962 19.0432 17.2145C18.4062 17.9037 17.7458 18.5689 17.0722 19.2207C16.0684 20.1924 14.8899 20.1954 13.8655 19.2536C12.2864 17.8005 12.2864 17.8005 13.7834 16.2771L16.5131 13.507ZM17.5785 14.6416L14.5201 17.7646C15.1908 18.6975 15.5357 18.7364 16.3281 17.9395C16.7948 17.4701 17.2601 16.9992 17.7238 16.5268C18.5398 15.6956 18.5192 15.422 17.58 14.6416H17.5785Z" fill="#00BAA4"/>
<path d="M34.6146 25.5894C36.3963 25.5326 38.0326 26.0379 39.5574 26.9573C39.9977 27.2249 40.3367 27.5642 40.0197 28.0994C39.7027 28.6346 39.2272 28.4612 38.806 28.2011C34.0804 25.2829 28.1015 27.9395 26.7455 33.2541C25.5993 37.739 28.6313 42.5677 33.2028 43.3556C38.7048 44.3034 43.3761 39.6331 42.5953 33.9657C42.519 33.423 42.5499 32.9013 43.2103 32.843C43.7973 32.7921 43.9367 33.2481 44.0174 33.7728C44.7923 38.775 41.5724 43.2719 37.2666 44.5501C32.3413 46.0136 26.9935 43.1104 25.5127 38.0918C25.108 36.7369 24.9982 35.3085 25.191 33.906C25.3838 32.5035 25.8745 31.1607 26.629 29.9712C27.3834 28.7816 28.3835 27.774 29.5594 27.0186C30.7353 26.2631 32.0588 25.7779 33.4376 25.5969C33.8294 25.5688 34.2225 25.5663 34.6146 25.5894Z" fill="#00BAA4"/>
<path d="M34.6597 36.6864C35.4478 35.8328 36.1493 35.042 36.8831 34.287C38.4432 32.6769 40.0208 31.0833 41.5911 29.4837C41.6777 29.397 41.757 29.2998 41.8494 29.2206C42.2119 28.9036 42.6683 28.7975 42.9252 29.2206C43.0719 29.4583 43.0088 30.0338 42.8151 30.2446C41.6689 31.5019 40.4582 32.6964 39.2665 33.9103C37.9721 35.2308 36.6772 36.5499 35.3818 37.8675C34.7434 38.5148 34.4792 38.5193 33.8614 37.8944C32.7181 36.7373 31.5866 35.5682 30.439 34.4141C30.0574 34.0299 29.7624 33.6023 30.2218 33.1389C30.6811 32.6754 31.1023 33.0238 31.4707 33.3975L34.6597 36.6864Z" fill="#00BAA4"/>
<path d="M21.858 0.0239258C23.3255 0.173422 24.5113 0.309463 25.6972 0.429061C26.2123 0.479889 26.5704 0.728054 26.4852 1.27521C26.4001 1.82237 25.9877 1.933 25.477 1.85078C22.7971 1.42192 20.0617 1.51424 17.4156 2.12286C16.9533 2.22601 16.5585 2.20807 16.4191 1.69081C16.2635 1.10628 16.5849 0.801308 17.1338 0.719085C18.7922 0.472415 20.4505 0.231726 21.858 0.0239258Z" fill="#00BAA4"/>
<path d="M9.73456 9.65908C9.44104 9.99545 9.11964 10.4066 8.76449 10.7758C8.4563 11.1017 8.08206 11.1944 7.73718 10.8521C7.36001 10.4828 7.44366 10.0971 7.78854 9.74429C8.42401 9.0895 9.05066 8.42723 9.6964 7.78738C10.2145 7.27909 10.7663 7.41364 10.9776 8.10581C11.5112 9.84235 12.4337 11.4289 13.6721 12.7402C14.0404 13.1364 14.331 13.5669 13.8379 14.0169C13.3448 14.4669 12.9148 14.1245 12.6081 13.7015C11.6703 12.4203 10.7604 11.1122 9.73456 9.65908Z" fill="#00BAA4"/>
<path d="M42.7728 22.5607C42.6554 21.4349 42.5439 20.3257 42.4191 19.2179C42.3619 18.7156 42.3589 18.2193 42.9695 18.1086C43.58 17.998 43.7561 18.433 43.8397 18.9548C44.2235 21.3358 44.2235 23.7646 43.8397 26.1456C43.7605 26.6434 43.5668 27.0515 43.0164 26.9678C42.4294 26.8811 42.3516 26.4132 42.4147 25.8855C42.5409 24.7792 42.6525 23.6699 42.7728 22.5607Z" fill="#00BAA4"/>
<path d="M22.131 44.9999C20.9438 44.8878 19.7829 44.7936 18.6191 44.6605C18.1583 44.6082 17.7224 44.4049 17.7679 43.8368C17.8134 43.2687 18.2449 43.1372 18.7351 43.2149C20.9767 43.5775 23.2605 43.5775 25.5021 43.2149C25.979 43.1372 26.4325 43.2269 26.4942 43.8054C26.5602 44.4184 26.0935 44.6127 25.6048 44.6665C24.4381 44.7906 23.2802 44.8923 22.131 44.9999Z" fill="#00BAA4"/>
<path d="M0 22.4081C0.242151 20.7428 0.4799 19.0759 0.733791 17.412C0.808638 16.9082 1.08308 16.515 1.61434 16.6555C2.14561 16.796 2.2498 17.261 2.12065 17.7932C1.59858 19.9698 1.44963 22.222 1.68038 24.4503C1.73174 24.9944 1.59086 25.4459 1.00969 25.4788C0.474025 25.5102 0.275902 25.111 0.262694 24.5818C0.236278 23.8627 0.161431 23.1452 0.107131 22.4276L0 22.4081Z" fill="#00BAA4"/>
<path d="M34.5953 14.3518C33.4113 14.3549 32.2744 13.88 31.4335 13.031C30.5926 12.182 30.1163 11.0281 30.1089 9.82201C30.1089 7.34634 32.1459 5.26086 34.5835 5.24591C37.0491 5.23246 39.1331 7.34933 39.1066 9.84742C39.0923 11.0533 38.6096 12.2044 37.7641 13.0486C36.9186 13.8927 35.7792 14.3613 34.5953 14.3518ZM34.6085 12.8972C35.4114 12.9044 36.1847 12.5886 36.7604 12.0184C37.3361 11.4482 37.6676 10.6697 37.6831 9.85191C37.6804 9.02013 37.3548 8.2232 36.7774 7.63504C36.2 7.04688 35.4177 6.71524 34.6012 6.71248C33.7858 6.71681 33.0051 7.0492 32.4292 7.63723C31.8533 8.22527 31.5289 9.0213 31.5266 9.85191C31.542 10.671 31.8746 11.4507 32.4519 12.0211C33.0291 12.5915 33.8043 12.9064 34.6085 12.8972Z" fill="#00BAA4"/>
</g>
<defs>
<clipPath id="clip0_1256_18444">
<rect width="44.1346" height="45" fill="white"/>
</clipPath>
</defs>
</svg>
