<svg width="43" height="45" viewBox="0 0 43 45" fill="none" xmlns="http://www.w3.org/2000/svg">
<g clip-path="url(#clip0_1765_2267)">
<path d="M13.9663 11.8186V11.1393C13.9663 7.78909 13.9663 4.43888 13.9663 1.08867C13.9663 0.182901 14.1368 0.00146484 14.9975 0.00146484H39.7986C40.622 0.00146484 40.8534 0.236346 40.8548 1.09429C40.8548 6.88238 40.8548 12.6695 40.8548 18.4558C40.8548 19.3615 40.6483 19.5655 39.7571 19.5655C33.407 19.5655 27.0573 19.5631 20.7082 19.5584C20.2203 19.5584 19.8862 19.6386 19.5785 20.1126C18.8855 21.1801 17.5798 21.4543 16.4571 20.8538C15.3662 20.2687 14.2879 19.6625 13.0487 18.979C13.0487 19.9466 13.0487 20.7553 13.0487 21.5626C13.0487 22.3362 13.0279 23.1098 13.0487 23.8819C13.0612 24.5176 12.7646 24.7581 12.1616 24.7553C9.73738 24.7455 7.31036 24.7385 4.88889 24.7553C4.23743 24.7553 3.94774 24.4839 3.9519 23.8439C3.9519 23.5626 3.9519 23.2884 3.9519 23.0085C2.13614 23.1379 1.22133 22.2814 1.26152 20.4529C1.30033 18.7258 1.33498 16.9916 1.52765 15.2771C1.68289 13.8932 2.33019 12.6498 3.17015 11.543C3.93388 10.5359 5.03027 10.1843 6.21952 10.1506C7.71926 10.107 9.22176 10.1168 10.7229 10.1506C12.0286 10.1731 13.0293 10.8496 13.9663 11.8186ZM22.3978 9.69345L23.5677 10.5008C23.4679 10.6611 23.411 10.761 23.3473 10.8552C22.1234 12.6991 20.9036 14.5458 19.6686 16.3826C19.4566 16.6991 19.3235 16.9452 19.634 17.2968C19.8363 17.5261 19.932 17.8594 20.0498 18.0901H39.3163V1.48248H15.43C15.4033 1.5801 15.3847 1.67985 15.3746 1.78065C15.3746 5.88192 15.3649 9.98318 15.387 14.0844C15.3974 14.2169 15.4358 14.3456 15.4997 14.4616C15.5635 14.5777 15.6514 14.6783 15.7571 14.7567C16.5181 15.2293 17.3165 15.6358 18.1426 16.0901L22.3978 9.69345ZM11.628 23.294V22.4501C11.628 20.5992 11.6391 18.7483 11.628 16.8988C11.628 16.3629 11.7874 15.9255 12.3598 15.9143C12.9323 15.903 13.0529 16.3264 13.0764 16.8299C13.0848 17.0366 13.1527 17.3432 13.2954 17.4248C14.5928 18.1801 15.8971 18.9297 17.2347 19.6091C17.9166 19.9565 18.5903 19.4178 18.5861 18.64C18.5861 18.0479 18.2049 17.7469 17.7545 17.55C15.527 16.588 13.7224 15.1702 12.7216 12.8552C12.6835 12.7433 12.6135 12.6455 12.5206 12.5739C11.9579 12.2448 11.4021 11.7047 10.813 11.6611C9.18434 11.543 7.53907 11.6077 5.9035 11.6527C5.07185 11.6766 4.46613 12.1309 3.99487 12.8538C2.34266 15.3854 2.7072 18.2321 2.7474 21.0226C2.7474 21.1956 3.11609 21.5148 3.28242 21.4951C3.50558 21.4698 3.74676 21.2138 3.88814 20.993C3.98516 20.8397 3.93665 20.5837 3.93665 20.3742C3.93665 19.0394 3.93665 17.7019 3.93665 16.3686C3.93665 15.8468 4.06833 15.3728 4.66434 15.3953C5.22709 15.4178 5.38649 15.865 5.38372 16.3995C5.37263 18.4375 5.38372 20.4783 5.38372 22.512V23.2926L11.628 23.294Z" fill="#00BAA4"/>
<path d="M36.3275 44.9493C34.4798 44.9493 32.6322 44.9493 30.7832 44.9493C29.8129 44.9493 29.6452 44.7721 29.648 43.8128C29.648 42.758 29.6785 41.7031 29.6632 40.6497C29.6258 38.1448 30.8095 36.4303 32.9704 35.3529C35.7148 33.983 39.1634 34.4626 41.2966 36.4781C42.2904 37.4162 42.8698 38.5625 42.9211 39.9296C42.9751 41.336 42.9474 42.7425 42.9349 44.149C42.9349 44.7003 42.6577 45.0126 42.0742 45.0097C40.1572 45.0013 38.2417 45.0097 36.3261 45.0097L36.3275 44.9493ZM41.4795 43.4373C41.4795 42.3571 41.4643 41.3276 41.4795 40.3051C41.5045 38.8874 40.8794 37.8311 39.7359 37.0857C38.1266 36.0365 36.3954 35.6511 34.5367 36.2896C32.9995 36.8185 31.5843 37.6047 31.2641 39.3684C31.0257 40.682 31.0992 42.0533 31.0327 43.4373H41.4795Z" fill="#00BAA4"/>
<path d="M21.4883 44.9493C19.6407 44.9493 17.7931 44.9493 15.944 44.9493C14.9932 44.9493 14.8172 44.7609 14.8255 43.7904C14.8352 42.6891 14.8768 41.5879 14.8671 40.488C14.8477 38.097 16.0036 36.4711 18.055 35.4163C21.0642 33.8692 24.8094 34.5105 26.9259 36.9451C27.6626 37.7686 28.081 38.8346 28.1041 39.9465C28.1387 41.3277 28.1138 42.7102 28.1166 44.0928C28.1166 44.6905 27.8546 45.0042 27.2378 45.0014C25.3222 45.0014 23.4067 45.0014 21.4911 45.0014L21.4883 44.9493ZM26.6653 43.4374C26.6653 42.2377 26.7028 41.0717 26.6543 39.9099C26.6085 38.7848 26.0485 37.924 25.1698 37.2616C23.02 35.6371 20.1993 35.5457 18.0315 37.1476C17.4258 37.5935 16.7369 38.2658 16.5927 38.9437C16.2864 40.3966 16.3155 41.9212 16.1991 43.4444L26.6653 43.4374Z" fill="#00BAA4"/>
<path d="M6.63655 44.9494C4.7889 44.9494 2.94126 44.9494 1.09224 44.9494C0.185741 44.9494 -0.0166276 44.7342 -0.00276684 43.8243C0.0207965 42.5359 0.0790115 41.2476 0.0901001 39.9593C0.0895541 39.3488 0.211417 38.7445 0.448273 38.1834C0.685129 37.6222 1.03203 37.1157 1.46786 36.6949C4.4105 33.7483 9.34355 33.8693 12.0741 36.9185C12.8645 37.7896 13.2969 38.9342 13.2828 40.1182C13.2828 41.4543 13.2828 42.7905 13.2828 44.1252C13.2828 44.7441 12.9779 45.0015 12.3791 44.9987C10.4621 44.9874 8.54656 44.9987 6.631 44.9987L6.63655 44.9494ZM11.8731 43.4417C11.8731 42.2223 11.9217 41.076 11.8579 39.9368C11.8376 39.4416 11.7085 38.9572 11.4799 38.5192C11.2514 38.0812 10.9292 37.7005 10.537 37.4051C8.86397 36.1196 7.01633 35.6006 4.95662 36.2799C3.32798 36.8116 1.88091 37.6667 1.58152 39.5148C1.37777 40.7806 1.54271 42.1112 1.54271 43.4431L11.8731 43.4417Z" fill="#00BAA4"/>
<path d="M12.3736 5.36423C12.3196 7.63849 10.5094 9.41767 8.31521 9.35016C6.02403 9.27984 4.35242 7.48659 4.40093 5.15185C4.41337 4.61976 4.52914 4.09538 4.74161 3.60876C4.95408 3.12214 5.25907 2.68283 5.63911 2.316C6.01916 1.94917 6.46679 1.66202 6.95637 1.471C7.44595 1.27998 7.96786 1.18884 8.4922 1.20281C9.01655 1.21678 9.53303 1.33557 10.0121 1.55239C10.4911 1.76922 10.9233 2.0798 11.2838 2.46636C11.6444 2.85292 11.9262 3.30786 12.1132 3.80513C12.3002 4.30239 12.3887 4.83221 12.3736 5.36423ZM8.38175 7.88463C8.72182 7.89063 9.05956 7.82671 9.37464 7.69672C9.68971 7.56674 9.97559 7.37338 10.2151 7.12829C10.4545 6.8832 10.6426 6.59145 10.768 6.27064C10.8934 5.94982 10.9534 5.60656 10.9446 5.26156C10.9446 3.77351 9.83574 2.66662 8.34987 2.67365C7.67891 2.69312 7.04213 2.97835 6.57584 3.46827C6.10954 3.95819 5.85078 4.61386 5.85495 5.29495C5.85911 5.97604 6.12588 6.62841 6.59813 7.11242C7.07039 7.59643 7.71061 7.87361 8.38175 7.88463Z" fill="#00BAA4"/>
<path d="M17.8039 29.6807C17.7956 27.616 19.4672 25.893 21.477 25.9029C23.4869 25.9127 25.0961 27.5752 25.1321 29.6286C25.1444 30.1225 25.0595 30.6139 24.8825 31.0741C24.7055 31.5343 24.4399 31.9541 24.1012 32.309C23.7625 32.6639 23.3575 32.9468 22.9099 33.1411C22.4623 33.3354 21.981 33.4373 21.4942 33.4407C21.0073 33.4442 20.5246 33.3492 20.0744 33.1612C19.6241 32.9733 19.2153 32.6962 18.8717 32.3462C18.5282 31.9961 18.2568 31.5801 18.0735 31.1224C17.8901 30.6648 17.7985 30.1746 17.8039 29.6807ZM23.6878 29.6525C23.6793 29.2078 23.541 28.7756 23.2906 28.4106C23.0401 28.0455 22.6886 27.764 22.2805 27.6016C21.8725 27.4391 21.4261 27.403 20.9978 27.4978C20.5695 27.5926 20.1785 27.8141 19.8742 28.1343C19.5699 28.4544 19.366 28.8589 19.2881 29.2967C19.2102 29.7344 19.2619 30.1857 19.4367 30.5936C19.6115 31.0016 19.9015 31.3478 20.27 31.5886C20.6386 31.8293 21.0692 31.9539 21.5075 31.9465C22.7481 31.9366 23.6934 30.9408 23.6878 29.6525Z" fill="#00BAA4"/>
<path d="M2.99259 29.5949C3.04526 27.5344 4.70301 25.8762 6.68094 25.9029C8.69352 25.9296 10.3707 27.6821 10.3319 29.7158C10.2917 31.7946 8.59927 33.4767 6.58946 33.4275C6.10485 33.417 5.62707 33.3093 5.18362 33.1107C4.74017 32.912 4.33979 32.6264 4.00551 32.2702C3.67123 31.9141 3.40966 31.4943 3.23582 31.0352C3.06198 30.576 2.97932 30.0866 2.99259 29.5949ZM8.87649 29.6877C8.88439 29.0886 8.65744 28.5109 8.24557 28.0817C7.83369 27.6524 7.27063 27.4067 6.68025 27.3987C6.08987 27.3907 5.52052 27.621 5.09747 28.0389C4.67442 28.4568 4.43231 29.0282 4.4244 29.6272C4.41527 29.9297 4.46634 30.2309 4.57456 30.5129C4.68278 30.7949 4.84594 31.0518 5.05427 31.2683C5.2626 31.4848 5.51182 31.6565 5.78703 31.773C6.06224 31.8895 6.35779 31.9485 6.65599 31.9465C6.94884 31.9503 7.23947 31.8944 7.51062 31.7821C7.78178 31.6698 8.02795 31.5034 8.23452 31.2927C8.4411 31.0821 8.60388 30.8314 8.7132 30.5557C8.82252 30.28 8.87617 29.9849 8.87094 29.6877H8.87649Z" fill="#00BAA4"/>
<path d="M39.948 29.7749C39.8801 31.8481 38.2334 33.4697 36.2375 33.4318C34.2041 33.3896 32.5505 31.647 32.6115 29.6104C32.6725 27.5316 34.3981 25.8326 36.3692 25.9071C37.3481 25.9417 38.2739 26.3677 38.9444 27.0924C39.6149 27.817 39.9757 28.7814 39.948 29.7749ZM34.0655 29.654C34.0655 30.9465 34.9997 31.9353 36.2472 31.9507C36.5461 31.9606 36.8439 31.9096 37.1231 31.801C37.4023 31.6924 37.6573 31.5282 37.8732 31.3181C38.089 31.1081 38.2612 30.8564 38.3798 30.5778C38.4984 30.2992 38.5609 29.9994 38.5637 29.696C38.5665 29.3925 38.5094 29.0916 38.396 28.8108C38.2825 28.5301 38.1148 28.2752 37.9029 28.0611C37.691 27.847 37.439 27.6781 37.1618 27.5642C36.8846 27.4503 36.5878 27.3938 36.2888 27.398C35.9954 27.3929 35.704 27.4477 35.432 27.5593C35.16 27.6708 34.9129 27.8368 34.7054 28.0473C34.4979 28.2578 34.3343 28.5086 34.2244 28.7846C34.1145 29.0606 34.0604 29.3563 34.0655 29.654Z" fill="#00BAA4"/>
<path d="M35.7763 3.83398H37.0903V16.2601H35.7749L35.7763 3.83398Z" fill="#00BAA4"/>
<path d="M26.248 8.98877H27.5676V16.2602H26.248V8.98877Z" fill="#00BAA4"/>
<path d="M31.9185 9.44312H33.2533V16.2659H31.9185V9.44312Z" fill="#00BAA4"/>
<path d="M30.4827 16.2842H29.1479V11.6428H30.4827V16.2842Z" fill="#00BAA4"/>
</g>
<defs>
<clipPath id="clip0_1765_2267">
<rect width="42.9545" height="45" fill="white"/>
</clipPath>
</defs>
</svg>
