<svg width="57" height="57" viewBox="0 0 57 57" fill="none" xmlns="http://www.w3.org/2000/svg">
<rect x="1" y="1" width="55" height="55" rx="3" fill="white" stroke="#00BAA4" stroke-width="2"/>
<path d="M38.3333 29.6667V19.9987C38.3334 19.8934 38.3127 19.7892 38.2725 19.692C38.2322 19.5947 38.1731 19.5064 38.0987 19.432L33.9013 15.2347C33.7514 15.0846 33.5481 15.0002 33.336 15H17.8C17.5878 15 17.3843 15.0843 17.2343 15.2343C17.0843 15.3843 17 15.5878 17 15.8V40.8667C17 41.0788 17.0843 41.2823 17.2343 41.4324C17.3843 41.5824 17.5878 41.6667 17.8 41.6667H30.3333" stroke="#00BAA4" stroke-width="2" stroke-linecap="round" stroke-linejoin="round"/>
<path d="M33 15V19.5333C33 19.7455 33.0843 19.949 33.2343 20.099C33.3843 20.249 33.5878 20.3333 33.8 20.3333H38.3333M33 37.6667H41M41 37.6667L37 33.6667M41 37.6667L37 41.6667" stroke="#00BAA4" stroke-width="2" stroke-linecap="round" stroke-linejoin="round"/>
</svg>
