<svg width="57" height="57" viewBox="0 0 57 57" fill="none" xmlns="http://www.w3.org/2000/svg">
<rect x="1" y="1" width="55" height="55" rx="3" fill="white" stroke="#00BAA4" stroke-width="2"/>
<g clip-path="url(#clip0_1778_3281)">
<path d="M40.2005 37.6113V41.329V41.5259M40.2005 37.6113L41.1966 37.8313V37.6052M40.2005 37.6113H29.5033M40.2005 37.6113H29.5033M40.2005 41.5259H40.1004L40.1006 41.5292L40.2005 41.5259ZM40.2005 41.5259C40.2103 41.8159 40.38 42.003 40.6407 42.003C40.9141 42.0075 41.0966 41.8204 41.0966 41.5131V37.8313V37.6052H41.1966M41.1966 37.6052L41.4286 37.6052L41.4291 37.6052C41.6476 37.6041 41.8251 37.568 41.9433 37.4484C42.0613 37.3289 42.0964 37.1504 42.0964 36.9297V36.9268V36.9239V36.921V36.918V36.9151V36.9122V36.9093V36.9064V36.9035V36.9006V36.8977V36.8948V36.8919V36.889V36.8861V36.8832V36.8802V36.8773V36.8744V36.8715V36.8686V36.8657V36.8628V36.8599V36.857V36.8541V36.8512V36.8483V36.8454V36.8425V36.8396V36.8367V36.8338V36.8309V36.828V36.8251V36.8222V36.8193V36.8164V36.8135V36.8106V36.8077V36.8048V36.8019V36.799V36.7961V36.7932V36.7903V36.7874V36.7845V36.7816V36.7787V36.7758V36.7729V36.77V36.7671V36.7642V36.7613V36.7584V36.7555V36.7526V36.7497V36.7468V36.7439V36.741V36.7381V36.7352V36.7323V36.7294V36.7265V36.7236V36.7207V36.7178V36.7149V36.712V36.7092V36.7063V36.7034V36.7005V36.6976V36.6947V36.6918V36.6889V36.686V36.6831V36.6802V36.6773V36.6744V36.6715V36.6686V36.6657V36.6628V36.66V36.6571V36.6542V36.6513V36.6484V36.6455V36.6426V36.6397V36.6368V36.6339V36.631V36.6281V36.6253V36.6224V36.6195V36.6166V36.6137V36.6108V36.6079V36.605V36.6021V36.5992V36.5963V36.5935V36.5906V36.5877V36.5848V36.5819V36.579V36.5761V36.5732V36.5703V36.5674V36.5646V36.5617V36.5588V36.5559V36.553V36.5501V36.5472V36.5443V36.5414V36.5386V36.5357V36.5328V36.5299V36.527V36.5241V36.5212V36.5183V36.5154V36.5126V36.5097V36.5068V36.5039V36.501V36.4981V36.4952V36.4923V36.4894V36.4866V36.4837V36.4808V36.4779V36.475V36.4721V36.4692V36.4663V36.4634V36.4606V36.4577V36.4548V36.4519V36.449V36.4461V36.4432V36.4403V36.4375V36.4346V36.4317V36.4288V36.4259V36.423V36.4201V36.4172V36.4144V36.4115V36.4086V36.4057V36.4028V36.3999V36.397V36.3941V36.3912V36.3884V36.3855V36.3826V36.3797V36.3768V36.3739V36.371V36.3681V36.3652V36.3624V36.3595V36.3566V36.3537V36.3508V36.3479V36.345V36.3421V36.3393V36.3364V36.3335V36.3306V36.3277V36.3248V36.3219V36.319V36.3161V36.3132V36.3104V36.3075V36.3046V36.3017V36.2988V36.2959V36.293V36.2901V36.2872V36.2844V36.2815V36.2786V36.2757V36.2728V36.2699V36.267V36.2641V36.2612V36.2583V36.2554V36.2526V36.2497V36.2468V36.2439V36.241V36.2381V36.2352V36.2323V36.2294V36.2265V36.2236V36.2207V36.2179V36.215V36.2121V36.2092V36.2063V36.2034V36.2005V36.1976V36.1947V36.1918V36.1889V36.186V36.1831V36.1802V36.1773V36.1745V36.1716V36.1687V36.1658V36.1629V36.16V36.1571V36.1542V36.1513V36.1484V36.1455V36.1426V36.1397V36.1368V36.1339V36.131V36.1281V36.1252V36.1223V36.1194V36.1165V36.1136V36.1107V36.1078V36.1049V36.102V36.0992V36.0963V36.0934V36.0905V36.0876V36.0847V36.0818V36.0789V36.076V36.0731V36.0702V36.0673V36.0644V36.0615V36.0586V36.0557V36.0528V36.0499V36.047V36.044V36.0411V36.0382V36.0353V36.0324V36.0295V36.0266V36.0237V36.0208V36.0179V36.015V36.0121V36.0092V36.0063V36.0034V36.0005V35.9976V35.9947V35.9918V35.9889V35.986V35.9831V35.9802V35.9772V35.9743V35.9714V35.9685V35.9656V35.9627V35.9598V35.9569V35.954V35.9511V35.9482V35.9453V35.9423V35.9394V35.9365V35.9336V35.9307V35.9278V35.9249V35.922V35.9191V35.9161V35.9132V35.9103V35.9074V35.9045V35.9016V35.8987V35.8958V35.8928V35.8899V35.887V35.8841V35.8812V35.8783V35.8753V35.8724V35.8695V35.8666V35.8637V35.8608V35.8578V35.8549V35.852V35.8491V35.8462V35.8432V35.8403V35.8374V35.8345V35.8316V35.8286V35.8257V35.8228V35.8199V35.817V35.814V35.8111V35.8082V35.8053V35.8023V35.7994V35.7965V35.7936V35.7906V35.7877V35.7848V35.7819V35.7789V35.776V35.7731V35.7702V35.7672V35.7643V35.7614V35.7584V35.7555V35.7526V35.7497V35.7467V35.7438V35.7409V35.7379V35.735V35.7321V35.7291V35.7262V35.7233V35.7203V35.7174V35.7145V35.7115V35.7086V35.7057V35.7027V35.6998V35.6968V35.6939V35.691V35.688V35.6851V35.6822V35.6792V35.6763V35.6733V35.6704V35.6675V35.6645V35.6616V35.6586V35.6557V35.6527V35.6498V35.6469V35.6439V35.641V35.638V35.6351V35.6321V35.6292V35.6262V35.6233V35.6203V35.6174V35.6145V35.6115V35.6086V35.6056V35.6027V35.5997V35.5968V35.5938V35.5909V35.5879V35.5849V35.582V35.579V35.5761V35.5731V35.5702V35.5672V35.5643V35.5613V35.5584V35.5554V35.5524V35.5495V35.5465V35.5436V35.5406V35.5376V35.5347V35.5317V35.5288V35.5258V35.5228V35.5199V35.5169V35.514V35.511V35.508V35.5051V35.5021V35.4991V35.4962V35.4932V35.4902V35.4873V35.4843V35.4813V35.4784V35.4754V35.4724V35.4694V35.4665V35.4635V35.4605V35.4576V35.4546V35.4516V35.4486V35.4457V35.4427V35.4397C42.0964 35.1871 42.0685 34.9894 41.9436 34.863C41.8183 34.7362 41.6221 34.7078 41.3722 34.7078H41.3722C36.9688 34.7108 32.5639 34.7085 28.1574 34.701H28.1573C28.0982 34.701 28.0342 34.6843 27.9619 34.6565C27.9161 34.6389 27.874 34.6198 27.8295 34.5998C27.8003 34.5866 27.7701 34.5729 27.7372 34.5589C27.584 34.492 27.4293 34.418 27.2728 34.3433C26.9567 34.1921 26.6334 34.0377 26.3012 33.9304L26.3012 33.9304C26.106 33.8675 25.9026 33.8379 25.7025 33.8176C25.6222 33.8094 25.544 33.8028 25.4669 33.7963C25.4149 33.792 25.3635 33.7876 25.3122 33.7829C26.8123 32.1593 26.5616 29.9574 25.3689 28.683C24.7469 28.0057 23.8946 27.5851 22.9788 27.5034C22.0633 27.4217 21.1502 27.6847 20.4183 28.2409C19.6935 28.7696 19.1965 29.5539 19.0278 30.4352C18.7723 31.7245 19.1274 32.8436 20.0122 33.8007C19.0906 33.7861 18.1898 34.0794 17.4529 34.6353C17.3766 34.6802 17.289 34.7025 17.2005 34.6996L17.2005 34.6995L17.1962 34.6995C16.911 34.7022 16.6254 34.7022 16.3394 34.7022H16.3389C16.0532 34.7022 15.7669 34.7022 15.4808 34.7048C15.4808 34.7048 15.4807 34.7048 15.4807 34.7048L15.4816 34.8048M41.1966 37.6052L40.2005 37.5113H40.1005H29.4086M15.4816 34.8048C15.1774 34.807 15.0039 34.9701 15.0039 35.2706L14.9039 35.2695C14.8974 35.8609 14.8974 36.4522 14.9039 37.0435L14.9039 37.0448C14.9078 37.2059 14.9574 37.3445 15.0579 37.4444C15.1581 37.544 15.2971 37.5936 15.4574 37.5999L15.4582 37.5999C15.557 37.603 15.6568 37.602 15.7557 37.601C15.771 37.6008 15.7862 37.6007 15.8015 37.6005V39.4904V39.4942V39.4981V39.5019V39.5058V39.5096V39.5135V39.5173V39.5211V39.525V39.5288V39.5327V39.5365V39.5404V39.5442V39.5481V39.5519V39.5557V39.5596V39.5634V39.5673V39.5711V39.575V39.5788V39.5827V39.5865V39.5903V39.5942V39.598V39.6019V39.6057V39.6096V39.6134V39.6173V39.6211V39.625V39.6288V39.6326V39.6365V39.6403V39.6442V39.648V39.6519V39.6557V39.6596V39.6634V39.6672V39.6711V39.6749V39.6788V39.6826V39.6865V39.6903V39.6942V39.698V39.7019V39.7057V39.7095V39.7134V39.7172V39.7211V39.7249V39.7288V39.7326V39.7365V39.7403V39.7441V39.748V39.7518V39.7557V39.7595V39.7634V39.7672V39.7711V39.7749V39.7788V39.7826V39.7864V39.7903V39.7941V39.798V39.8018V39.8057V39.8095V39.8134V39.8172V39.821V39.8249V39.8287V39.8326V39.8364V39.8403V39.8441V39.848V39.8518V39.8556V39.8595V39.8633V39.8672V39.871V39.8749V39.8787V39.8826V39.8864V39.8903V39.8941V39.8979V39.9018V39.9056V39.9095V39.9133V39.9172V39.921V39.9249V39.9287V39.9325V39.9364V39.9402V39.9441V39.9479V39.9518V39.9556V39.9595V39.9633V39.9672V39.971V39.9748V39.9787V39.9825V39.9864V39.9902V39.9941V39.9979V40.0018V40.0056V40.0094V40.0133V40.0171V40.021V40.0248V40.0287V40.0325V40.0364V40.0402V40.0441V40.0479V40.0517V40.0556V40.0594V40.0633V40.0671V40.071V40.0748V40.0787V40.0825V40.0863V40.0902V40.094V40.0979V40.1017V40.1056V40.1094V40.1133V40.1171V40.121V40.1248V40.1286V40.1325V40.1363V40.1402V40.144V40.1479V40.1517V40.1556V40.1594V40.1632V40.1671V40.1709V40.1748V40.1786V40.1825V40.1863V40.1902V40.194V40.1979V40.2017V40.2055V40.2094V40.2132V40.2171V40.2209V40.2248V40.2286V40.2325V40.2363V40.2401V40.244V40.2478V40.2517V40.2555V40.2594V40.2632V40.2671V40.2709V40.2747V40.2786V40.2824V40.2863V40.2901V40.294V40.2978V40.3017V40.3055V40.3094V40.3132V40.317V40.3209V40.3247V40.3286V40.3324V40.3363V40.3401V40.344V40.3478V40.3516V40.3555V40.3593V40.3632V40.367V40.3709V40.3747V40.3786V40.3824V40.3863V40.3901V40.3939V40.3978V40.4016V40.4055V40.4093V40.4132V40.417V40.4209V40.4247V40.4285V40.4324V40.4362V40.4401V40.4439V40.4478V40.4516V40.4555V40.4593V40.4632V40.467V40.4708V40.4747V40.4785V40.4824V40.4862V40.4901V40.4939V40.4978V40.5016V40.5054V40.5093V40.5131V40.517V40.5208V40.5247V40.5285V40.5324V40.5362V40.5401V40.5439V40.5477V40.5516V40.5554V40.5593V40.5631V40.567V40.5708V40.5747V40.5785V40.5823V40.5862V40.59V40.5939V40.5977V40.6016V40.6054V40.6093V40.6131V40.6169V40.6208V40.6246V40.6285V40.6323V40.6362V40.64V40.6439V40.6477V40.6516V40.6554V40.6592V40.6631V40.6669V40.6708V40.6746V40.6785V40.6823V40.6862V40.69V40.6938V40.6977V40.7015V40.7054V40.7092V40.7131V40.7169V40.7208V40.7246V40.7285V40.7323V40.7361V40.74V40.7438V40.7477V40.7515V40.7554V40.7592V40.7631V40.7669V40.7707V40.7746V40.7784V40.7823V40.7861V40.79V40.7938V40.7977V40.8015V40.8054V40.8092V40.813V40.8169V40.8207V40.8246V40.8284V40.8323V40.8361V40.84V40.8438V40.8476V40.8515V40.8553V40.8592V40.863V40.8669V40.8707V40.8746V40.8784V40.8822V40.8861V40.8899V40.8938V40.8976V40.9015V40.9053V40.9092V40.913V40.9169V40.9207V40.9245V40.9284V40.9322V40.9361V40.9399V40.9438V40.9476V40.9515V40.9553V40.9591V40.963V40.9668V40.9707V40.9745V40.9784V40.9822V40.9861V40.9899V40.9938V40.9976V41.0014V41.0053V41.0091V41.013V41.0168V41.0207V41.0245V41.0284V41.0322V41.036V41.0399V41.0437V41.0476V41.0514V41.0553V41.0591V41.063V41.0668V41.0707V41.0745V41.0783V41.0822V41.086V41.0899V41.0937V41.0976V41.1014V41.1053V41.1091V41.1129V41.1168V41.1206V41.1245V41.1283V41.1322V41.136V41.1399V41.1437V41.1476V41.1514V41.1552V41.1591V41.1629V41.1668V41.1706V41.1745V41.1783V41.1822V41.186V41.1898V41.1937V41.1975V41.2014V41.2052V41.2091V41.2129V41.2168V41.2206V41.2245V41.2283V41.2321V41.236V41.2398V41.2437V41.2475V41.2514V41.2552V41.2591V41.2629V41.2667V41.2706V41.2744V41.2783V41.2821V41.286V41.2898V41.2937V41.2975V41.3013V41.3052V41.309V41.3129V41.3167V41.3206V41.3244V41.3283V41.3321V41.336V41.3398V41.3436V41.3475V41.3513V41.3552V41.359V41.3629V41.3667V41.3706V41.3744V41.3782V41.3821V41.3859V41.3898V41.3936V41.3975V41.4013V41.4052V41.409V41.4129V41.4167V41.4205V41.4244V41.4282V41.4321V41.4359V41.4398V41.4436V41.4475V41.4513V41.4551V41.459C15.8015 41.6504 15.8432 41.8144 15.9393 41.9318C16.0383 42.0528 16.1825 42.1092 16.3532 42.1075C16.5231 42.1058 16.6656 42.0481 16.7626 41.9256C16.8564 41.8071 16.896 41.6423 16.8961 41.4489C16.898 40.9764 16.8973 40.505 16.8967 40.034C16.8958 39.3901 16.8949 38.7469 16.9006 38.1027H16.9006L16.9006 38.1012C16.8989 37.8283 16.9276 37.556 16.9859 37.2893C17.3277 35.855 18.5121 34.9181 20.0068 34.9101L20.0069 34.91C21.7685 34.8988 23.5301 34.9025 25.2921 34.9101C25.5374 34.9112 25.7818 34.94 26.0206 34.996C27.456 35.3413 28.3858 36.5224 28.3975 38.0213C28.3975 38.0213 28.3975 38.0214 28.3975 38.0215L28.4975 38.0207M15.4816 34.8048C15.7674 34.8022 16.0534 34.8022 16.3394 34.8022C16.6254 34.8022 16.9113 34.8022 17.1971 34.7995M15.4816 34.8048L17.1971 34.7995M28.4975 38.0207C28.502 38.7875 28.5005 39.5557 28.499 40.3241C28.4983 40.7084 28.4975 41.0928 28.4975 41.477C28.4975 41.8114 28.6658 42.003 28.9482 42.003C29.2306 42.003 29.3989 41.8114 29.3989 41.477V37.7367C29.3989 37.6849 29.4017 37.6357 29.4047 37.5838C29.4061 37.5603 29.4074 37.5363 29.4086 37.5113M28.4975 38.0207C28.4855 36.4766 27.5248 35.2549 26.0437 34.8987L28.4975 38.0207ZM29.4086 37.5113V37.6113H29.5033M29.4086 37.5113L29.5085 37.5159C29.5072 37.5436 29.5057 37.5689 29.5044 37.5929C29.504 37.5991 29.5036 37.6052 29.5033 37.6113M26.2705 34.0256C26.0138 33.9428 25.738 33.9196 25.4624 33.8963C25.383 33.8896 25.3036 33.8829 25.2247 33.8748L26.2705 34.0256ZM26.2705 34.0256C26.5966 34.1309 26.9088 34.2801 27.2211 34.4295C27.3793 34.5051 27.5375 34.5808 27.6976 34.6508L26.2705 34.0256ZM17.1971 34.7995C17.3067 34.8032 17.415 34.775 17.5089 34.7184C18.2474 34.1597 19.1552 33.8717 20.0806 33.9024C20.0894 33.9024 20.0983 33.9021 20.1079 33.9015C20.0991 33.8925 20.0903 33.8834 20.0816 33.8743L20.0806 33.9024V33.8733L17.1971 34.7995ZM25.3504 31.2155L25.2504 31.2149V31.2149L25.3504 31.2155ZM25.3504 31.2155C25.3429 32.6814 24.1156 33.9046 22.6577 33.9009L21.1545 33.448C20.7094 33.1514 20.3624 32.7292 20.1575 32.235C19.9526 31.7408 19.899 31.1969 20.0036 30.6722C20.1083 30.1475 20.3663 29.6657 20.7451 29.288C21.1238 28.9103 21.6062 28.6536 22.131 28.5505C22.6559 28.4475 23.1995 28.5027 23.6929 28.7092C24.1862 28.9157 24.6072 29.2642 24.9023 29.7104C25.1974 30.1566 25.3534 30.6804 25.3504 31.2155ZM41.1966 41.5059V41.5131V41.5059ZM41.1966 41.5059V41.4987M41.1966 41.5059V41.4987M41.1966 41.4987V41.4915M41.1966 41.4987V41.4915M41.1966 41.4915V41.4843M41.1966 41.4915V41.4843M41.1966 41.4843V41.4772M41.1966 41.4843V41.4772M41.1966 41.4772V41.47M41.1966 41.4772V41.47M41.1966 41.47V41.4628M41.1966 41.47V41.4628M41.1966 41.4628V41.4556M41.1966 41.4628V41.4556M41.1966 41.4556V41.4484M41.1966 41.4556V41.4484M41.1966 41.4484V41.4412M41.1966 41.4484V41.4412M41.1966 41.4412V41.4341M41.1966 41.4412V41.4341M41.1966 41.4341V41.4269M41.1966 41.4341V41.4269M41.1966 41.4269V41.4197M41.1966 41.4269V41.4197M41.1966 41.4197V41.4125M41.1966 41.4197V41.4125M41.1966 41.4125V41.4053M41.1966 41.4125V41.4053M41.1966 41.4053V41.3981M41.1966 41.4053V41.3981M41.1966 41.3981V41.3909M41.1966 41.3981V41.3909M41.1966 41.3909V41.3838M41.1966 41.3909V41.3838M41.1966 41.3838V41.3766M41.1966 41.3838V41.3766M41.1966 41.3766V41.3694M41.1966 41.3766V41.3694M41.1966 41.3694V41.3622M41.1966 41.3694V41.3622M41.1966 41.3622V41.355M41.1966 41.3622V41.355M41.1966 41.355V41.3478M41.1966 41.355V41.3478M41.1966 41.3478V41.3406M41.1966 41.3478V41.3406M41.1966 41.3406V41.3335M41.1966 41.3406V41.3335M41.1966 41.3335V41.3263M41.1966 41.3335V41.3263M41.1966 41.3263V41.3191M41.1966 41.3263V41.3191M41.1966 41.3191V41.3119M41.1966 41.3191V41.3119M41.1966 41.3119V41.3047M41.1966 41.3119V41.3047M41.1966 41.3047V41.2975M41.1966 41.3047V41.2975M41.1966 41.2975V41.2903M41.1966 41.2975V41.2903M41.1966 41.2903V41.2831M41.1966 41.2903V41.2831M41.1966 41.2831V41.276M41.1966 41.2831V41.276M41.1966 41.276V41.2688M41.1966 41.276V41.2688M41.1966 41.2688V41.2616M41.1966 41.2688V41.2616M41.1966 41.2616V41.2544M41.1966 41.2616V41.2544M41.1966 41.2544V41.2472M41.1966 41.2544V41.2472M41.1966 41.2472V41.24M41.1966 41.2472V41.24M41.1966 41.24V41.2328M41.1966 41.24V41.2328M41.1966 41.2328V41.2257M41.1966 41.2328V41.2257M41.1966 41.2257V41.2185M41.1966 41.2257V41.2185M41.1966 41.2185V41.2113M41.1966 41.2185V41.2113M41.1966 41.2113V41.2041M41.1966 41.2113V41.2041M41.1966 41.2041V41.1969M41.1966 41.2041V41.1969M41.1966 41.1969V41.1897M41.1966 41.1969V41.1897M41.1966 41.1897V41.1825M41.1966 41.1897V41.1825M41.1966 41.1825V41.1754M41.1966 41.1825V41.1754M41.1966 41.1754V41.1682M41.1966 41.1754V41.1682M41.1966 41.1682V41.161M41.1966 41.1682V41.161M41.1966 41.161V41.1538M41.1966 41.161V41.1538M41.1966 41.1538V41.1466M41.1966 41.1538V41.1466M41.1966 41.1466V41.1394M41.1966 41.1466V41.1394M41.1966 41.1394V41.1322M41.1966 41.1394V41.1322M41.1966 41.1322V41.125M41.1966 41.1322V41.125M41.1966 41.125V41.1179M41.1966 41.125V41.1179M41.1966 41.1179V41.1107M41.1966 41.1179V41.1107M41.1966 41.1107V41.1035M41.1966 41.1107V41.1035M41.1966 41.1035V41.0963M41.1966 41.1035V41.0963M41.1966 41.0963V41.0891M41.1966 41.0963V41.0891M41.1966 41.0891V41.0819M41.1966 41.0891V41.0819M41.1966 41.0819V41.0747M41.1966 41.0819V41.0747M41.1966 41.0747V41.0676M41.1966 41.0747V41.0676M41.1966 41.0676V41.0604M41.1966 41.0676V41.0604M41.1966 41.0604V41.0532M41.1966 41.0604V41.0532M41.1966 41.0532V41.046M41.1966 41.0532V41.046M41.1966 41.046V41.0388M41.1966 41.046V41.0388M41.1966 41.0388V41.0316M41.1966 41.0388V41.0316M41.1966 41.0316V41.0244M41.1966 41.0316V41.0244M41.1966 41.0244V41.0172M41.1966 41.0244V41.0172M41.1966 41.0172V41.0101M41.1966 41.0172V41.0101M41.1966 41.0101V41.0029M41.1966 41.0101V41.0029M41.1966 41.0029V40.9957M41.1966 41.0029V40.9957M41.1966 40.9957V40.9885M41.1966 40.9957V40.9885M41.1966 40.9885V40.9813M41.1966 40.9885V40.9813M41.1966 40.9813V40.9741M41.1966 40.9813V40.9741M41.1966 40.9741V40.9669M41.1966 40.9741V40.9669M41.1966 40.9669V40.9597M41.1966 40.9669V40.9597M41.1966 40.9597V40.9526M41.1966 40.9597V40.9526M41.1966 40.9526V40.9454M41.1966 40.9526V40.9454M41.1966 40.9454V40.9382M41.1966 40.9454V40.9382M41.1966 40.9382V40.931M41.1966 40.9382V40.931M41.1966 40.931V40.9238M41.1966 40.931V40.9238M41.1966 40.9238V40.9166M41.1966 40.9238V40.9166M41.1966 40.9166V40.9094M41.1966 40.9166V40.9094M41.1966 40.9094V40.9022M41.1966 40.9094V40.9022M41.1966 40.9022V40.8951M41.1966 40.9022V40.8951M41.1966 40.8951V40.8879M41.1966 40.8951V40.8879M41.1966 40.8879V40.8807M41.1966 40.8879V40.8807M41.1966 40.8807V40.8735M41.1966 40.8807V40.8735M41.1966 40.8735V40.8663M41.1966 40.8735V40.8663M41.1966 40.8663V40.8591M41.1966 40.8663V40.8591M41.1966 40.8591V40.8519M41.1966 40.8591V40.8519M41.1966 40.8519V40.8447M41.1966 40.8519V40.8447M41.1966 40.8447V40.8376M41.1966 40.8447V40.8376M41.1966 40.8376V40.8304M41.1966 40.8376V40.8304M41.1966 40.8304V40.8232M41.1966 40.8304V40.8232M41.1966 40.8232V40.816M41.1966 40.8232V40.816M41.1966 40.816V40.8088M41.1966 40.816V40.8088M41.1966 40.8088V40.8016M41.1966 40.8088V40.8016M41.1966 40.8016V40.7944M41.1966 40.8016V40.7944M41.1966 40.7944V40.7872M41.1966 40.7944V40.7872M41.1966 40.7872V40.78M41.1966 40.7872V40.78M41.1966 40.78V40.7729M41.1966 40.78V40.7729M41.1966 40.7729V40.7657M41.1966 40.7729V40.7657M41.1966 40.7657V40.7585M41.1966 40.7657V40.7585M41.1966 40.7585V40.7513M41.1966 40.7585V40.7513M41.1966 40.7513V40.7441M41.1966 40.7513V40.7441M41.1966 40.7441V40.7369M41.1966 40.7441V40.7369M41.1966 40.7369V40.7297M41.1966 40.7369V40.7297M41.1966 40.7297V40.7225M41.1966 40.7297V40.7225M41.1966 40.7225V40.7154M41.1966 40.7225V40.7154M41.1966 40.7154V40.7082M41.1966 40.7154V40.7082M41.1966 40.7082V40.701M41.1966 40.7082V40.701M41.1966 40.701V40.6938M41.1966 40.701V40.6938M41.1966 40.6938V40.6866M41.1966 40.6938V40.6866M41.1966 40.6866V40.6794M41.1966 40.6866V40.6794M41.1966 40.6794V40.6722M41.1966 40.6794V40.6722M41.1966 40.6722V40.665M41.1966 40.6722V40.665M41.1966 40.665V40.6578M41.1966 40.665V40.6578M41.1966 40.6578V40.6507M41.1966 40.6578V40.6507M41.1966 40.6507V40.6435M41.1966 40.6507V40.6435M41.1966 40.6435V40.6363M41.1966 40.6435V40.6363M41.1966 40.6363V40.6291M41.1966 40.6363V40.6291M41.1966 40.6291V40.6219M41.1966 40.6291V40.6219M41.1966 40.6219V40.6147M41.1966 40.6219V40.6147M41.1966 40.6147V40.6075M41.1966 40.6147V40.6075M41.1966 40.6075V40.6003M41.1966 40.6075V40.6003M41.1966 40.6003V40.5931M41.1966 40.6003V40.5931M41.1966 40.5931V40.586M41.1966 40.5931V40.586M41.1966 40.586V40.5788M41.1966 40.586V40.5788M41.1966 40.5788V40.5716M41.1966 40.5788V40.5716M41.1966 40.5716V40.5644M41.1966 40.5716V40.5644M41.1966 40.5644V40.5572M41.1966 40.5644V40.5572M41.1966 40.5572V40.55M41.1966 40.5572V40.55M41.1966 40.55V40.5428M41.1966 40.55V40.5428M41.1966 40.5428V40.5356M41.1966 40.5428V40.5356M41.1966 40.5356V40.5284M41.1966 40.5356V40.5284M41.1966 40.5284V40.5213M41.1966 40.5284V40.5213M41.1966 40.5213V40.5141M41.1966 40.5213V40.5141M41.1966 40.5141V40.5069M41.1966 40.5141V40.5069M41.1966 40.5069V40.4997M41.1966 40.5069V40.4997M41.1966 40.4997V40.4925M41.1966 40.4997V40.4925M41.1966 40.4925V40.4853M41.1966 40.4925V40.4853M41.1966 40.4853V40.4781M41.1966 40.4853V40.4781M41.1966 40.4781V40.4709M41.1966 40.4781V40.4709M41.1966 40.4709V40.4637M41.1966 40.4709V40.4637M41.1966 40.4637V40.4565M41.1966 40.4637V40.4565M41.1966 40.4565V40.4494M41.1966 40.4565V40.4494M41.1966 40.4494V40.4422M41.1966 40.4494V40.4422M41.1966 40.4422V40.435M41.1966 40.4422V40.435M41.1966 40.435V40.4278M41.1966 40.435V40.4278M41.1966 40.4278V40.4206M41.1966 40.4278V40.4206M41.1966 40.4206V40.4134M41.1966 40.4206V40.4134M41.1966 40.4134V40.4062M41.1966 40.4134V40.4062M41.1966 40.4062V40.399M41.1966 40.4062V40.399M41.1966 40.399V40.3918M41.1966 40.399V40.3918M41.1966 40.3918V40.3847M41.1966 40.3918V40.3847M41.1966 40.3847V40.3775M41.1966 40.3847V40.3775M41.1966 40.3775V40.3703M41.1966 40.3775V40.3703M41.1966 40.3703V40.3631M41.1966 40.3703V40.3631M41.1966 40.3631V40.3559M41.1966 40.3631V40.3559M41.1966 40.3559V40.3487M41.1966 40.3559V40.3487M41.1966 40.3487V40.3415M41.1966 40.3487V40.3415M41.1966 40.3415V40.3343M41.1966 40.3415V40.3343M41.1966 40.3343V40.3271M41.1966 40.3343V40.3271M41.1966 40.3271V40.3199M41.1966 40.3271V40.3199M41.1966 40.3199V40.3128M41.1966 40.3199V40.3128M41.1966 40.3128V40.3056M41.1966 40.3128V40.3056M41.1966 40.3056V40.2984M41.1966 40.3056V40.2984M41.1966 40.2984V40.2912M41.1966 40.2984V40.2912M41.1966 40.2912V40.284M41.1966 40.2912V40.284M41.1966 40.284V40.2768M41.1966 40.284V40.2768M41.1966 40.2768V40.2696M41.1966 40.2768V40.2696M41.1966 40.2696V40.2624M41.1966 40.2696V40.2624M41.1966 40.2624V40.2552M41.1966 40.2624V40.2552M41.1966 40.2552V40.248M41.1966 40.2552V40.248M41.1966 40.248V40.2409M41.1966 40.248V40.2409M41.1966 40.2409V40.2337M41.1966 40.2409V40.2337M41.1966 40.2337V40.2265M41.1966 40.2337V40.2265M41.1966 40.2265V40.2193M41.1966 40.2265V40.2193M41.1966 40.2193V40.2121M41.1966 40.2193V40.2121M41.1966 40.2121V40.2049M41.1966 40.2121V40.2049M41.1966 40.2049V40.1977M41.1966 40.2049V40.1977M41.1966 40.1977V40.1905M41.1966 40.1977V40.1905M41.1966 40.1905V40.1833M41.1966 40.1905V40.1833M41.1966 40.1833V40.1761M41.1966 40.1833V40.1761M41.1966 40.1761V40.169M41.1966 40.1761V40.169M41.1966 40.169V40.1618M41.1966 40.169V40.1618M41.1966 40.1618V40.1546M41.1966 40.1618V40.1546M41.1966 40.1546V40.1474M41.1966 40.1546V40.1474M41.1966 40.1474V40.1402M41.1966 40.1474V40.1402M41.1966 40.1402V40.133M41.1966 40.1402V40.133M41.1966 40.133V40.1258M41.1966 40.133V40.1258M41.1966 40.1258V40.1186V40.1258ZM15.4613 37.5C15.1767 37.4887 15.0107 37.3264 15.0039 37.0424L15.8015 37.5005C15.7849 37.5007 15.7683 37.5008 15.7518 37.501C15.6542 37.502 15.5581 37.503 15.4613 37.5ZM20.147 33.798C20.1175 33.8008 20.0999 33.8023 20.0822 33.8024L25.2956 28.7509C24.6904 28.0919 23.861 27.6825 22.9699 27.603C22.0789 27.5235 21.1902 27.7796 20.478 28.3212C19.7732 28.835 19.2899 29.5975 19.126 30.4543C18.8714 31.7387 19.2367 32.8476 20.147 33.798ZM29.4685 36.5073H29.4684L29.4687 36.6073L29.4685 36.5073Z" fill="#00BAA4" stroke="#00BAA4" stroke-width="0.2"/>
<path d="M33.8278 32.3177L33.8278 32.3178C33.8037 32.4612 33.7805 32.6069 33.7572 32.7534C33.72 32.9868 33.6825 33.2223 33.6405 33.4542L33.8278 32.3177ZM33.8278 32.3177L34.1473 30.41M33.8278 32.3177L34.1473 30.41M32.5497 33.2494L32.5497 33.2493C32.591 33.0043 32.6331 32.7595 32.6751 32.515C32.8105 31.7268 32.9456 30.9404 33.0555 30.1505L33.0555 30.1503C33.07 30.0474 33.0571 29.934 33.0292 29.8121C33.0068 29.7144 32.9762 29.6171 32.9452 29.5183L32.5497 33.2494ZM32.5497 33.2494C32.5184 33.4352 32.5349 33.6054 32.6069 33.7397M32.5497 33.2494L32.6069 33.7397M28.0417 33.9994L28.0413 33.9994C27.8825 33.9963 27.7435 33.9389 27.6459 33.828C27.5492 33.7182 27.5024 33.5665 27.5054 33.3913L27.6054 33.3929L27.5054 33.3914C27.5087 33.1666 27.5074 32.9392 27.506 32.7104C27.5025 32.1306 27.4989 31.5424 27.5723 30.9676L27.5723 30.9676C27.82 29.0306 29.602 27.516 31.5463 27.4991L31.5472 27.4991L31.6986 27.4991C30.001 25.6164 30.5886 23.2134 31.9529 22.0631L31.9531 22.0629C32.672 21.4603 33.5916 21.151 34.5284 21.1968C35.4652 21.2426 36.3503 21.6401 37.007 22.31C38.3012 23.6301 38.4976 25.8842 37.0003 27.4868C37.0279 27.4887 37.0554 27.4907 37.0829 27.4926C37.2949 27.5075 37.5056 27.5223 37.7115 27.5535L37.712 27.5536C38.6781 27.7058 39.5589 28.1959 40.1977 28.9367C40.8365 29.6775 41.1918 30.621 41.2005 31.5993L41.2005 31.6002L41.2005 32.0431V32.0985V32.1019V32.1054V32.1088V32.1123V32.1158V32.1192V32.1227V32.1261V32.1296V32.1331V32.1365V32.14V32.1434V32.1469V32.1504V32.1538V32.1573V32.1607V32.1642V32.1677V32.1711V32.1746V32.178V32.1815V32.185V32.1884V32.1919V32.1953V32.1988V32.2023V32.2057V32.2092V32.2127V32.2161V32.2196V32.223V32.2265V32.23V32.2334V32.2369V32.2403V32.2438V32.2473V32.2507V32.2542V32.2576V32.2611V32.2646V32.268V32.2715V32.2749V32.2784V32.2819V32.2853V32.2888V32.2922V32.2957V32.2992V32.3026V32.3061V32.3095V32.313V32.3165V32.3199V32.3234V32.3268V32.3303V32.3338V32.3372V32.3407V32.3441V32.3476V32.3511V32.3545V32.358V32.3615V32.3649V32.3684V32.3718V32.3753V32.3788V32.3822V32.3857V32.3891V32.3926V32.3961V32.3995V32.403V32.4064V32.4099V32.4134V32.4168V32.4203V32.4237V32.4272V32.4307V32.4341V32.4376V32.441V32.4445V32.448V32.4514V32.4549V32.4583V32.4618V32.4653V32.4687V32.4722V32.4756V32.4791V32.4826V32.486V32.929V32.9324V32.9359V32.9393V32.9428V32.9463V32.9497V32.9532V32.9566V32.9601V32.9636V32.967V32.9705V32.974V32.9774V32.9809V32.9843V32.9878V32.9913V32.9947V32.9982V33.0016V33.0051V33.0086V33.012V33.0155V33.0189V33.0224V33.0259V33.0293V33.0328V33.0362V33.0397V33.0432V33.0466V33.0501V33.0535V33.057V33.0605V33.0639V33.0674V33.0812V33.0847V33.0881V33.0916V33.0951V33.0985V33.102V33.1054V33.1089V33.1124V33.1158V33.1193V33.1227V33.1262V33.1297V33.1331V33.1366V33.1401V33.1435V33.147V33.1504V33.1539V33.1574V33.1608V33.1643V33.1677V33.1712V33.1747V33.1781V33.1816V33.185V33.1885V33.192V33.1954V33.1989V33.2023V33.2058V33.2093V33.2127V33.2162V33.2196V33.2231V33.2266V33.23V33.2335V33.2369V33.2404V33.2439V33.2473V33.2508V33.2542V33.2577V33.2612V33.2646V33.2681V33.2715V33.275V33.2785V33.2819V33.2854V33.2889V33.2923V33.2958V33.2992V33.3027V33.3062V33.3096V33.3131V33.3165V33.32V33.3235V33.3269V33.3304V33.3338V33.3373V33.3408V33.3442V33.3477V33.3511V33.3546V33.3581V33.3615V33.365V33.3684V33.3719C41.2005 33.5545 41.1542 33.712 41.0565 33.8253C40.957 33.9406 40.8148 33.9979 40.6498 33.9979C40.4844 33.9979 40.3444 33.9403 40.2463 33.8247C40.1505 33.7119 40.1045 33.5555 40.0992 33.3748L40.0992 33.3738C40.0949 33.1497 40.0959 32.9276 40.0969 32.7068C40.099 32.2161 40.1012 31.7323 40.0457 31.2494C39.8743 29.7785 38.7043 28.7119 37.2095 28.611C36.8692 28.5915 36.5282 28.5899 36.1877 28.6063C36.16 28.6122 36.1338 28.624 36.1109 28.6409C36.0875 28.6582 36.0681 28.6804 36.0542 28.7059C36.0257 28.7741 35.9969 28.8418 35.9683 28.9091C35.8432 29.2026 35.7212 29.4892 35.6501 29.7877L35.6501 29.7878C35.6054 29.9745 35.6409 30.188 35.6786 30.4152C35.6829 30.4408 35.6872 30.4665 35.6913 30.4924L35.6914 30.4928C35.81 31.2448 35.937 31.9953 36.0641 32.7461C36.093 32.9173 36.122 33.0885 36.1509 33.2597L28.0417 33.9994ZM28.0417 33.9994C28.2071 34.002 28.3511 33.9465 28.4525 33.8327C28.5524 33.7207 28.6007 33.5637 28.6007 33.3817C28.6007 33.1942 28.5999 33.0067 28.5992 32.8193C28.5977 32.4446 28.5962 32.07 28.6007 31.6954C28.6233 29.9388 29.9404 28.6226 31.6978 28.6015C31.783 28.6005 31.8722 28.594 31.9587 28.5875L31.9678 28.5868C32.0523 28.5805 32.1342 28.5744 32.2131 28.5726C32.3801 28.5688 32.5104 28.5857 32.5983 28.6427C32.6746 28.6944 32.7336 28.8029 32.7855 28.9588C32.8107 29.0343 32.8325 29.1154 32.8543 29.1983C32.8567 29.2074 32.8591 29.2166 32.8615 29.2258C32.8806 29.2989 32.9001 29.3733 32.9215 29.4424L28.0417 33.9994ZM34.1473 30.41H34.5505H34.1473ZM33.4122 33.8911C33.2912 33.9905 33.1376 34.0239 32.9716 33.9949L33.4122 33.8911ZM33.4122 33.8911C33.5311 33.7933 33.6069 33.6414 33.6405 33.4543L33.4122 33.8911ZM32.6069 33.7397C32.6807 33.8773 32.8074 33.9666 32.9713 33.9949L32.6069 33.7397ZM34.5646 29.2955L34.5646 29.2954L34.5631 29.2957C34.4464 29.3168 34.3268 29.3169 34.2101 29.2961C34.1333 29.2786 34.0658 29.2331 34.0208 29.1686C33.9505 29.0247 33.8979 28.8748 33.8393 28.708C33.8283 28.6768 33.8171 28.645 33.8056 28.6125L34.8941 28.6107C34.8862 28.6324 34.8783 28.654 34.8705 28.6754C34.7988 28.8719 34.7314 29.0566 34.6544 29.2382C34.6447 29.2524 34.6324 29.2646 34.6181 29.2742C34.6019 29.285 34.5837 29.2923 34.5646 29.2955ZM36.1879 26.7283C35.7016 27.2171 35.0421 27.4941 34.3528 27.4991C32.9479 27.5063 31.7589 26.33 31.7508 24.9246C31.7505 24.2306 32.0251 23.5647 32.5144 23.0727C33.0038 22.5807 33.668 22.3028 34.3618 22.2997C35.7662 22.2991 36.9452 23.4785 36.9498 24.8887C36.948 25.5784 36.6742 26.2395 36.1879 26.7283Z" fill="#00BAA4" stroke="#00BAA4" stroke-width="0.2"/>
<path d="M26.5366 25.7994L26.5364 25.7995C26.2947 25.9051 26.0574 25.9343 25.8311 25.888C25.6054 25.8419 25.3981 25.7222 25.213 25.5422C25.2129 25.5422 25.2129 25.5422 25.2129 25.5421L25.2826 25.4704C24.8454 25.0466 24.415 24.6156 23.9914 24.1773L26.5366 25.7994ZM26.5366 25.7994C26.7692 25.6972 26.9491 25.5497 27.0703 25.3588C27.1913 25.1682 27.2498 24.9407 27.2498 24.6845V24.1021C27.7998 24.0992 28.3478 24.0977 28.8939 24.0977L28.8942 24.0977C29.3383 24.0961 29.7165 23.9462 29.9838 23.6779C30.2511 23.4095 30.4 23.0305 30.4 22.5851V22.5731V22.5611V22.549V22.537V22.525V22.5129V22.5009V22.4889V22.4768V22.4648V22.4528V22.4407V22.4287V22.4167V22.4046V22.3926V22.3806V22.3685V22.3565V22.3445V22.3324V22.3204V22.3084V22.2963V22.2843V22.2723V22.2602V22.2482V22.2361V22.2241V22.2121V22.2V22.188V22.176V22.1639V22.1519V22.1399V22.1278V22.1158V22.1038V22.0917V22.0797V22.0677V22.0556V22.0436V22.0316V22.0195V22.0075V21.9955V21.9834V21.9714V21.9594V21.9473V21.9353V21.9233V21.9112V21.8992V21.8872V21.8751V21.8631V21.8511V21.839V21.827V21.815V21.8029V21.7909V21.7789V21.7668V21.7548V21.7428V21.7307V21.7187V21.7067V21.6946V21.6826V21.6706V21.6585V21.6465V21.6345V21.6224V21.6104V21.5984V21.5863V21.5743V21.5623V21.5502V21.5382V21.5262V21.5141V21.5021V21.4901V21.478V21.466V21.454V21.4419V21.4299V21.4179V21.4058V21.3938V21.3818V21.3697V21.3577V21.3456V21.3336V21.3216V21.3095V21.2975V21.2855V21.2734V21.2614V21.2494V21.2373V21.2253V21.2133V21.2012V21.1892V21.1772V21.1651V21.1531V21.1411V21.129V21.117V21.105V21.0929V21.0809V21.0689V21.0568V21.0448V21.0328V21.0207V21.0087V20.9967V20.9846V20.9726V20.9606V20.9485V20.9365V20.9245V20.9124V20.9004V20.8884V20.8763V20.8643V20.8523V20.8402V20.8282V20.8162V20.8041V20.7921V20.7801V20.768V20.756V20.744V20.7319V20.7199V20.7079V20.6958V20.6838V20.6718V20.6597V20.6477V20.6357V20.6236V20.6116V20.5996V20.5875V20.5755V20.5635V20.5514V20.5394V20.5274V20.5153V20.5033V20.4913V20.4792V20.4672V20.4551V20.4431V20.4311V20.419V20.407V20.395V20.3829V20.3709V20.3589V20.3468V20.3348V20.3228V20.3107V20.2987V20.2867V20.2746V20.2626V20.2506V20.2385V20.2265V20.2145V20.2024V20.1904V20.1784V20.1663V20.1543V20.1423V20.1302V20.1182V20.1062V20.0941V20.0821V20.0701V20.058V20.046V20.034V20.0219V20.0099V19.9979V19.9858V19.9738V19.9618V19.9497V19.9377V19.9257V19.9136V19.9016V19.8896V19.8775V19.8655V19.8535V19.8414V19.8294V19.8174V19.8053V19.7933V19.7813V19.7692V19.7572V19.7452V19.7331V19.7211V19.7091V19.697V19.685V19.673V19.6609V19.6489V19.6369V19.6248V19.6128V19.6008V19.5887V19.5767V19.5646V19.5526V19.5406V19.5285V19.5165V19.5045V19.4924V19.4804V19.4684V19.4563V19.4443V19.4323V19.4202V19.4082V19.3962V19.3841V19.3721V19.3601V19.348V19.336V19.324V19.3119V19.2999V19.2879V19.2758V19.2638V19.2518V19.2397V19.2277V19.2157V19.2036V19.1916V19.1796V19.1675V19.1555V19.1435V19.1314V19.1194V19.1074V19.0953V19.0833V19.0713V19.0592V19.0472V19.0352V19.0231V19.0111V18.9991V18.987V18.975V18.963V18.9509V18.9389V18.9269V18.9148V18.9028V18.8908V18.8787V18.8667V18.8547V18.8426V18.8306V18.8186V18.8065V18.7945V18.7825V18.7704V18.7584V18.7464V18.7343V18.7223V18.7103V18.6982V18.6862V18.6741V18.6621V18.6501V18.638V18.626V18.614V18.6019V18.5899V18.5779V18.5658V18.5538V18.5418V18.5297V18.5177V18.5057V18.4936V18.4816V18.4696V18.4575V18.4455V18.4335V18.4214V18.4094V18.3974V18.3853V18.3733V18.3613V18.3492V18.3372V18.3252V18.3131V18.3011V18.2891V18.277V18.265V18.253V18.2409V18.2289V18.2169V18.2048V18.1928V18.1808V18.1687V18.1567V18.1447V18.1326V18.1206V18.1086V18.0965V18.0845V18.0725V18.0604V18.0484V18.0364V18.0243V18.0123V18.0003V17.9882V17.9762V17.9642V17.9521V17.9401V17.9281V17.916V17.904V17.892V17.8799V17.8679V17.8559V17.8438V17.8318V17.8198V17.8077V17.7957V17.7837V17.7716V17.7596V17.7475V17.7355V17.7235V17.7114V17.6994V17.6874V17.6753V17.6633V17.6513V17.6392V17.6272V17.6152V17.6031V17.5911V17.5791V17.567V17.555V17.543V17.5309V17.5189V17.5069V17.4948V17.4828V17.4708V17.4587V17.4467V17.4347V17.4226V17.4106V17.3986V17.3865V17.3745V17.3625V17.3504V17.3384V17.3264V17.3143V17.3023V17.2903V17.2782V17.2662V17.2542V17.2421V17.2301V17.2181V17.206V17.194V17.182V17.1699V17.1579V17.1459V17.1338V17.1218V17.1098V17.0977V17.0857V17.0737V17.0616V17.0496V17.0376V17.0255V17.0135V17.0015V16.9894V16.9774V16.9654V16.9533V16.9413V16.9293V16.9172V16.9052V16.8932V16.8811V16.8691V16.857V16.845V16.833V16.8209V16.8089V16.7969V16.7848V16.7728V16.7608V16.7487V16.7367V16.7247V16.7126V16.7006V16.6886V16.6765V16.6645V16.6525V16.6404V16.6284V16.6164V16.6043V16.5923V16.5803V16.5682V16.5562V16.5442V16.5321V16.5201V16.5081V16.496V16.484V16.472V16.4599V16.4479V16.4359V16.4238V16.4237C30.3996 15.9684 30.2524 15.5846 29.9835 15.3143C29.7144 15.044 29.3325 14.8962 28.8796 14.8962H16.4233C15.971 14.8962 15.5889 15.0449 15.3197 15.3155C15.0506 15.586 14.9029 15.9698 14.9029 16.4238V16.4358V16.4477V16.4596V16.4715V16.4834V16.4954V16.5073V16.5192V16.5311V16.5431V16.555V16.5669V16.5788V16.5907V16.6027V16.6146V16.6265V16.6384V16.6504V16.6623V16.6742V16.6861V16.698V16.71V16.7219V16.7338V16.7457V16.7577V16.7696V16.7815V16.7934V16.8053V16.8173V16.8292V16.8411V16.853V16.8649V16.8769V16.8888V16.9007V16.9126V16.9246V16.9365V16.9484V16.9603V16.9722V16.9842V16.9961V17.008V17.0199V17.0319V17.0438V17.0557V17.0676V17.0795V17.0915V17.1034V17.1153V17.1272V17.1391V17.1511V17.163V17.1749V17.1868V17.1988V17.2107V17.2226V17.2345V17.2464V17.2584V17.2703V17.2822V17.2941V17.306V17.318V17.3299V17.3418V17.3537V17.3657V17.3776V17.3895V17.4014V17.4133V17.4253V17.4372V17.4491V17.461V17.4729V17.4849V17.4968V17.5087V17.5206V17.5326V17.5445V17.5564V17.5683V17.5802V17.5922V17.6041V17.616V17.6279V17.6398V17.6518V17.6637V17.6756V17.6875V17.6994V17.7114V17.7233V17.7352V17.7471V17.7591V17.771V17.7829V17.7948V17.8067V17.8187V17.8306V17.8425V17.8544V17.8663V17.8783V17.8902V17.9021V17.914V17.9259V17.9379V17.9498V17.9617V17.9736V17.9855V17.9975V18.0094V18.0213V18.0332V18.0452V18.0571V18.069V18.0809V18.0928V18.1048V18.1167V18.1286V18.1405V18.1524V18.1644V18.1763V18.1882V18.2001V18.212V18.224V18.2359V18.2478V18.2597V18.2716V18.2836V18.2955V18.3074V18.3193V18.3312V18.3432V18.3551V18.367V18.3789V18.3908V18.4028V18.4147V18.4266V18.4385V18.4504V18.4624V18.4743V18.4862V18.4981V18.5101V18.522V18.5339V18.5458V18.5577V18.5697V18.5816V18.5935V18.6054V18.6173V18.6293V18.6412V18.6531V18.665V18.6769V18.6889V18.7008V18.7127V18.7246V18.7365V18.7485V18.7604V18.7723V18.7842V18.7961V18.8081V18.82V18.8319V18.8438V18.8557V18.8677V18.8796V18.8915V18.9034V18.9153V18.9273V18.9392V18.9511V18.963V18.9749V18.9869V18.9988V19.0107V19.0226V19.0345V19.0464V19.0584V19.0703V19.0822V19.0941V19.106V19.118V19.1299V19.1418V19.1537V19.1656V19.1776V19.1895V19.2014V19.2133V19.2252V19.2372V19.2491V19.261V19.2729V19.2848V19.2968V19.3087V19.3206V19.3325V19.3444V19.3564V19.3683V19.3802V19.3921V19.404V19.416V19.4279V19.4398V19.4517V19.4636V19.4756V19.4875V19.4994V19.5113V19.5232V19.5351V19.5471V19.559V19.5709V19.5828V19.5947V19.6067V19.6186V19.6305V19.6424V19.6543V19.6663V19.6782V19.6901V19.702V19.7139V19.7259V19.7378V19.7497V19.7616V19.7735V19.7854V19.7974V19.8093V19.8212V19.8331V19.845V19.857V19.8689V19.8808V19.8927V19.9046V19.9166V19.9285V19.9404V19.9523V19.9642V19.9762V19.9881V20V20.0119V20.0238V20.0357V20.0477V20.0596V20.0715V20.0834V20.0953V20.1073V20.1192V20.1311V20.143V20.1549V20.1669V20.1788V20.1907V20.2026V20.2145V20.2264V20.2384V20.2503V20.2622V20.2741V20.286V20.298V20.3099V20.3218V20.3337V20.3456V20.3575V20.3695V20.3814V20.3933V20.4052V20.4171V20.4291V20.441V20.4529V20.4648V20.4767V20.4887V20.5006V20.5125V20.5244V20.5363V20.5482V20.5602V20.5721V20.584V20.5959V20.6078V20.6198V20.6317V20.6436V20.6555V20.6674V20.6793V20.6913V20.7032V20.7151V20.727V20.7389V20.7509V20.7628V20.7747V20.7866V20.7985V20.8104V20.8224V20.8343V20.8462V20.8581V20.87V20.8819V20.8939V20.9058V20.9177V20.9296V20.9415V20.9535V20.9654V20.9773V20.9892V21.0011V21.013V21.025V21.0369V21.0488V21.0607V21.0726V21.0846V21.0965V21.1084V21.1203V21.1322V21.1441V21.1561V21.168V21.1799V21.1918V21.2037V21.2156V21.2276V21.2395V21.2514V21.2633V21.2752V21.2872V21.2991V21.311V21.3229V21.3348V21.3467V21.3587V21.3706V21.3825V21.3944V21.4063V21.4182V21.4302V21.4421V21.454V21.4659V21.4778V21.4898V21.5017V21.5136V21.5255V21.5374V21.5493V21.5613V21.5732V21.5851V21.597V21.6089V21.6208V21.6328V21.6447V21.6566V21.6685V21.6804V21.6923V21.7043V21.7162V21.7281V21.74V21.7519V21.7638V21.7758V21.7877V21.7996V21.8115V21.8234V21.8353V21.8473V21.8592V21.8711V21.883V21.8949V21.9069V21.9188V21.9307V21.9426V21.9545V21.9664V21.9784V21.9903V22.0022V22.0141V22.026V22.0379V22.0499V22.0618V22.0737V22.0856V22.0975V22.1094V22.1214V22.1333V22.1452V22.1571V22.169V22.1809V22.1929V22.2048V22.2167V22.2286V22.2405V22.2524V22.2644V22.2763V22.2882V22.3001V22.312V22.3239V22.3359V22.3478V22.3597V22.3716V22.3835V22.3954V22.4074V22.4193V22.4312V22.4431V22.455V22.4669V22.4789V22.4908V22.5027V22.5146V22.5265C14.9029 23.0074 15.045 23.4026 15.3188 23.6776C15.5926 23.9526 15.9861 24.0954 16.4651 24.0955L26.5366 25.7994ZM25.9199 24.6779L25.9202 24.6782L25.8504 24.7498C25.9158 24.813 26.0562 24.8866 26.1043 24.858L29.3024 22.4287C29.302 22.6942 29.2653 22.8237 29.1965 22.8939C29.1283 22.9634 29.0028 23.0006 28.7429 23.0006H28.7406H28.7383H28.736H28.7337H28.7314H28.7291H28.7268H28.7245H28.7222H28.7199H28.7176H28.7152H28.7129H28.7106H28.7083H28.706H28.7037H28.7014H28.6991H28.6968H28.6945H28.6922H28.6899H28.6876H28.6853H28.683H28.6807H28.6783H28.676H28.6737H28.6714H28.6691H28.6668H28.6645H28.6622H28.6599H28.6576H28.6553H28.653H28.6507H28.6484H28.6461H28.6438H28.6415H28.6391H28.6368H28.6345H28.6322H28.6299H28.6276H28.6253H28.623H28.6207H28.6184H28.6161H28.6138H28.6115H28.6092H28.6069H28.6046H28.6022H28.5999H28.5976H28.5953H28.593H28.5907H28.5884H28.5861H28.5838H28.5815H28.5792H28.5769H28.5746H28.5723H28.57H28.5677H28.5653H28.563H28.5607H28.5584H28.5561H28.5538H28.5515H28.5492H28.5469H28.5446H28.5423H28.54H28.5377H28.5354H28.5331H28.5308H28.5284H28.5261H28.5238H28.5215H28.5192H28.5169H28.5146H28.5123H28.51H28.5077H28.5054H28.5031H28.5008H28.4985H28.4962H28.4939H28.4916H28.4892H28.4869H28.4846H28.4823H28.48H28.4777H28.4754H28.4731H28.4708H28.4685H28.4662H28.4639H28.4616H28.4593H28.457H28.4547H28.4523H28.45H28.4477H28.4454H28.4431H28.4408H28.4385H28.4362H28.4339H28.4316H28.4293H28.427H28.4247H28.4224H28.4201H28.4178H28.4154H28.4131H28.4108H28.4085H28.4062H28.4039H28.4016H28.3993H28.397H28.3947H28.3924H28.3901H28.3878H28.3855H28.3832H28.3809H28.3785H28.3762H28.3739H28.3716H28.3693H28.367H28.3647H28.3624H28.3601H28.3578H28.3555H28.3532H28.3509H28.3486H28.3463H28.344H28.3417H28.3393H28.337H28.3347H28.3324H28.3301H28.3278H28.3255H28.3232H28.3209H28.3186H28.3163H28.314H28.3117H28.3094H28.3071H28.3048H28.3024H28.3001H28.2978H28.2955H28.2932H28.2909H28.2886H28.2863H28.284H28.2817H28.2794H28.2771H28.2748H28.2725H28.2702H28.2679H28.2655H28.2632H28.2609H28.2586H28.2563H28.254H28.2517H28.2494H28.2471H28.2448H28.2425H28.2402H28.2379H28.2356H28.2333H28.231H28.2286H28.2263H28.224H28.2217H28.2194H28.2171H28.2148H28.2125H28.2102H28.2079H28.2056H28.2033H28.201H28.1987H28.1964H28.1941H28.1917H28.1894H28.1871H28.1848H28.1825H28.1802H28.1779H28.1756H28.1733H28.171H28.1687H28.1664H28.1641H28.1618H28.1595H28.1572H28.1549H28.1525H28.1502H28.1479H28.1456H28.1433H28.141H28.1387H28.1364H28.1341H28.1318H28.1295H28.1272H28.1249H28.1226H28.1203H28.118H28.1156H28.1133H28.111H28.1087H28.1064H28.1041H28.1018H28.0995H28.0972H28.0949H28.0926H28.0903H28.088H28.0857H28.0834H28.0811H28.0787H28.0764H28.0741H28.0718H28.0695H28.0672H28.0649H28.0626H28.0603H28.058H28.0557H28.0534H28.0511H28.0488H28.0465H28.0442H28.0418H28.0395H28.0372H28.0349H28.0326H28.0303H28.028H28.0257H28.0234H28.0211H28.0188H28.0165H28.0142H28.0119H28.0096H28.0073H28.0049H28.0026H28.0003H27.998H27.9957H27.9934H27.9911H27.9888H27.9865H27.9842H27.9819H27.9796H27.9773H27.975H27.9727H27.9704H27.9681H27.9657H27.9634H27.9611H27.9588H27.9565H27.9542H27.9519H27.9496H27.9473H27.945H27.9427H27.9404H27.9381H27.9358H27.9335H27.9312H27.9288H27.9265H27.9242H27.9219H27.9196H27.9173H27.915H27.9127H27.9104H27.9081H27.9058H27.9035H27.9012H27.8989H27.8966H27.8943H27.8919H27.8896H27.8873H27.885H27.8827H27.8804H27.8781H27.8758H27.8735H27.8712H27.8689H27.8666H27.8643H27.862H27.8597H27.8574H27.855H27.8527H27.8504H27.8481H27.8458H27.8435H27.8412H27.8389H27.8366H27.8343H27.832H27.8297H27.8274H27.8251H27.8228H27.8205H27.8181H27.8158H27.8135H27.8112H27.8089H27.8066H27.8043H27.802H27.7997H27.7974H27.7951H27.7928H27.7905H27.7882H27.7859H27.7836H27.7812H27.7789H27.7766H27.7743H27.772H27.7697H27.7674H27.7651H27.7628H27.7605H27.7582H27.7559H27.7536H27.7513H27.749H27.7467H27.7444H27.742H27.7397H27.7374H27.7351H27.7328H27.7305H27.7282H27.7259H27.7236H27.7213H27.719H27.7167H27.7144H27.7121H27.7098H27.7075H27.7051H27.7028H27.7005H27.6982H27.6959H27.6936H27.6913H27.689H27.6867H27.6844H27.6821H27.6798H27.6775H27.6752H27.6729H27.6706H27.6682H27.6659H27.6636H27.6613H27.659H27.6567H27.6544H27.6521H27.6498H27.6475H27.6452H27.6429H27.6406H27.6383H27.636H27.6337H27.6314H27.629H27.6267H27.6244H27.6221H27.6198H27.6175H27.6152H27.6129H27.6106H27.6083H27.606H27.6037H27.6014H27.5991H27.5968H27.5945H27.5921H27.5898H27.5875H27.5852H27.5829H27.5806H27.5783H27.576H27.5737H27.5714H27.5691H27.5668H27.5645L27.5626 23.0006C27.5626 23.0006 27.5625 23.0006 27.5624 23.0006C27.4715 23.0001 27.3862 22.9993 27.3063 22.9985C27.0809 22.9963 26.8989 22.9945 26.7557 23.0034C26.5646 23.0152 26.4101 23.0466 26.3056 23.1493C26.2007 23.2524 26.168 23.4057 26.1555 23.5955C26.1459 23.7414 26.1478 23.9279 26.1502 24.1603C26.1509 24.2346 26.1517 24.3135 26.1522 24.3973L26.1514 24.3973L26.1532 24.4103C26.1604 24.4628 26.1597 24.516 26.1512 24.5682C26.149 24.5748 26.1468 24.5813 26.1446 24.5878C26.1306 24.6295 26.1176 24.6682 26.1014 24.7031C26.0873 24.7335 26.0748 24.7518 26.065 24.7622C26.0552 24.7597 26.0419 24.755 26.0257 24.7475C25.9848 24.7286 25.9432 24.7004 25.9199 24.6779ZM25.9199 24.6779L25.8952 24.6539C25.4537 24.2241 25.0137 23.7957 24.5934 23.3496C24.4891 23.2312 24.3595 23.1377 24.2142 23.0761C24.069 23.0146 23.9119 22.9865 23.7544 22.9938M25.9199 24.6779L23.7544 22.9938M23.7544 22.9938C21.945 23.0035 20.1356 23.0024 18.3259 23.0013C17.7463 23.0009 17.1667 23.0006 16.587 23.0006C16.3099 23.0006 16.1777 22.965 16.1069 22.8958C16.0369 22.8273 16.0005 22.6998 16.0005 22.4288V16.5508C16.0005 16.2977 16.0377 16.1723 16.1058 16.1038C16.1737 16.0354 16.2978 15.9979 16.5495 15.9979H22.6514L23.7544 22.9938ZM29.3024 16.5623V16.5508V16.5623ZM29.3024 16.5623V16.5738M29.3024 16.5623V16.5738M29.3024 16.5738V16.5853M29.3024 16.5738V16.5853M29.3024 16.5853V16.5967M29.3024 16.5853V16.5967M29.3024 16.5967V16.6082M29.3024 16.5967V16.6082M29.3024 16.6082V16.6197M29.3024 16.6082V16.6197M29.3024 16.6197V16.6312M29.3024 16.6197V16.6312M29.3024 16.6312V16.6426M29.3024 16.6312V16.6426M29.3024 16.6426V16.6541M29.3024 16.6426V16.6541M29.3024 16.6541V16.6656M29.3024 16.6541V16.6656M29.3024 16.6656V16.6771M29.3024 16.6656V16.6771M29.3024 16.6771V16.6886M29.3024 16.6771V16.6886M29.3024 16.6886V16.7M29.3024 16.6886V16.7M29.3024 16.7V16.7115M29.3024 16.7V16.7115M29.3024 16.7115V16.723M29.3024 16.7115V16.723M29.3024 16.723V16.7345M29.3024 16.723V16.7345M29.3024 16.7345V16.746M29.3024 16.7345V16.746M29.3024 16.746V16.7574M29.3024 16.746V16.7574M29.3024 16.7574V16.7689M29.3024 16.7574V16.7689M29.3024 16.7689V16.7804M29.3024 16.7689V16.7804M29.3024 16.7804V16.7919M29.3024 16.7804V16.7919M29.3024 16.7919V16.8034M29.3024 16.7919V16.8034M29.3024 16.8034V16.8148M29.3024 16.8034V16.8148M29.3024 16.8148V16.8263M29.3024 16.8148V16.8263M29.3024 16.8263V16.8378M29.3024 16.8263V16.8378M29.3024 16.8378V16.8493M29.3024 16.8378V16.8493M29.3024 16.8493V16.8608M29.3024 16.8493V16.8608M29.3024 16.8608V16.8722M29.3024 16.8608V16.8722M29.3024 16.8722V16.8837M29.3024 16.8722V16.8837M29.3024 16.8837V16.8952M29.3024 16.8837V16.8952M29.3024 16.8952V16.9067M29.3024 16.8952V16.9067M29.3024 16.9067V16.9181M29.3024 16.9067V16.9181M29.3024 16.9181V16.9296M29.3024 16.9181V16.9296M29.3024 16.9296V16.9411M29.3024 16.9296V16.9411M29.3024 16.9411V16.9526M29.3024 16.9411V16.9526M29.3024 16.9526V16.9641M29.3024 16.9526V16.9641M29.3024 16.9641V16.9755M29.3024 16.9641V16.9755M29.3024 16.9755V16.987M29.3024 16.9755V16.987M29.3024 16.987V16.9985M29.3024 16.987V16.9985M29.3024 16.9985V17.01M29.3024 16.9985V17.01M29.3024 17.01V17.0215M29.3024 17.01V17.0215M29.3024 17.0215V17.0329M29.3024 17.0215V17.0329M29.3024 17.0329V17.0444M29.3024 17.0329V17.0444M29.3024 17.0444V17.0559M29.3024 17.0444V17.0559M29.3024 17.0559V17.0674M29.3024 17.0559V17.0674M29.3024 17.0674V17.0789M29.3024 17.0674V17.0789M29.3024 17.0789V17.0903M29.3024 17.0789V17.0903M29.3024 17.0903V17.1018M29.3024 17.0903V17.1018M29.3024 17.1018V17.1133M29.3024 17.1018V17.1133M29.3024 17.1133V17.1248M29.3024 17.1133V17.1248M29.3024 17.1248V17.1363M29.3024 17.1248V17.1363M29.3024 17.1363V17.1477M29.3024 17.1363V17.1477M29.3024 17.1477V17.1592M29.3024 17.1477V17.1592M29.3024 17.1592V17.1707M29.3024 17.1592V17.1707M29.3024 17.1707V17.1822M29.3024 17.1707V17.1822M29.3024 17.1822V17.1937M29.3024 17.1822V17.1937M29.3024 17.1937V17.2051M29.3024 17.1937V17.2051M29.3024 17.2051V17.2166M29.3024 17.2051V17.2166M29.3024 17.2166V17.2281M29.3024 17.2166V17.2281M29.3024 17.2281V17.2396M29.3024 17.2281V17.2396M29.3024 17.2396V17.251M29.3024 17.2396V17.251M29.3024 17.251V17.2625M29.3024 17.251V17.2625M29.3024 17.2625V17.274M29.3024 17.2625V17.274M29.3024 17.274V17.2855M29.3024 17.274V17.2855M29.3024 17.2855V17.297M29.3024 17.2855V17.297M29.3024 17.297V17.3084M29.3024 17.297V17.3084M29.3024 17.3084V17.3199M29.3024 17.3084V17.3199M29.3024 17.3199V17.3314M29.3024 17.3199V17.3314M29.3024 17.3314V17.3429M29.3024 17.3314V17.3429M29.3024 17.3429V17.3544M29.3024 17.3429V17.3544M29.3024 17.3544V17.3658M29.3024 17.3544V17.3658M29.3024 17.3658V17.3773M29.3024 17.3658V17.3773M29.3024 17.3773V17.3888M29.3024 17.3773V17.3888M29.3024 17.3888V17.4003M29.3024 17.3888V17.4003M29.3024 17.4003V17.4118M29.3024 17.4003V17.4118M29.3024 17.4118V17.4232M29.3024 17.4118V17.4232M29.3024 17.4232V17.4347M29.3024 17.4232V17.4347M29.3024 17.4347V17.4462M29.3024 17.4347V17.4462M29.3024 17.4462V17.4577M29.3024 17.4462V17.4577M29.3024 17.4577V17.4692M29.3024 17.4577V17.4692M29.3024 17.4692V17.4806M29.3024 17.4692V17.4806M29.3024 17.4806V17.4921M29.3024 17.4806V17.4921M29.3024 17.4921V17.5036M29.3024 17.4921V17.5036M29.3024 17.5036V17.5151M29.3024 17.5036V17.5151M29.3024 17.5151V17.5266M29.3024 17.5151V17.5266M29.3024 17.5266V17.538M29.3024 17.5266V17.538M29.3024 17.538V17.5495M29.3024 17.538V17.5495M29.3024 17.5495V17.561M29.3024 17.5495V17.561M29.3024 17.561V17.5725M29.3024 17.561V17.5725M29.3024 17.5725V17.584M29.3024 17.5725V17.584M29.3024 17.584V17.5954M29.3024 17.584V17.5954M29.3024 17.5954V17.6069M29.3024 17.5954V17.6069M29.3024 17.6069V17.6184M29.3024 17.6069V17.6184M29.3024 17.6184V17.6299M29.3024 17.6184V17.6299M29.3024 17.6299V17.6414M29.3024 17.6299V17.6414M29.3024 17.6414V17.6528M29.3024 17.6414V17.6528M29.3024 17.6528V17.6643M29.3024 17.6528V17.6643M29.3024 17.6643V17.6758M29.3024 17.6643V17.6758M29.3024 17.6758V17.6873M29.3024 17.6758V17.6873M29.3024 17.6873V17.6987M29.3024 17.6873V17.6987M29.3024 17.6987V17.7102M29.3024 17.6987V17.7102M29.3024 17.7102V17.7217M29.3024 17.7102V17.7217M29.3024 17.7217V17.7332M29.3024 17.7217V17.7332M29.3024 17.7332V17.7447M29.3024 17.7332V17.7447M29.3024 17.7447V17.7561M29.3024 17.7447V17.7561M29.3024 17.7561V17.7676M29.3024 17.7561V17.7676M29.3024 17.7676V17.7791M29.3024 17.7676V17.7791M29.3024 17.7791V17.7906M29.3024 17.7791V17.7906M29.3024 17.7906V17.8021M29.3024 17.7906V17.8021M29.3024 17.8021V17.8135M29.3024 17.8021V17.8135M29.3024 17.8135V17.825M29.3024 17.8135V17.825M29.3024 17.825V17.8365M29.3024 17.825V17.8365M29.3024 17.8365V17.848M29.3024 17.8365V17.848M29.3024 17.848V17.8595M29.3024 17.848V17.8595M29.3024 17.8595V17.8709M29.3024 17.8595V17.8709M29.3024 17.8709V17.8824M29.3024 17.8709V17.8824M29.3024 17.8824V17.8939M29.3024 17.8824V17.8939M29.3024 17.8939V17.9054M29.3024 17.8939V17.9054M29.3024 17.9054V17.9169M29.3024 17.9054V17.9169M29.3024 17.9169V17.9283M29.3024 17.9169V17.9283M29.3024 17.9283V17.9398M29.3024 17.9283V17.9398M29.3024 17.9398V17.9513M29.3024 17.9398V17.9513M29.3024 17.9513V17.9628M29.3024 17.9513V17.9628M29.3024 17.9628V17.9743M29.3024 17.9628V17.9743M29.3024 17.9743V17.9857M29.3024 17.9743V17.9857M29.3024 17.9857V17.9972M29.3024 17.9857V17.9972M29.3024 17.9972V18.0087M29.3024 17.9972V18.0087M29.3024 18.0087V18.0202M29.3024 18.0087V18.0202M29.3024 18.0202V18.0317M29.3024 18.0202V18.0317M29.3024 18.0317V18.0431M29.3024 18.0317V18.0431M29.3024 18.0431V18.0546M29.3024 18.0431V18.0546M29.3024 18.0546V18.0661M29.3024 18.0546V18.0661M29.3024 18.0661V18.0776M29.3024 18.0661V18.0776M29.3024 18.0776V18.0891M29.3024 18.0776V18.0891M29.3024 18.0891V18.1005M29.3024 18.0891V18.1005M29.3024 18.1005V18.112M29.3024 18.1005V18.112M29.3024 18.112V18.1235M29.3024 18.112V18.1235M29.3024 18.1235V18.135M29.3024 18.1235V18.135M29.3024 18.135V18.1465M29.3024 18.135V18.1465M29.3024 18.1465V18.1579M29.3024 18.1465V18.1579M29.3024 18.1579V18.1694M29.3024 18.1579V18.1694M29.3024 18.1694V18.1809M29.3024 18.1694V18.1809M29.3024 18.1809V18.1924M29.3024 18.1809V18.1924M29.3024 18.1924V18.2039M29.3024 18.1924V18.2039M29.3024 18.2039V18.2153M29.3024 18.2039V18.2153M29.3024 18.2153V18.2268M29.3024 18.2153V18.2268M29.3024 18.2268V18.2383M29.3024 18.2268V18.2383M29.3024 18.2383V18.2498M29.3024 18.2383V18.2498M29.3024 18.2498V18.2613M29.3024 18.2498V18.2613M29.3024 18.2613V18.2727M29.3024 18.2613V18.2727M29.3024 18.2727V18.2842M29.3024 18.2727V18.2842M29.3024 18.2842V18.2957M29.3024 18.2842V18.2957M29.3024 18.2957V18.3072M29.3024 18.2957V18.3072M29.3024 18.3072V18.3187M29.3024 18.3072V18.3187M29.3024 18.3187V18.3301M29.3024 18.3187V18.3301M29.3024 18.3301V18.3416M29.3024 18.3301V18.3416M29.3024 18.3416V18.3531M29.3024 18.3416V18.3531M29.3024 18.3531V18.3646M29.3024 18.3531V18.3646M29.3024 18.3646V18.3761M29.3024 18.3646V18.3761M29.3024 18.3761V18.3875M29.3024 18.3761V18.3875M29.3024 18.3875V18.399M29.3024 18.3875V18.399M29.3024 18.399V18.4105M29.3024 18.399V18.4105M29.3024 18.4105V18.422M29.3024 18.4105V18.422M29.3024 18.422V18.4335M29.3024 18.422V18.4335M29.3024 18.4335V18.4449M29.3024 18.4335V18.4449M29.3024 18.4449V18.4564M29.3024 18.4449V18.4564M29.3024 18.4564V18.4679M29.3024 18.4564V18.4679M29.3024 18.4679V18.4794M29.3024 18.4679V18.4794M29.3024 18.4794V18.4909M29.3024 18.4794V18.4909M29.3024 18.4909V18.5023M29.3024 18.4909V18.5023M29.3024 18.5023V18.5138M29.3024 18.5023V18.5138M29.3024 18.5138V18.5253M29.3024 18.5138V18.5253M29.3024 18.5253V18.5368M29.3024 18.5253V18.5368M29.3024 18.5368V18.5483M29.3024 18.5368V18.5483M29.3024 18.5483V18.5597M29.3024 18.5483V18.5597M29.3024 18.5597V18.5712M29.3024 18.5597V18.5712M29.3024 18.5712V18.5827M29.3024 18.5712V18.5827M29.3024 18.5827V18.5942M29.3024 18.5827V18.5942M29.3024 18.5942V18.6057M29.3024 18.5942V18.6057M29.3024 18.6057V18.6171M29.3024 18.6057V18.6171M29.3024 18.6171V18.6286M29.3024 18.6171V18.6286M29.3024 18.6286V18.6401M29.3024 18.6286V18.6401M29.3024 18.6401V18.6516M29.3024 18.6401V18.6516M29.3024 18.6516V18.6631M29.3024 18.6516V18.6631M29.3024 18.6631V18.6745M29.3024 18.6631V18.6745M29.3024 18.6745V18.686M29.3024 18.6745V18.686M29.3024 18.686V18.6975M29.3024 18.686V18.6975M29.3024 18.6975V18.709M29.3024 18.6975V18.709M29.3024 18.709V18.7205M29.3024 18.709V18.7205M29.3024 18.7205V18.7319M29.3024 18.7205V18.7319M29.3024 18.7319V18.7434M29.3024 18.7319V18.7434M29.3024 18.7434V18.7549M29.3024 18.7434V18.7549M29.3024 18.7549V18.7664M29.3024 18.7549V18.7664M29.3024 18.7664V18.7779M29.3024 18.7664V18.7779M29.3024 18.7779V18.7893M29.3024 18.7779V18.7893M29.3024 18.7893V18.8008M29.3024 18.7893V18.8008M29.3024 18.8008V18.8123M29.3024 18.8008V18.8123M29.3024 18.8123V18.8238M29.3024 18.8123V18.8238M29.3024 18.8238V18.8353M29.3024 18.8238V18.8353M29.3024 18.8353V18.8467M29.3024 18.8353V18.8467M29.3024 18.8467V18.8582M29.3024 18.8467V18.8582M29.3024 18.8582V18.8697M29.3024 18.8582V18.8697M29.3024 18.8697V18.8812M29.3024 18.8697V18.8812M29.3024 18.8812V18.8927M29.3024 18.8812V18.8927M29.3024 18.8927V18.9041M29.3024 18.8927V18.9041M29.3024 18.9041V18.9156M29.3024 18.9041V18.9156M29.3024 18.9156V18.9271M29.3024 18.9156V18.9271M29.3024 18.9271V18.9386M29.3024 18.9271V18.9386M29.3024 18.9386V18.9501M29.3024 18.9386V18.9501M29.3024 18.9501V18.9615M29.3024 18.9501V18.9615M29.3024 18.9615V18.973M29.3024 18.9615V18.973M29.3024 18.973V18.9845M29.3024 18.973V18.9845M29.3024 18.9845V18.996M29.3024 18.9845V18.996M29.3024 18.996V19.0075M29.3024 18.996V19.0075M29.3024 19.0075V19.0189M29.3024 19.0075V19.0189M29.3024 19.0189V19.0304M29.3024 19.0189V19.0304M29.3024 19.0304V19.0419M29.3024 19.0304V19.0419M29.3024 19.0419V19.0534M29.3024 19.0419V19.0534M29.3024 19.0534V19.0649M29.3024 19.0534V19.0649M29.3024 19.0649V19.0763M29.3024 19.0649V19.0763M29.3024 19.0763V19.0878M29.3024 19.0763V19.0878M29.3024 19.0878V19.0993M29.3024 19.0878V19.0993M29.3024 19.0993V19.1108M29.3024 19.0993V19.1108M29.3024 19.1108V19.1223M29.3024 19.1108V19.1223M29.3024 19.1223V19.1337M29.3024 19.1223V19.1337M29.3024 19.1337V19.1452M29.3024 19.1337V19.1452M29.3024 19.1452V19.1567M29.3024 19.1452V19.1567M29.3024 19.1567V19.1682M29.3024 19.1567V19.1682M29.3024 19.1682V19.1797M29.3024 19.1682V19.1797M29.3024 19.1797V19.1911M29.3024 19.1797V19.1911M29.3024 19.1911V19.2026M29.3024 19.1911V19.2026M29.3024 19.2026V19.2141M29.3024 19.2026V19.2141M29.3024 19.2141V19.2256M29.3024 19.2141V19.2256M29.3024 19.2256V19.2371M29.3024 19.2256V19.2371M29.3024 19.2371V19.2486M29.3024 19.2371V19.2486M29.3024 19.2486V19.26M29.3024 19.2486V19.26M29.3024 19.26V19.2715M29.3024 19.26V19.2715M29.3024 19.2715V19.283M29.3024 19.2715V19.283M29.3024 19.283V19.2945M29.3024 19.283V19.2945M29.3024 19.2945V19.306M29.3024 19.2945V19.306M29.3024 19.306V19.3174M29.3024 19.306V19.3174M29.3024 19.3174V19.3289M29.3024 19.3174V19.3289M29.3024 19.3289V19.3404M29.3024 19.3289V19.3404M29.3024 19.3404V19.3519M29.3024 19.3404V19.3519M29.3024 19.3519V19.3634M29.3024 19.3519V19.3634M29.3024 19.3634V19.3748M29.3024 19.3634V19.3748M29.3024 19.3748V19.3863M29.3024 19.3748V19.3863M29.3024 19.3863V19.3978M29.3024 19.3863V19.3978M29.3024 19.3978V19.4093M29.3024 19.3978V19.4093M29.3024 19.4093V19.4208M29.3024 19.4093V19.4208M29.3024 19.4208V19.4322M29.3024 19.4208V19.4322M29.3024 19.4322V19.4437M29.3024 19.4322V19.4437M29.3024 19.4437V19.4552M29.3024 19.4437V19.4552M29.3024 19.4552V19.4667M29.3024 19.4552V19.4667M29.3024 19.4667V19.4782M29.3024 19.4667V19.4782M29.3024 19.4782V19.4896M29.3024 19.4782V19.4896M29.3024 19.4896V19.5011M29.3024 19.4896V19.5011M29.3024 19.5011V19.5126M29.3024 19.5011V19.5126M29.3024 19.5126V19.5241M29.3024 19.5126V19.5241M29.3024 19.5241V19.5356M29.3024 19.5241V19.5356M29.3024 19.5356V19.547M29.3024 19.5356V19.547M29.3024 19.547V19.5585M29.3024 19.547V19.5585M29.3024 19.5585V19.57M29.3024 19.5585V19.57M29.3024 19.57V19.5815M29.3024 19.57V19.5815M29.3024 19.5815V19.593M29.3024 19.5815V19.593M29.3024 19.593V19.6044M29.3024 19.593V19.6044M29.3024 19.6044V19.6159M29.3024 19.6044V19.6159M29.3024 19.6159V19.6274M29.3024 19.6159V19.6274M29.3024 19.6274V19.6389M29.3024 19.6274V19.6389M29.3024 19.6389V19.6504M29.3024 19.6389V19.6504M29.3024 19.6504V19.6618M29.3024 19.6504V19.6618M29.3024 19.6618V19.6733M29.3024 19.6618V19.6733M29.3024 19.6733V19.6848M29.3024 19.6733V19.6848M29.3024 19.6848V19.6963M29.3024 19.6848V19.6963M29.3024 19.6963V19.7078M29.3024 19.6963V19.7078M29.3024 19.7078V19.7193M29.3024 19.7078V19.7193M29.3024 19.7193V19.7307M29.3024 19.7193V19.7307M29.3024 19.7307V19.7422M29.3024 19.7307V19.7422M29.3024 19.7422V19.7537M29.3024 19.7422V19.7537M29.3024 19.7537V19.7652M29.3024 19.7537V19.7652M29.3024 19.7652V19.7767M29.3024 19.7652V19.7767M29.3024 19.7767V19.7881M29.3024 19.7767V19.7881M29.3024 19.7881V19.7996M29.3024 19.7881V19.7996M29.3024 19.7996V19.8111M29.3024 19.7996V19.8111M29.3024 19.8111V19.8226M29.3024 19.8111V19.8226M29.3024 19.8226V19.8341M29.3024 19.8226V19.8341M29.3024 19.8341V19.8455M29.3024 19.8341V19.8455M29.3024 19.8455V19.857M29.3024 19.8455V19.857M29.3024 19.857V19.8685M29.3024 19.857V19.8685M29.3024 19.8685V19.88M29.3024 19.8685V19.88M29.3024 19.88V19.8915M29.3024 19.88V19.8915M29.3024 19.8915V19.9029M29.3024 19.8915V19.9029M29.3024 19.9029V19.9144M29.3024 19.9029V19.9144M29.3024 19.9144V19.9259M29.3024 19.9144V19.9259M29.3024 19.9259V19.9374M29.3024 19.9259V19.9374M29.3024 19.9374V19.9489M29.3024 19.9374V19.9489M29.3024 19.9489V19.9603M29.3024 19.9489V19.9603M29.3024 19.9603V19.9718M29.3024 19.9603V19.9718M29.3024 19.9718V19.9833M29.3024 19.9718V19.9833M29.3024 19.9833V19.9948V19.9833ZM29.4024 22.4288H29.4022L18.3256 23.1013C17.746 23.1009 17.1665 23.1006 16.587 23.1006C16.0357 23.1006 15.9005 22.9691 15.9005 22.4288V16.5508C15.9005 16.0414 16.0425 15.8979 16.5495 15.8979H22.6514H28.7534C29.2604 15.8986 29.4024 16.0414 29.4024 16.5508V22.4288ZM26.0761 24.7644C26.0771 24.7643 26.0777 24.7644 26.0778 24.7644C26.0778 24.7645 26.0773 24.7645 26.0761 24.7644Z" fill="#00BAA4" stroke="#00BAA4" stroke-width="0.2"/>
<path d="M19.221 38.9373C19.2185 38.7519 19.174 38.594 19.0794 38.4801C18.9826 38.3635 18.8438 38.3058 18.6817 38.3032L18.6801 38.4032L18.6819 38.3032C18.5127 38.3001 18.3658 38.358 18.2628 38.4766C18.1616 38.5931 18.1129 38.7566 18.1129 38.9472V38.9521V38.9569V38.9618V38.9667V38.9716V38.9765V38.9814V38.9863V38.9912V38.996V39.0009V39.0058V39.0107V39.0156V39.0205V39.0254V39.0303V39.0351V39.04V39.0449V39.0498V39.0547V39.0596V39.0645V39.0693V39.0742V39.0791V39.084V39.0889V39.0938V39.0987V39.1036V39.1084V39.1133V39.1182V39.1231V39.128V39.1329V39.1378V39.1426V39.1475V39.1524V39.1573V39.1622V39.1671V39.172V39.1769V39.1817V39.1866V39.1915V39.1964V39.2013V39.2062V39.2111V39.216V39.2208V39.2257V39.2306V39.2355V39.2404V39.2453V39.2502V39.255V39.2599V39.2648V39.2697V39.2746V39.2795V39.2844V39.2893V39.2941V39.299V39.3039V39.3088V39.3137V39.3186V39.3235V39.3284V39.3332V39.3381V39.343V39.3479V39.3528V39.3577V39.3626V39.3674V39.3723V39.3772V39.3821V39.387V39.3919V39.3968V39.4017V39.4065V39.4114V39.4163V39.4212V39.4261V39.431V39.4359V39.4407V39.4456V39.4505V39.4554V39.4603V39.4652V39.4701V39.475V39.4798V39.4847V39.4896V39.4945V39.4994V39.5043V39.5092V39.5141V39.5189V39.5238V39.5287V39.5336V39.5385V39.5434V39.5483V39.5531V39.558V39.5629V39.5678V39.5727V39.5776V39.5825V39.5874V39.5922V39.5971V39.602V39.6069V39.6118V39.6167V39.6216V39.6265V39.6313V39.6362V39.6411V39.646V39.6509V39.6558V39.6607V39.6655V39.6704V39.6753V39.6802V39.6851V39.69V39.6949V39.6998V39.7046V39.7095V39.7144V39.7193V39.7242V39.7291V39.734V39.7388V39.7437V39.7486V39.7535V39.7584V39.7633V39.7682V39.7731V39.7779V39.7828V39.7877V39.7926V39.7975V39.8024V39.8073V39.8122V39.817V39.8219V39.8268V39.8317V39.8366V39.8415V39.8464V39.8512V39.8561V39.861V39.8659V39.8708V39.8757V39.8806V39.8855V39.8903V39.8952V39.9001V39.905V39.9099V39.9148V39.9197V39.9246V39.9294V39.9343V39.9392V39.9441V39.949V39.9539V39.9588V39.9636V39.9685V39.9734V39.9783V39.9832V39.9881V39.993V39.9979V40.0027V40.0076V40.0125V40.0174V40.0223V40.0272V40.0321V40.0369V40.0418V40.0467V40.0516V40.0565V40.0614V40.0663V40.0712V40.076V40.0809V40.0858V40.0907V40.0956V40.1005V40.1054V40.1103V40.1151V40.12V40.1249V40.1298V40.1347V40.1396V40.1445V40.1493V40.1542V40.1591V40.164V40.1689V40.1738V40.1787V40.1836V40.1884V40.1933V40.1982V40.2031V40.208V40.2129V40.2178V40.2227V40.2275V40.2324V40.2373V40.2422V40.2471V40.252V40.2569V40.2617V40.2666V40.2715V40.2764V40.2813V40.2862V40.2911V40.296V40.3008V40.3057V40.3106V40.3155V40.3204V40.3253V40.3302V40.335V40.3399V40.3448V40.3497V40.3546V40.3595V40.3644V40.3693V40.3741V40.379V40.3839V40.3888V40.3937V40.3986V40.4035V40.4084V40.4132V40.4181V40.423V40.4279V40.4328V40.4377V40.4426V40.4474V40.4523V40.4572V40.4621V40.467V40.4719V40.4768V40.4817V40.4865V40.4914V40.4963V40.5012V40.5061V40.511V40.5159V40.5208V40.5256V40.5305V40.5354V40.5403V40.5452V40.5501V40.555V40.5598V40.5647V40.5696V40.5745V40.5794V40.5843V40.5892V40.5941V40.5989V40.6038V40.6087V40.6136V40.6185V40.6234V40.6283V40.6331V40.638V40.6429V40.6478V40.6527V40.6576V40.6625V40.6674V40.6722V40.6771V40.682V40.6869V40.6918V40.6967V40.7016V40.7065V40.7113V40.7162V40.7211V40.726V40.7309V40.7358V40.7407V40.7455V40.7504V40.7553V40.7602V40.7651V40.77V40.7749V40.7798V40.7846V40.7895V40.7944V40.7993V40.8042V40.8091V40.814V40.8189V40.8237V40.8286V40.8335V40.8384V40.8433V40.8482V40.8531V40.8579V40.8628V40.8677V40.8726V40.8775V40.8824V40.8873V40.8922V40.897V40.9019V40.9068V40.9117V40.9166V40.9215V40.9264V40.9312V40.9361V40.941V40.9459V40.9508V40.9557V40.9606V40.9655V40.9703V40.9752V40.9801V40.985V40.9899V40.9948V40.9997V41.0046V41.0094V41.0143V41.0192V41.0241V41.029V41.0339V41.0388V41.0436V41.0485V41.0534V41.0583V41.0632V41.0681V41.073V41.0779V41.0827V41.0876V41.0925V41.0974V41.1023V41.1072V41.1121V41.117V41.1218V41.1267V41.1316V41.1365V41.1414V41.1463V41.1512V41.156V41.1609V41.1658V41.1707V41.1756V41.1805V41.1854V41.1903V41.1951V41.2V41.2049V41.2098V41.2147V41.2196V41.2245V41.2294V41.2342V41.2391V41.244V41.2489V41.2538V41.2587V41.2636V41.2684V41.2733V41.2782V41.2831V41.288V41.2929V41.2978V41.3027V41.3075V41.3124V41.3173V41.3222V41.3271V41.332V41.3369V41.3417V41.3466V41.3515V41.3564V41.3613V41.3662V41.3711V41.376V41.3808V41.3857V41.3906V41.3955V41.4004V41.4053V41.4102V41.4151V41.4199V41.4248V41.4297V41.4346V41.4395V41.4444L18.1129 41.4493L18.1129 41.4497C18.1137 41.6403 18.1605 41.804 18.2594 41.9215C18.3604 42.0415 18.5054 42.1009 18.6746 42.1C18.8427 42.0991 18.9853 42.0414 19.0838 41.92C19.1795 41.802 19.2227 41.6373 19.2247 41.4428L19.2247 41.4426C19.2272 41.161 19.2264 40.8786 19.2256 40.5969C19.2252 40.4565 19.2247 40.3163 19.2247 40.1764C19.2247 40.0695 19.225 39.9623 19.2254 39.855C19.2262 39.5498 19.2271 39.2433 19.221 38.9373ZM19.221 38.9373C19.221 38.9371 19.221 38.937 19.221 38.9369L19.121 38.9389L19.221 38.9376C19.221 38.9375 19.221 38.9374 19.221 38.9373Z" fill="#00BAA4" stroke="#00BAA4" stroke-width="0.2"/>
<path d="M26.3184 38.9441L26.2184 38.9437C26.2144 39.7875 26.2144 40.6316 26.2184 41.476L26.2184 41.4769C26.2209 41.6574 26.2706 41.814 26.3689 41.927C26.4687 42.0417 26.6101 42.1015 26.7736 42.1015C26.9358 42.1015 27.0765 42.0448 27.1759 41.9303C27.2734 41.8178 27.3214 41.6608 27.3242 41.4771L27.3242 41.4766C27.3273 41.1884 27.3263 40.8996 27.3253 40.6116C27.3248 40.4681 27.3243 40.3247 27.3243 40.1817C27.3243 40.0104 27.3249 39.8385 27.3256 39.6666C27.3265 39.4261 27.3274 39.1858 27.3265 38.9475L27.3265 38.9466C27.3241 38.754 27.2773 38.5904 27.1774 38.4747C27.0751 38.3562 26.929 38.3018 26.7597 38.3062L26.7596 38.3062C26.5976 38.3106 26.4582 38.3722 26.3608 38.4888C26.265 38.6036 26.2184 38.7613 26.2184 38.9441H26.3184ZM26.3184 38.9441C26.3184 38.6105 26.4882 38.4137 26.7623 38.4062M26.3184 38.9441C26.3144 39.7877 26.3144 40.6315 26.3184 41.4755C26.3229 41.8031 26.4979 42.0015 26.7736 42.0015C27.0492 42.0015 27.219 41.8122 27.2243 41.4755L26.7623 38.4062M26.7623 38.4062C27.053 38.3986 27.222 38.5902 27.2265 38.9479L26.7623 38.4062Z" fill="#00BAA4" stroke="#00BAA4" stroke-width="0.2"/>
<path d="M30.9199 33.0135L30.9199 33.0131C30.9196 32.9596 30.9207 32.9027 30.9218 32.8444C30.9238 32.7403 30.9259 32.6319 30.9205 32.5318L30.9205 32.5318L30.9204 32.5299C30.9095 32.3801 30.8539 32.2505 30.7601 32.1566C30.6665 32.0629 30.5408 32.0104 30.4 32.0045C30.2605 31.9936 30.1222 32.0382 30.0153 32.1286C29.9078 32.2195 29.8407 32.3493 29.8287 32.4895L29.8287 32.4895L29.8285 32.4913C29.8053 32.8323 29.8053 33.1745 29.8285 33.5155L29.8285 33.5155L29.8287 33.5175C29.8349 33.587 29.8547 33.6547 29.887 33.7166C29.9193 33.7784 29.9635 33.8333 30.017 33.8781C30.0706 33.9229 30.1324 33.9567 30.199 33.9776C30.2648 33.9982 30.334 34.0058 30.4028 34C30.5434 33.9936 30.6684 33.9402 30.7611 33.8459C30.854 33.7513 30.9088 33.6213 30.9196 33.4716L30.9196 33.4716L30.9197 33.4703C30.9259 33.3663 30.9238 33.2588 30.9218 33.1563C30.9208 33.1073 30.9199 33.0594 30.9199 33.0135Z" fill="#00BAA4" stroke="#00BAA4" stroke-width="0.2"/>
<path d="M39.0182 33.0218V32.8867C39.0184 32.8792 39.0186 32.8717 39.0188 32.8642C39.0218 32.7499 39.025 32.6291 39.0159 32.5134C39.0153 32.4472 39.0018 32.3817 38.9762 32.3206C38.9501 32.2583 38.9119 32.2017 38.8638 32.1542C38.8157 32.1067 38.7587 32.0692 38.696 32.0439C38.6347 32.0191 38.5692 32.0065 38.5031 32.0066C38.3575 31.9967 38.2239 32.0321 38.1212 32.1112C38.0168 32.1915 37.952 32.3112 37.937 32.453L37.937 32.453L37.9369 32.4541C37.9026 32.8143 37.9008 33.1769 37.9315 33.5375L37.9321 33.5447L37.9338 33.5518C37.9635 33.6786 38.0371 33.7908 38.1417 33.8684C38.2462 33.9461 38.3749 33.9842 38.5048 33.9759C38.6348 33.9677 38.7576 33.9136 38.8515 33.8234C38.9454 33.7331 39.0043 33.6125 39.0177 33.4829L39.0178 33.483L39.0181 33.4781C39.0238 33.3744 39.0218 33.2676 39.02 33.1652C39.0191 33.1161 39.0182 33.068 39.0182 33.0218Z" fill="#00BAA4" stroke="#00BAA4" stroke-width="0.2"/>
<path d="M21.2729 21.2988H17.8419C17.4521 21.2988 17.2575 21.1485 17.253 20.857C17.2485 20.5654 17.4445 20.4009 17.8276 20.4009C20.1523 20.4009 22.4777 20.4106 24.8024 20.3911C25.2042 20.3911 25.5017 20.7585 25.2816 21.0621C25.2233 21.1291 25.1521 21.1836 25.0722 21.2224C24.9922 21.2611 24.9053 21.2833 24.8167 21.2875C23.6352 21.307 22.4544 21.2988 21.2729 21.2988Z" fill="#00BAA4"/>
<path d="M24.9156 17.7004H27.4761C27.8599 17.7004 28.0552 17.8567 28.0507 18.1558C28.0462 18.4548 27.8562 18.5976 27.4904 18.5983H22.316C21.9495 18.5983 21.7595 18.4481 21.755 18.1565C21.7505 17.865 21.9465 17.7012 22.3295 17.7004H24.9156Z" fill="#00BAA4"/>
<path d="M19.0354 18.5983C18.6042 18.5983 18.1731 18.5983 17.742 18.5983C17.4348 18.5983 17.2485 18.4165 17.253 18.1422C17.2575 17.8815 17.4408 17.7049 17.7307 17.7034C18.6115 17.6999 19.4926 17.6999 20.3739 17.7034C20.663 17.7034 20.8463 17.8838 20.8493 18.1452C20.8523 18.4067 20.6653 18.5961 20.3573 18.5961C19.9172 18.6013 19.4763 18.5983 19.0354 18.5983Z" fill="#00BAA4"/>
</g>
<defs>
<clipPath id="clip0_1778_3281">
<rect width="27" height="27" fill="white" transform="translate(15 15)"/>
</clipPath>
</defs>
</svg>
