<svg width="57" height="57" viewBox="0 0 57 57" fill="none" xmlns="http://www.w3.org/2000/svg">
<rect x="1" y="1" width="55" height="55" rx="3" fill="white" stroke="#00BAA4" stroke-width="2"/>
<g clip-path="url(#clip0_1778_3280)">
<path d="M39.9861 41.9998H15.5853C15.217 41.8229 14.9993 41.5651 15 41.1242C15.0057 32.707 15.0071 24.2897 15.0042 15.8725C15.0042 15.309 15.3174 14.9998 15.8907 14.9998C20.106 14.9998 24.3214 14.9998 28.5368 14.9998C28.8444 14.9969 29.1517 15.019 29.4557 15.066C30.8919 15.2943 32.1986 16.0276 33.1392 17.133C34.0798 18.2384 34.5921 19.6429 34.5834 21.0922C34.5834 22.8668 34.5834 24.6417 34.5834 26.4168V26.7042C34.8789 26.7042 35.1341 26.7042 35.3893 26.7042C35.7005 26.7043 36.0087 26.7655 36.2962 26.8843C36.5837 27.0031 36.845 27.1771 37.065 27.3965C37.285 27.6159 37.4595 27.8763 37.5786 28.1629C37.6976 28.4495 37.7588 28.7566 37.7587 29.0668C37.7587 29.3274 37.7587 29.5874 37.7587 29.8677C38.4062 29.8677 39.0212 29.8677 39.6369 29.8677C40.2612 29.8703 40.8591 30.1188 41.3002 30.5591C41.7413 30.9993 41.9898 31.5955 41.9915 32.2176C41.9965 34.695 42.0021 37.1731 41.9915 39.6506C41.9866 40.5923 41.5278 41.2897 40.6965 41.7307C40.4753 41.8518 40.2236 41.9131 39.9861 41.9998ZM16.6082 16.5917V40.4007H25.6244V37.7782H22.225C21.7055 37.7782 21.3563 37.4627 21.3527 36.9956C21.3527 36.5159 21.6991 36.1989 22.2356 36.1982C23.2502 36.1982 24.2634 36.1982 25.2752 36.1982H25.5672V34.614H25.2646C24.2415 34.614 23.2184 34.614 22.1953 34.614C21.7005 34.614 21.3527 34.2907 21.3471 33.8328C21.3471 33.363 21.692 33.0361 22.2031 33.0354C23.2267 33.0354 24.25 33.0354 25.2731 33.0354H25.5559C25.587 32.4966 25.6166 31.9845 25.6477 31.4512H25.3904C24.323 31.4512 23.2564 31.4512 22.189 31.4512C21.8808 31.4512 21.6362 31.3406 21.4722 31.0835C21.3916 30.9668 21.3462 30.8295 21.3411 30.6879C21.3361 30.5463 21.3718 30.4062 21.4439 30.284C21.603 29.9959 21.8546 29.8677 22.184 29.8684C24.6185 29.8684 27.053 29.8684 29.4875 29.8684H29.8169V29.1851C29.8169 27.7122 30.8299 26.7056 32.3087 26.7042H32.9788V21.8508H32.6869C31.3202 21.8508 29.9536 21.8508 28.5869 21.8508C28.0214 21.8508 27.7083 21.5395 27.7083 20.9703C27.7083 19.6085 27.7083 18.2466 27.7083 16.8848V16.591L16.6082 16.5917ZM32.9852 34.09C33.036 33.3722 33.2679 33.0418 33.738 33.046C33.9372 33.0533 34.1306 33.115 34.2971 33.2242C34.5933 33.4172 34.5975 33.7532 34.5947 34.0618C34.6171 34.073 34.6409 34.081 34.6654 34.0857C35.9873 34.0857 37.3099 34.1069 38.6317 34.0801C39.5217 34.0618 40.2151 33.4222 40.3721 32.5579C40.4993 31.8535 40.1656 31.4519 39.4531 31.4519H28.3466C28.2144 31.4519 28.0815 31.4456 27.95 31.4519C27.842 31.4572 27.7361 31.4839 27.6385 31.5305C27.5409 31.5771 27.4537 31.6426 27.3818 31.7233C27.31 31.8039 27.2551 31.898 27.2202 32.0001C27.1853 32.1021 27.1713 32.2101 27.1788 32.3177C27.2184 33.1714 27.8447 33.9322 28.6937 34.0308C29.3723 34.1097 30.0643 34.0787 30.7514 34.0857C31.4901 34.0956 32.2288 34.09 32.9852 34.09ZM32.9887 35.6883H30.3732V40.4078H37.2194V35.6883H34.6039C34.5488 36.4138 34.3042 36.7237 33.7981 36.7244C33.2919 36.7251 33.0318 36.4067 32.9887 35.6883ZM29.3058 20.2617H32.8876C32.6982 18.5556 31.0462 16.8904 29.3058 16.6889V20.2617ZM28.7524 40.4169V35.734L27.1753 35.2092C27.1951 35.1874 27.1852 35.1931 27.1852 35.1994C27.1852 36.6787 27.1725 38.1657 27.1852 39.6484C27.1852 40.0711 27.521 40.3881 27.9451 40.4141C28.2045 40.4296 28.4682 40.4169 28.7524 40.4169ZM38.8332 40.4169H39.4694C40.0933 40.4169 40.4062 40.1033 40.4081 39.4759C40.4081 38.114 40.4081 36.7543 40.4081 35.3966C40.4081 35.3262 40.401 35.2494 40.3989 35.2135L38.8318 35.7326L38.8332 40.4169ZM32.9809 29.8579V28.3011C31.5247 28.1659 31.3042 28.6012 31.4399 29.8579H32.9809ZM34.6067 28.3032V29.8572H36.1506C36.2856 28.5674 36.0269 28.1694 34.606 28.3046L34.6067 28.3032Z" fill="#00BAA4"/>
<path d="M24.8961 23.0634C25.7254 23.5412 26.3851 24.2639 26.7842 25.1316C27.1518 25.9191 27.2197 26.7517 27.1688 27.6019C27.144 28.0084 26.7885 28.288 26.3403 28.288C24.2592 28.288 22.1787 28.288 20.0985 28.288C19.7366 28.288 19.3754 28.288 19.0142 28.288C18.513 28.288 18.2013 27.9612 18.1765 27.4688C18.1193 26.2995 18.3405 25.202 19.0955 24.2799C19.4737 23.8171 19.9508 23.4346 20.4075 22.9923C20.1293 22.6524 19.9335 22.2531 19.8354 21.8254C19.7373 21.3978 19.7396 20.9534 19.842 20.5268C19.9864 19.8583 20.372 19.2658 20.9256 18.8616C21.4805 18.4392 22.1698 18.2306 22.8667 18.2742C23.5636 18.3179 24.2212 18.6107 24.7187 19.099C25.6992 20.0521 25.9756 21.7081 24.8961 23.0634ZM25.5415 26.6961C25.5366 25.3203 24.1666 24.07 22.6779 24.07C21.1893 24.07 19.8215 25.3168 19.8123 26.6961H25.5415ZM22.6688 19.8485C22.4078 19.8503 22.1531 19.929 21.9369 20.0748C21.7208 20.2205 21.5527 20.4267 21.4538 20.6674C21.355 20.9082 21.3299 21.1726 21.3816 21.4276C21.4333 21.6825 21.5596 21.9165 21.7445 22.1001C21.9294 22.2836 22.1647 22.4086 22.4207 22.4592C22.6767 22.5098 22.942 22.4838 23.1833 22.3844C23.4245 22.285 23.6308 22.1168 23.7762 21.9008C23.9216 21.6848 23.9997 21.4308 24.0005 21.1707C23.9963 20.8205 23.8545 20.4859 23.6055 20.2387C23.3565 19.9915 23.0202 19.8514 22.6688 19.8485Z" fill="#00BAA4"/>
<path d="M19.7654 30.6703C19.7636 30.827 19.7149 30.9796 19.6258 31.1087C19.5366 31.2377 19.4109 31.3374 19.2647 31.3951C19.1184 31.4528 18.9583 31.4658 18.8047 31.4325C18.651 31.3991 18.5108 31.321 18.4018 31.2081C18.2928 31.0951 18.22 30.9524 18.1927 30.798C18.1654 30.6437 18.1848 30.4848 18.2484 30.3415C18.312 30.1982 18.4169 30.077 18.5499 29.9933C18.6828 29.9096 18.8378 29.8672 18.9949 29.8715C19.2034 29.8758 19.4016 29.9623 19.546 30.1121C19.6905 30.2618 19.7694 30.4626 19.7654 30.6703Z" fill="#00BAA4"/>
<path d="M18.8056 34.5003C18.963 34.5027 19.1162 34.5519 19.2455 34.6414C19.3749 34.7309 19.4746 34.8567 19.5319 35.0029C19.5892 35.1491 19.6015 35.3089 19.5673 35.4621C19.5331 35.6153 19.454 35.7549 19.3399 35.863C19.2258 35.9712 19.082 36.0431 18.9268 36.0696C18.7716 36.096 18.612 36.0758 18.4683 36.0116C18.3246 35.9473 18.2034 35.8419 18.1201 35.7087C18.0368 35.5755 17.9951 35.4207 18.0005 35.2639C18.0028 35.161 18.0256 35.0596 18.0674 34.9655C18.1091 34.8714 18.1691 34.7864 18.2439 34.7155C18.3187 34.6446 18.4069 34.589 18.5032 34.5521C18.5996 34.5152 18.7024 34.4976 18.8056 34.5003Z" fill="#00BAA4"/>
<path d="M18.9844 37.7799C18.8269 37.783 18.6719 37.7392 18.5394 37.6541C18.4069 37.5691 18.3029 37.4466 18.2405 37.3024C18.1781 37.1581 18.1603 36.9987 18.1893 36.8443C18.2183 36.6899 18.2928 36.5476 18.4033 36.4356C18.5138 36.3236 18.6553 36.247 18.8097 36.2154C18.9641 36.1839 19.1244 36.1989 19.2702 36.2586C19.416 36.3183 19.5406 36.4198 19.6282 36.5504C19.7158 36.681 19.7624 36.8346 19.762 36.9917C19.7633 37.1988 19.6823 37.398 19.5365 37.5457C19.3908 37.6935 19.1923 37.7777 18.9844 37.7799Z" fill="#00BAA4"/>
</g>
<defs>
<clipPath id="clip0_1778_3280">
<rect width="27" height="27" fill="white" transform="translate(15 15)"/>
</clipPath>
</defs>
</svg>
