<svg width="57" height="57" viewBox="0 0 57 57" fill="none" xmlns="http://www.w3.org/2000/svg">
<rect x="1" y="1" width="55" height="55" rx="3" fill="white" stroke="#00BAA4" stroke-width="2"/>
<g clip-path="url(#clip0_1778_3279)">
<path d="M29.0118 17.0004H41.7362C42.5412 17.0004 42.9985 17.4594 42.9985 18.2641V38.7589C42.9985 39.5292 42.5388 39.9996 41.7769 40C33.2465 40 24.7161 40 16.1859 40C15.4839 40 15.001 39.5091 15.001 38.799C15.001 31.9335 15.001 25.068 15.001 18.2023C15.001 17.4864 15.4896 17.0008 16.2071 17.0008L29.0118 17.0004ZM41.2753 38.4279V21.551H16.7267V38.4263L41.2753 38.4279ZM41.2891 19.2831C41.2903 19.111 41.2407 18.9424 41.1466 18.7986C41.0525 18.6547 40.9181 18.5422 40.7603 18.475C40.6026 18.4079 40.4286 18.3893 40.2603 18.4214C40.092 18.4536 39.9369 18.5351 39.8147 18.6557C39.6925 18.7763 39.6086 18.9306 39.5736 19.0991C39.5386 19.2676 39.5541 19.4427 39.6181 19.6023C39.6821 19.762 39.7917 19.899 39.9332 19.9961C40.0746 20.0932 40.2415 20.146 40.4128 20.1479C40.6431 20.1489 40.8644 20.0584 41.0285 19.8962C41.1927 19.734 41.2863 19.5131 41.2891 19.2819V19.2831ZM38.6994 19.2855C38.7016 19.1711 38.681 19.0574 38.6389 18.9511C38.5968 18.8447 38.5339 18.7479 38.454 18.6663C38.3741 18.5847 38.2788 18.52 38.1737 18.4759C38.0686 18.4319 37.9557 18.4094 37.8418 18.4097C37.6706 18.4082 37.5028 18.4577 37.3597 18.552C37.2165 18.6463 37.1044 18.7811 37.0375 18.9394C36.9707 19.0977 36.9521 19.2724 36.984 19.4414C37.016 19.6103 37.0972 19.7659 37.2172 19.8886C37.3373 20.0112 37.4908 20.0952 37.6584 20.1301C37.8261 20.1651 38.0002 20.1492 38.1589 20.0847C38.3176 20.0201 38.4536 19.9097 38.5498 19.7675C38.646 19.6252 38.6981 19.4575 38.6994 19.2855ZM34.399 19.2806C34.3992 19.3949 34.422 19.508 34.4658 19.6134C34.5097 19.7189 34.5739 19.8145 34.6546 19.895C34.7354 19.9755 34.8312 20.0391 34.9365 20.0823C35.0418 20.1255 35.1546 20.1473 35.2683 20.1466C35.382 20.1462 35.4945 20.1233 35.5994 20.0792C35.7042 20.0351 35.7994 19.9707 35.8795 19.8896C35.9596 19.8085 36.023 19.7124 36.0661 19.6067C36.1092 19.5011 36.1312 19.3879 36.1308 19.2737C36.1303 19.1595 36.1075 19.0465 36.0636 18.9411C36.0197 18.8357 35.9556 18.7401 35.8749 18.6597C35.7942 18.5792 35.6985 18.5155 35.5933 18.4722C35.4882 18.4289 35.3755 18.4068 35.2618 18.4072C35.1479 18.4071 35.0351 18.4297 34.93 18.4736C34.8248 18.5176 34.7294 18.582 34.6491 18.6632C34.5689 18.7444 34.5055 18.8408 34.4625 18.9468C34.4196 19.0527 34.398 19.1662 34.399 19.2806Z" fill="#00BAA4"/>
<path d="M27.2607 33.2379C27.5792 32.2926 27.8764 31.411 28.1733 30.529C28.5834 29.3116 28.9924 28.0938 29.4001 26.8755C29.4409 26.7528 29.4889 26.678 29.6327 26.6804C29.989 26.687 30.3457 26.6804 30.737 26.6804C30.6185 27.038 30.5134 27.3587 30.4055 27.6786C29.8049 29.4556 29.201 31.2318 28.6065 33.0109C28.5515 33.1745 28.4717 33.24 28.3068 33.2375C27.9721 33.2343 27.637 33.2379 27.2607 33.2379Z" fill="#00BAA4"/>
<path d="M26.1882 27.9788C26.1882 28.3597 26.1975 28.6976 26.18 29.0342C26.1768 29.0972 26.0774 29.1836 26.0045 29.2106C25.2178 29.5043 24.4274 29.7878 23.6383 30.0745C23.5951 30.0905 23.5532 30.1101 23.4681 30.1453C23.745 30.2427 23.982 30.3273 24.2202 30.4092C24.8159 30.6137 25.4104 30.8215 26.0086 31.0179C26.1385 31.0588 26.1983 31.1209 26.1959 31.2596C26.191 31.5955 26.1959 31.9313 26.1959 32.3052L24.4307 31.6028C23.8199 31.3598 23.2091 31.1119 22.5983 30.8767C22.4762 30.8293 22.4016 30.7679 22.4025 30.6313C22.4045 30.2926 22.3976 29.9543 22.4102 29.6164C22.4151 29.5786 22.4287 29.5425 22.4499 29.5109C22.4711 29.4793 22.4993 29.4531 22.5323 29.4343C23.7303 28.9512 24.932 28.4767 26.1882 27.9788Z" fill="#00BAA4"/>
<path d="M31.818 32.3016C31.818 31.9175 31.811 31.5599 31.8261 31.2036C31.8261 31.1562 31.9348 31.0968 32.0036 31.0715C32.7533 30.7949 33.5054 30.5241 34.2567 30.2533C34.3381 30.2235 34.4195 30.1911 34.5454 30.1429C34.3096 30.0611 34.1146 29.9907 33.9183 29.9236C33.2778 29.7039 32.6381 29.4818 31.9955 29.2691C31.8689 29.2282 31.8029 29.1693 31.8058 29.0269C31.8123 28.6906 31.8058 28.3536 31.8058 27.9809L33.746 28.7508C34.2872 28.966 34.8259 29.1877 35.3703 29.3934C35.5251 29.4519 35.6081 29.5309 35.6053 29.6986C35.5996 30.0304 35.6028 30.3625 35.5882 30.6935C35.5824 30.7281 35.5687 30.7609 35.5481 30.7893C35.5275 30.8177 35.5007 30.8409 35.4697 30.8571C34.2717 31.3341 33.0685 31.8074 31.818 32.3016Z" fill="#00BAA4"/>
</g>
<defs>
<clipPath id="clip0_1778_3279">
<rect width="28" height="23" fill="white" transform="translate(15 17)"/>
</clipPath>
</defs>
</svg>
