<svg width="57" height="57" viewBox="0 0 57 57" fill="none" xmlns="http://www.w3.org/2000/svg">
<rect x="1" y="1" width="55" height="55" rx="3" fill="white" stroke="#00BAA4" stroke-width="2"/>
<g clip-path="url(#clip0_1873_2347)">
<rect width="25" height="27" transform="translate(14 14.5)" fill="white"/>
<path d="M22.9728 33.6646C23.0868 35.6061 23.2266 37.4755 23.2978 39.3508C23.3407 40.4776 22.3939 41.3305 21.2129 41.3352C19.9485 41.3352 19.0385 40.4405 19.0986 39.2046C19.1783 37.58 19.2887 35.9623 19.3831 34.3412C19.3954 34.13 19.3831 33.9188 19.3831 33.6774C18.819 33.6147 18.6927 33.2643 18.7699 32.8082C18.9171 31.9565 18.6203 31.4865 17.7373 31.049C14.8246 29.6043 13.4719 26.3144 14.4199 23.3715C14.8789 21.9033 15.8553 20.6281 17.1867 19.7581C18.5181 18.888 20.1242 18.4756 21.7378 18.5893C24.9595 18.7994 27.6931 21.2003 28.1911 24.2558C28.4189 25.6824 28.1518 27.1404 27.4298 28.4112C26.7079 29.682 25.5701 30.6971 24.1869 31.3043C23.7331 31.5039 23.5737 31.7313 23.6264 32.1688C23.6546 32.4009 23.6142 32.633 23.635 32.8651C23.6804 33.3142 23.5295 33.6217 22.9728 33.6646ZM27.3682 25.3095C27.3853 22.0602 24.637 19.4133 21.2362 19.3993C19.5946 19.4014 18.0199 20.0152 16.8531 21.1079C15.6864 22.2006 15.0215 23.6843 15.0024 25.2375C14.9816 28.4183 17.7667 31.0873 21.1344 31.1093C21.9466 31.117 22.7525 30.9729 23.5057 30.6853C24.2589 30.3976 24.9448 29.9722 25.5239 29.4333C26.103 28.8943 26.564 28.2525 26.8805 27.5447C27.197 26.8369 27.3627 26.0769 27.3682 25.3083V25.3095ZM20.3556 33.6565C20.3201 33.8141 20.2931 33.9733 20.2747 34.1335C20.1741 35.8091 20.0674 37.486 19.9865 39.1628C19.9473 39.9844 20.4574 40.5194 21.2129 40.5089C21.9683 40.4985 22.4687 39.938 22.4393 39.1373C22.4111 38.4619 22.3608 37.7877 22.3166 37.1146C22.2369 35.9658 22.1523 34.817 22.0714 33.6565H20.3556ZM19.6615 32.7398H22.6858V31.8741H19.6615V32.7398Z" fill="#00BAA4"/>
<path d="M21.2025 41.4478C20.9016 41.453 20.6027 41.4003 20.3239 41.2928C20.0452 41.1852 19.7925 41.0252 19.5813 40.8223C19.3688 40.6048 19.2056 40.3485 19.1019 40.0691C18.9981 39.7897 18.9559 39.4931 18.9779 39.1977C19.0281 38.1533 19.0944 37.0845 19.1569 36.0552C19.1929 35.4819 19.2276 34.9079 19.2612 34.3331C19.2685 34.195 19.2673 34.0546 19.2612 33.9049C19.2612 33.8631 19.2612 33.8202 19.2612 33.7761C19.0683 33.7495 18.8931 33.655 18.7706 33.5115C18.6345 33.3409 18.5928 33.0972 18.648 32.7886C18.7853 32.0018 18.5253 31.5724 17.6803 31.1512C16.2408 30.4294 15.1194 29.2469 14.5163 27.8149C13.9096 26.3874 13.8361 24.8068 14.3078 23.3344C14.7797 21.8438 15.7742 20.5498 17.1273 19.6655C18.4805 18.7813 20.1116 18.3596 21.752 18.4699C25.0485 18.6845 27.8091 21.1099 28.3181 24.2349C28.5434 25.686 28.2685 27.1671 27.5342 28.4586C26.7999 29.7502 25.6453 30.7835 24.2415 31.4053C23.8246 31.5898 23.7056 31.7708 23.751 32.1515C23.7634 32.2788 23.7655 32.4068 23.7571 32.5344C23.7503 32.6395 23.7503 32.7449 23.7571 32.8501C23.7853 33.1494 23.7301 33.3711 23.5916 33.5278C23.4633 33.6601 23.2893 33.7448 23.101 33.7668C23.1329 34.3087 23.1672 34.8449 23.2016 35.3787C23.2886 36.741 23.3696 38.0279 23.4199 39.3427C23.4326 39.6113 23.3875 39.8794 23.2873 40.131C23.1872 40.3825 23.0341 40.6122 22.8373 40.806C22.6266 41.0113 22.374 41.174 22.0949 41.2843C21.8159 41.3946 21.516 41.4502 21.2136 41.4478H21.2025ZM21.2393 18.6857C19.735 18.685 18.2705 19.1435 17.0635 19.9931C15.8565 20.8428 14.9713 22.0382 14.5396 23.4017C13.6014 26.3144 15.0007 29.5521 17.7969 30.9446C18.7387 31.4088 19.0465 31.9403 18.8932 32.8257C18.8503 33.0694 18.8773 33.2539 18.9705 33.3711C19.0244 33.4288 19.0901 33.4754 19.1637 33.5081C19.2373 33.5409 19.3172 33.559 19.3985 33.5614L19.5064 33.573V33.6763C19.5064 33.754 19.5064 33.8295 19.5064 33.9014C19.5064 34.0546 19.5064 34.1997 19.5064 34.3459C19.4737 34.9207 19.439 35.4951 19.4022 36.0691C19.3384 37.0973 19.2796 38.1579 19.2219 39.2081C19.2018 39.4724 19.239 39.7378 19.3312 39.988C19.4233 40.2383 19.5685 40.4681 19.7579 40.6633C20.1473 41.0216 20.67 41.2208 21.2132 41.218C21.7564 41.2152 22.2767 41.0106 22.6619 40.6482C22.8358 40.4765 22.9709 40.2732 23.0592 40.0506C23.1476 39.828 23.1872 39.5907 23.1758 39.3532C23.1268 38.0419 23.0446 36.7561 22.9575 35.3949C22.9219 34.8263 22.8852 34.253 22.8508 33.6728V33.5568L22.9735 33.5475C23.0558 33.5487 23.1375 33.5342 23.2138 33.5049C23.29 33.4756 23.3593 33.4321 23.4174 33.3769C23.5118 33.2701 23.5486 33.1042 23.5266 32.8698C23.5184 32.7539 23.5184 32.6376 23.5266 32.5217C23.5332 32.4056 23.5311 32.2893 23.5204 32.1735C23.4616 31.6931 23.6431 31.4169 24.1496 31.1906C25.5048 30.5899 26.6195 29.5919 27.3284 28.3447C28.0372 27.0975 28.3026 25.6674 28.0851 24.2663C27.5945 21.2491 24.9271 18.9039 21.7458 18.6961C21.5668 18.6903 21.4024 18.6857 21.2393 18.6857ZM21.1903 40.625C21.0165 40.6295 20.8435 40.6003 20.6821 40.539C20.5207 40.4777 20.3744 40.3857 20.2521 40.2688C20.1106 40.1183 20.0032 39.9421 19.9363 39.7509C19.8695 39.5597 19.8446 39.3576 19.8633 39.1571C19.9283 37.8051 20.0117 36.4312 20.0927 35.1025L20.1515 34.1265C20.1611 34.0169 20.1783 33.908 20.203 33.8005C20.2128 33.7482 20.2239 33.6949 20.2337 33.6368L20.2509 33.5405H22.1775L22.2585 34.6615C22.3173 35.4738 22.3811 36.2931 22.4326 37.1066L22.4535 37.4048C22.4927 37.9711 22.5332 38.5559 22.5565 39.1327C22.5724 39.3338 22.5456 39.5359 22.4776 39.7271C22.4095 39.9182 22.3017 40.0945 22.1604 40.2456C22.0383 40.3666 21.8913 40.4627 21.7285 40.528C21.5656 40.5933 21.3904 40.6263 21.2136 40.625H21.1903ZM20.4544 33.7726L20.4397 33.8446C20.4169 33.942 20.4013 34.0409 20.3931 34.1405L20.3343 35.1164C20.2533 36.4439 20.1699 37.8167 20.1049 39.1675C20.088 39.3363 20.1075 39.5065 20.1624 39.6679C20.2172 39.8293 20.3061 39.9785 20.4238 40.1063C20.5254 40.2036 20.6477 40.2795 20.7826 40.3289C20.9174 40.3783 21.0618 40.4001 21.2062 40.3929C21.3503 40.3943 21.4931 40.3678 21.6259 40.3152C21.7588 40.2625 21.8789 40.1847 21.9788 40.0866C22.0974 39.9575 22.1877 39.8075 22.2443 39.6451C22.3009 39.4827 22.3229 39.3113 22.3087 39.1408C22.2842 38.5676 22.2438 37.9804 22.2045 37.421L22.1837 37.1216C22.1272 36.3093 22.0684 35.497 22.0095 34.6766L21.9445 33.7726H20.4544ZM22.803 32.8559H19.5383V31.7581H22.8067L22.803 32.8559ZM19.7799 32.6238H22.5614V31.9902H19.7836L19.7799 32.6238ZM21.1756 31.2243H21.129C17.7208 31.2022 14.8596 28.4601 14.8744 25.2364C14.8873 23.6548 15.5596 22.142 16.7451 21.027C17.9306 19.9119 19.5335 19.2849 21.205 19.2822H21.2308C22.0579 19.2838 22.8764 19.4418 23.6382 19.7469C24.3999 20.052 25.0896 20.498 25.6666 21.0588C26.2505 21.619 26.7118 22.2828 27.0241 23.012C27.3364 23.7412 27.4935 24.5216 27.4866 25.3083C27.4847 26.0884 27.3192 26.8604 26.9996 27.5796C26.68 28.2987 26.2128 28.9506 25.6249 29.4975C24.4416 30.6074 22.8417 31.2283 21.1756 31.2243ZM21.2111 19.5143C19.6029 19.5161 18.0605 20.1192 16.9202 21.1924C15.7799 22.2655 15.134 23.7216 15.1233 25.2434C15.1037 28.3417 17.8533 30.9759 21.1326 30.998H21.1756C22.7791 31.0036 24.3194 30.4068 25.4581 29.3386C26.0233 28.8134 26.4725 28.1872 26.7797 27.4963C27.0869 26.8054 27.2459 26.0637 27.2474 25.3141C27.2543 24.5576 27.1033 23.8071 26.8032 23.1058C26.5031 22.4045 26.0598 21.766 25.4986 21.2271C24.9438 20.6885 24.281 20.2601 23.549 19.967C22.817 19.6739 22.0305 19.5219 21.2357 19.5201L21.2111 19.5143Z" fill="#00BAA4"/>
<path d="M35.3335 26.9922C35.3335 24.2071 35.3335 21.4221 35.3335 18.637C35.3335 17.5358 35.824 17.1017 37.0504 17.1006C38.3884 17.1006 38.8778 17.5114 38.8778 18.6521C38.8778 24.2013 38.8888 29.7494 38.8655 35.2986C38.8655 35.8661 38.6766 36.4359 38.5405 36.9975C38.2302 38.274 37.9101 39.5505 37.5594 40.82C37.5054 41.0138 37.2552 41.1589 37.097 41.3271C36.9425 41.174 36.6984 41.0428 36.6494 40.863C36.1993 39.2012 35.7799 37.5313 35.3629 35.8614C35.3322 35.6695 35.3243 35.4749 35.3396 35.2812C35.3355 32.5202 35.3335 29.7571 35.3335 26.9922ZM36.2496 19.642V35.258H37.9592V19.642H36.2496ZM37.0492 38.6059H37.1522L37.8709 36.1469H36.3207C36.5734 36.9952 36.8113 37.8005 37.0492 38.6059ZM36.1171 18.7623H38.0794C37.9567 18.4629 37.8942 18.0719 37.7544 18.044C37.3238 17.9595 36.8792 17.9615 36.4495 18.0498C36.3035 18.0812 36.2459 18.4676 36.1171 18.7647V18.7623Z" fill="#00BAA4"/>
<path d="M37.0938 41.5L37.0018 41.4095C36.9534 41.3623 36.9018 41.3181 36.8473 41.2772C36.7012 41.184 36.5887 41.0508 36.5248 40.8954C36.0698 39.2139 35.6393 37.5011 35.2383 35.8916C35.2071 35.7387 35.1972 35.5827 35.2088 35.4274C35.2088 35.3798 35.2088 35.3322 35.2088 35.2858C35.2088 33.1715 35.2088 31.0572 35.2088 28.9428V25.0647C35.2088 22.9225 35.2088 20.7807 35.2088 18.6393C35.2088 17.4672 35.7411 16.988 37.0484 16.9868H37.0546C37.7683 16.9868 38.2417 17.1029 38.5459 17.364C38.85 17.6251 38.9984 18.0359 38.9984 18.6544V21.6901C38.9984 26.1508 38.9984 30.7647 38.9837 35.3021C38.9596 35.7703 38.8773 36.2342 38.7384 36.6842C38.709 36.8002 38.6795 36.9162 38.6513 37.0253C38.3754 38.1626 38.0381 39.5052 37.6702 40.8548C37.6043 41.0183 37.4903 41.1604 37.3415 41.2644C37.2854 41.3105 37.2318 41.3593 37.1809 41.4106L37.0938 41.5ZM37.0533 17.2189H37.046C35.887 17.2189 35.4517 17.6053 35.4517 18.6393C35.4517 20.7815 35.4517 22.9232 35.4517 25.0647V28.944C35.4517 31.0583 35.4517 33.1727 35.4517 35.287C35.4517 35.3357 35.4517 35.3856 35.4517 35.4355C35.4411 35.5701 35.4489 35.7055 35.475 35.8382C35.876 37.4466 36.3052 39.1582 36.7602 40.8374C36.7835 40.9244 36.8951 41.0126 37.0055 41.0996L37.0877 41.1658L37.1772 41.088C37.288 41.0115 37.3766 40.9097 37.4348 40.7921C37.8027 39.4495 38.1399 38.108 38.4159 36.9743C38.4441 36.8582 38.4747 36.7422 38.5042 36.6261C38.6363 36.1937 38.7149 35.7482 38.7384 35.2986C38.758 30.7613 38.7556 26.1485 38.7531 21.6878V18.652C38.7531 18.1043 38.6305 17.7492 38.3852 17.5345C38.1399 17.3199 37.7021 17.2189 37.0533 17.2189ZM36.9565 38.7277L36.1581 36.0262H38.032L37.241 38.7114L36.9565 38.7277ZM36.4818 36.2583L37.095 38.3471L37.7082 36.2583H36.4818ZM38.0762 35.374H36.1262V19.5259H38.0811L38.0762 35.374ZM36.3666 35.1419H37.8309V19.758H36.3715L36.3666 35.1419ZM38.2503 18.8807H35.9349L36.0035 18.7205C36.044 18.6265 36.0771 18.5221 36.109 18.4211C36.19 18.1705 36.2537 17.9732 36.4181 17.9384C36.8648 17.8471 37.3268 17.8451 37.7745 17.9326C37.9388 17.9662 38.0013 18.1647 38.0823 18.4188C38.1142 18.5209 38.1473 18.6265 38.1878 18.7205L38.2503 18.8807ZM36.2881 18.6486H37.8959C37.8775 18.594 37.8603 18.5395 37.8431 18.4861C37.8153 18.3714 37.7707 18.2608 37.7107 18.1577C37.3001 18.0788 36.8767 18.0811 36.4671 18.1647C36.4131 18.2681 36.3719 18.3771 36.3445 18.4896C36.3273 18.5418 36.3102 18.5952 36.2918 18.6486H36.2881Z" fill="#00BAA4"/>
<path d="M20.4487 17.7494L19.6564 17.8747C19.6564 17.1181 19.6086 16.4045 19.6699 15.6977C19.7276 15.0456 20.2733 14.622 20.9687 14.6209C25.8955 14.6147 30.8223 14.6147 35.7491 14.6209C36.68 14.6209 37.1386 15.2011 37.0393 16.2246H36.236C36.3243 15.4761 35.8411 15.4239 35.2059 15.4274C30.6069 15.4448 26.0079 15.4355 21.4077 15.4366C20.6081 15.4366 20.5259 15.5156 20.5174 16.2571C20.5174 16.7027 20.51 17.1471 20.5039 17.5916C20.4915 17.6459 20.473 17.6988 20.4487 17.7494Z" fill="#00BAA4"/>
<path d="M19.5334 18.0117V17.8747C19.5334 17.6426 19.5334 17.4105 19.5236 17.1901C19.5046 16.6895 19.5128 16.1883 19.5482 15.6884C19.6083 14.9922 20.1932 14.506 20.9683 14.5048C26.351 14.4978 31.1854 14.499 35.7488 14.5048C36.2062 14.5048 36.5643 14.6359 36.8108 14.8924C37.1003 15.1918 37.218 15.6443 37.1616 16.235L37.1506 16.3406H36.0983L36.113 16.2118C36.1412 15.9739 36.113 15.8091 36.0149 15.7093C35.8665 15.5538 35.5477 15.5411 35.2067 15.5434C31.8268 15.5562 28.3904 15.555 25.0681 15.5538H21.4074C20.6715 15.5538 20.647 15.5805 20.6396 16.2594V16.7305C20.6396 17.0183 20.6368 17.3061 20.6311 17.5939C20.6272 17.6341 20.616 17.6734 20.5979 17.7099C20.5894 17.7285 20.5796 17.7517 20.5685 17.7819L20.5452 17.8469L19.5334 18.0117ZM28.2887 14.7322C25.9524 14.7322 23.5229 14.7322 20.9683 14.7322C20.3159 14.7322 19.8425 15.1233 19.7922 15.7035C19.7579 16.1952 19.7501 16.6883 19.7689 17.1808C19.7689 17.363 19.7763 17.5463 19.7775 17.7331L20.3576 17.6415L20.3649 17.6252C20.3711 17.609 20.3796 17.5893 20.3809 17.5834C20.3809 17.2991 20.387 17.0114 20.3895 16.7236V16.2524C20.398 15.4482 20.5403 15.3171 21.4025 15.3171H25.0632C28.3855 15.3171 31.8219 15.3171 35.2006 15.3067C35.5979 15.3067 35.9757 15.3217 36.1915 15.5504C36.2573 15.6273 36.3063 15.7159 36.3355 15.8109C36.3648 15.9059 36.3738 16.0055 36.362 16.1039H36.92C36.9482 15.6327 36.8489 15.2765 36.6244 15.0432C36.4258 14.8378 36.1339 14.7322 35.7439 14.7322C33.35 14.7346 30.8763 14.7322 28.2887 14.7322Z" fill="#00BAA4"/>
<path d="M23.4861 41.3063C23.7007 40.5729 24.206 40.494 24.8596 40.4998C28.2273 40.5288 31.5962 40.5137 34.9651 40.5137H35.647C35.7083 40.7957 35.7586 41.0348 35.8175 41.3063H23.4861Z" fill="#00BAA4"/>
<path d="M35.9683 41.4221H23.3242L23.3671 41.2747C23.6124 40.4427 24.244 40.3789 24.8609 40.3835C27.359 40.4044 29.8989 40.4021 32.3566 40.3986H34.9651H35.7488L35.9683 41.4221ZM23.6541 41.19H35.6728L35.5501 40.6284H34.9664H32.3578C29.905 40.6284 27.3591 40.6284 24.8597 40.6133C24.2293 40.6086 23.8528 40.7015 23.6541 41.19Z" fill="#00BAA4"/>
<path d="M24.0654 36.7506V35.9081H33.4952C33.6583 35.9081 33.8459 35.8652 33.9784 35.9267C34.1574 36.0103 34.2935 36.1762 34.4481 36.3073C34.2911 36.4547 34.1353 36.7309 33.9771 36.732C30.6965 36.7576 27.4135 36.7506 24.0654 36.7506Z" fill="#00BAA4"/>
<path d="M27.3763 36.8673H23.9424V35.7916H33.4948C33.5389 35.7916 33.5855 35.7916 33.6321 35.7846C33.7665 35.7623 33.9047 35.7751 34.0319 35.8217C34.1698 35.895 34.294 35.9891 34.3998 36.1003C34.4428 36.1409 34.4857 36.1826 34.5298 36.2163L34.6267 36.2987L34.5347 36.3846C34.4906 36.4275 34.4427 36.4855 34.3961 36.5412C34.2735 36.6898 34.1509 36.8429 33.9792 36.8441C31.7766 36.865 29.6132 36.8673 27.3763 36.8673ZM24.1877 36.6352H25.7133C28.5524 36.6352 31.2321 36.6352 33.9743 36.6155C34.0221 36.6155 34.1374 36.4762 34.1987 36.402L34.2735 36.3126C34.2563 36.2975 34.2392 36.2801 34.222 36.2639C34.1353 36.1721 34.0339 36.0938 33.9215 36.0318C33.8328 36.007 33.7392 36.0019 33.648 36.0167C33.5953 36.0167 33.5426 36.0248 33.4923 36.0248H24.1877V36.6352Z" fill="#00BAA4"/>
<path d="M23.946 34.6671C23.93 34.0869 24.2035 33.8281 24.6634 33.8258C27.7269 33.8111 30.7909 33.8146 33.8552 33.8363C34.0539 33.8363 34.2501 34.1182 34.4476 34.2679C34.2133 34.4014 33.9791 34.6497 33.7424 34.652C30.842 34.6776 27.9403 34.6683 25.035 34.6671H23.946Z" fill="#00BAA4"/>
<path d="M28.9372 34.786H23.8268V34.67C23.8182 34.3381 23.8979 34.0897 24.0721 33.9226C24.1513 33.8502 24.2454 33.7939 24.3486 33.7571C24.4517 33.7204 24.5617 33.7041 24.6718 33.7091C28.1719 33.6917 31.0932 33.6952 33.8697 33.7196C34.0561 33.7196 34.2119 33.8716 34.3603 34.0166C34.4157 34.0734 34.4746 34.1268 34.5369 34.1768L34.6742 34.2812L34.5234 34.3671C34.4498 34.4107 34.3789 34.4584 34.3112 34.5098C34.1371 34.6352 33.958 34.7651 33.7557 34.7674C32.1466 34.7825 30.5315 34.786 28.9372 34.786ZM24.2474 34.5539H26.8413C29.1027 34.5539 31.4415 34.5539 33.741 34.5377C33.8636 34.5377 34.0083 34.4309 34.1493 34.3276L34.2499 34.2557L34.1751 34.1791C34.0647 34.0735 33.9409 33.9528 33.8562 33.947C31.0846 33.9226 28.1645 33.9192 24.6656 33.9366C24.5884 33.932 24.511 33.9423 24.438 33.9668C24.3651 33.9913 24.2982 34.0296 24.2413 34.0793C24.1272 34.2094 24.067 34.3744 24.0721 34.5435L24.2474 34.5539Z" fill="#00BAA4"/>
<path d="M24.5899 32.5462C24.5286 32.0518 24.8658 31.7431 25.5183 31.7339C26.4564 31.7188 27.3946 31.7339 28.3328 31.7339H33.5352C33.6983 31.7339 33.8921 31.6886 34.0172 31.7547C34.1889 31.8464 34.4206 32.0298 34.417 32.1679C34.4133 32.306 34.1606 32.4499 34 32.5705C33.9485 32.61 33.8418 32.5833 33.7547 32.5833H24.8241C24.7452 32.5763 24.6669 32.5639 24.5899 32.5462Z" fill="#00BAA4"/>
<path d="M33.9109 32.7025C33.8815 32.7025 33.8521 32.7025 33.8239 32.7025H33.7613C30.7828 32.7025 27.8039 32.7025 24.8246 32.7025C24.7622 32.7009 24.7002 32.6935 24.6394 32.6804L24.572 32.67L24.4787 32.6561L24.4677 32.5679C24.4487 32.4559 24.4551 32.3413 24.4867 32.2318C24.5182 32.1224 24.574 32.0205 24.6504 31.9331C24.8307 31.7382 25.13 31.6314 25.5163 31.6244C26.1712 31.614 26.8371 31.6163 27.4785 31.6186H28.3308H33.5332L33.6693 31.6117C33.8062 31.5878 33.9474 31.6027 34.0753 31.6546C34.1231 31.6813 34.545 31.9145 34.5376 32.171C34.5376 32.3404 34.35 32.4681 34.1697 32.5911L34.0704 32.663C34.0233 32.6926 33.9672 32.7065 33.9109 32.7025ZM33.7613 32.4623C33.7871 32.4623 33.8165 32.4623 33.8459 32.4623C33.8741 32.4644 33.9024 32.4644 33.9305 32.4623L34.0299 32.3915C34.1157 32.3311 34.2923 32.207 34.2948 32.1513C34.2972 32.0956 34.1464 31.9447 33.9575 31.8426C33.8714 31.8174 33.78 31.8126 33.6914 31.8287C33.6387 31.8287 33.5859 31.8368 33.5357 31.8368H28.3333H27.4748C26.8322 31.8368 26.1687 31.8368 25.5126 31.8426C25.1986 31.8426 24.9607 31.9273 24.827 32.0747C24.7362 32.1783 24.6902 32.3105 24.6983 32.4449C24.7385 32.4534 24.7796 32.4581 24.8209 32.4588L33.7613 32.4623Z" fill="#00BAA4"/>
<path d="M26.1181 19.1949C28.7021 19.1949 31.2861 19.1856 33.8713 19.2123C34.0639 19.2123 34.2552 19.4641 34.4477 19.5999C34.2478 19.7473 34.0492 20.02 33.848 20.0223C31.6258 20.0525 29.4024 20.0734 27.1814 20.0107C26.7914 19.9991 26.4149 19.5872 26.0322 19.3597L26.1181 19.1949Z" fill="#00BAA4"/>
<path d="M30.354 20.1676C29.3018 20.1676 28.2385 20.1572 27.1777 20.127C26.8698 20.1177 26.589 19.9065 26.3192 19.7034C26.2076 19.6158 26.0909 19.534 25.9697 19.4586L25.8752 19.4029L26.0433 19.0791H27.667C29.7016 19.0791 31.8048 19.0791 33.875 19.0977C34.0553 19.0977 34.2061 19.2346 34.3521 19.3646C34.4057 19.4155 34.4626 19.4631 34.5225 19.5073L34.6525 19.599L34.5299 19.693C34.4672 19.7412 34.4078 19.7932 34.3521 19.8485C34.2 19.99 34.0442 20.1374 33.8615 20.1397C32.7161 20.1537 31.5424 20.1676 30.354 20.1676ZM26.1843 19.3193C26.28 19.382 26.3732 19.4528 26.4651 19.5212C26.7104 19.7023 26.9557 19.8879 27.1801 19.8949C29.4342 19.9587 31.7067 19.9355 33.8407 19.9065C33.929 19.9065 34.0553 19.7905 34.1669 19.6825L34.254 19.6013C34.227 19.5793 34.2012 19.5549 34.1755 19.5328C34.0688 19.4365 33.9486 19.3286 33.864 19.3286C31.7963 19.3077 29.6942 19.3089 27.6596 19.31H26.188L26.1843 19.3193Z" fill="#00BAA4"/>
<path d="M27.0234 30.4894C27.3423 29.8326 27.7826 29.6005 28.4951 29.6214C30.1888 29.6725 31.8861 29.6353 33.5822 29.6411C33.7841 29.6276 33.9869 29.6529 34.1782 29.7154C34.2464 29.7504 34.3049 29.8002 34.3488 29.8607C34.3927 29.9212 34.4208 29.9907 34.4308 30.0635C34.4308 30.1796 34.2972 30.3281 34.1856 30.4117C34.0796 30.4689 33.9577 30.4944 33.836 30.4848C31.5868 30.4906 29.3413 30.4894 27.0234 30.4894Z" fill="#00BAA4"/>
<path d="M29.4055 30.6055H26.8301L26.9098 30.4407C27.2397 29.7618 27.7155 29.481 28.4955 29.5054C29.6422 29.5402 30.811 29.5344 31.9405 29.5286C32.4874 29.5286 33.0332 29.5228 33.5801 29.5286C33.7985 29.5151 34.0175 29.5435 34.224 29.6121C34.3134 29.6562 34.3899 29.7204 34.4468 29.7992C34.5037 29.8779 34.5392 29.9687 34.5502 30.0635C34.5502 30.2654 34.3258 30.4546 34.2571 30.508C34.1304 30.5839 33.981 30.6185 33.8316 30.6066C32.3636 30.6055 30.8943 30.6055 29.4055 30.6055ZM27.2213 30.3734H28.2257C30.1217 30.3734 31.9772 30.3734 33.8316 30.3734C33.9251 30.382 34.0193 30.366 34.1038 30.327C34.2008 30.2639 34.2722 30.1713 34.3062 30.0647C34.296 30.0148 34.2747 29.9675 34.2439 29.9259C34.213 29.8843 34.1732 29.8494 34.1271 29.8233C33.9512 29.7691 33.7659 29.7474 33.5814 29.7595C33.0356 29.7595 32.4887 29.7595 31.9429 29.7595C30.8109 29.7653 29.6397 29.7711 28.4894 29.7363C27.8725 29.7189 27.5009 29.8999 27.2213 30.3734Z" fill="#00BAA4"/>
<path d="M28.0352 21.2808H30.7418C31.7425 21.2808 32.7445 21.2553 33.7428 21.2994C33.9881 21.3098 34.3903 21.5314 34.4124 21.6881C34.4688 22.0966 34.0776 22.1326 33.7317 22.1326C32.2405 22.1326 30.7492 22.1012 29.2603 22.1465C28.6177 22.1662 28.197 22.0177 28.0352 21.2808Z" fill="#00BAA4"/>
<path d="M29.1558 22.2631C28.6076 22.2631 28.095 22.1216 27.9147 21.3046L27.884 21.1642H30.7415C31.0101 21.1642 31.2799 21.1642 31.5485 21.1642C32.2696 21.1642 33.0202 21.1538 33.7474 21.1862C34.0197 21.1978 34.5004 21.4323 34.5335 21.676C34.5479 21.7435 34.5463 21.8132 34.5287 21.88C34.511 21.9469 34.4779 22.0091 34.4317 22.0624C34.2784 22.2283 34.0062 22.2515 33.7351 22.2515C33.3255 22.2515 32.9159 22.2515 32.5088 22.2457C31.4467 22.2457 30.3491 22.233 29.2711 22.2655L29.1558 22.2631ZM28.1919 21.3963C28.3562 21.9463 28.6984 22.0461 29.2576 22.0299C30.3393 21.9974 31.4406 22.0044 32.5051 22.0102C32.9135 22.0102 33.3231 22.016 33.7315 22.016C33.9289 22.016 34.157 22.0032 34.2478 21.9057C34.2699 21.8768 34.2852 21.8436 34.2926 21.8086C34.3 21.7736 34.2993 21.7374 34.2907 21.7026C34.276 21.6214 33.9485 21.4241 33.7364 21.4149C33.0103 21.3824 32.2647 21.3882 31.5509 21.3928C31.2811 21.3928 31.0113 21.3928 30.7415 21.3928L28.1919 21.3963Z" fill="#00BAA4"/>
<path d="M28.5078 28.3995C28.5655 27.6858 28.9113 27.5071 29.565 27.5338C30.8711 27.5883 32.1809 27.55 33.4894 27.55C33.6121 27.55 33.7617 27.5082 33.8573 27.5593C34.0654 27.6958 34.2645 27.8442 34.4534 28.0037C34.2559 28.1349 34.0634 28.3751 33.8622 28.3809C32.5966 28.4157 31.3285 28.3995 30.0604 28.3995H28.5078Z" fill="#00BAA4"/>
<path d="M31.8832 28.5192H30.9953H30.0547H28.3757L28.3855 28.3951C28.4432 27.6709 28.7841 27.389 29.5702 27.4214C30.4913 27.4597 31.4307 27.4516 32.3407 27.4447C32.7221 27.4447 33.1047 27.4377 33.4861 27.4377C33.5192 27.4377 33.556 27.4377 33.5916 27.4307C33.6993 27.4085 33.8117 27.4203 33.9117 27.4644C34.068 27.5609 34.2164 27.6683 34.3556 27.7858C34.4108 27.8299 34.4648 27.8752 34.5212 27.917L34.6438 28.0144L34.5114 28.1026C34.4505 28.1453 34.3923 28.1914 34.3372 28.2407C34.1888 28.366 34.0368 28.4949 33.854 28.5007C33.204 28.5157 32.5393 28.5192 31.8832 28.5192ZM30.1 28.2871H30.9965C31.9323 28.2871 32.9023 28.2871 33.8528 28.2662C33.9448 28.2662 34.065 28.163 34.179 28.0655L34.2526 28.0028L34.1999 27.9611C34.071 27.8509 33.9332 27.7504 33.7878 27.6605C33.7329 27.6491 33.676 27.6491 33.621 27.6605C33.5769 27.6605 33.5315 27.6686 33.4898 27.6686C33.1084 27.6686 32.727 27.6686 32.3456 27.6756C31.4344 27.6825 30.4913 27.6907 29.5641 27.6524C28.9644 27.628 28.7179 27.7905 28.648 28.286H30.1037L30.1 28.2871Z" fill="#00BAA4"/>
<path d="M29.0953 24.2207C29.034 23.9329 28.9837 23.695 28.915 23.3701H32.0166C32.6077 23.3701 33.1976 23.3701 33.7887 23.3701C34.1223 23.3701 34.4706 23.4444 34.4166 23.8088C34.3933 23.9701 34.0279 24.1987 33.8132 24.2033C32.2668 24.237 30.7191 24.2207 29.0953 24.2207Z" fill="#00BAA4"/>
<path d="M31.4038 24.3405H30.2657H29.0958H28.9952L28.7659 23.2578H32.5812C32.9822 23.2578 33.3832 23.2578 33.7843 23.2578H33.7928C34.1031 23.2578 34.3116 23.3216 34.433 23.4528C34.4783 23.5044 34.5108 23.565 34.5282 23.63C34.5455 23.6951 34.5474 23.7629 34.5336 23.8287C34.5005 24.0608 34.0749 24.3173 33.8112 24.3231C33.0129 24.337 32.2133 24.3405 31.4038 24.3405ZM29.1963 24.1084H30.2657C31.4921 24.1084 32.6413 24.1084 33.8112 24.0887C33.9915 24.0887 34.2834 23.8786 34.3018 23.7951C34.31 23.762 34.3104 23.7275 34.303 23.6943C34.2956 23.661 34.2805 23.6296 34.2589 23.6025C34.211 23.5502 34.0921 23.4864 33.8039 23.4864H33.7965C33.3943 23.4864 32.9932 23.4864 32.5922 23.4864H29.0651L29.1963 24.1084Z" fill="#00BAA4"/>
<path d="M29.1471 26.3121C29.0698 25.4662 29.0711 25.4639 29.8719 25.4639C31.1547 25.4639 32.4375 25.4639 33.7203 25.4639C34.0625 25.4639 34.4427 25.4801 34.4378 25.8944C34.4329 26.3087 34.049 26.3168 33.7093 26.3168C32.1828 26.3122 30.6621 26.3106 29.1471 26.3121Z" fill="#00BAA4"/>
<path d="M33.7298 26.4291H29.0241L29.0143 26.3235C28.9701 25.8442 28.9505 25.6272 29.0879 25.4845C29.2252 25.3417 29.4337 25.3487 29.8617 25.3487H30.432H33.7101C33.9701 25.3487 34.2436 25.3603 34.4092 25.5193C34.4585 25.5698 34.4964 25.6293 34.5207 25.6941C34.5449 25.759 34.555 25.8278 34.5502 25.8964C34.5429 26.4151 34.0523 26.4291 33.7298 26.4291ZM31.5223 26.197H33.715C34.1332 26.197 34.3098 26.1529 34.3135 25.8895C34.3174 25.8518 34.3132 25.8138 34.3012 25.7777C34.2892 25.7416 34.2696 25.7082 34.2436 25.6794C34.1443 25.5843 33.9321 25.5761 33.7187 25.5773H30.4406H29.8703C29.56 25.5773 29.3356 25.5773 29.2767 25.6376C29.2179 25.698 29.2314 25.8941 29.2571 26.1935H31.5223V26.197Z" fill="#00BAA4"/>
<path d="M20.4753 30.2158L19.6414 30.051V27.1778C19.6414 25.147 19.6671 23.1162 19.6254 21.0866C19.6132 20.4762 19.8548 20.2917 20.4753 20.3404V30.2158Z" fill="#00BAA4"/>
<path d="M20.5984 30.36L19.5192 30.1454V27.1781C19.5192 26.6141 19.5192 26.0494 19.5192 25.4839C19.5192 24.0426 19.5302 22.5526 19.4995 21.0893C19.4922 20.7493 19.5621 20.5264 19.7191 20.393C19.8761 20.2595 20.114 20.2027 20.4819 20.2305L20.5947 20.2398L20.5984 30.36ZM19.7644 29.9574L20.3531 30.0734V20.4499C20.1299 20.4441 19.9852 20.4777 19.8908 20.5566C19.7963 20.6355 19.7436 20.8154 19.7485 21.0846C19.7792 22.5514 19.773 24.0426 19.7681 25.485C19.7681 26.049 19.7681 26.6134 19.7681 27.1781L19.7644 29.9574Z" fill="#00BAA4"/>
<path d="M26.5129 25.4628C26.4552 25.7878 26.4123 26.0257 26.3632 26.3076C25.1503 26.3076 23.973 26.3239 22.7969 26.2879C22.6338 26.2879 22.4792 26.0233 22.321 25.8806C22.4829 25.7413 22.6399 25.4872 22.8116 25.4814C24.0024 25.4478 25.2018 25.4628 26.5129 25.4628Z" fill="#00BAA4"/>
<path d="M24.625 26.4269C24.0118 26.4269 23.4048 26.4269 22.7928 26.4037C22.626 26.4037 22.4985 26.254 22.3758 26.1136C22.3325 26.061 22.2858 26.011 22.236 25.9639L22.1416 25.878L22.2385 25.7945C22.2885 25.7485 22.336 25.7001 22.3807 25.6494C22.5034 25.5125 22.6346 25.3709 22.8014 25.3651C23.7089 25.3396 24.6128 25.3419 25.5706 25.3454H26.6572L26.4659 26.4223H25.4847L24.625 26.4269ZM22.4911 25.8815L22.5647 25.965C22.6371 26.0474 22.7438 26.1704 22.8002 26.1716C23.6893 26.1983 24.5625 26.196 25.4884 26.1925H26.2586L26.3677 25.5798H25.5694C24.614 25.5798 23.7114 25.574 22.8088 25.5995C22.7499 25.5995 22.6432 25.7156 22.5635 25.8026C22.5414 25.8235 22.5169 25.8548 22.4911 25.8815Z" fill="#00BAA4"/>
<path d="M26.2958 24.2173C25.1356 24.2173 23.9754 24.2336 22.8165 24.1988C22.6472 24.1988 22.4854 23.9446 22.3259 23.8077C22.5025 23.6626 22.6742 23.3992 22.8582 23.3922C23.8357 23.3387 24.8158 23.3414 25.7929 23.4004C26.026 23.4178 26.2308 23.8019 26.4491 24.0177L26.2958 24.2173Z" fill="#00BAA4"/>
<path d="M24.6099 24.3371C24.0151 24.3371 23.4129 24.3371 22.8169 24.315C22.6489 24.315 22.5164 24.1723 22.3901 24.0377C22.3386 23.9843 22.2907 23.9344 22.2441 23.8949L22.1387 23.8079L22.2441 23.7209C22.2995 23.6731 22.3519 23.6223 22.4011 23.5689C22.536 23.4285 22.6746 23.2834 22.8512 23.2764C23.8336 23.223 24.8186 23.2257 25.8007 23.2846C26.0165 23.3008 26.1821 23.5097 26.3427 23.7116C26.4028 23.7904 26.4675 23.866 26.5365 23.9379L26.6064 24.0075L26.3611 24.3336H26.2974H25.4499L24.6099 24.3371ZM22.5005 23.8091L22.5716 23.8822C22.6513 23.9669 22.7605 24.0818 22.8242 24.0829C23.6986 24.1096 24.589 24.1061 25.4512 24.1038H26.236L26.2912 24.0296C26.2422 23.9727 26.1943 23.9135 26.1465 23.8532C26.0312 23.707 25.8878 23.5259 25.7786 23.519C24.8063 23.4601 23.8312 23.4574 22.8586 23.5108C22.7838 23.5108 22.6697 23.6269 22.5789 23.7278L22.5005 23.8091Z" fill="#00BAA4"/>
<path d="M25.8484 27.5549C25.6215 28.2407 25.2217 28.4728 24.5668 28.4113C24.0002 28.3567 23.4202 28.4345 22.8499 28.3776C22.6586 28.3591 22.493 28.1084 22.3164 27.9645C22.4807 27.8276 22.6402 27.5793 22.807 27.5735C23.8077 27.5352 24.8023 27.5549 25.8484 27.5549Z" fill="#00BAA4"/>
<path d="M24.7595 28.5368C24.6911 28.5366 24.6227 28.5332 24.5547 28.5264C24.2773 28.5056 23.9988 28.5006 23.7207 28.5113C23.4275 28.5228 23.1339 28.517 22.8414 28.4939C22.6648 28.4753 22.5275 28.336 22.395 28.2003C22.3466 28.1483 22.295 28.0991 22.2405 28.0529L22.1338 27.9659L22.2405 27.8777C22.2871 27.8382 22.3337 27.7883 22.3852 27.7349C22.5078 27.6015 22.6415 27.4634 22.8095 27.4576C23.5527 27.4286 24.2812 27.4321 25.0587 27.4367H25.8485H26.0153L25.965 27.5876C25.7504 28.2386 25.3751 28.5368 24.7595 28.5368ZM24.0666 28.2745C24.2377 28.2734 24.4088 28.2804 24.5792 28.2954C25.1421 28.3488 25.4696 28.1666 25.6756 27.6711H25.0624C24.291 27.6711 23.5613 27.663 22.8242 27.6908C22.7605 27.6908 22.6562 27.8069 22.5716 27.8928C22.5495 27.9171 22.525 27.9415 22.5017 27.9659C22.5287 27.9914 22.5544 28.0181 22.5802 28.0448C22.6771 28.1446 22.7875 28.256 22.8721 28.2653C23.1544 28.2869 23.4378 28.2923 23.7207 28.2815C23.8311 28.2769 23.9489 28.2745 24.0666 28.2745Z" fill="#00BAA4"/>
<path d="M25.2399 22.1323C24.4022 22.1323 23.6321 22.1601 22.8656 22.1137C22.6755 22.1021 22.4976 21.8514 22.321 21.711C22.5001 21.5671 22.6779 21.3049 22.8594 21.3014C23.7228 21.2851 24.6966 21.0391 25.2399 22.1323Z" fill="#00BAA4"/>
<path d="M23.9312 22.2563C23.5633 22.2563 23.2138 22.2563 22.8581 22.2285C22.6803 22.218 22.5393 22.0799 22.4031 21.9453C22.3467 21.8919 22.2952 21.8409 22.2437 21.8003L22.1296 21.7121L22.2425 21.6215C22.2987 21.5746 22.3519 21.5246 22.4019 21.4718C22.5393 21.3326 22.6815 21.1875 22.8581 21.1852C22.9808 21.1852 23.1034 21.1759 23.2358 21.1678C23.9938 21.126 24.8522 21.0773 25.3514 22.0834L25.4335 22.2482H25.241C25.0117 22.2482 24.7872 22.2482 24.5677 22.2482L23.9312 22.2563ZM22.5012 21.7097L22.5785 21.784C22.6778 21.8815 22.7907 21.9917 22.8728 21.9975C23.4247 22.0312 23.9766 22.0254 24.564 22.0207C24.7198 22.0207 24.8768 22.0207 25.0362 22.0207C24.6033 21.3245 23.9435 21.3651 23.2481 21.4034C23.1181 21.4103 22.9893 21.4185 22.8618 21.4208C22.7894 21.4208 22.6729 21.5368 22.5797 21.6343L22.5012 21.7097Z" fill="#00BAA4"/>
<path d="M23.5287 29.7818L22.3428 30.1636C22.485 29.6101 22.5145 29.5996 23.5287 29.7818Z" fill="#00BAA4"/>
<path d="M22.1719 30.3414L22.2246 30.136C22.3926 29.4861 22.53 29.485 23.5528 29.6718L24.009 29.7542L22.1719 30.3414ZM22.7704 29.7925C22.7289 29.7909 22.6874 29.796 22.6477 29.8076C22.5913 29.825 22.5582 29.8702 22.5251 29.9839L23.0426 29.818C22.9526 29.8032 22.8616 29.7946 22.7704 29.7925Z" fill="#00BAA4"/>
<path d="M21.812 39.208C21.5251 39.4319 21.3644 39.6559 21.2197 39.6466C21.0566 39.6362 20.9094 39.4145 20.7549 39.2869C20.891 39.1465 21.0087 38.9237 21.1706 38.89C21.3117 38.8598 21.5018 39.0432 21.812 39.208Z" fill="#00BAA4"/>
<path d="M21.2293 39.763H21.2109C21.0527 39.7491 20.9301 39.6238 20.8074 39.4996C20.7621 39.4532 20.7191 39.4091 20.6774 39.3743L20.583 39.2965L20.6676 39.2083C20.7044 39.17 20.7412 39.1236 20.7805 39.0749C20.8835 38.9449 20.9902 38.8103 21.1484 38.7767C21.3066 38.743 21.4304 38.8335 21.6046 38.9449C21.6843 38.9948 21.7751 39.0528 21.8768 39.1074L22.0338 39.1898L21.8952 39.2977C21.7996 39.372 21.7186 39.4474 21.65 39.5135C21.4844 39.6574 21.3704 39.763 21.2293 39.763ZM20.9215 39.2849L20.984 39.3488C21.0638 39.43 21.1631 39.5321 21.2293 39.5367C21.2686 39.5367 21.3875 39.4311 21.4746 39.3522C21.5151 39.3151 21.5604 39.2733 21.6083 39.2362C21.558 39.206 21.5114 39.1758 21.4672 39.148C21.3667 39.0842 21.2404 39.0053 21.2011 39.0134C21.1324 39.0285 21.0503 39.1294 20.9767 39.2246L20.9215 39.2849Z" fill="#00BAA4"/>
</g>
<defs>
<clipPath id="clip0_1873_2347">
<rect width="25" height="27" fill="white" transform="translate(14 14.5)"/>
</clipPath>
</defs>
</svg>
