<svg width="57" height="58" viewBox="0 0 57 58" fill="none" xmlns="http://www.w3.org/2000/svg">
<rect x="1" y="1.40137" width="55" height="55" rx="3" fill="white" stroke="#00BAA4" stroke-width="2"/>
<g clip-path="url(#clip0_1873_2420)">
<rect width="34.7234" height="27.2" transform="translate(11 17.2681)" fill="white"/>
<path d="M16.6563 37.6819C16.5858 37.73 16.5157 37.7784 16.4447 37.8261C16.0814 38.0715 15.7173 38.3152 15.356 38.5632C15.2957 38.6045 15.2471 38.6105 15.1824 38.5777C14.7805 38.3723 14.5795 38.0435 14.5657 37.5967C14.5657 37.5734 14.5657 37.55 14.5657 37.5265C14.5657 31.1632 14.5657 24.7999 14.5657 18.4365C14.5657 18.0616 14.676 17.7403 14.9744 17.4983C15.1497 17.3554 15.3677 17.2749 15.5939 17.2695C15.6608 17.2669 15.728 17.2683 15.7949 17.2683C25.3897 17.2683 34.9846 17.2679 44.5794 17.2671C44.9598 17.2671 45.2729 17.3944 45.5064 17.6976C45.6499 17.8811 45.7269 18.1077 45.7248 18.3405C45.7248 24.7669 45.7248 31.1934 45.7248 37.62C45.7248 38.2131 45.2355 38.6759 44.6156 38.6759H35.244C35.2422 38.6687 35.2404 38.6617 35.2388 38.6547C35.3109 38.6029 35.3859 38.5544 35.4546 38.4989C35.7663 38.2462 36.0775 37.9935 36.3848 37.7353C36.4451 37.6845 36.4989 37.6583 36.5791 37.6583C39.0575 37.6603 41.5358 37.6603 44.0142 37.6583C44.0776 37.6606 44.1411 37.6543 44.2029 37.6396C44.3636 37.5945 44.4569 37.484 44.482 37.32C44.4887 37.2635 44.4912 37.2067 44.4894 37.1499C44.4894 31.8293 44.4894 26.5087 44.4894 21.1882C44.4894 21.1412 44.4906 21.0945 44.4894 21.0478C44.4806 20.7951 44.3208 20.6411 44.0658 20.6387C44.0425 20.6387 44.019 20.6387 43.9955 20.6387H16.2755C15.9339 20.6387 15.7866 20.7869 15.7866 21.1268V37.1688C15.7866 37.5097 15.9357 37.6587 16.2745 37.6589H16.6505L16.6563 37.6819ZM26.9125 19.4889H32.196C32.2228 19.4889 32.2497 19.4901 32.2764 19.4889C32.6112 19.4705 32.83 19.1741 32.7402 18.8611C32.6757 18.6361 32.477 18.5001 32.2111 18.5001H21.6141C21.5773 18.4998 21.5405 18.5019 21.504 18.5063C21.3815 18.5213 21.2689 18.581 21.1879 18.674C21.1069 18.7669 21.0633 18.8865 21.0655 19.0096C21.0685 19.2904 21.2932 19.4897 21.6081 19.4909L26.9125 19.4889ZM18.2699 19.4889C18.7886 19.4889 19.3072 19.4901 19.8257 19.4877C19.8957 19.4883 19.9655 19.4786 20.0327 19.4588C20.2658 19.386 20.401 19.1606 20.3636 18.9192C20.3439 18.801 20.2824 18.6937 20.1903 18.6168C20.0981 18.5399 19.9814 18.4985 19.8613 18.5001C18.8041 18.4978 17.7469 18.4985 16.6895 18.5021C16.6029 18.5045 16.5181 18.5265 16.4413 18.5665C16.3442 18.6176 16.2671 18.6997 16.2223 18.7997C16.1774 18.8997 16.1675 19.0118 16.1942 19.1181C16.2526 19.3421 16.4453 19.4881 16.6935 19.4891C17.219 19.4909 17.7449 19.4889 18.2699 19.4889ZM38.3372 19.0149C38.3456 18.5196 37.9464 18.0987 37.4601 18.09C36.9599 18.0812 36.5532 18.4771 36.5429 18.9824C36.5331 19.4757 36.9203 19.8873 37.4026 19.8962C37.9206 19.9062 38.3286 19.5216 38.3372 19.0155V19.0149ZM43.7039 19.0056C43.7039 18.4995 43.3125 18.0924 42.8217 18.0906C42.5796 18.0912 42.3476 18.1875 42.1765 18.3584C42.0053 18.5294 41.9091 18.761 41.9088 19.0026C41.9102 19.2408 42.0062 19.4686 42.1757 19.6363C42.3452 19.8039 42.5745 19.8976 42.8131 19.8968C43.3115 19.8974 43.7039 19.5055 43.7039 19.0056ZM39.2288 19.0006C39.2283 19.1187 39.2514 19.2356 39.2965 19.3447C39.3416 19.4538 39.408 19.5529 39.4917 19.6362C39.5755 19.7196 39.675 19.7855 39.7844 19.8302C39.8939 19.875 40.0112 19.8976 40.1294 19.8968C40.3666 19.8962 40.5938 19.8018 40.7611 19.6341C40.9284 19.4665 41.0222 19.2394 41.0219 19.0028C41.0219 18.5045 40.6188 18.0914 40.1319 18.0906C39.6365 18.0896 39.2298 18.4995 39.2288 19.0006Z" fill="#00BAA4"/>
<path d="M23.4739 36.6118L22.6131 37.1953C22.641 37.2767 22.6784 37.3527 22.6935 37.4327C22.7453 37.7273 22.6511 37.9647 22.3989 38.1345C20.7829 39.2263 19.167 40.3184 17.5512 41.4107C16.1791 42.3381 14.8099 43.2694 13.4338 44.1904C12.935 44.5243 12.3965 44.5568 11.8602 44.2864C10.7891 43.7468 10.7017 42.2497 11.6994 41.5727C12.9977 40.6916 14.2981 39.8137 15.6006 38.9391C17.256 37.8219 18.9146 36.7092 20.564 35.5841C20.8884 35.3635 21.3037 35.3234 21.614 35.7088L22.0416 35.419L22.4787 35.1227C22.4565 35.0773 22.4373 35.0358 22.4164 34.9949C21.8579 33.8951 21.541 32.729 21.4882 31.4978C21.3783 28.9425 22.1991 26.7263 23.9823 24.8877C25.2787 23.5512 26.8611 22.7188 28.7046 22.4234C31.2133 22.0224 33.4896 22.5957 35.4886 24.1634C37.128 25.4492 38.1711 27.1312 38.6033 29.1663C39.0788 31.4019 38.7578 33.5339 37.5835 35.5017C36.2633 37.7136 34.3231 39.0995 31.787 39.6068C28.7326 40.2178 25.5954 39.1075 23.5833 36.7371C23.5489 36.6972 23.5133 36.6573 23.4739 36.6118ZM37.1428 31.036C37.1008 30.6349 37.0825 30.2291 37.0128 29.8328C36.7303 28.2052 35.9846 26.8171 34.727 25.7421C32.7503 24.0527 30.4814 23.5664 28.0011 24.3489C24.8117 25.3549 22.8124 28.5519 23.2234 31.8778C23.3975 33.2883 23.9456 34.5361 24.8677 35.6212C26.5758 37.6352 29.3346 38.5041 31.8874 37.8318C34.9728 37.0186 37.1195 34.2315 37.1428 31.036Z" fill="#00BAA4"/>
<path d="M25.0457 38.6707H22.4609C22.8337 38.4346 23.115 38.1361 23.1578 37.6616C23.3692 37.6616 23.5756 37.6616 23.782 37.6628C23.805 37.6657 23.8263 37.6764 23.8423 37.6931C24.2063 38.0379 24.5974 38.3531 25.0118 38.6356C25.024 38.6464 25.0354 38.6581 25.0457 38.6707Z" fill="#00BAA4"/>
<path d="M34.116 27.8183C34.1132 28.7864 33.337 29.5639 32.3756 29.5608C31.4197 29.5578 30.633 28.7668 30.635 27.8113C30.637 26.8351 31.4259 26.0481 32.3977 26.0523C33.352 26.0565 34.1186 26.8443 34.116 27.8183Z" fill="#00BAA4"/>
<path d="M35.9851 30.8508C35.9835 31.4514 35.5029 31.9337 34.9083 31.929C34.3199 31.9254 33.8459 31.441 33.8477 30.8448C33.8495 30.2432 34.3277 29.7584 34.9193 29.7598C35.5109 29.7612 35.9874 30.249 35.9851 30.8508Z" fill="#00BAA4"/>
</g>
<defs>
<clipPath id="clip0_1873_2420">
<rect width="34.7234" height="27.2" fill="white" transform="translate(11 17.2681)"/>
</clipPath>
</defs>
</svg>
