<svg width="57" height="57" viewBox="0 0 57 57" fill="none" xmlns="http://www.w3.org/2000/svg">
<rect x="1" y="1" width="55" height="55" rx="3" fill="white" stroke="#00BAA4" stroke-width="2"/>
<g clip-path="url(#clip0_1873_2397)">
<rect width="30" height="31" transform="translate(13 13)" fill="white"/>
<path d="M21.7719 33.4844C20.2249 33.0369 19.3225 31.7162 19.4442 30.1842C19.4532 29.9667 19.3776 29.7538 19.2323 29.5875C18.1868 28.5128 18.2364 27.0375 19.3608 26.063C19.4802 25.9473 19.5478 25.7909 19.5489 25.6274C19.496 24.6301 19.8554 23.8276 20.6553 23.1885C20.7213 23.1229 20.7731 23.0454 20.8079 22.9603C20.8427 22.8753 20.8598 22.7845 20.8581 22.6931C20.8119 21.1077 21.6547 20.0799 23.2602 19.7587C23.4836 19.7061 23.6821 19.5822 23.8235 19.407C24.4624 18.5697 25.4516 18.2158 26.4487 18.5065C26.9318 18.6387 27.3558 18.9221 27.6543 19.3123C27.9528 19.7024 28.1089 20.1773 28.0981 20.6624C28.0997 26.1174 28.1004 31.5761 28.1004 37.0384C28.1004 37.4162 27.9967 37.6056 27.5607 37.5969C26.5287 37.5752 25.4955 37.5784 24.4635 37.5969C24.0815 37.6024 23.9002 37.4782 23.9272 37.0961C23.93 36.9329 23.9232 36.7696 23.9069 36.6072C23.8833 36.0628 23.7807 35.6686 23.1182 35.4378C22.2608 35.1384 21.8868 34.3696 21.7719 33.4844ZM24.441 35.7655C24.4497 36.0862 24.4779 36.4062 24.5255 36.7237C24.5491 36.8326 24.7181 37.0024 24.8252 37.0057C25.6837 37.0286 26.5433 37.0188 27.4424 37.0188V32.805C27.0925 33.0859 26.7277 33.349 26.3495 33.5933C26.2211 33.6695 25.9924 33.5857 25.8087 33.5748C25.882 33.418 25.909 33.1926 26.0341 33.1142C26.656 32.7288 27.1495 32.2508 27.3669 31.5561C27.5179 31.0749 27.5506 30.6012 27.1979 30.1602C26.816 29.6812 26.852 29.6049 27.4897 29.4079C27.4897 28.9114 27.4897 28.404 27.4897 27.8977C27.483 27.0734 27.3095 26.8861 26.46 26.6651C26.3225 26.6303 26.2256 26.4473 26.1107 26.3385C26.2594 26.2611 26.4138 26.1131 26.5614 26.1207C26.8644 26.1403 27.1619 26.2415 27.4695 26.3112C27.4695 25.4848 27.4841 24.6878 27.4638 23.8919C27.4514 23.3845 27.0537 22.9805 27.4289 22.3392C27.7309 21.8231 27.5089 20.9912 27.4345 20.3096C27.3624 19.6563 26.7529 19.1359 26.0825 19.027C25.3457 18.9072 24.7474 19.174 24.3925 19.7826C24.6933 19.9258 24.9845 20.0869 25.2646 20.265C25.5023 20.4327 25.9406 20.6188 25.6724 20.9684C25.3874 21.3429 25.1609 20.9106 24.9502 20.7604C24.5026 20.4352 23.9426 20.2889 23.3864 20.3517C22.8302 20.4146 22.3203 20.6817 21.9623 21.0979C21.2299 21.9559 21.3099 23.1754 22.1617 23.881C22.3025 23.7721 22.4389 23.6501 22.591 23.5543C23.116 23.207 23.6906 23.0818 24.2967 23.3006C24.4263 23.3485 24.4962 23.5489 24.5931 23.6795C24.4522 23.7372 24.3136 23.8026 24.1683 23.8494C24.1221 23.8646 24.0556 23.8341 24.0038 23.8254C23.4551 23.7307 22.9898 23.881 22.6586 24.3121C22.3273 24.7433 22.298 25.1995 22.5312 25.6971C22.6034 25.8507 22.5312 26.0684 22.5222 26.2568C22.342 26.1479 22.102 26.0837 21.9949 25.9301C21.8676 25.7461 21.7696 25.4739 21.8057 25.267C21.9431 24.5615 21.542 24.1172 21.0914 23.6784C20.3196 24.2229 19.9906 25.0656 20.2587 25.9149C20.3444 26.186 20.5528 26.419 20.6621 26.6847C20.7207 26.8284 20.688 27.0113 20.697 27.1681C20.5235 27.1202 20.3196 27.1115 20.1821 27.0146C20.0266 26.9057 19.9309 26.7163 19.8092 26.5617C19.1884 27.0331 18.9698 27.6679 19.1771 28.3463C19.4025 29.0834 19.9489 29.5113 20.6339 29.5744C20.9494 29.1193 21.1973 28.6881 21.5353 28.3223C21.6412 28.2047 22.0547 28.159 22.1482 28.2515C22.4096 28.5085 22.1054 28.6304 21.9093 28.7709C21.3775 29.1498 21.3291 29.6931 21.7234 30.1864C21.8361 30.3355 21.8485 30.5653 21.9071 30.758C21.6817 30.6872 21.3651 30.6807 21.2558 30.5315C20.9471 30.1091 20.5449 30.1798 20.1292 30.1689C19.9647 31.469 20.6474 32.5284 21.8417 32.8464C21.8947 32.7179 21.9206 32.5622 22.0107 32.4598C22.1353 32.3467 22.2729 32.2477 22.4208 32.1648C22.4715 32.3346 22.6079 32.5339 22.5583 32.67C22.2766 33.4322 22.3983 34.1127 23.009 34.6625C23.6196 35.2124 24.3046 35.2429 25.0539 34.9511C25.1722 34.9043 25.3592 35.0218 25.5147 35.06C25.4336 35.2015 25.3874 35.4029 25.2634 35.4726C25.0167 35.6087 24.735 35.6664 24.441 35.7655Z" fill="#00BAA4"/>
<path d="M27.5898 37.7597H27.5594C26.6377 37.7401 25.6271 37.7401 24.4678 37.7597C24.301 37.7597 24.0599 37.7466 23.9044 37.5866C23.8448 37.5175 23.8013 37.4368 23.7768 37.35C23.7523 37.2632 23.7474 37.1723 23.7625 37.0836C23.7668 36.9822 23.7634 36.8807 23.7523 36.7798C23.7523 36.7242 23.7433 36.6709 23.7411 36.6132C23.7174 36.0688 23.6104 35.7813 23.0651 35.5919C22.2662 35.3142 21.7818 34.6478 21.6229 33.6102C20.0692 33.1159 19.1532 31.7777 19.2806 30.1728C19.2858 30.0013 19.2266 29.8338 19.1138 29.7013C18.8548 29.4462 18.6515 29.1433 18.516 28.8107C18.3805 28.4782 18.3156 28.1227 18.3251 27.7654C18.3459 27.4168 18.4392 27.0759 18.5993 26.763C18.7593 26.45 18.983 26.1714 19.2569 25.9438C19.34 25.8606 19.3875 25.7501 19.3898 25.6345C19.3346 24.574 19.7154 23.7324 20.5571 23.0616C20.6493 22.9611 20.6999 22.8312 20.699 22.6969C20.6517 21.0375 21.5519 19.9367 23.2363 19.597C23.4152 19.5512 23.5736 19.4498 23.687 19.3084C24.3731 18.4102 25.4491 18.0421 26.4969 18.3481C27.0161 18.4884 27.472 18.792 27.7926 19.2109C28.1132 19.6297 28.2801 20.1399 28.2669 20.6608C28.2669 23.4307 28.2669 26.2011 28.2669 28.9718C28.2669 31.6612 28.2669 34.3506 28.2669 37.04C28.2669 37.2229 28.2466 37.4538 28.0878 37.604C27.9496 37.7175 27.7706 37.7734 27.5898 37.7597ZM26.0395 37.4178C26.578 37.4178 27.0839 37.4233 27.5661 37.4331C27.6677 37.4462 27.7707 37.423 27.8557 37.3677C27.9086 37.3177 27.9334 37.2131 27.9334 37.0411C27.9334 34.3553 27.9334 31.6659 27.9334 28.9729C27.9334 26.2029 27.9334 23.4326 27.9334 20.6619C27.9447 20.2115 27.8004 19.7704 27.5234 19.4082C27.2463 19.046 26.8522 18.7833 26.4034 18.6617C25.484 18.3938 24.5714 18.7085 23.963 19.5033C23.7992 19.7105 23.5664 19.8566 23.3039 19.9171C21.7761 20.2252 20.992 21.1834 21.0359 22.6882C21.0382 22.8044 21.0159 22.9199 20.9703 23.0276C20.9248 23.1352 20.857 23.2328 20.7711 23.3142C20.0185 23.9153 19.676 24.6687 19.7267 25.6182C19.7278 25.7241 19.7067 25.8292 19.6646 25.9271C19.6226 26.0249 19.5606 26.1136 19.4822 26.1877C19.2418 26.3862 19.0452 26.6294 18.9041 26.9029C18.763 27.1764 18.6803 27.4745 18.6609 27.7795C18.6547 28.0938 18.7138 28.406 18.8348 28.6978C18.9557 28.9896 19.136 29.2549 19.3651 29.4781C19.5426 29.6779 19.6345 29.9358 19.6219 30.1989C19.5093 31.6797 20.3712 32.909 21.8291 33.3304L21.935 33.3609L21.9485 33.4697C22.0736 34.4344 22.4882 35.0464 23.1879 35.2881C23.9765 35.5635 24.0678 36.0895 24.0892 36.6045C24.0892 36.6556 24.096 36.7068 24.0993 36.7591C24.1118 36.8759 24.1152 36.9935 24.1095 37.1108C24.0914 37.1992 24.1096 37.2909 24.1602 37.3666C24.2517 37.4273 24.3635 37.4526 24.4734 37.4374C25.0198 37.4222 25.5437 37.4178 26.0395 37.4178ZM26.1983 37.1837C25.733 37.1837 25.2801 37.1837 24.8215 37.1685C24.6266 37.163 24.3968 36.9311 24.3607 36.7547C24.32 36.528 24.2967 36.2988 24.2909 36.0688C24.2909 35.974 24.2807 35.8771 24.274 35.777L24.2638 35.6528L24.3866 35.6115C24.4768 35.581 24.5658 35.5538 24.6525 35.5276C24.8326 35.4818 25.0068 35.4168 25.1719 35.3338C25.2227 35.2826 25.2611 35.2213 25.2846 35.1542C25.2303 35.1284 25.1721 35.1111 25.1122 35.103C24.2514 35.4383 23.5033 35.3305 22.8938 34.7763C22.2493 34.1971 22.0826 33.4697 22.3969 32.6085C22.3908 32.5381 22.3701 32.4696 22.3361 32.407C22.2634 32.4492 22.1967 32.5005 22.1378 32.5595C22.0945 32.6225 22.0632 32.6926 22.0454 32.7664C22.0308 32.8121 22.015 32.8578 21.9981 32.9014L21.9418 33.0375L21.7953 32.9983C20.5244 32.6596 19.7864 31.5131 19.9599 30.1434L19.978 29.9964H20.1323C20.1887 29.9964 20.245 29.9964 20.3002 29.9964C20.6619 29.9964 21.0708 29.9964 21.3863 30.4319C21.4201 30.4776 21.5609 30.5092 21.6759 30.5321C21.6637 30.4427 21.6318 30.357 21.5824 30.2806C21.4749 30.1574 21.3943 30.0146 21.3453 29.8606C21.2964 29.7066 21.28 29.5447 21.2973 29.3845C21.3242 29.2322 21.3828 29.0868 21.4696 28.9571C21.5564 28.8274 21.6695 28.7161 21.8021 28.6299L21.9012 28.5635C21.9575 28.5265 22.0634 28.4546 22.0736 28.4252C22.0636 28.4024 22.0486 28.3819 22.0296 28.3653C21.9017 28.3442 21.77 28.3637 21.6545 28.4208C21.4267 28.6894 21.2189 28.9732 21.0325 29.2701C20.948 29.3964 20.8624 29.526 20.7711 29.6567L20.7159 29.7372L20.6145 29.7285C19.8371 29.6556 19.2535 29.1656 19.0135 28.3838C18.7826 27.6325 19.027 26.9368 19.7019 26.4239L19.8371 26.3216L19.9408 26.4533C19.9791 26.5023 20.0163 26.5557 20.0535 26.6079C20.1134 26.7075 20.1895 26.7972 20.2788 26.8736C20.3548 26.9161 20.4386 26.9438 20.5255 26.9553C20.5311 26.8818 20.5227 26.808 20.5007 26.7375C20.4512 26.6243 20.3924 26.5151 20.325 26.4109C20.2312 26.2669 20.1556 26.1127 20.0996 25.9514C19.8146 25.052 20.1571 24.1254 20.9931 23.5353L21.1058 23.4525L21.2083 23.5516C21.695 24.0242 22.1198 24.513 21.9699 25.2861C21.958 25.4803 22.0157 25.6726 22.1333 25.8305C22.2011 25.9024 22.2852 25.9583 22.3789 25.9938C22.3981 25.9158 22.3981 25.8345 22.3789 25.7565C22.1141 25.1946 22.1637 24.6677 22.5231 24.206C22.8825 23.7443 23.4064 23.5527 24.034 23.6561L24.1039 23.6725L24.1331 23.6812C24.2053 23.6561 24.2762 23.6267 24.3495 23.5962C24.3168 23.5396 24.2661 23.4558 24.2368 23.446C23.7253 23.2598 23.2025 23.3371 22.6854 23.6801C22.5873 23.748 22.4929 23.8206 22.4026 23.8979L22.2685 24.0067L22.1558 24.0917L22.0499 24.0035C21.1328 23.2413 21.0359 21.9216 21.8246 20.9929C22.2108 20.5454 22.7598 20.2581 23.3586 20.19C23.9574 20.1219 24.5604 20.2783 25.0435 20.627C25.1062 20.6744 25.1643 20.7273 25.217 20.7849C25.2812 20.848 25.386 20.9504 25.4345 20.9526C25.4468 20.9526 25.4806 20.933 25.5291 20.8698C25.5619 20.8356 25.5793 20.7902 25.5775 20.7435C25.5618 20.6553 25.4007 20.553 25.2824 20.4768C25.2384 20.4484 25.1956 20.4212 25.1573 20.394C24.9728 20.271 24.7788 20.1618 24.5771 20.0674C24.4858 20.0205 24.3934 19.9748 24.3033 19.9258L24.1546 19.8452L24.2391 19.7026C24.6311 19.0319 25.2947 18.7346 26.106 18.8664C26.8946 18.9938 27.5256 19.5937 27.6022 20.2927C27.618 20.431 27.6382 20.5748 27.6608 20.7283C27.7509 21.3358 27.8433 21.9652 27.5763 22.4214C27.3599 22.7927 27.4377 23.0595 27.5301 23.3698C27.5871 23.5383 27.6215 23.7132 27.6326 23.8902C27.6472 24.451 27.6439 24.9987 27.6405 25.579C27.6405 25.8214 27.6405 26.0664 27.6405 26.314V26.5197L27.4253 26.4708C27.3329 26.4501 27.2428 26.4261 27.1526 26.4032C26.9547 26.3446 26.7513 26.3049 26.5454 26.2846C26.4786 26.3019 26.4164 26.3327 26.3628 26.3749C26.409 26.4316 26.4665 26.498 26.5025 26.5067C27.4343 26.7484 27.6506 27.0086 27.6574 27.8949C27.6574 28.2466 27.6574 28.5983 27.6574 28.9457V29.5271L27.5391 29.563C27.4433 29.5924 27.1526 29.6828 27.1166 29.7383C27.1166 29.759 27.1538 29.8385 27.3307 30.065C27.7644 30.6094 27.6687 31.1745 27.5278 31.6078C27.3216 32.2611 26.8755 32.7892 26.124 33.2552C26.0804 33.3119 26.0497 33.3769 26.0338 33.4458C26.1073 33.4648 26.184 33.4688 26.2592 33.4578C26.5243 33.2939 26.7787 33.1142 27.0208 32.9199C27.1245 32.8404 27.2304 32.7587 27.3385 32.6792L27.6101 32.4778V37.1859H26.1983V37.1837ZM24.621 35.8771L24.6311 36.0492C24.6364 36.2634 24.6575 36.477 24.6942 36.6883C24.7258 36.7528 24.7779 36.8059 24.843 36.8397C25.4863 36.856 26.1319 36.8549 26.8158 36.8527H27.2766V33.1398L27.236 33.1714C26.9829 33.3738 26.7173 33.561 26.4406 33.7321C26.2975 33.8171 26.1206 33.7866 25.964 33.7605C25.9104 33.7498 25.8562 33.7422 25.8018 33.7376L25.5584 33.7234L25.6575 33.5057C25.6781 33.4584 25.6958 33.4101 25.7105 33.3609C25.7567 33.2193 25.8096 33.0592 25.9471 32.9743C26.6231 32.5519 27.0287 32.0858 27.2101 31.5066C27.3791 30.9622 27.3374 30.5931 27.0693 30.2577C26.8732 30.0127 26.7403 29.8222 26.8011 29.636C26.8563 29.4639 27.0433 29.3779 27.325 29.2865V28.9435C27.325 28.5961 27.325 28.2455 27.325 27.896C27.3194 27.1556 27.2123 27.025 26.4237 26.8203C26.2846 26.7704 26.166 26.6783 26.0857 26.5579C26.0567 26.5198 26.0255 26.4835 25.9922 26.449L25.8322 26.2933L26.0327 26.1844C26.071 26.1648 26.1127 26.1365 26.1578 26.1071C26.2728 26.0107 26.4181 25.9547 26.5701 25.9481C26.7993 25.9699 27.0257 26.0133 27.2462 26.0777L27.3002 26.0918C27.3002 25.9155 27.3002 25.7401 27.3002 25.5659C27.3002 24.9878 27.307 24.4423 27.2923 23.887C27.2812 23.7387 27.251 23.5924 27.2022 23.4514C27.1042 23.1193 26.9938 22.7437 27.28 22.2537C27.4906 21.8933 27.4061 21.3206 27.3239 20.7675C27.3025 20.6194 27.28 20.4659 27.2642 20.3211C27.2033 19.7766 26.6817 19.2856 26.0485 19.1832C25.4378 19.0841 24.9489 19.2682 24.6221 19.7168L24.7348 19.7723C24.952 19.8752 25.1607 19.9943 25.359 20.1283C25.3928 20.1523 25.4311 20.1762 25.4716 20.2013C25.6497 20.3156 25.8716 20.4572 25.9122 20.6825C25.9217 20.7495 25.9166 20.8176 25.8972 20.8825C25.8778 20.9474 25.8445 21.0076 25.7995 21.0593C25.7626 21.1184 25.7122 21.1687 25.6524 21.2064C25.5925 21.2441 25.5245 21.2683 25.4536 21.277C25.2486 21.2901 25.0953 21.1344 24.9714 21.0092C24.9308 20.966 24.8872 20.9256 24.8407 20.8883C24.4273 20.5894 23.9111 20.4549 23.3982 20.5126C22.8854 20.5704 22.4149 20.8159 22.0837 21.1987C21.4404 21.9521 21.4821 23.0072 22.1592 23.6616L22.175 23.6474C22.2744 23.5639 22.3782 23.4854 22.4859 23.4122C23.1 23.0072 23.7253 22.9157 24.3472 23.1411C24.4814 23.2086 24.5867 23.3196 24.6447 23.4547C24.6717 23.5004 24.6965 23.5429 24.7213 23.5766L24.8452 23.7432L24.6503 23.8227L24.5376 23.8717C24.4351 23.9153 24.3281 23.961 24.2165 23.9969C24.1468 24.0161 24.0725 24.013 24.0047 23.9882L23.9675 23.9784C23.4684 23.8924 23.0662 24.035 22.7879 24.4031C22.5096 24.7711 22.4679 25.1652 22.6752 25.6226C22.7285 25.773 22.7367 25.9349 22.6989 26.0897C22.6899 26.1449 22.6839 26.2005 22.6809 26.2563L22.6696 26.5339L22.424 26.3902C22.3706 26.3596 22.3157 26.3316 22.2595 26.3063C22.0973 26.2457 21.9543 26.1451 21.8449 26.0145C21.7119 25.8229 21.5767 25.5039 21.6297 25.2295C21.7423 24.66 21.4629 24.2877 21.0663 23.8891C20.4241 24.4009 20.1796 25.1282 20.4117 25.8599C20.4617 25.9966 20.5283 26.1271 20.61 26.2486C20.6867 26.3663 20.7534 26.4897 20.8095 26.6177C20.8519 26.7441 20.868 26.8773 20.8568 27.0097C20.8568 27.0576 20.8568 27.1055 20.8568 27.1524L20.8692 27.381L20.6438 27.3179C20.5954 27.3048 20.5424 27.295 20.4906 27.2841C20.3432 27.2654 20.2017 27.216 20.076 27.1393C19.9533 27.0433 19.8495 26.9267 19.7695 26.7952C19.5513 26.9765 19.3931 27.2159 19.3147 27.4835C19.2364 27.7511 19.2413 28.0351 19.329 28.3C19.5183 28.913 19.9566 29.3093 20.5402 29.3997C20.6093 29.2995 20.6758 29.2004 20.7396 29.1024C20.9346 28.7915 21.153 28.4949 21.3931 28.2151C21.5057 28.0931 21.7311 28.0441 21.9035 28.0387C21.9656 28.031 22.0287 28.0356 22.089 28.0523C22.1492 28.069 22.2053 28.0973 22.2539 28.1356C22.3029 28.1768 22.3417 28.2281 22.3674 28.2858C22.3932 28.3435 22.4052 28.406 22.4026 28.4688C22.3834 28.6484 22.2155 28.7573 22.0815 28.8444C22.051 28.8629 22.0218 28.8825 21.9947 28.901C21.8989 28.9622 21.8167 29.0413 21.753 29.1337C21.6894 29.2261 21.6455 29.3299 21.624 29.4389C21.6131 29.5564 21.6268 29.6748 21.6644 29.7871C21.7019 29.8993 21.7626 30.0031 21.8426 30.0922C21.9344 30.2274 21.9926 30.3813 22.0127 30.5419C22.0263 30.6039 22.0387 30.6638 22.0544 30.7172L22.1446 31.0155L21.8392 30.9186C21.7701 30.898 21.6997 30.8812 21.6285 30.8685C21.4257 30.8282 21.2162 30.7858 21.1024 30.6312C20.8883 30.3372 20.6258 30.3383 20.2934 30.3383H20.272C20.1875 31.4358 20.7441 32.3188 21.7254 32.6488C21.7537 32.5435 21.804 32.445 21.873 32.3591C21.9651 32.2625 22.0723 32.1806 22.1908 32.1163C22.2324 32.0902 22.2741 32.0651 22.3136 32.0368L22.5085 31.9029L22.5738 32.1207C22.5873 32.1653 22.6099 32.2154 22.6324 32.2698C22.6944 32.4114 22.7631 32.5725 22.7079 32.725C22.4386 33.4599 22.5727 34.0544 23.1158 34.5433C23.6295 35.005 24.2424 35.0877 24.9827 34.7992C25.128 34.7437 25.2812 34.8046 25.4176 34.858C25.4613 34.8764 25.506 34.8924 25.5516 34.9059L25.7589 34.9614L25.6542 35.1422C25.6339 35.1792 25.6136 35.2238 25.5933 35.2707C25.5494 35.4097 25.4606 35.5314 25.3398 35.618C25.1536 35.7139 24.9567 35.7888 24.7528 35.8412L24.621 35.8771Z" fill="#00BAA4"/>
<path d="M29.0026 28.2367C29.0026 25.3535 29.0161 22.4659 28.9902 19.5849C28.9902 19.0405 29.1829 18.9185 29.7079 18.9316C33.7178 19.0405 37.2229 22.3244 37.4719 26.2028C37.6037 28.2639 37.0392 30.1029 35.7379 31.7438C34.5604 33.2203 33.8907 35.0158 33.8225 36.8787C33.7887 37.5865 33.7899 37.5875 33.0339 37.5875C31.8892 37.5875 30.7433 37.5712 29.5986 37.5952C29.1288 37.605 28.988 37.4427 28.9914 36.9952C29.0116 34.0772 29.0026 31.1569 29.0026 28.2367ZM29.6786 19.5402V36.9963L29.8409 37.0235C29.9017 36.8471 29.9761 36.6751 30.02 36.4965C30.2656 35.4916 30.4977 34.4833 30.7478 33.4805C30.8267 33.1647 30.9056 32.9154 30.616 32.6094C30.242 32.2066 30.4358 31.5206 30.9056 31.2332C31.0248 31.1612 31.1578 31.113 31.2966 31.0916C31.4354 31.0701 31.5773 31.0757 31.7138 31.1081C31.8503 31.1404 31.9787 31.1989 32.0915 31.2801C32.2043 31.3612 32.299 31.4634 32.3703 31.5805C32.6497 32.0661 32.4987 32.7488 31.9692 32.9274C31.496 33.0885 31.381 33.3716 31.2932 33.7799C31.0678 34.8393 30.7974 35.8901 30.5372 36.9832H33.1623C33.1826 36.8744 33.2018 36.8047 33.2074 36.7328C33.3641 34.7152 34.126 32.7855 35.3999 31.1798C37.9169 27.946 37.2026 23.3969 33.8372 20.972C32.6412 20.0841 31.1861 19.5831 29.6786 19.5402ZM31.4813 32.6758C31.6695 32.3688 31.852 32.2033 31.8419 32.0487C31.8328 31.9169 31.576 31.6785 31.4791 31.7003C31.3112 31.7362 31.0847 31.9256 31.0633 32.0748C31.0419 32.224 31.2672 32.3797 31.4813 32.6758Z" fill="#00BAA4"/>
<path d="M29.5655 37.761C29.3063 37.761 29.1351 37.7087 29.0134 37.5933C28.8467 37.4354 28.8275 37.1915 28.8286 36.9966C28.841 34.7743 28.8399 32.515 28.8376 30.3297C28.8376 29.6321 28.8376 28.9346 28.8376 28.237C28.8376 27.4835 28.8376 26.7297 28.8376 25.9755C28.8376 23.8817 28.8376 21.716 28.823 19.5873C28.823 19.2749 28.8805 19.0767 29.019 18.946C29.1937 18.7794 29.4562 18.7642 29.7142 18.7707C33.8311 18.8796 37.3869 22.2147 37.6426 26.1943C37.7789 28.3241 37.201 30.1729 35.8749 31.8465C34.7206 33.2972 34.0636 35.0599 33.9956 36.8888C33.9573 37.6891 33.8829 37.7533 33.039 37.7533H32.0318C31.2363 37.7533 30.415 37.7468 29.6072 37.7642L29.5655 37.761ZM29.1745 28.237C29.1745 28.9353 29.1745 29.6329 29.1745 30.3297C29.1745 32.515 29.1745 34.7754 29.1655 36.9988C29.1655 37.1904 29.1903 37.3047 29.2489 37.3603C29.3075 37.4158 29.4201 37.4376 29.6004 37.4343C30.4116 37.4169 31.2363 37.4202 32.0329 37.4234H33.039C33.3173 37.4234 33.5381 37.4234 33.5877 37.3788C33.6373 37.3341 33.6452 37.1316 33.6576 36.8736C33.729 34.9781 34.4099 33.1513 35.6056 31.6472C36.881 30.039 37.4364 28.262 37.3046 26.215C37.0601 22.4041 33.6508 19.2063 29.7052 19.0974C29.4596 19.0898 29.3221 19.1159 29.2545 19.179C29.1869 19.2422 29.1576 19.3739 29.1599 19.5841C29.179 21.7149 29.1768 23.8817 29.1745 25.9755C29.1745 26.7304 29.1745 27.4842 29.1745 28.237ZM29.9519 37.2078L29.5013 37.1349V19.3718L29.6748 19.3772C31.2165 19.4202 32.7052 19.9307 33.9302 20.8362C34.7543 21.4233 35.4493 22.163 35.9747 23.0123C36.5 23.8615 36.8453 24.8033 36.9903 25.7828C37.1352 26.746 37.0803 27.7274 36.8288 28.67C36.5774 29.6125 36.1344 30.4972 35.5256 31.2726C34.2682 32.8521 33.5177 34.7532 33.3669 36.7407C33.3609 36.7975 33.3515 36.8538 33.3387 36.9095C33.3387 36.9378 33.3263 36.9705 33.3196 37.0075L33.2948 37.1414H30.3192L30.3677 36.9422C30.442 36.6264 30.5186 36.315 30.593 36.0058C30.7823 35.2283 30.9614 34.4934 31.1237 33.7421C31.2093 33.3392 31.3355 32.9625 31.9123 32.7687C31.9981 32.738 32.0758 32.6892 32.1397 32.626C32.2036 32.5627 32.2522 32.4865 32.2819 32.4028C32.3271 32.2811 32.345 32.1515 32.3345 32.0225C32.324 31.8936 32.2853 31.7683 32.2211 31.6548C32.1631 31.5575 32.0853 31.4725 31.9923 31.4051C31.8993 31.3378 31.7932 31.2893 31.6802 31.2628C31.5644 31.2342 31.4438 31.2286 31.3256 31.2463C31.2075 31.2641 31.0943 31.3049 30.993 31.3663C30.8849 31.4359 30.7933 31.5267 30.7242 31.6329C30.6551 31.7392 30.61 31.8583 30.5919 31.9826C30.5757 32.0732 30.5804 32.1662 30.6057 32.2548C30.631 32.3435 30.6763 32.4256 30.7383 32.4954C31.0764 32.8558 30.9952 33.1726 30.9186 33.4753L30.9085 33.5145C30.7654 34.0873 30.6257 34.672 30.4916 35.2381C30.3887 35.6679 30.285 36.0983 30.1806 36.5295C30.1466 36.6584 30.1048 36.7853 30.0556 36.9095C30.0353 36.9628 30.0161 37.0184 29.997 37.0706L29.9519 37.2078ZM30.7474 36.8159H33.021C33.0287 36.7828 33.0343 36.7494 33.0379 36.7157C33.193 34.6665 33.9667 32.7063 35.2631 31.0777C35.8452 30.3365 36.2689 29.4908 36.5093 28.5897C36.7497 27.6887 36.8022 26.7504 36.6635 25.8296C36.5245 24.8928 36.1938 23.9921 35.6909 23.18C35.188 22.368 34.5228 21.6608 33.7342 21.0997C32.6118 20.2694 31.2563 19.7856 29.8449 19.7115V36.4892C29.8449 36.4794 29.8505 36.4696 29.8528 36.4587C29.9572 36.0297 30.0605 35.5996 30.1626 35.1685C30.2978 34.6023 30.4375 34.0165 30.5806 33.4416L30.5908 33.4024C30.6629 33.1193 30.7034 32.9473 30.4882 32.7142C30.3939 32.6092 30.3248 32.4854 30.2859 32.3515C30.2469 32.2177 30.2391 32.0772 30.2629 31.9401C30.2869 31.7687 30.3487 31.6043 30.4442 31.4579C30.5396 31.3116 30.6664 31.1868 30.8161 31.0919C30.9565 31.0065 31.1134 30.9496 31.2772 30.9247C31.4411 30.8998 31.6085 30.9074 31.7693 30.9471C31.9268 30.9845 32.0747 31.0526 32.2041 31.1471C32.3335 31.2417 32.4416 31.3607 32.5219 31.4969C32.611 31.6516 32.6643 31.8231 32.6784 31.9996C32.6924 32.176 32.6666 32.3534 32.603 32.5193C32.5562 32.6477 32.4805 32.7644 32.3813 32.861C32.2821 32.9576 32.162 33.0317 32.0295 33.0779C31.651 33.2053 31.5484 33.4046 31.4662 33.8096C31.3028 34.5653 31.1282 35.3024 30.9344 36.082C30.8675 36.3244 30.8041 36.5691 30.744 36.8159H30.7474ZM31.5011 32.9745L31.3501 32.7709C31.2792 32.674 31.2059 32.5901 31.1417 32.515C30.9964 32.3462 30.8803 32.2134 30.904 32.0522C30.9366 31.8247 31.2239 31.5906 31.4493 31.5405C31.4995 31.5335 31.5506 31.5375 31.599 31.5522C31.6474 31.5669 31.6917 31.5919 31.7287 31.6254C31.8233 31.694 32.0059 31.8682 32.0183 32.0392C32.0306 32.2101 31.9326 32.331 31.8109 32.4987C31.7569 32.5749 31.6983 32.6598 31.6341 32.7589L31.5011 32.9745ZM31.5011 31.8671C31.3882 31.9096 31.2961 31.9916 31.2431 32.0969C31.2899 32.1718 31.3447 32.2419 31.4065 32.3059L31.4808 32.393C31.5 32.3647 31.5191 32.3375 31.5383 32.3125C31.6039 32.2385 31.6537 32.1526 31.6848 32.0599C31.6402 31.98 31.574 31.9133 31.4932 31.8671H31.5011Z" fill="#00BAA4"/>
<path d="M29.0627 38.7859C30.3742 38.7859 31.6868 38.774 32.9994 38.8001C33.1774 38.8001 33.352 38.9994 33.5289 39.1061C33.3565 39.2008 33.1841 39.3783 33.0106 39.3794C30.3855 39.3968 27.7607 39.3968 25.1363 39.3794C24.9583 39.3794 24.7814 39.1768 24.6045 39.068C24.778 38.9743 24.9504 38.8034 25.125 38.8001C26.4376 38.7772 27.7502 38.7881 29.0627 38.7881V38.7859Z" fill="#00BAA4"/>
<path d="M29.2144 39.5554C27.824 39.5554 26.4608 39.55 25.1358 39.5391C24.9555 39.5391 24.7978 39.4182 24.6682 39.3137C24.6194 39.2746 24.5682 39.2382 24.515 39.2048L24.2705 39.0556L24.5184 38.9217C24.57 38.8927 24.6201 38.8611 24.6682 38.827C24.7951 38.7204 24.9521 38.653 25.1189 38.6332C26.1194 38.6157 27.1368 38.6179 28.1204 38.6201H30.0053C30.9878 38.6201 32.004 38.6201 33.0034 38.6353C33.1825 38.6353 33.3335 38.7551 33.4676 38.8531C33.5159 38.892 33.5663 38.9283 33.6185 38.962L33.8585 39.1068L33.6129 39.2429C33.5667 39.269 33.5171 39.3039 33.4642 39.3409C33.3386 39.4499 33.1812 39.5187 33.0135 39.538C31.7302 39.5511 30.4672 39.5554 29.2144 39.5554ZM24.8969 39.0731C24.9644 39.1378 25.0471 39.1856 25.138 39.2124C27.6505 39.2331 30.2982 39.2342 33.0101 39.2124C33.0939 39.1923 33.1712 39.1526 33.2355 39.097C33.1676 39.0327 33.0844 38.9856 32.9932 38.9598C31.9984 38.9402 30.9844 38.9424 30.0042 38.9446H28.1237C27.1424 38.9446 26.1261 38.9446 25.129 38.9576C25.0431 38.9774 24.9635 39.017 24.8969 39.0731Z" fill="#00BAA4"/>
<path d="M29.0976 40.6302C30.1668 40.6302 31.2383 40.6172 32.3053 40.6433C32.4799 40.6433 32.65 40.8208 32.8224 40.9166C32.6579 41.0255 32.4945 41.2171 32.3289 41.2193C30.1507 41.2389 27.9743 41.2389 25.7998 41.2193C25.6353 41.2193 25.472 41.0189 25.3086 40.9122C25.4832 40.8186 25.6556 40.6476 25.8325 40.6444C26.9209 40.6182 28.0092 40.6302 29.0976 40.6302Z" fill="#00BAA4"/>
<path d="M29.1208 41.3965C28.0087 41.3965 26.899 41.3965 25.7993 41.3812C25.6247 41.3812 25.4816 41.2604 25.3543 41.1548C25.3097 41.1162 25.2631 41.0798 25.2146 41.0459L24.9893 40.8967L25.2304 40.7682C25.2777 40.7421 25.3273 40.7083 25.3802 40.6735C25.5074 40.5675 25.6642 40.5 25.8309 40.4797C26.6477 40.4601 27.4792 40.4633 28.2825 40.4655H29.0994H29.8971C30.6857 40.4655 31.506 40.4601 32.3115 40.4797C32.479 40.5002 32.6362 40.5693 32.7622 40.6778C32.81 40.7123 32.8596 40.7443 32.9109 40.7737L33.1475 40.9054L32.9222 41.0513C32.8733 41.0852 32.8263 41.1216 32.7813 41.1602C32.6552 41.2636 32.5109 41.378 32.3374 41.378C31.2648 41.3921 30.1922 41.3965 29.1208 41.3965ZM25.5954 40.9239C25.6533 40.9822 25.7242 41.0269 25.8027 41.0546C27.9614 41.0753 30.1573 41.0753 32.3284 41.0546C32.4076 41.0274 32.4793 40.9831 32.538 40.925C32.4702 40.8673 32.389 40.8263 32.3014 40.8052C31.5014 40.7856 30.6857 40.7878 29.8971 40.7911H28.2803C27.4792 40.7911 26.6511 40.7856 25.8376 40.8052C25.7481 40.8251 25.6649 40.8659 25.5954 40.9239Z" fill="#00BAA4"/>
<path d="M29.0296 43.8366C27.9154 43.8475 27.0016 43.4664 26.4507 42.4985C26.3628 42.346 26.4507 42.0978 26.4642 41.8931C26.631 41.9954 26.8754 42.0586 26.9543 42.2045C27.7126 43.6101 30.34 43.6047 31.096 42.2273C31.1703 42.0923 31.434 42.052 31.6052 41.9682C31.6052 42.1631 31.6751 42.4037 31.5849 42.5464C31.0137 43.474 30.1293 43.854 29.0296 43.8366Z" fill="#00BAA4"/>
<path d="M29.1036 43.9998H29.0293C27.7685 44.0107 26.8525 43.5338 26.3027 42.5767C26.2137 42.4243 26.2441 42.2359 26.2712 42.0704C26.2828 42.0096 26.2907 41.9481 26.2948 41.8864L26.3072 41.6055L26.554 41.7546C26.599 41.7819 26.6542 41.808 26.7117 41.8352C26.8582 41.9038 27.0238 41.9811 27.1038 42.1292C27.4237 42.7226 28.1595 43.0928 29.0191 43.0961H29.0304C29.89 43.0961 30.6213 42.7346 30.9457 42.151C31.028 42.0029 31.2071 41.9408 31.3649 41.8853C31.4208 41.8672 31.4758 41.8461 31.5294 41.8221L31.7772 41.7013V41.9702C31.7779 42.0288 31.7817 42.0873 31.7885 42.1455C31.8054 42.3045 31.8234 42.4841 31.7333 42.6301C31.1699 43.5436 30.2855 43.9998 29.1036 43.9998ZM29.0304 43.6732C30.1368 43.6917 30.9243 43.2953 31.437 42.4624C31.4628 42.3779 31.4671 42.2886 31.4494 42.2021C31.3694 42.2305 31.2601 42.2707 31.242 42.3045C30.8624 42.997 30.0106 43.4205 29.0202 43.4227C28.0299 43.4249 27.1804 42.9817 26.8018 42.2795C26.7464 42.2199 26.6768 42.1743 26.599 42.1466C26.5757 42.236 26.5757 42.3295 26.599 42.4188C27.0914 43.2746 27.8868 43.683 29.0293 43.6732H29.0304Z" fill="#00BAA4"/>
<path d="M28.3018 14.8466C28.3018 15.2462 28.3266 15.648 28.2872 16.0443C28.2737 16.1804 28.0957 16.3002 27.992 16.4276C27.8872 16.3024 27.6957 16.1804 27.6912 16.053C27.6641 15.2375 27.6641 14.4198 27.6912 13.6042C27.6912 13.4834 27.8985 13.3691 28.01 13.2515C28.1058 13.3669 28.2725 13.4758 28.2827 13.5977C28.3165 14.0115 28.2962 14.4307 28.2962 14.8477L28.3018 14.8466Z" fill="#00BAA4"/>
<path d="M27.9945 16.689L27.8604 16.5301C27.8284 16.4915 27.7938 16.4551 27.7567 16.4212C27.6441 16.3199 27.5314 16.2034 27.5213 16.0521C27.4942 15.23 27.4942 14.4025 27.5213 13.5924C27.5269 13.4378 27.6587 13.3289 27.7748 13.232C27.8164 13.1972 27.8559 13.1645 27.8874 13.1351L28.0204 12.9946L28.1432 13.1427C28.168 13.1721 28.2006 13.2037 28.2344 13.2363C28.3473 13.3213 28.4249 13.4426 28.453 13.5782C28.4778 13.8853 28.4733 14.1967 28.4699 14.4983V14.7095V14.8413C28.4699 14.9502 28.4699 15.059 28.4699 15.1766C28.4815 15.4693 28.4751 15.7623 28.4508 16.0542C28.4202 16.1962 28.3408 16.3241 28.2254 16.4168C28.19 16.451 28.1569 16.4874 28.1263 16.5257L27.9945 16.689ZM28.0035 13.4802C27.9509 13.5183 27.9043 13.5634 27.8649 13.6142C27.8379 14.4068 27.8379 15.2267 27.8649 16.0412C27.9011 16.0939 27.9447 16.1415 27.9945 16.1827C28.0463 16.1305 28.1206 16.0564 28.124 16.0216C28.146 15.7423 28.1517 15.462 28.1409 15.1821C28.1409 15.1233 28.1409 15.0645 28.1409 15.0046V14.8413C28.1409 14.7259 28.1409 14.6094 28.1409 14.4939C28.1409 14.2 28.1488 13.8962 28.1252 13.6044C28.0915 13.5572 28.0504 13.5153 28.0035 13.4802Z" fill="#00BAA4"/>
<path d="M41.0571 27.7561C40.6459 27.7561 40.2324 27.7801 39.8257 27.7441C39.6781 27.7311 39.544 27.5754 39.4043 27.485C39.5451 27.3761 39.6837 27.1758 39.8291 27.1703C40.6493 27.1398 41.4717 27.1398 42.292 27.1703C42.4362 27.1703 42.5736 27.3761 42.7133 27.4872C42.5725 27.5765 42.4362 27.7311 42.2875 27.7441C41.8807 27.7768 41.4672 27.7561 41.0571 27.7561Z" fill="#00BAA4"/>
<path d="M41.7562 27.9235C41.6368 27.9235 41.5196 27.9235 41.4035 27.9235C41.2875 27.9235 41.1726 27.9235 41.0576 27.9235C40.945 27.9235 40.8323 27.9235 40.7129 27.9235C40.4123 27.9336 40.1114 27.9278 39.8115 27.9061C39.6659 27.8794 39.5322 27.8103 39.4285 27.708C39.3879 27.6753 39.3485 27.6448 39.3158 27.6209L39.1243 27.4967L39.3034 27.3574C39.3451 27.3234 39.3846 27.2871 39.4217 27.2485C39.5344 27.1396 39.6606 27.0133 39.8273 27.0068C40.6475 26.9763 41.4813 26.9763 42.306 27.0068C42.4727 27.0133 42.5989 27.1396 42.7105 27.2506C42.746 27.2888 42.7836 27.3252 42.8231 27.3595L43.0023 27.5011L42.8096 27.623C42.7724 27.647 42.733 27.6775 42.697 27.7101C42.5919 27.8115 42.4576 27.8798 42.3116 27.9061C42.1212 27.9192 41.9376 27.9235 41.7562 27.9235ZM41.0576 27.5893C41.1703 27.5893 41.292 27.5893 41.4092 27.5893C41.6973 27.5989 41.9858 27.5938 42.2733 27.574C42.3419 27.5515 42.4043 27.5143 42.4558 27.4651C42.4063 27.4162 42.3206 27.3312 42.2846 27.3258C41.4723 27.2953 40.6475 27.2953 39.8352 27.3258C39.8003 27.3258 39.7135 27.4162 39.6628 27.4651C39.7132 27.5142 39.7744 27.5514 39.842 27.574C40.1284 27.5942 40.4157 27.5996 40.7027 27.5904C40.8154 27.5904 40.9382 27.5904 41.0576 27.5904V27.5893Z" fill="#00BAA4"/>
<path d="M20.0583 19.6322C19.8329 19.6485 19.5896 19.7411 19.5051 19.6627C18.8527 19.0714 18.2229 18.4552 17.61 17.8258C17.5334 17.7474 17.5706 17.534 17.61 17.4012C17.6224 17.362 17.886 17.3271 17.948 17.3816C18.624 18.0044 19.2786 18.6435 19.9355 19.2838C19.9805 19.3284 19.9884 19.4144 20.0583 19.6322Z" fill="#00BAA4"/>
<path d="M19.6148 19.8555C19.574 19.8581 19.5331 19.853 19.4944 19.8403C19.4557 19.8276 19.42 19.8075 19.3894 19.7814C18.7765 19.2261 18.1501 18.6229 17.4853 17.9369C17.3344 17.7823 17.411 17.4775 17.4515 17.3533C17.4669 17.3166 17.4918 17.2844 17.5237 17.2596C17.5557 17.2348 17.5937 17.2184 17.6341 17.2118C17.6464 17.2118 17.9304 17.1399 18.0644 17.263C18.7258 17.876 19.3567 18.489 20.0542 19.1695C20.1091 19.2316 20.1457 19.3068 20.1601 19.3873C20.1736 19.4352 20.1905 19.4961 20.2175 19.5778L20.2851 19.7749L20.0699 19.7912C20.0007 19.798 19.9319 19.8081 19.8637 19.8217C19.7819 19.8398 19.6986 19.8511 19.6148 19.8555ZM19.6057 19.5288C19.6721 19.5251 19.738 19.5164 19.8029 19.5027L19.8401 19.4961C19.8401 19.4885 19.8401 19.482 19.8345 19.4744C19.8254 19.4428 19.8153 19.4069 19.8097 19.3916C19.1224 18.7187 18.5005 18.1188 17.8481 17.521C17.8159 17.5179 17.7834 17.5179 17.7512 17.521C17.7328 17.5858 17.7278 17.6536 17.7366 17.7203C18.3946 18.3921 19.0052 18.9844 19.6057 19.5299V19.5288Z" fill="#00BAA4"/>
<path d="M38.5075 17.6298C38.4343 17.7413 38.3533 17.8479 38.2652 17.9488C37.7255 18.478 37.1938 19.0158 36.627 19.5178C36.5008 19.6267 36.2485 19.6071 36.0547 19.6463C36.0964 19.4742 36.0817 19.2499 36.191 19.1367C36.7397 18.5662 37.3121 18.0174 37.8968 17.4795C37.9948 17.3891 38.1886 17.3706 38.3385 17.3706C38.3937 17.3684 38.4455 17.5285 38.5075 17.6298Z" fill="#00BAA4"/>
<path d="M35.8291 19.8576L35.8911 19.6072C35.9025 19.5554 35.9107 19.5031 35.9159 19.4504C35.9195 19.2963 35.9727 19.1471 36.068 19.0236C36.5626 18.5086 37.1237 17.9641 37.7805 17.3598C37.9247 17.227 38.1658 17.203 38.3438 17.2041C38.4858 17.2041 38.55 17.3359 38.6064 17.4502C38.6211 17.4826 38.6376 17.5143 38.6559 17.5449L38.7123 17.6364L38.6469 17.7235C38.6188 17.7616 38.594 17.7975 38.5692 17.8324C38.5166 17.9135 38.4562 17.9897 38.3889 18.06L38.0982 18.3463C37.6622 18.7764 37.2127 19.2174 36.7462 19.6344C36.6178 19.7433 36.433 19.7651 36.2708 19.7814C36.2114 19.7852 36.1523 19.7925 36.0939 19.8032L35.8291 19.8576ZM38.2695 17.5319C38.1795 17.5281 38.0904 17.5505 38.0137 17.5961C37.3614 18.1961 36.8059 18.7361 36.3158 19.2468C36.2789 19.3104 36.2584 19.3818 36.2561 19.4547C36.3459 19.4553 36.4344 19.4348 36.5141 19.3949C36.9749 18.9865 37.4222 18.5456 37.8549 18.1188L38.1455 17.8313C38.198 17.7757 38.2452 17.7155 38.2864 17.6516L38.3112 17.6157C38.3066 17.6076 38.3024 17.5992 38.2988 17.5907C38.2898 17.5732 38.2785 17.5515 38.2695 17.5319Z" fill="#00BAA4"/>
<path d="M14.8687 27.7555C14.4583 27.7709 14.0473 27.7662 13.6373 27.7413C13.5043 27.7283 13.3894 27.5442 13.2666 27.4386C13.3894 27.3493 13.51 27.186 13.635 27.1828C14.4936 27.161 15.3532 27.1599 16.2117 27.1828C16.3379 27.1828 16.4585 27.3831 16.5813 27.4909C16.4585 27.5769 16.3413 27.7304 16.2129 27.7391C15.7667 27.774 15.3172 27.7555 14.8687 27.7555Z" fill="#00BAA4"/>
<path d="M14.1769 27.9278C13.9911 27.929 13.8053 27.921 13.6203 27.9038C13.4637 27.8886 13.3522 27.7688 13.2542 27.6632C13.223 27.6274 13.1895 27.5936 13.1539 27.5619L13.0029 27.4291L13.1686 27.3093C13.199 27.2864 13.2328 27.2549 13.2688 27.2222C13.36 27.1129 13.4902 27.0406 13.6339 27.0197C14.5577 26.9968 15.4039 26.9979 16.2252 27.0197C16.3852 27.0251 16.5001 27.1525 16.6004 27.2636C16.6323 27.3018 16.6665 27.3382 16.7029 27.3725L16.8562 27.5075L16.6894 27.6251C16.6545 27.6513 16.621 27.6793 16.5891 27.7089C16.4971 27.8116 16.3714 27.8807 16.2331 27.9049C15.9041 27.9278 15.5718 27.9245 15.2506 27.9212C15.1267 27.9212 14.9994 27.9212 14.8766 27.9212C14.7639 27.9212 14.6513 27.9212 14.5386 27.9212C14.4259 27.9212 14.2952 27.9278 14.1769 27.9278ZM13.5099 27.4487C13.5507 27.5 13.6002 27.5441 13.6564 27.5793C13.9446 27.6015 14.2339 27.6073 14.5228 27.5968C14.6355 27.5968 14.7538 27.5968 14.8687 27.5968C14.9938 27.5968 15.1211 27.5968 15.2473 27.5968C15.5616 27.5968 15.8861 27.6033 16.2004 27.5815C16.2522 27.5574 16.2988 27.5242 16.3379 27.4835C16.2975 27.4331 16.2501 27.3884 16.1971 27.3507C15.396 27.3256 14.5566 27.3245 13.6395 27.3507C13.5915 27.3769 13.5478 27.4099 13.5099 27.4487Z" fill="#00BAA4"/>
</g>
<defs>
<clipPath id="clip0_1873_2397">
<rect width="30" height="31" fill="white" transform="translate(13 13)"/>
</clipPath>
</defs>
</svg>
