<svg width="57" height="57" viewBox="0 0 57 57" fill="none" xmlns="http://www.w3.org/2000/svg">
<rect x="1" y="1" width="55" height="55" rx="3" fill="white" stroke="#00BAA4" stroke-width="2"/>
<g clip-path="url(#clip0_1873_2327)">
<rect width="31" height="31" transform="translate(13 14)" fill="white"/>
<path d="M37.0289 39.1288H40.6666V27.146H37.0289V27.3407C37.0289 29.4106 37.0289 31.4806 37.0289 33.5505C37.0289 33.9575 36.7579 34.2143 36.3895 34.1624C36.2714 34.1473 36.1618 34.0935 36.0783 34.0094C35.9948 33.9252 35.9422 33.8158 35.929 33.6985C35.9216 33.6225 35.9186 33.5462 35.9202 33.4698C35.9202 31.242 35.9223 29.0142 35.9163 26.7856C35.9114 26.5345 35.9905 26.2888 36.1412 26.0868C36.7682 25.2156 37.3809 24.3354 38.0008 23.459C38.4563 22.8145 39.276 22.8201 39.7293 23.4699C40.3556 24.3694 40.9828 25.2686 41.6109 26.1675C41.7245 26.3247 41.7841 26.5138 41.7809 26.7071C41.7783 30.3502 41.7777 33.9934 41.7791 37.6367V37.8788H42.8839V37.6399C42.8839 32.1668 42.8839 26.6937 42.8839 21.2207C42.8817 21.1274 42.8907 21.0342 42.9108 20.9431C42.9431 20.8223 43.0165 20.7162 43.1186 20.6428C43.2208 20.5694 43.3454 20.5332 43.4714 20.5404C43.5974 20.5476 43.717 20.5977 43.81 20.6822C43.903 20.7667 43.9636 20.8805 43.9816 21.0042C43.9902 21.0797 43.9936 21.1556 43.9919 21.2315C43.9919 25.7169 43.9919 30.2021 43.9919 34.6872C43.9919 35.7106 43.9735 36.7343 43.9976 37.757C44.016 38.5401 43.4478 39.0351 42.7426 38.9958C42.4312 38.9786 42.1178 38.993 41.7784 38.993V39.2063C41.7784 40.2474 41.7784 41.2882 41.7784 42.3288C41.7784 43.8462 40.6216 44.9952 39.0932 44.9983C38.6511 44.9983 38.2077 45.0183 37.7769 44.8836C36.6633 44.5366 35.9269 43.5437 35.9209 42.3576C35.9152 41.3107 35.9209 40.2641 35.9209 39.2172V38.9927H35.6567C29.5522 38.9927 23.448 38.9927 17.3441 38.9927C15.442 38.9927 13.7998 37.8198 13.2161 36.06C13.071 35.6203 12.9981 35.1603 13 34.6977C13.0015 31.1774 13.0023 27.6574 13.0025 24.1375C13.0025 21.9855 12.999 19.8334 13.0025 17.6821C13.0029 17.5131 13.0283 17.345 13.078 17.1832C13.6422 15.3589 15.1221 14.166 17.0494 14.0183C17.6037 13.9762 18.1687 14.0134 18.7248 14.0622C19.2734 14.1099 19.6705 14.5853 19.6811 15.1308C19.6843 15.3062 19.6811 15.4789 19.6811 15.6764H38.7149C40.0845 15.6764 41.4541 15.6764 42.8237 15.6764C43.395 15.6764 43.8219 15.9921 43.9572 16.5015C43.9791 16.5865 43.9903 16.6738 43.9905 16.7615C43.994 17.4513 43.9965 18.1414 43.9933 18.8315C43.9933 19.1739 43.7935 19.4023 43.4942 19.4258C43.1418 19.4528 42.8875 19.2086 42.8853 18.8293C42.8822 18.2154 42.8853 17.6014 42.8853 16.9875V16.7857H19.6808V17.6004C19.6808 20.659 19.6808 23.7175 19.6808 26.7758C19.6808 27.1396 19.4654 27.3789 19.1399 27.3824C18.9997 27.3847 18.864 27.334 18.7601 27.2408C18.6563 27.1476 18.5921 27.0187 18.5806 26.8804C18.5749 26.8165 18.5781 26.7516 18.5781 26.6874V15.1266C18.2437 15.1084 17.9172 15.0719 17.5909 15.0768C16.7724 15.0884 15.9995 15.2684 15.3297 15.7644C14.7321 16.2068 14.3443 16.7945 14.1321 17.4986C14.1151 17.5666 14.1081 17.6367 14.1112 17.7067C14.1112 21.3788 14.1112 25.0509 14.1112 28.723C14.1112 29.6938 14.1112 30.6645 14.1112 31.6349V31.8805C14.7066 31.2536 15.3863 30.8329 16.1865 30.6203C16.9867 30.4077 17.7804 30.4098 18.5806 30.721C18.5806 30.1516 18.5781 29.6081 18.5806 29.065C18.5824 28.7616 18.7967 28.5265 19.0804 28.5037C19.4087 28.4788 19.6769 28.7023 19.6794 29.0299C19.6864 29.9421 19.6843 30.8543 19.6794 31.7665C19.6794 31.9931 19.5522 32.1545 19.3475 32.244C19.1257 32.3408 18.9175 32.2973 18.7421 32.1335C18.3659 31.7826 17.9204 31.5721 17.4057 31.5697C15.9648 31.5644 14.7265 32.3201 14.2812 33.7399C13.8176 35.2187 14.4296 36.7985 15.7406 37.4995C16.243 37.7652 16.805 37.9013 17.3745 37.8953C23.479 37.8976 29.5832 37.8976 35.6871 37.8953C35.9202 37.8953 35.9202 37.8953 35.9205 37.6721C35.9205 37.0641 35.9149 36.4558 35.9234 35.8478C35.9297 35.4106 36.3552 35.1521 36.7288 35.3496C36.9446 35.4633 37.0274 35.6524 37.0274 35.8871C37.0274 36.8928 37.0274 37.8985 37.0274 38.9043L37.0289 39.1288ZM37.0289 42.0162C37.0289 42.1709 37.0253 42.3102 37.0289 42.4495C37.0487 43.1564 37.5956 43.7781 38.304 43.8746C38.5711 43.9097 38.8449 43.9058 39.1159 43.9041C40.1218 43.8974 40.8398 43.0175 40.6506 42.0162H37.0289ZM38.8612 24.1544L37.5425 26.0233H40.1636C39.7254 25.3942 39.3029 24.7873 38.8626 24.1544H38.8612ZM40.6666 40.2459H37.0441V40.8928H40.6666V40.2459Z" fill="#00BAA4"/>
<path d="M27.9657 32.2421C27.6292 32.2421 27.2927 32.2453 26.9562 32.2421C26.5666 32.2372 26.3587 32.0348 26.3367 31.651C26.3148 31.2671 26.2918 30.8791 26.2567 30.4963C26.2517 30.4399 26.1901 30.3672 26.1352 30.3395C25.9832 30.2634 25.8164 30.2153 25.6648 30.1392C25.5724 30.0929 25.5189 30.1139 25.4491 30.1743C25.1636 30.4276 24.8728 30.676 24.5838 30.9258C24.2767 31.191 23.9944 31.1857 23.7092 30.9044C23.2369 30.4382 22.7654 29.9704 22.2945 29.501C22.0179 29.226 22.0111 28.9449 22.2708 28.6502C22.523 28.364 22.7723 28.0749 23.0298 27.7931C23.1053 27.7107 23.1138 27.6454 23.0631 27.5476C22.9926 27.4125 22.9341 27.2716 22.8882 27.1265C22.8527 27.0178 22.7929 26.982 22.6863 26.9757C22.2913 26.9522 21.8971 26.9224 21.5028 26.8953C21.1575 26.8718 20.9517 26.6589 20.9506 26.3154C20.9487 25.6427 20.9487 24.9703 20.9506 24.2981C20.9506 23.909 21.1391 23.7045 21.5347 23.6729C21.9229 23.6425 22.3116 23.6171 22.7008 23.5968C22.7964 23.5919 22.8513 23.567 22.8779 23.4694C22.9019 23.3668 22.9419 23.2686 22.9965 23.1782C23.1382 22.9646 23.0826 22.8102 22.9076 22.6393C22.677 22.4141 22.4744 22.1608 22.263 21.917C22.0104 21.6258 22.0207 21.3486 22.291 21.0799C22.7663 20.6076 23.2421 20.1361 23.7184 19.6653C23.9894 19.398 24.2749 19.3885 24.5636 19.6362C24.8579 19.8888 25.1523 20.1414 25.4431 20.3982C25.5182 20.4645 25.5805 20.4831 25.6772 20.4333C25.8295 20.3575 25.996 20.308 26.1476 20.2322C26.1754 20.2168 26.1995 20.1957 26.2184 20.1703C26.2373 20.1449 26.2505 20.1158 26.257 20.0849C26.2925 19.7007 26.3148 19.3155 26.3367 18.9303C26.3587 18.5451 26.5737 18.3318 26.9694 18.3311C27.6364 18.3311 28.3035 18.3311 28.9706 18.3311C29.3645 18.3311 29.5774 18.5416 29.5979 18.9345C29.6178 19.3137 29.6419 19.693 29.678 20.0709C29.6837 20.1323 29.7527 20.1982 29.8087 20.241C29.8647 20.2838 29.9468 20.2828 30.0028 20.3221C30.2879 20.5231 30.504 20.4336 30.7254 20.201C30.9273 19.9905 31.1646 19.8112 31.3885 19.6207C31.6552 19.3937 31.9463 19.3987 32.1946 19.6418C32.6813 20.1189 33.1654 20.5984 33.6469 21.0802C33.9172 21.3514 33.9214 21.6314 33.6696 21.9191C33.4177 22.2068 33.1698 22.4962 32.9101 22.7758C32.8276 22.8649 32.8134 22.9351 32.8779 23.0347C32.9177 23.093 32.9461 23.1583 32.9615 23.227C33.0189 23.5298 33.2017 23.6308 33.5038 23.6206C33.7914 23.6112 34.0808 23.648 34.3695 23.6676C34.7974 23.6971 34.9833 23.8946 34.9837 24.3177C34.9837 24.9726 34.9837 25.6275 34.9837 26.2824C34.9837 26.6663 34.7942 26.8666 34.4109 26.8946C34.0167 26.9234 33.6225 26.9536 33.2279 26.9774C33.1312 26.9834 33.0862 27.0202 33.0536 27.1129C33.0009 27.2678 32.9371 27.4188 32.8627 27.5647C32.8173 27.6542 32.8347 27.71 32.8981 27.7798C33.1616 28.0717 33.4206 28.3682 33.6791 28.6643C33.9218 28.9414 33.9126 29.2284 33.6508 29.4891C33.1717 29.9679 32.6915 30.4447 32.2102 30.9195C31.9474 31.178 31.6591 31.1864 31.3764 30.9451C31.0768 30.6893 30.7785 30.4321 30.4845 30.1704C30.4137 30.1066 30.3581 30.0918 30.2685 30.1395C30.1455 30.2085 30.0147 30.2625 29.8788 30.3006C29.7077 30.3437 29.6705 30.4434 29.6663 30.6034C29.6532 30.977 29.6234 31.3503 29.5933 31.7232C29.5685 32.0278 29.3606 32.2284 29.0486 32.2372C28.6887 32.2467 28.3285 32.2393 27.9682 32.2393L27.9657 32.2421ZM23.4057 21.5486C23.6616 21.8391 23.9176 22.1297 24.1736 22.4204C24.3833 22.66 24.3943 22.8618 24.2504 23.1438C24.1151 23.4091 23.9671 23.675 23.886 23.9581C23.6919 24.6409 23.5509 24.65 22.8942 24.684C22.6183 24.6984 22.3427 24.7219 22.0621 24.7416V25.8383L23.214 25.9144C23.5215 25.9348 23.6926 26.0695 23.7907 26.3217C23.9425 26.7126 24.1047 27.0994 24.2774 27.4823C24.3836 27.7156 24.3719 27.9254 24.2065 28.1191C23.9809 28.3818 23.7492 28.6394 23.5208 28.9C23.48 28.9467 23.4425 28.9958 23.4234 29.019L24.2062 29.7964C24.4895 29.5508 24.7864 29.2916 25.086 29.0369C25.3099 28.8467 25.5235 28.8432 25.7888 28.9642C26.1515 29.1298 26.5223 29.28 26.8967 29.4165C27.161 29.5129 27.3122 29.6757 27.3303 29.9501C27.3438 30.1543 27.3558 30.3585 27.3707 30.5623C27.3848 30.7528 27.4022 30.943 27.4181 31.1335H28.5222C28.5495 30.7475 28.5792 30.3693 28.6023 29.9915C28.6221 29.6719 28.7613 29.5172 29.0684 29.4105C29.4133 29.2934 29.751 29.1563 30.0797 29C30.4371 28.8274 30.6156 28.8316 30.9131 29.0898C31.1915 29.3312 31.4713 29.5712 31.7416 29.8041L32.5272 29.0277C32.2719 28.7369 32.0076 28.4394 31.748 28.138C31.5617 27.9226 31.5521 27.7226 31.6651 27.4735C31.8358 27.0967 31.9945 26.714 32.144 26.3284C32.2276 26.1123 32.3632 25.9716 32.5938 25.9316C32.6863 25.9155 32.7816 25.9155 32.8772 25.9084L33.8718 25.8383V24.7423C33.4783 24.7145 33.0961 24.6914 32.7146 24.6591C32.3569 24.6289 32.234 24.5047 32.1171 24.1655C32.0074 23.8394 31.8759 23.521 31.7235 23.2123C31.5358 22.8386 31.5397 22.6779 31.821 22.3594C32.0604 22.0882 32.2988 21.8163 32.5453 21.5356C32.2974 21.2932 32.0646 21.0623 31.8302 20.8339C31.81 20.8143 31.7862 20.7988 31.7551 20.7739C31.7012 20.8178 31.6513 20.8571 31.6035 20.8985C31.3449 21.1206 31.0888 21.3455 30.8281 21.5651C30.6322 21.7307 30.4204 21.7405 30.1856 21.6352C29.7988 21.4659 29.4082 21.3053 29.0138 21.1535C28.7698 21.0595 28.6242 20.8929 28.6076 20.6354C28.5828 20.2796 28.5548 19.9242 28.5367 19.5681C28.5314 19.4604 28.4935 19.4278 28.3883 19.4278C28.111 19.433 27.8333 19.4341 27.5559 19.4278C27.4376 19.425 27.4068 19.472 27.4015 19.5814C27.3838 19.9323 27.3558 20.2831 27.3306 20.6311C27.3126 20.8974 27.1663 21.062 26.9123 21.1574C26.5227 21.3048 26.1373 21.464 25.7565 21.6321C25.5217 21.7373 25.3102 21.7289 25.114 21.5619C24.8441 21.3346 24.5792 21.102 24.3117 20.8718C24.2692 20.8367 24.2242 20.8017 24.1867 20.7722L23.4057 21.5486Z" fill="#00BAA4"/>
<path d="M31.5123 25.2489C31.5147 27.2592 29.9913 28.7808 27.973 28.7843C25.9547 28.7878 24.4228 27.2669 24.4207 25.2605C24.4207 23.3551 26.0231 21.7749 27.9627 21.7725C29.9024 21.77 31.5101 23.3446 31.5123 25.2489ZM30.3834 25.284C30.3834 23.9631 29.2981 22.8744 27.9748 22.8671C26.6515 22.8597 25.5516 23.9547 25.5502 25.2858C25.5502 26.6214 26.6313 27.7044 27.9673 27.7065C29.3034 27.7086 30.3838 26.6221 30.3834 25.2844V25.284Z" fill="#00BAA4"/>
</g>
<defs>
<clipPath id="clip0_1873_2327">
<rect width="31" height="31" fill="white" transform="translate(13 14)"/>
</clipPath>
</defs>
</svg>
