<?xml version="1.0" encoding="utf-8"?>
<!-- Generator: Adobe Illustrator 26.0.1, SVG Export Plug-In . SVG Version: 6.00 Build 0)  -->
<svg version="1.1" id="Layer_1" xmlns="http://www.w3.org/2000/svg" xmlns:xlink="http://www.w3.org/1999/xlink" x="0px" y="0px"
	 viewBox="0 0 48 48" style="enable-background:new 0 0 48 48;" xml:space="preserve">
<style type="text/css">
	.st0{clip-path:url(#SVGID_00000182488073699643884010000012229335512658609547_);}
	.st1{fill:#00BAA4;}
</style>
<g>
	<defs>
		<rect id="SVGID_1_" x="-90" width="48" height="48"/>
	</defs>
	<clipPath id="SVGID_00000011014072938301523740000003316819478004601008_">
		<use xlink:href="#SVGID_1_"  style="overflow:visible;"/>
	</clipPath>
	<g style="clip-path:url(#SVGID_00000011014072938301523740000003316819478004601008_);">
		<path class="st1" d="M-46,28.5c5.3,4.5,5.2,11.9,0.9,16.3c-4.4,4.3-11.9,4.5-16.4-0.8c-0.1,0.8-0.3,1.6-0.4,2.4
			c-0.2,1.7-0.3,1.6-1.9,1.6c-1.7,0-3.4,0-5.1,0c-0.7,0-0.9-0.2-1-0.8c-0.2-1.1-0.3-2.2-0.5-3.2c0-0.3-0.1-0.4-0.4-0.5
			c-1.9-0.5-3.7-1.2-5.4-2.3c-0.2-0.1-0.4-0.1-0.6,0c-0.9,0.7-1.8,1.3-2.7,1.9c-0.6,0.4-0.9,0.4-1.3-0.1c-1.4-1.4-2.8-2.8-4.1-4.1
			c-0.5-0.5-0.5-0.8-0.1-1.3c0.6-0.9,1.3-1.8,1.9-2.7c0.2-0.2,0.2-0.4,0-0.6c-1-1.7-1.8-3.5-2.2-5.4c-0.1-0.3-0.2-0.4-0.5-0.4
			c-1.2-0.2-2.3-0.4-3.3-0.5c-0.6-0.1-0.9-0.4-0.9-1c0-2,0-4,0-6c0-0.6,0.2-0.9,0.9-1c1.1-0.2,2.2-0.3,3.2-0.5
			c0.3,0,0.4-0.1,0.5-0.4c0.5-1.9,1.2-3.7,2.2-5.4c0.1-0.2,0.2-0.4,0-0.6c-0.7-0.9-1.3-1.8-2-2.7c-0.4-0.5-0.3-0.8,0.1-1.3
			c1.4-1.4,2.8-2.8,4.2-4.2c0.5-0.5,0.7-0.5,1.3-0.1c0.9,0.6,1.8,1.3,2.7,1.9c0.2,0.2,0.4,0.2,0.7,0c1.7-1,3.4-1.7,5.3-2.2
			c0.3-0.1,0.4-0.2,0.5-0.5c0.2-1.1,0.3-2.2,0.5-3.2c0-0.6,0.3-0.8,0.9-0.8c2,0,4,0,6,0c0.6,0,0.8,0.2,0.9,0.8
			c0.2,1.1,0.4,2.2,0.5,3.2c0,0.3,0.1,0.5,0.5,0.6c1.9,0.5,3.7,1.2,5.3,2.2c0.2,0.1,0.4,0.1,0.6,0c0.9-0.7,1.8-1.3,2.7-2
			c0.5-0.4,0.8-0.4,1.3,0.1c1.4,1.4,2.8,2.8,4.2,4.2c0.4,0.4,0.5,0.7,0.1,1.2c-0.7,0.9-1.3,1.8-2,2.7c-0.2,0.2-0.2,0.4,0,0.6
			c1,1.7,1.8,3.5,2.2,5.4c0.1,0.3,0.2,0.4,0.5,0.4c1.1,0.2,2.2,0.3,3.2,0.5c0.6,0.1,0.8,0.4,0.8,1c0,2,0,4,0,6c0,0.6-0.2,0.9-0.9,1
			C-43.9,28.1-44.9,28.3-46,28.5z M-80.1,41.6c1-0.7,1.9-1.4,2.9-2.1c0.4-0.3,0.7-0.3,1.1,0c1.9,1.2,4,2.1,6.2,2.6
			c0.5,0.1,0.7,0.4,0.8,0.9c0.2,1,0.4,2.1,0.5,3.1c0,0.4,0.2,0.4,0.5,0.4c1.2,0,2.4,0,3.5,0c1,0,1,0,1.1-1c0.2-1.1,0.4-2.1,0.6-3.2
			c0-0.1,0-0.2,0-0.2c-0.4-0.9-0.7-1.8-1.1-2.7c-4.6,0.6-8.7-0.6-12.3-3.6c-3.6-3.1-5.4-7-5.4-11.7c0-8.2,6.2-14.8,14-15.5
			c4.2-0.4,8.1,0.7,11.3,3.5c4.4,3.7,6.2,8.5,5.6,14.2c0.6,0.2,1.3,0.4,1.9,0.7c0.5,0.2,1,0.5,1.6,0.1h0.1c1-0.2,2.1-0.3,3.1-0.5
			c0.3,0,0.3-0.1,0.3-0.4c0-1.4,0-2.9,0-4.3c0-0.2-0.1-0.3-0.3-0.4c-1-0.1-2-0.3-3.1-0.5c-0.7-0.1-0.9-0.3-1.1-1
			c-0.5-2.1-1.3-4.1-2.4-5.9c-0.5-0.7-0.4-0.8,0.1-1.6c0.6-0.9,1.3-1.8,1.9-2.6c-1.2-1.2-2.3-2.3-3.5-3.5c-0.9,0.7-1.9,1.3-2.8,2
			c-0.4,0.3-0.8,0.3-1.2,0c-1.9-1.2-3.9-2.1-6.2-2.6c-0.3,0-0.5-0.3-0.6-0.8c-0.2-1.1-0.3-2.1-0.5-3.1c0-0.2-0.1-0.3-0.4-0.3
			c-1.4,0-2.9,0-4.3,0c-0.2,0-0.3,0-0.4,0.3c-0.1,1-0.3,2.1-0.5,3.1c-0.1,0.7-0.3,0.9-0.9,1c-2.2,0.5-4.2,1.3-6.1,2.5
			c-0.6,0.4-0.8,0.3-1.3-0.1c-0.9-0.7-1.9-1.4-2.8-2c-1.1,1.2-2.2,2.4-3.4,3.5c0.7,0.9,1.3,1.9,2,2.8c0.3,0.4,0.3,0.8,0,1.3
			c-1.2,1.9-2.1,3.9-2.5,6.1c-0.1,0.7-0.3,0.8-1,0.9c-1,0.2-2.1,0.3-3.1,0.5c-0.1,0-0.3,0.2-0.3,0.3c0,1.5,0,2.9,0,4.4
			c0,0.1,0.2,0.3,0.3,0.3c1,0.2,2.1,0.3,3.1,0.5c0.7,0.1,0.9,0.3,1,0.9c0.5,2.1,1.3,4.1,2.5,6c0.4,0.6,0.4,0.8,0,1.4
			c-0.7,0.9-1.3,1.8-2,2.7C-82.4,39.2-81.2,40.4-80.1,41.6z M-64,21.5c1.1,0.3,2.1,0.4,3.1,0.7c2.3,0.7,3.3,2,3.3,4.4
			c0,0.1,0,0.3,0,0.5c1.8-0.8,3.6-1.1,5.4-1c0.9-6.2-2.4-12.2-8.1-14.8s-12.3-1-16.4,3.7c-4,4.7-4.4,11.5-0.9,16.7s9.4,6.9,13.5,6.1
			c0.2-1.4,0.4-2.9,0.5-4.3c-0.1,0-0.3,0-0.5,0c-3.1,0-6.2,0-9.3,0c-0.7,0-1-0.3-1-0.9c0-2.2,0-4.5,0-6.7c0-1.2,0.6-2.2,1.6-2.9
			c0.7-0.4,1.5-0.7,2.3-1c0.7-0.2,1.5-0.3,2.3-0.5c-1.5-1.3-2.1-2.9-2-4.8c0.1-2.5,1.6-4,4.1-4c2-0.1,3.6,1,4.1,2.8
			c0.5,2.2,0.1,4.2-1.6,5.8C-63.7,21.3-63.8,21.4-64,21.5z M-53,27.6c-5.2,0-9.4,4.2-9.4,9.4s4.2,9.5,9.4,9.5s9.5-4.3,9.5-9.4
			C-43.5,31.8-47.8,27.6-53,27.6z M-61.1,29.4c0,0,0.1,0,0.1,0.1c0.2-0.2,0.3-0.3,0.5-0.5c0.4-0.4,1-0.7,1.2-1.2
			c0.2-0.5,0-1.2,0.1-1.8c0-0.8-0.3-1.4-1-1.8c-0.5-0.3-1.1-0.5-1.7-0.7c-2.3-0.6-4.6-0.7-6.9-0.3c-0.9,0.2-1.8,0.4-2.7,0.8
			s-1.4,1.1-1.3,2.1c0,1.8,0,3.5,0,5.3c0,0.2,0,0.3,0,0.5c0.6,0,1.2,0,1.9,0c0-0.2,0-0.4,0-0.5c0-1.3,0-2.5,0-3.8c0-0.6,0.3-1,0.8-1
			s0.8,0.4,0.8,1c0,0.8,0,1.6,0,2.4c0,0.6,0,1.2,0,1.9c0.2,0,0.3,0,0.5,0c1.9,0,3.8,0,5.7,0c0.4,0,0.6-0.1,0.5-0.6
			c0-1.3,0-2.5,0-3.8c0-0.6,0.3-1,0.8-0.9c0.5,0,0.8,0.4,0.8,1C-61.1,28.2-61.1,28.8-61.1,29.4z M-63.4,17.3c0-1.9-0.6-2.8-1.9-3.1
			c-0.5-0.1-1.1,0-1.6,0.1c-0.8,0.2-1.4,0.7-1.6,1.5c-0.4,1.5-0.2,2.8,0.8,4c0.9,1.1,2.4,1.1,3.3,0C-63.6,19-63.4,18-63.4,17.3z"/>
		<path class="st1" d="M-54.6,37.4c1.2-1.2,2.4-2.3,3.5-3.4c0.4-0.4,0.8-0.8,1.2-1.2c1-1,2.4-1,3.3,0c0.9,0.9,0.9,2.3-0.1,3.2
			c-2,2.1-4.1,4.1-6.1,6.2c-1,1-2.4,1-3.4,0s-2.1-2-3.1-3.1c-1-1-1-2.4-0.1-3.3c0.9-0.9,2.3-0.9,3.3,0
			C-55.5,36.4-55.1,36.9-54.6,37.4z M-57.8,36.6c-0.2,0.2-0.5,0.4-0.6,0.6c-0.2,0.3,0,0.6,0.2,0.8c1,1,2,2,3,3
			c0.5,0.5,0.9,0.5,1.4,0c1.6-1.6,3.2-3.2,4.8-4.9c0.4-0.4,0.8-0.8,1.2-1.2c0.3-0.3,0.3-0.7,0-1s-0.7-0.3-1.1,0
			c-0.1,0.1-0.2,0.2-0.2,0.2c-1.6,1.6-3.1,3.2-4.7,4.8c-0.6,0.6-0.9,0.6-1.5,0c-0.6-0.6-1.2-1.2-1.9-1.8
			C-57.3,36.9-57.5,36.8-57.8,36.6z"/>
	</g>
</g>
<image style="overflow:visible;" width="512" height="512" xlink:href="../../../../Users/VT/Desktop/team.png"  transform="matrix(0.146 0 0 0.146 64.8696 -21.0217)">
</image>
<g>
	<path class="st1" d="M38.7,0c0.7,0.3,1.1,0.9,1.1,1.6c0,0.2,0.1,0.5,0.1,0.7c0,0.7,0.4,0.8,0.9,1c0.1,0,0.3,0,0.4-0.1
		c0.4-0.3,0.8-0.6,1.3-0.8c0.7-0.4,1.3-0.4,1.9,0.2c0.4,0.3,0.7,0.7,1,1C46,4.1,46,4.8,45.6,5.4c-0.2,0.3-0.4,0.7-0.7,1
		c-0.3,0.3-0.4,0.7-0.1,1.1C45,7.8,45.2,7.9,45.5,8c0.5,0.1,0.9,0.2,1.4,0.3C47.6,8.4,48,8.9,48,9.6c0,0.5,0,1,0,1.5
		c0,0.7-0.4,1.2-1.1,1.4c-0.5,0.1-0.9,0.2-1.4,0.3c-0.3,0-0.5,0.2-0.6,0.5c-0.2,0.4-0.1,0.7,0.1,1c0.3,0.3,0.5,0.7,0.7,1.1
		c0.4,0.6,0.3,1.2-0.2,1.7c-0.4,0.4-0.7,0.8-1.1,1.1c-0.5,0.5-1.2,0.5-1.8,0.2c-0.2-0.1-0.4-0.3-0.6-0.4c-0.2-0.1-0.4-0.3-0.6-0.4
		c-0.3,0.6-0.9,0.8-1.6,0.9c-0.5,0.1-1,0.2-1.6,0.3c-0.3,0-0.4,0.2-0.5,0.4c-0.4,0.7-0.4,1.4,0.2,2c0.3,0.3,0.5,0.7,0.7,1
		c0.4,0.7,0.4,1.4-0.2,2c-0.4,0.5-0.9,0.9-1.3,1.3c-0.6,0.6-1.3,0.6-2.1,0.2c-0.6-0.4-1.1-0.8-1.7-1.1c-0.1-0.1-0.4-0.1-0.5-0.1
		c-0.9,0.2-1.3,0.7-1.3,1.6c0,0.4-0.1,0.8-0.2,1.1c-0.2,0.9-0.8,1.3-1.6,1.3c-0.6,0-1.2,0-1.8,0c-0.9,0-1.5-0.5-1.6-1.4
		c-0.1-0.7-0.2-1.3-0.4-2c0-0.2-0.2-0.3-0.3-0.4c-0.7-0.5-1.4-0.4-2.1,0.2c-0.3,0.3-0.6,0.5-1,0.7c-0.7,0.5-1.5,0.4-2.1-0.2
		c-0.4-0.4-0.8-0.8-1.3-1.3c-0.6-0.6-0.7-1.4-0.2-2.1c0.4-0.6,0.7-1.1,1.1-1.6c0.2-0.2,0.1-0.4,0.1-0.6c-0.2-0.9-0.8-1.2-1.7-1.3
		c-0.4,0-0.8-0.1-1.2-0.3C16.5,18.3,16,17.7,16,17c0-0.7,0-1.3,0-2c0-0.8,0.5-1.3,1.3-1.5c0.7-0.1,1.3-0.3,2-0.4
		c0.3-0.1,0.4-0.2,0.6-0.5c0.5-0.7,0.3-1.3-0.2-2c-0.3-0.3-0.5-0.7-0.7-1c-0.4-0.7-0.4-1.4,0.2-2c0.4-0.5,0.9-0.9,1.4-1.4
		c0.6-0.5,1.3-0.6,2-0.2c0.6,0.4,1.1,0.7,1.7,1.1c0.2,0.2,0.4,0.2,0.7,0.1C25.6,7.1,26,6.6,26,5.7c0-0.4,0.1-0.8,0.2-1.1
		c0.2-0.9,0.8-1.4,1.7-1.4c0.4,0,0.8,0,1.3,0c0.6,0.1,1.1-0.1,1.5-0.6c0.6-0.6,1.2-0.7,2-0.2c0.4,0.2,0.7,0.5,1.1,0.7
		c0.6,0.4,1.3,0.1,1.4-0.6c0.1-0.3,0.1-0.6,0.2-0.9c0.1-0.8,0.4-1.3,1.1-1.6C37.2,0,38,0,38.7,0z M36,7.4c-0.8,0.5-1.5,1-2.3,1.5
		c-0.4,0.2-0.7,0.3-1.1,0.1c-0.5-0.3-1.1-0.5-1.6-0.7c-0.4-0.1-0.7-0.4-0.8-0.9c-0.1-0.8-0.3-1.6-0.5-2.3c0-0.1-0.2-0.3-0.3-0.3
		c-0.5,0-1.1,0-1.6,0c-0.2,0.9-0.4,1.8-0.6,2.7C27.2,8,27,8.2,26.6,8.3c-0.5,0.2-1,0.4-1.5,0.6c-0.5,0.3-0.9,0.3-1.3-0.1
		c-0.7-0.5-1.4-1-2.1-1.4c-0.5,0.5-0.9,0.9-1.4,1.3c0.5,0.8,1,1.5,1.5,2.3c0.2,0.3,0.2,0.7,0.1,1.1c-0.3,0.5-0.5,1.1-0.7,1.6
		c-0.1,0.5-0.4,0.7-0.9,0.8c-0.8,0.1-1.6,0.3-2.3,0.5c-0.1,0-0.3,0.2-0.3,0.3c0,0.6,0,1.1,0,1.7c1,0.2,1.9,0.4,2.8,0.6
		c0.4,0.1,0.6,0.3,0.7,0.7c0.2,0.5,0.4,1.1,0.6,1.6c0.3,0.5,0.3,0.9-0.1,1.3c-0.5,0.7-1,1.4-1.4,2c0.5,0.5,0.9,1,1.3,1.4
		c0.7-0.5,1.5-1,2.3-1.5c0.4-0.2,0.7-0.2,1.1-0.1c0.5,0.2,0.9,0.5,1.4,0.6c0.7,0.2,1,0.5,1.1,1.2c0.1,0.8,0.3,1.6,0.5,2.4
		c0.6,0,1.1,0,1.6,0c0.3,0,0.4-0.1,0.4-0.3c0.1-0.8,0.3-1.6,0.5-2.4c0.1-0.4,0.3-0.7,0.7-0.8c0.6-0.2,1.1-0.4,1.6-0.7
		c0.4-0.2,0.8-0.2,1.2,0.1c0.7,0.5,1.5,1,2.2,1.5c0.4-0.4,0.7-0.7,1.1-1.1c0.2-0.2,0.2-0.3,0.1-0.6c-0.5-0.7-0.9-1.3-1.3-2
		c-0.3-0.4-0.3-0.7-0.1-1.1c0.2-0.5,0.5-1,0.6-1.5c0.2-0.6,0.5-0.9,1.1-1c0.8-0.1,1.6-0.3,2.5-0.5c0-0.6,0-1.1,0-1.6
		c0-0.1-0.2-0.3-0.3-0.3c-0.8-0.2-1.6-0.3-2.3-0.5c-0.5-0.1-0.7-0.3-0.9-0.8c-0.2-0.5-0.4-1.1-0.6-1.6c-0.2-0.4-0.2-0.8,0.1-1.2
		c0.5-0.7,1-1.5,1.5-2.2C36.9,8.3,36.5,7.9,36,7.4z M43.4,3.7c-0.6,0.4-1.1,0.7-1.7,1.1c-0.4,0.3-0.7,0.3-1.1,0.1
		c-0.4-0.2-0.8-0.4-1.2-0.5c-0.4-0.1-0.6-0.4-0.7-0.8c-0.1-0.7-0.3-1.3-0.4-2c-0.4,0-0.8,0-1.2,0c-0.1,0.7-0.3,1.3-0.4,2
		c-0.1,0.4-0.3,0.7-0.7,0.8c-0.4,0.1-0.8,0.3-1.2,0.5c-0.4,0.2-0.8,0.2-1.1-0.1c-0.5-0.4-1.1-0.7-1.6-1.1c-0.5,0.3-0.7,0.6-0.5,1.1
		c0.1,0.3,0.2,0.6,0.2,0.9c0,0.8,0.3,1.3,1.2,1.5c0.3,0.1,0.5,0.1,0.8-0.1c0.9-0.6,1.9-1.2,3.1-1.5C40,5,43.1,8,42.4,11.4
		c-0.2,0.9-0.7,1.7-1.3,2.4c0.5,0.5,0.6,1,0.6,1.6c0,0.2,0.1,0.4,0.2,0.5c0.5,0.4,1,0.7,1.5,1c0.3-0.3,0.6-0.6,0.9-0.9
		c-0.4-0.6-0.8-1.2-1.2-1.7c-0.2-0.3-0.2-0.7-0.1-1c0.2-0.4,0.4-0.8,0.5-1.3c0.1-0.4,0.4-0.6,0.8-0.7c0.7-0.1,1.3-0.3,2-0.4
		c0-0.4,0-0.8,0-1.2c-0.7-0.1-1.3-0.3-1.9-0.4c-0.5-0.1-0.7-0.3-0.9-0.7c-0.1-0.4-0.3-0.8-0.5-1.2c-0.2-0.4-0.2-0.8,0.1-1.1
		c0.4-0.5,0.7-1.1,1.1-1.6C43.9,4.4,43.6,4.1,43.4,3.7z M38.2,7.3c0.1,0.1,0.2,0.2,0.2,0.2c0.7,0.7,0.7,1.4,0.2,2.2
		c-0.2,0.4-0.4,0.7-0.7,1c-0.4,0.5-0.6,1-0.2,1.7c0.3,0.6,1.2,0.9,1.8,0.5c1.1-0.8,1.5-1.9,1.3-3.2C40.6,8.5,39.5,7.4,38.2,7.3z"/>
	<path class="st1" d="M26.3,0c0.2,0,0.3,0.1,0.5,0.1c0.5,0.1,0.7,0.4,0.7,0.8c0,0.4-0.3,0.7-0.8,0.7c-0.4,0-0.7-0.1-1.1-0.1
		c-2.5,0-5,0.3-7.5,0.8c-1.6,0.3-3.2,0.7-4.7,1.2c-3.7,1.3-5.8,4.1-7,7.7c-0.4,1.2-0.7,2.4-1.1,3.6c-0.2,0.6-0.5,1.2-0.7,1.8
		c-0.2,0.4-0.1,0.7,0.2,1C5,17.9,5.2,18,5.4,18.2C6.3,19,6.5,20.1,6,21.1c-1.1,2.2-2.3,4.2-3.8,6.1c-0.2,0.3-0.4,0.6-0.6,0.9
		c0.4,0.2,0.7,0.5,1,0.7c0.3,0.2,0.5,0.3,0.8,0.4c1.3,0.7,1.6,1.9,1,3.2c-0.2,0.3-0.3,0.7-0.5,1c0.4,0.3,0.8,0.6,1.1,1
		c0.4,0.5-0.1,0.9-0.3,1.4C4.7,36,4.8,36,4.8,36c1.3,0.8,1.8,1.7,1.4,3.2C6,40,6.1,40.7,6.3,41.4c0.3,0.8,1,1.2,1.8,0.9
		c3.1-0.9,6.1-1.9,9.2-2.9c1-0.3,1.9-0.7,2.8-1.1c0.5-0.2,0.9-0.6,1.4-0.9c0.4-0.3,0.7-0.8,0.7-1.4c0.1-0.6,0.4-0.9,0.9-0.8
		c0.5,0,0.7,0.4,0.7,1c-0.1,1.2-0.7,2.1-1.6,2.7c-0.9,0.6-1.8,1-2.8,1.5c-0.8,0.4-1.6,0.6-2.5,0.9c0,0.1,0.1,0.1,0.1,0.2
		c1.2,1.4,2.1,2.9,2.6,4.6c0.1,0.3,0.2,0.3,0.5,0.3c4.4,0,8.8,0,13.2-0.1c1.2,0,2.5,0,3.7,0c0.2,0,0.5,0,0.8,0
		c-0.2-0.3-0.3-0.5-0.4-0.7c-0.9-1.7-1.5-3.5-1.8-5.4c-0.5-2.6-0.7-5.2-0.1-7.8c0.6-2.2,1.6-4.2,3-6c1.1-1.4,2.1-2.8,2.6-4.4
		c0.1-0.4,0.2-0.7,0.3-1.1c0.1-0.5,0.5-0.7,1-0.6c0.4,0.1,0.7,0.5,0.6,1c-0.3,1.4-0.9,2.7-1.7,3.9c-0.5,0.7-1,1.5-1.6,2.2
		c-1.9,2.4-3,5-3.1,8.1c-0.1,2.1,0.3,4.2,0.8,6.2c0.4,1.5,0.9,2.9,1.9,4.2c0.2,0.3,0.4,0.6,0.5,1c0.3,0.7,0,1.2-0.8,1.2
		c-1.9,0-3.8,0-5.7,0c-4.7,0-9.3,0-14,0c-0.8,0-0.9-0.1-1.2-0.9c-0.4-1.3-0.9-2.6-1.7-3.8c-0.1-0.1-0.2-0.3-0.3-0.4
		c-0.9-1.1-1-1.1-2.2-0.7c-1.7,0.5-3.5,1-5.2,1.5c-1.7,0.5-3.7-0.1-4.1-2.6c-0.1-0.7-0.1-1.5,0-2.2c0.1-0.9,0.1-1.1-0.7-1.6
		c-1-0.6-1.2-0.9-0.8-2.1c0-0.1,0-0.3-0.1-0.4c-1.1-1-1.1-1.2-0.4-2.5c0,0,0,0,0,0C3.3,31.2,3.2,31,2,30.4c-0.8-0.4-1.6-0.9-2-1.9
		c0-0.2,0-0.5,0-0.7c0.3-0.5,0.6-1.1,1-1.6c1.4-1.8,2.5-3.6,3.5-5.6c0.2-0.5,0.2-0.8-0.2-1.1c-0.1-0.1-0.2-0.2-0.2-0.2
		c-1.3-1.1-1.4-1.9-0.8-3.5c0.4-0.9,0.7-1.9,1.1-2.8c0.3-0.8,0.4-1.6,0.7-2.4c1.5-4.2,4.2-7.3,8.5-8.6c2.5-0.8,5.2-1.2,7.8-1.6
		c0.8-0.1,1.6-0.2,2.4-0.3C24.6,0,25.5,0,26.3,0z"/>
	<path class="st1" d="M8.9,14.1c-0.5-0.1-1-0.2-1.5-0.3c0.4-2.1,1.1-4,2.4-5.7c1.4-1.9,3.4-2.9,5.7-3.5c0.5-0.1,0.9-0.2,1.4-0.3
		c0.5-0.1,0.9,0.1,1,0.6c0.1,0.4-0.1,0.8-0.6,0.9c-0.8,0.2-1.7,0.4-2.5,0.7c-2.8,0.9-4.3,3-5.2,5.6C9.3,12.8,9.1,13.5,8.9,14.1z"/>
	<path class="st1" d="M7.2,16C7.7,16,8,16.4,8,16.8c0,0.4-0.4,0.8-0.8,0.8c-0.4,0-0.8-0.4-0.8-0.8C6.4,16.4,6.8,16,7.2,16z"/>
	<path class="st1" d="M28.8,21.6c-3.1,0-5.6-2.5-5.6-5.6c0-3.1,2.5-5.6,5.6-5.6c3.1,0,5.6,2.5,5.6,5.6
		C34.4,19.1,31.9,21.6,28.8,21.6z M24.8,16c0,2.2,1.8,4,4,4c2.2,0,4-1.8,4-4c0-2.2-1.8-4-4-4C26.6,12,24.8,13.8,24.8,16z"/>
	<path class="st1" d="M28,16c0-0.4,0.3-0.8,0.8-0.8c0.4,0,0.8,0.4,0.8,0.8c0,0.4-0.4,0.8-0.8,0.8C28.4,16.8,28,16.5,28,16z"/>
</g>
<image style="overflow:visible;" width="512" height="512" xlink:href="../../../../Users/VT/Desktop/data.png"  transform="matrix(0.1283 0 0 0.1283 -70.5217 -132.5435)">
</image>
<image style="overflow:visible;" width="512" height="512" xlink:href="../../../../Users/VT/Desktop/supplier.png"  transform="matrix(0.1369 0 0 0.1369 163.8696 -21.0217)">
</image>
</svg>
