<?xml version="1.0" encoding="utf-8"?>
<!-- Generator: Adobe Illustrator 26.0.1, SVG Export Plug-In . SVG Version: 6.00 Build 0)  -->
<svg version="1.1" id="Layer_1" xmlns="http://www.w3.org/2000/svg" xmlns:xlink="http://www.w3.org/1999/xlink" x="0px" y="0px"
	 viewBox="0 0 48 48" style="enable-background:new 0 0 48 48;" xml:space="preserve">
<style type="text/css">
	.st0{clip-path:url(#SVGID_00000059275333845259364620000000266735605388915377_);}
	.st1{fill:#00BAA4;}
</style>
<g>
	<defs>
		<rect id="SVGID_1_" x="-90" width="48" height="48"/>
	</defs>
	<clipPath id="SVGID_00000003822254787881577610000004427927770030902687_">
		<use xlink:href="#SVGID_1_"  style="overflow:visible;"/>
	</clipPath>
	<g style="clip-path:url(#SVGID_00000003822254787881577610000004427927770030902687_);">
		<path class="st1" d="M-46,28.5c5.3,4.5,5.2,11.9,0.9,16.3c-4.4,4.3-11.9,4.5-16.4-0.8c-0.1,0.8-0.3,1.6-0.4,2.4
			c-0.2,1.7-0.3,1.6-1.9,1.6c-1.7,0-3.4,0-5.1,0c-0.7,0-0.9-0.2-1-0.8c-0.2-1.1-0.3-2.2-0.5-3.2c0-0.3-0.1-0.4-0.4-0.5
			c-1.9-0.5-3.7-1.2-5.4-2.3c-0.2-0.1-0.4-0.1-0.6,0c-0.9,0.7-1.8,1.3-2.7,1.9c-0.6,0.4-0.9,0.4-1.3-0.1c-1.4-1.4-2.8-2.8-4.1-4.1
			c-0.5-0.5-0.5-0.8-0.1-1.3c0.6-0.9,1.3-1.8,1.9-2.7c0.2-0.2,0.2-0.4,0-0.6c-1-1.7-1.8-3.5-2.2-5.4c-0.1-0.3-0.2-0.4-0.5-0.4
			c-1.2-0.2-2.3-0.4-3.3-0.5c-0.6-0.1-0.9-0.4-0.9-1c0-2,0-4,0-6c0-0.6,0.2-0.9,0.9-1c1.1-0.2,2.2-0.3,3.2-0.5
			c0.3,0,0.4-0.1,0.5-0.4c0.5-1.9,1.2-3.7,2.2-5.4c0.1-0.2,0.2-0.4,0-0.6c-0.7-0.9-1.3-1.8-2-2.7c-0.4-0.5-0.3-0.8,0.1-1.3
			c1.4-1.4,2.8-2.8,4.2-4.2c0.5-0.5,0.7-0.5,1.3-0.1c0.9,0.6,1.8,1.3,2.7,1.9c0.2,0.2,0.4,0.2,0.7,0c1.7-1,3.4-1.7,5.3-2.2
			c0.3-0.1,0.4-0.2,0.5-0.5c0.2-1.1,0.3-2.2,0.5-3.2c0-0.6,0.3-0.8,0.9-0.8c2,0,4,0,6,0c0.6,0,0.8,0.2,0.9,0.8
			c0.2,1.1,0.4,2.2,0.5,3.2c0,0.3,0.1,0.5,0.5,0.6c1.9,0.5,3.7,1.2,5.3,2.2c0.2,0.1,0.4,0.1,0.6,0c0.9-0.7,1.8-1.3,2.7-2
			c0.5-0.4,0.8-0.4,1.3,0.1c1.4,1.4,2.8,2.8,4.2,4.2c0.4,0.4,0.5,0.7,0.1,1.2c-0.7,0.9-1.3,1.8-2,2.7c-0.2,0.2-0.2,0.4,0,0.6
			c1,1.7,1.8,3.5,2.2,5.4c0.1,0.3,0.2,0.4,0.5,0.4c1.1,0.2,2.2,0.3,3.2,0.5c0.6,0.1,0.8,0.4,0.8,1c0,2,0,4,0,6c0,0.6-0.2,0.9-0.9,1
			C-43.9,28.1-44.9,28.3-46,28.5z M-80.1,41.6c1-0.7,1.9-1.4,2.9-2.1c0.4-0.3,0.7-0.3,1.1,0c1.9,1.2,4,2.1,6.2,2.6
			c0.5,0.1,0.7,0.4,0.8,0.9c0.2,1,0.4,2.1,0.5,3.1c0,0.4,0.2,0.4,0.5,0.4c1.2,0,2.4,0,3.5,0c1,0,1,0,1.1-1c0.2-1.1,0.4-2.1,0.6-3.2
			c0-0.1,0-0.2,0-0.2c-0.4-0.9-0.7-1.8-1.1-2.7c-4.6,0.6-8.7-0.6-12.3-3.6c-3.6-3.1-5.4-7-5.4-11.7c0-8.2,6.2-14.8,14-15.5
			c4.2-0.4,8.1,0.7,11.3,3.5c4.4,3.7,6.2,8.5,5.6,14.2c0.6,0.2,1.3,0.4,1.9,0.7c0.5,0.2,1,0.5,1.6,0.1h0.1c1-0.2,2.1-0.3,3.1-0.5
			c0.3,0,0.3-0.1,0.3-0.4c0-1.4,0-2.9,0-4.3c0-0.2-0.1-0.3-0.3-0.4c-1-0.1-2-0.3-3.1-0.5c-0.7-0.1-0.9-0.3-1.1-1
			c-0.5-2.1-1.3-4.1-2.4-5.9c-0.5-0.7-0.4-0.8,0.1-1.6c0.6-0.9,1.3-1.8,1.9-2.6c-1.2-1.2-2.3-2.3-3.5-3.5c-0.9,0.7-1.9,1.3-2.8,2
			c-0.4,0.3-0.8,0.3-1.2,0c-1.9-1.2-3.9-2.1-6.2-2.6c-0.3,0-0.5-0.3-0.6-0.8c-0.2-1.1-0.3-2.1-0.5-3.1c0-0.2-0.1-0.3-0.4-0.3
			c-1.4,0-2.9,0-4.3,0c-0.2,0-0.3,0-0.4,0.3c-0.1,1-0.3,2.1-0.5,3.1c-0.1,0.7-0.3,0.9-0.9,1c-2.2,0.5-4.2,1.3-6.1,2.5
			c-0.6,0.4-0.8,0.3-1.3-0.1c-0.9-0.7-1.9-1.4-2.8-2c-1.1,1.2-2.2,2.4-3.4,3.5c0.7,0.9,1.3,1.9,2,2.8c0.3,0.4,0.3,0.8,0,1.3
			c-1.2,1.9-2.1,3.9-2.5,6.1c-0.1,0.7-0.3,0.8-1,0.9c-1,0.2-2.1,0.3-3.1,0.5c-0.1,0-0.3,0.2-0.3,0.3c0,1.5,0,2.9,0,4.4
			c0,0.1,0.2,0.3,0.3,0.3c1,0.2,2.1,0.3,3.1,0.5c0.7,0.1,0.9,0.3,1,0.9c0.5,2.1,1.3,4.1,2.5,6c0.4,0.6,0.4,0.8,0,1.4
			c-0.7,0.9-1.3,1.8-2,2.7C-82.4,39.2-81.2,40.4-80.1,41.6z M-64,21.5c1.1,0.3,2.1,0.4,3.1,0.7c2.3,0.7,3.3,2,3.3,4.4
			c0,0.1,0,0.3,0,0.5c1.8-0.8,3.6-1.1,5.4-1c0.9-6.2-2.4-12.2-8.1-14.8s-12.3-1-16.4,3.7c-4,4.7-4.4,11.5-0.9,16.7s9.4,6.9,13.5,6.1
			c0.2-1.4,0.4-2.9,0.5-4.3c-0.1,0-0.3,0-0.5,0c-3.1,0-6.2,0-9.3,0c-0.7,0-1-0.3-1-0.9c0-2.2,0-4.5,0-6.7c0-1.2,0.6-2.2,1.6-2.9
			c0.7-0.4,1.5-0.7,2.3-1c0.7-0.2,1.5-0.3,2.3-0.5c-1.5-1.3-2.1-2.9-2-4.8c0.1-2.5,1.6-4,4.1-4c2-0.1,3.6,1,4.1,2.8
			c0.5,2.2,0.1,4.2-1.6,5.8C-63.7,21.3-63.8,21.4-64,21.5z M-53,27.6c-5.2,0-9.4,4.2-9.4,9.4s4.2,9.5,9.4,9.5s9.5-4.3,9.5-9.4
			C-43.5,31.8-47.8,27.6-53,27.6z M-61.1,29.4c0,0,0.1,0,0.1,0.1c0.2-0.2,0.3-0.3,0.5-0.5c0.4-0.4,1-0.7,1.2-1.2
			c0.2-0.5,0-1.2,0.1-1.8c0-0.8-0.3-1.4-1-1.8c-0.5-0.3-1.1-0.5-1.7-0.7c-2.3-0.6-4.6-0.7-6.9-0.3c-0.9,0.2-1.8,0.4-2.7,0.8
			s-1.4,1.1-1.3,2.1c0,1.8,0,3.5,0,5.3c0,0.2,0,0.3,0,0.5c0.6,0,1.2,0,1.9,0c0-0.2,0-0.4,0-0.5c0-1.3,0-2.5,0-3.8c0-0.6,0.3-1,0.8-1
			s0.8,0.4,0.8,1c0,0.8,0,1.6,0,2.4c0,0.6,0,1.2,0,1.9c0.2,0,0.3,0,0.5,0c1.9,0,3.8,0,5.7,0c0.4,0,0.6-0.1,0.5-0.6
			c0-1.3,0-2.5,0-3.8c0-0.6,0.3-1,0.8-0.9c0.5,0,0.8,0.4,0.8,1C-61.1,28.2-61.1,28.8-61.1,29.4z M-63.4,17.3c0-1.9-0.6-2.8-1.9-3.1
			c-0.5-0.1-1.1,0-1.6,0.1c-0.8,0.2-1.4,0.7-1.6,1.5c-0.4,1.5-0.2,2.8,0.8,4c0.9,1.1,2.4,1.1,3.3,0C-63.6,19-63.4,18-63.4,17.3z"/>
		<path class="st1" d="M-54.6,37.4c1.2-1.2,2.4-2.3,3.5-3.4c0.4-0.4,0.8-0.8,1.2-1.2c1-1,2.4-1,3.3,0c0.9,0.9,0.9,2.3-0.1,3.2
			c-2,2.1-4.1,4.1-6.1,6.2c-1,1-2.4,1-3.4,0s-2.1-2-3.1-3.1c-1-1-1-2.4-0.1-3.3c0.9-0.9,2.3-0.9,3.3,0
			C-55.5,36.4-55.1,36.9-54.6,37.4z M-57.8,36.6c-0.2,0.2-0.5,0.4-0.6,0.6c-0.2,0.3,0,0.6,0.2,0.8c1,1,2,2,3,3
			c0.5,0.5,0.9,0.5,1.4,0c1.6-1.6,3.2-3.2,4.8-4.9c0.4-0.4,0.8-0.8,1.2-1.2c0.3-0.3,0.3-0.7,0-1s-0.7-0.3-1.1,0
			c-0.1,0.1-0.2,0.2-0.2,0.2c-1.6,1.6-3.1,3.2-4.7,4.8c-0.6,0.6-0.9,0.6-1.5,0c-0.6-0.6-1.2-1.2-1.9-1.8
			C-57.3,36.9-57.5,36.8-57.8,36.6z"/>
	</g>
</g>
<g>
	<path class="st1" d="M0,35.3c0.4-1.9,2-2.4,3.5-3.1c-1-0.5-1.8-1-2.5-1.9c-0.2-0.3-0.4-0.6-0.2-1c0.5-1.1,0.5-2.3,0.6-3.5
		c0.1-1.1,0.1-2.3,0.3-3.4c0.9-4.1,5.4-6.1,8.9-3.8c1.7,1.1,2.6,2.8,2.8,4.8c0.1,1.4,0.2,2.9,0.3,4.3c0,0.5,0.2,1,0.4,1.5
		c0.1,0.4,0.1,0.8-0.2,1.1c-0.6,0.8-1.4,1.4-2.4,1.8c0.3,0.3,0.6,0.3,1,0.2c1.3-0.6,2.6-1,3.9-1.5c0.4-0.2,0.9-0.2,1.1-0.8
		c0-0.1,0.2-0.3,0.3-0.4c0.3-0.3,0.5-0.5,0.8-0.8c0.3-0.4,0.3-2.5,0-2.8c-1.8-1.7-2.7-3.8-2.8-6.3c0-1-0.2-2-0.5-2.9
		c-0.5-2.2-0.6-4.4,0.4-6.5c1.1-2.3,3.1-3.7,5.6-3.8c3.6-0.1,7.2,0,10.8,0c0.5,0,0.8,0.3,0.8,0.8c0,2.6,0,5.2,0,7.9
		c0,0.7-0.1,1.4-0.4,2c-0.3,0.9-0.4,1.7-0.3,2.6c0,1.4-0.2,2.8-1,4c-0.5,0.8-1.1,1.6-1.7,2.3c-0.2,0.2-0.3,0.4-0.3,0.7
		c0,0,0,0.1,0,0.1c-0.2,1.2,0.1,2.3,1.2,3c0,0,0.1,0.1,0.1,0.1c0.2,0.7,0.8,0.7,1.3,0.9c0.8,0.3,1.7,0.6,2.6,0.9
		c0.3,0.1,0.7,0.1,1,0c0.2,0,0.4-0.1,0.6-0.2c0.9-0.3,0.9-0.3,0.9-1.2c0-0.1-0.1-0.3-0.2-0.4c-1.4-1.2-2.1-2.7-2-4.5
		c0-0.6-0.1-1.1-0.4-1.7c-1.2-2.6,0.7-5.9,3.6-6c2.4-0.1,4.8-0.1,7.2-0.1c0.5,0,0.8,0.2,0.8,0.7c0,1.4,0,2.9-0.1,4.3
		c0,0.4-0.2,0.8-0.4,1.2c-0.3,0.5-0.3,1-0.3,1.6c0.1,1.8-0.6,3.4-2,4.6c-0.4,0.3-0.2,0.8-0.2,1.1c0,0.1,0.3,0.3,0.5,0.4
		c0.8,0.3,1.7,0.5,2.5,0.7c1.4,0.4,2.2,1.5,2.2,3c0,1.9,0,3.7,0,5.6c0,0.5-0.3,0.8-0.7,0.8c-0.4,0-0.7-0.3-0.7-0.8
		c0-0.1,0-0.2,0-0.3c0-1.7,0-3.3,0-5c0-1.2-0.4-1.7-1.5-2c-0.9-0.2-1.7-0.5-2.6-0.7c-0.1,0-0.3,0.1-0.5,0.1c0,0-0.1,0.1-0.1,0.1
		c-0.5,0.5-1.1,0.9-1.4,1.5c-0.2,0.6-0.1,1.3-0.1,2c0,1.4,0,2.7,0,4.1c0,0.2,0,0.3-0.1,0.5c-0.1,0.3-0.3,0.5-0.7,0.5
		c-0.4,0-0.6-0.2-0.6-0.6c0-0.3,0-0.6,0-0.9c0-1.7,0-3.3,0-5c0-0.4-0.1-0.7-0.4-1c-0.3-0.3-0.6-0.6-0.9-0.9
		c-0.6-0.6-0.6-0.6-1.3-0.2c0.2,0.2,0.3,0.4,0.4,0.6c0.4,0.6,0.5,1.3,0.6,2c0,1.7,0,3.4,0,5.2c0,0.3-0.2,0.6-0.4,0.8
		c-0.1,0.1-0.5,0.1-0.7,0c-0.2-0.2-0.3-0.5-0.3-0.8c0-1.6,0-3.3,0-4.9c0-1.3-0.5-2.1-1.8-2.5c-1.4-0.5-2.8-1-4.3-1.6
		c-0.3,0.5-0.7,1-1,1.5c-0.3,0.4-0.5,0.8-0.8,1.2c-0.6,0.9-1.6,1-2.3,0.2c-0.3-0.3-0.7-0.7-1.1-1.1c0,0.3,0,0.4,0,0.6
		c0,2.1,0,4.2,0,6.3c0,0.7-0.2,1.1-0.7,1.1c-0.5,0-0.7-0.4-0.7-1.1c0-2.1,0-4.2,0-6.3c0-0.2,0-0.3,0-0.7c-0.4,0.4-0.7,0.7-1,1
		c-0.9,0.9-1.8,0.8-2.5-0.3c-0.6-0.9-1.2-1.7-1.8-2.6c-1.3,0.5-2.5,0.9-3.7,1.4c-2,0.7-2.3,1.2-2.3,3.4c0,1.4,0,2.7,0,4.1
		c0,0.2,0,0.3,0,0.5c-0.1,0.4-0.3,0.6-0.7,0.6c-0.3,0-0.6-0.2-0.7-0.5c0-0.2,0-0.3,0-0.5c0-1.5,0-2.9,0-4.4c0-1.3,0-1.5,0.5-2.6
		c-0.6-0.5-0.6-0.5-1.2,0c-1.3,1.2-2.6,1.5-3.9,0.7c-0.4-0.3-0.8-0.6-1.2-0.9c-0.1-0.1-0.3-0.1-0.5-0.1c-0.7,0.3-1.3,0.6-2,1
		c-0.7,0.3-1,0.9-1,1.6c0,1.6,0,3.2,0,4.9c0,0.6-0.4,1-0.8,0.8c-0.2-0.1-0.4-0.3-0.6-0.4C0,39.2,0,37.2,0,35.3z M31.6,7.9
		c-0.1,0-0.1,0-0.2,0c-3.3,0-6.7,0-10,0c-2.1,0-4,1.5-4.7,3.5c-0.6,1.9-0.5,3.8,0.1,5.7c0.1,0.5,0.3,1,0.3,1.4c0,1.2,0,2.4,0.5,3.6
		c1,2.8,3.7,4.7,6.5,4.6c3.1-0.1,5.7-2.1,6.4-5.1c0.3-1.1,0.2-2.2,0.3-3.3c0-0.3,0.1-0.7,0.2-1c0.4-0.9,0.6-1.9,0.6-2.9
		c0-1.2,0-2.3,0-3.5C31.6,9.9,31.6,8.9,31.6,7.9z M44.3,19.1c-0.1,0-0.2,0-0.3,0c-1.9,0-3.7,0-5.6,0c-0.3,0-0.6,0-0.9,0.1
		c-1.9,0.5-2.9,2.7-2,4.3c0.3,0.5,0.4,1.1,0.4,1.7c0,0.6,0.1,1.2,0.2,1.8c0.4,1.5,1.7,2.5,3.4,2.7c1.3,0.1,2.8-0.7,3.5-2
		c0.4-0.7,0.5-1.5,0.5-2.3c0-0.7,0-1.4,0.4-2.1c0.2-0.4,0.3-0.8,0.3-1.3C44.4,21.1,44.3,20.1,44.3,19.1z M2.9,25
		c0.3,0.3,0.6,0.5,0.7,0.7c0.1,0.2,0.1,0.5,0.1,0.7c0.2,1.8,1.7,3.1,3.6,3.2c1.6,0.1,3.2-1,3.7-2.6c0.2-0.5,0.1-0.8-0.2-1.2
		c-1.1-1.5-2.7-2.1-4.5-2.3c-0.1,0-0.3,0.1-0.4,0.2c-0.3,0.3-0.5,0.6-0.9,0.8c-0.2,0.1-0.6,0.2-0.8,0.1C4.2,24.7,4,24.4,4,24.1
		c0-0.5,1.5-1.9,2-1.9c1.4,0,2.8,0.3,4,1.1c0.7,0.5,1.4,1.1,2,1.6c0.1-1.7-0.3-3.1-1.4-4.3c-1.7-1.9-4.9-1.8-6.5,0.1
		C3,21.9,2.8,23.5,2.9,25z M20.2,27.1c0,0.4,0,0.7,0,1c0,0.2,0.1,0.4,0.3,0.5c1.1,0.8,2.2,1.5,3.3,2.2c0.1,0.1,0.4,0.1,0.5,0
		c1.1-0.7,2.2-1.5,3.3-2.3c0.1-0.1,0.2-0.2,0.2-0.4c0-0.3,0-0.7,0-1.1C25.3,28.4,22.8,28.4,20.2,27.1z M26.9,33.7
		c0.6-0.8,1.1-1.7,1.7-2.5c0.5-0.8,0.5-0.8-0.2-1.4c0,0,0,0-0.1,0c-1.1,0.7-2.1,1.5-3.2,2.2C25.8,32.6,26.3,33.1,26.9,33.7z
		 M21,33.7c0.6-0.6,1.2-1.2,1.8-1.8c-1.1-0.7-2.1-1.5-3.2-2.2c-0.3,0.3-0.5,0.5-0.7,0.8C19.6,31.6,20.4,32.7,21,33.7z M5.9,31
		c-0.1,0.8-0.3,1.6,0.7,2.1c0.6,0.3,1.1,0.3,1.7,0c1-0.5,0.7-1.4,0.6-2.1C8,31,7,31,5.9,31z M41.3,31c-1.1,0-2,0-3.1,0
		c0,0.2-0.1,0.5,0.1,0.7c0.4,0.5,1,1,1.5,1.5c0.4-0.4,0.8-0.9,1.2-1.2C41.3,31.7,41.4,31.3,41.3,31z M2.6,28.2
		c-0.1,0.3-0.2,0.7-0.3,1.2c0,0.1,0,0.3,0.1,0.4c0.6,0.6,1.2,1,2.1,1.2c-0.1-0.4-0.1-0.7-0.2-0.9C3.8,29.4,3.2,28.8,2.6,28.2z
		 M10.5,31c0.8-0.3,1.5-0.6,2-1.2c0.1-0.1,0.2-0.2,0.2-0.4c-0.1-0.5-0.2-0.9-0.3-1.3c-0.5,0.6-0.9,1.2-1.4,1.7
		C10.5,30.2,10.3,30.5,10.5,31z"/>
	<path class="st1" d="M45,38.7c0,0.7,0,1.3,0,2c0,0.5-0.3,0.9-0.7,0.9c-0.4,0-0.7-0.3-0.7-0.9c0-1.4,0-2.8,0-4.2
		c0-0.5,0.3-0.8,0.7-0.8c0.4,0,0.7,0.3,0.7,0.8C45,37.3,45,38,45,38.7z"/>
	<path class="st1" d="M4.4,39.2c0,0.5,0,1.1,0,1.6c0,0.5-0.3,0.8-0.7,0.8c-0.4,0-0.7-0.3-0.7-0.8c0-1.1,0-2.3,0-3.4
		c0-0.5,0.3-0.8,0.7-0.8c0.4,0,0.7,0.3,0.7,0.8C4.4,38,4.4,38.6,4.4,39.2z"/>
	<path class="st1" d="M31.6,39.4c0-0.5,0-0.9,0-1.4c0-0.5,0.3-0.7,0.7-0.8c0.4,0,0.7,0.3,0.7,0.7c0,1,0,2,0,3c0,0.4-0.3,0.7-0.7,0.7
		c-0.4,0-0.7-0.3-0.7-0.7C31.6,40.4,31.6,39.9,31.6,39.4z"/>
	<path class="st1" d="M16.4,39.4c0,0.5,0,1,0,1.5c0,0.5-0.3,0.7-0.7,0.8c-0.4,0-0.7-0.3-0.7-0.7c0-1,0-2,0-3c0-0.4,0.3-0.7,0.7-0.7
		c0.4,0,0.6,0.3,0.6,0.7C16.4,38.4,16.4,38.9,16.4,39.4z"/>
	<path class="st1" d="M19.4,14.5c0,0.5,0,1,0,1.5c0,0.5-0.3,0.8-0.7,0.8c-0.4,0-0.7-0.3-0.7-0.8c0-0.5,0-1.1,0-1.6
		c0.1-0.7,0.5-1.2,1.2-1.3c2.4-0.3,4.7-0.4,7.1,0.1c1.2,0.3,2.4,0.8,3.3,1.7c0.3,0.3,0.4,0.7,0.1,1c-0.2,0.3-0.7,0.4-1,0.1
		c-1.3-1.2-3-1.5-4.7-1.6C22.6,14.1,21,14.2,19.4,14.5z"/>
	<path class="st1" d="M38.3,21.5c1.3,0.1,2.5,0.2,3.7,0.7c0.1,0,0.1,0.1,0.2,0.1c0.4,0.2,0.5,0.5,0.4,0.9c-0.1,0.4-0.5,0.6-0.9,0.4
		c-1.4-0.5-2.8-0.6-4.2-0.7c-0.5,0-0.8-0.3-0.8-0.7c0-0.4,0.3-0.7,0.8-0.7C37.9,21.4,38.1,21.5,38.3,21.5z"/>
</g>
<g>
	<path class="st1" d="M-66.2,68.7c0.7,0.3,1.1,0.9,1.1,1.6c0,0.2,0.1,0.5,0.1,0.7c0,0.7,0.4,0.8,0.9,1c0.1,0,0.3,0,0.4-0.1
		c0.4-0.3,0.8-0.6,1.3-0.8c0.7-0.4,1.3-0.4,1.9,0.2c0.4,0.3,0.7,0.7,1,1c0.5,0.6,0.6,1.2,0.2,1.8c-0.2,0.3-0.4,0.7-0.7,1
		c-0.3,0.3-0.4,0.7-0.1,1.1c0.1,0.3,0.3,0.4,0.6,0.5c0.5,0.1,0.9,0.2,1.4,0.3c0.7,0.2,1.1,0.7,1.1,1.4c0,0.5,0,1,0,1.5
		c0,0.7-0.4,1.2-1.1,1.4c-0.5,0.1-0.9,0.2-1.4,0.3c-0.3,0-0.5,0.2-0.6,0.5c-0.2,0.4-0.1,0.7,0.1,1c0.3,0.3,0.5,0.7,0.7,1.1
		c0.4,0.6,0.3,1.2-0.2,1.7c-0.4,0.4-0.7,0.8-1.1,1.1c-0.5,0.5-1.2,0.5-1.8,0.2c-0.2-0.1-0.4-0.3-0.6-0.4c-0.2-0.1-0.4-0.3-0.6-0.4
		c-0.3,0.6-0.9,0.8-1.6,0.9c-0.5,0.1-1,0.2-1.6,0.3c-0.3,0-0.4,0.2-0.5,0.4c-0.4,0.7-0.4,1.4,0.2,2c0.3,0.3,0.5,0.7,0.7,1
		c0.4,0.7,0.4,1.4-0.2,2c-0.4,0.5-0.9,0.9-1.3,1.3c-0.6,0.6-1.3,0.6-2.1,0.2c-0.6-0.4-1.1-0.8-1.7-1.1c-0.1-0.1-0.4-0.1-0.5-0.1
		c-0.9,0.2-1.3,0.7-1.3,1.6c0,0.4-0.1,0.8-0.2,1.1c-0.2,0.9-0.8,1.3-1.6,1.3c-0.6,0-1.2,0-1.8,0c-0.9,0-1.5-0.5-1.6-1.4
		c-0.1-0.7-0.2-1.3-0.4-2c0-0.2-0.2-0.3-0.3-0.4c-0.7-0.5-1.4-0.4-2.1,0.2c-0.3,0.3-0.6,0.5-1,0.7c-0.7,0.5-1.5,0.4-2.1-0.2
		c-0.4-0.4-0.8-0.8-1.3-1.3c-0.6-0.6-0.7-1.4-0.2-2.1c0.4-0.6,0.7-1.1,1.1-1.6c0.2-0.2,0.1-0.4,0.1-0.6c-0.2-0.9-0.8-1.2-1.7-1.3
		c-0.4,0-0.8-0.1-1.2-0.3c-0.7-0.2-1.2-0.7-1.2-1.5c0-0.7,0-1.3,0-2c0-0.8,0.5-1.3,1.3-1.5c0.7-0.1,1.3-0.3,2-0.4
		c0.3-0.1,0.4-0.2,0.6-0.5c0.5-0.7,0.3-1.3-0.2-2c-0.3-0.3-0.5-0.7-0.7-1c-0.4-0.7-0.4-1.4,0.2-2c0.4-0.5,0.9-0.9,1.4-1.4
		c0.6-0.5,1.3-0.6,2-0.2c0.6,0.4,1.1,0.7,1.7,1.1c0.2,0.2,0.4,0.2,0.7,0.1c0.8-0.2,1.2-0.7,1.2-1.5c0-0.4,0.1-0.8,0.2-1.1
		c0.2-0.9,0.8-1.4,1.7-1.4c0.4,0,0.8,0,1.3,0c0.6,0.1,1.1-0.1,1.5-0.6c0.6-0.6,1.2-0.7,2-0.2c0.4,0.2,0.7,0.5,1.1,0.7
		c0.6,0.4,1.3,0.1,1.4-0.6c0.1-0.3,0.1-0.6,0.2-0.9c0.1-0.8,0.4-1.3,1.1-1.6C-67.7,68.7-66.9,68.7-66.2,68.7z M-68.9,76.1
		c-0.8,0.5-1.5,1-2.3,1.5c-0.4,0.2-0.7,0.3-1.1,0.1c-0.5-0.3-1.1-0.5-1.6-0.7c-0.4-0.1-0.7-0.4-0.8-0.9c-0.1-0.8-0.3-1.6-0.5-2.3
		c0-0.1-0.2-0.3-0.3-0.3c-0.5,0-1.1,0-1.6,0c-0.2,0.9-0.4,1.8-0.6,2.7c-0.1,0.4-0.3,0.7-0.7,0.8c-0.5,0.2-1,0.4-1.5,0.6
		c-0.5,0.3-0.9,0.3-1.3-0.1c-0.7-0.5-1.4-1-2.1-1.4c-0.5,0.5-0.9,0.9-1.4,1.3c0.5,0.8,1,1.5,1.5,2.3c0.2,0.3,0.2,0.7,0.1,1.1
		c-0.3,0.5-0.5,1.1-0.7,1.6c-0.1,0.5-0.4,0.7-0.9,0.8c-0.8,0.1-1.6,0.3-2.3,0.5c-0.1,0-0.3,0.2-0.3,0.3c0,0.6,0,1.1,0,1.7
		c1,0.2,1.9,0.4,2.8,0.6c0.4,0.1,0.6,0.3,0.7,0.7c0.2,0.5,0.4,1.1,0.6,1.6c0.3,0.5,0.3,0.9-0.1,1.3c-0.5,0.7-1,1.4-1.4,2
		c0.5,0.5,0.9,1,1.3,1.4c0.7-0.5,1.5-1,2.3-1.5c0.4-0.2,0.7-0.2,1.1-0.1c0.5,0.2,0.9,0.5,1.4,0.6c0.7,0.2,1,0.5,1.1,1.2
		c0.1,0.8,0.3,1.6,0.5,2.4c0.6,0,1.1,0,1.6,0c0.3,0,0.4-0.1,0.4-0.3c0.1-0.8,0.3-1.6,0.5-2.4c0.1-0.4,0.3-0.7,0.7-0.8
		c0.6-0.2,1.1-0.4,1.6-0.7c0.4-0.2,0.8-0.2,1.2,0.1c0.7,0.5,1.5,1,2.2,1.5c0.4-0.4,0.7-0.7,1.1-1.1c0.2-0.2,0.2-0.3,0.1-0.6
		c-0.5-0.7-0.9-1.3-1.3-2c-0.3-0.4-0.3-0.7-0.1-1.1c0.2-0.5,0.5-1,0.6-1.5c0.2-0.6,0.5-0.9,1.1-1c0.8-0.1,1.6-0.3,2.5-0.5
		c0-0.6,0-1.1,0-1.6c0-0.1-0.2-0.3-0.3-0.3c-0.8-0.2-1.6-0.3-2.3-0.5c-0.5-0.1-0.7-0.3-0.9-0.8c-0.2-0.5-0.4-1.1-0.6-1.6
		c-0.2-0.4-0.2-0.8,0.1-1.2c0.5-0.7,1-1.5,1.5-2.2C-68,77-68.4,76.6-68.9,76.1z M-61.5,72.4c-0.6,0.4-1.1,0.7-1.7,1.1
		c-0.4,0.3-0.7,0.3-1.1,0.1c-0.4-0.2-0.8-0.4-1.2-0.5c-0.4-0.1-0.6-0.4-0.7-0.8c-0.1-0.7-0.3-1.3-0.4-2c-0.4,0-0.8,0-1.2,0
		c-0.1,0.7-0.3,1.3-0.4,2c-0.1,0.4-0.3,0.7-0.7,0.8c-0.4,0.1-0.8,0.3-1.2,0.5c-0.4,0.2-0.8,0.2-1.1-0.1c-0.5-0.4-1.1-0.7-1.6-1.1
		c-0.5,0.3-0.7,0.6-0.5,1.1c0.1,0.3,0.2,0.6,0.2,0.9c0,0.8,0.3,1.3,1.2,1.5c0.3,0.1,0.5,0.1,0.8-0.1c0.9-0.6,1.9-1.2,3.1-1.5
		c3.5-0.7,6.6,2.3,5.8,5.7c-0.2,0.9-0.7,1.7-1.3,2.4c0.5,0.5,0.6,1,0.6,1.6c0,0.2,0.1,0.4,0.2,0.5c0.5,0.4,1,0.7,1.5,1
		c0.3-0.3,0.6-0.6,0.9-0.9c-0.4-0.6-0.8-1.2-1.2-1.7c-0.2-0.3-0.2-0.7-0.1-1c0.2-0.4,0.4-0.8,0.5-1.3c0.1-0.4,0.4-0.6,0.8-0.7
		c0.7-0.1,1.3-0.3,2-0.4c0-0.4,0-0.8,0-1.2c-0.7-0.1-1.3-0.3-1.9-0.4c-0.5-0.1-0.7-0.3-0.9-0.7c-0.1-0.4-0.3-0.8-0.5-1.2
		c-0.2-0.4-0.2-0.8,0.1-1.1c0.4-0.5,0.7-1.1,1.1-1.6C-61,73-61.2,72.8-61.5,72.4z M-66.6,76c0.1,0.1,0.2,0.2,0.2,0.2
		c0.7,0.7,0.7,1.4,0.2,2.2c-0.2,0.4-0.4,0.7-0.7,1c-0.4,0.5-0.6,1-0.2,1.7c0.3,0.6,1.2,0.9,1.8,0.5c1.1-0.8,1.5-1.9,1.3-3.2
		C-64.2,77.2-65.4,76.1-66.6,76z"/>
	<path class="st1" d="M-78.5,68.7c0.2,0,0.3,0.1,0.5,0.1c0.5,0.1,0.7,0.4,0.7,0.8c0,0.4-0.3,0.7-0.8,0.7c-0.4,0-0.7-0.1-1.1-0.1
		c-2.5,0-5,0.3-7.5,0.8c-1.6,0.3-3.2,0.7-4.7,1.2c-3.7,1.3-5.8,4.1-7,7.7c-0.4,1.2-0.7,2.4-1.1,3.6c-0.2,0.6-0.5,1.2-0.7,1.8
		c-0.2,0.4-0.1,0.7,0.2,1c0.2,0.2,0.4,0.4,0.6,0.5c0.9,0.8,1.1,1.8,0.6,2.9c-1.1,2.2-2.3,4.2-3.8,6.1c-0.2,0.3-0.4,0.6-0.6,0.9
		c0.4,0.2,0.7,0.5,1,0.7c0.3,0.2,0.5,0.3,0.8,0.4c1.3,0.7,1.6,1.9,1,3.2c-0.2,0.3-0.3,0.7-0.5,1c0.4,0.3,0.8,0.6,1.1,1
		c0.4,0.5-0.1,0.9-0.3,1.4c0.1,0.1,0.1,0.1,0.2,0.1c1.3,0.8,1.8,1.7,1.4,3.2c-0.2,0.7-0.2,1.4,0.1,2.1c0.3,0.8,1,1.2,1.8,0.9
		c3.1-0.9,6.1-1.9,9.2-2.9c1-0.3,1.9-0.7,2.8-1.1c0.5-0.2,0.9-0.6,1.4-0.9c0.4-0.3,0.7-0.8,0.7-1.4c0.1-0.6,0.4-0.9,0.9-0.8
		c0.5,0,0.7,0.4,0.7,1c-0.1,1.2-0.7,2.1-1.6,2.7c-0.9,0.6-1.8,1-2.8,1.5c-0.8,0.4-1.6,0.6-2.5,0.9c0,0.1,0.1,0.1,0.1,0.2
		c1.2,1.4,2.1,2.9,2.6,4.6c0.1,0.3,0.2,0.3,0.5,0.3c4.4,0,8.8,0,13.2-0.1c1.2,0,2.5,0,3.7,0c0.2,0,0.5,0,0.8,0
		c-0.2-0.3-0.3-0.5-0.4-0.7c-0.9-1.7-1.5-3.5-1.8-5.4c-0.5-2.6-0.7-5.2-0.1-7.8c0.6-2.2,1.6-4.2,3-6c1.1-1.4,2.1-2.8,2.6-4.4
		c0.1-0.4,0.2-0.7,0.3-1.1c0.1-0.5,0.5-0.7,1-0.6c0.4,0.1,0.7,0.5,0.6,1c-0.3,1.4-0.9,2.7-1.7,3.9c-0.5,0.7-1,1.5-1.6,2.2
		c-1.9,2.4-3,5-3.1,8.1c-0.1,2.1,0.3,4.2,0.8,6.2c0.4,1.5,0.9,2.9,1.9,4.2c0.2,0.3,0.4,0.6,0.5,1c0.3,0.7,0,1.2-0.8,1.2
		c-1.9,0-3.8,0-5.7,0c-4.7,0-9.3,0-14,0c-0.8,0-0.9-0.1-1.2-0.9c-0.4-1.3-0.9-2.6-1.7-3.8c-0.1-0.1-0.2-0.3-0.3-0.4
		c-0.9-1.1-1-1.1-2.2-0.7c-1.7,0.5-3.5,1-5.2,1.5c-1.7,0.5-3.7-0.1-4.1-2.6c-0.1-0.7-0.1-1.5,0-2.2c0.1-0.9,0.1-1.1-0.7-1.6
		c-1-0.6-1.2-0.9-0.8-2.1c0-0.1,0-0.3-0.1-0.4c-1.1-1-1.1-1.2-0.4-2.5c0,0,0,0,0,0c0.7-1.2,0.6-1.4-0.6-2.1c-0.8-0.4-1.6-0.9-2-1.9
		c0-0.2,0-0.5,0-0.7c0.3-0.5,0.6-1.1,1-1.6c1.4-1.8,2.5-3.6,3.5-5.6c0.2-0.5,0.2-0.8-0.2-1.1c-0.1-0.1-0.2-0.2-0.2-0.2
		c-1.3-1.1-1.4-1.9-0.8-3.5c0.4-0.9,0.7-1.9,1.1-2.8c0.3-0.8,0.4-1.6,0.7-2.4c1.5-4.2,4.2-7.3,8.5-8.6c2.5-0.8,5.2-1.2,7.8-1.6
		c0.8-0.1,1.6-0.2,2.4-0.3C-80.3,68.7-79.4,68.7-78.5,68.7z"/>
	<path class="st1" d="M-96,82.8c-0.5-0.1-1-0.2-1.5-0.3c0.4-2.1,1.1-4,2.4-5.7c1.4-1.9,3.4-2.9,5.7-3.5c0.5-0.1,0.9-0.2,1.4-0.3
		c0.5-0.1,0.9,0.1,1,0.6c0.1,0.4-0.1,0.8-0.6,0.9c-0.8,0.2-1.7,0.4-2.5,0.7c-2.8,0.9-4.3,3-5.2,5.6C-95.6,81.5-95.8,82.1-96,82.8z"
		/>
	<path class="st1" d="M-97.7,84.7c0.5,0,0.8,0.3,0.8,0.8c0,0.4-0.4,0.8-0.8,0.8c-0.4,0-0.8-0.4-0.8-0.8
		C-98.5,85.1-98.1,84.7-97.7,84.7z"/>
	<path class="st1" d="M-76.1,90.3c-3.1,0-5.6-2.5-5.6-5.6c0-3.1,2.5-5.6,5.6-5.6c3.1,0,5.6,2.5,5.6,5.6
		C-70.5,87.8-73,90.3-76.1,90.3z M-80.1,84.7c0,2.2,1.8,4,4,4c2.2,0,4-1.8,4-4c0-2.2-1.8-4-4-4C-78.3,80.7-80.1,82.5-80.1,84.7z"/>
	<path class="st1" d="M-76.9,84.7c0-0.4,0.3-0.8,0.8-0.8c0.4,0,0.8,0.4,0.8,0.8c0,0.4-0.4,0.8-0.8,0.8
		C-76.5,85.5-76.9,85.2-76.9,84.7z"/>
</g>
<g>
	<path class="st1" d="M44.2-15.7c-1-1-2-1.9-3-2.9c-1.5-1.5-3-3-4.5-4.5c-0.1-0.1-0.2-0.1-0.3-0.2c-3.1,2.1-6.5,2.6-10.1,1.4
		c-3.6-1.2-5.9-3.8-7.1-7.4c-3.6,0-7.2,0-10.8,0c0-0.5,0-1,0-1.6c3.5,0,7,0,10.5,0c-0.3-2-0.1-3.8,0.6-5.6c0.1-0.2,0-0.3,0-0.5
		c0-2.6,0-5.1,0-7.7c0-0.2,0-0.3,0-0.6c0.5,0,1,0,1.6,0c0,1.9,0,3.8,0,5.7c0.5-0.5,1-0.9,1.5-1.4c0.1-0.1,0.1-0.3,0.1-0.5
		c0-1.6,0-3.2,0-4.9c0-0.2,0-0.3,0-0.5c0.5,0,1,0,1.6,0c0,1.5,0,3.1,0,4.7c0.6-0.3,1-0.5,1.5-0.7c0.1,0,0.1-0.3,0.1-0.4
		c0-0.9,0-1.8,0-2.7c0.5,0,1,0,1.6,0c0,0.9,0,1.7,0,2.6c0.6-0.1,1.1-0.1,1.6-0.2c0-1.8,0-3.7,0-5.6c0.6,0,1,0,1.6,0
		c0,1.9,0,3.7,0,5.6c0.6,0.1,1.1,0.2,1.6,0.2c0-2.5,0-4.9,0-7.4c0.5,0,1.1,0,1.6,0c0,0.2,0,0.4,0,0.6c0,2.3,0,4.6,0,6.9
		c0,0.3,0.1,0.5,0.4,0.6c0.4,0.1,0.8,0.3,1.2,0.6c0-1.8,0-3.6,0-5.4c0.6,0,1.1,0,1.6,0c0,0.2,0,0.3,0,0.5c0,1.9,0,3.8,0,5.7
		c0,0.3,0.1,0.5,0.3,0.7c0.5,0.4,0.9,0.8,1.3,1.1c0-1.5,0-3.1,0-4.8c0.5,0,1.1,0,1.6,0c0,0.2,0,0.3,0,0.5c0,2.3,0,4.6,0,6.9
		c0,0.2,0,0.5,0.1,0.7c0.6,1.7,0.8,3.4,0.6,5.2c0,0.1,0,0.1,0,0.2c0.3,0,0.6,0,0.9,0c0,0.5,0,1.1,0,1.6c0,0-0.1,0-0.1,0
		c-0.9-0.2-1.4,0.2-1.5,1.1c0,0.2-0.1,0.4-0.3,0.6c-0.3,0.4-0.2,0.7,0.2,1.1c2.3,2.3,4.6,4.6,6.9,6.9c0.6,0.6,0.6,1,0,1.6
		c-0.6,0.6-1.3,1.3-1.9,1.9c-0.2,0.2-0.4,0.3-0.6,0.5C44.5-15.7,44.3-15.7,44.2-15.7z M39.6-32.5c0-5.3-4.3-9.6-9.6-9.6
		c-5.3,0-9.6,4.3-9.6,9.6c0,5.3,4.3,9.6,9.6,9.6C35.3-22.9,39.6-27.1,39.6-32.5z M45.6-18.8c-2.3-2.3-4.5-4.5-6.8-6.8
		c-0.4,0.4-0.7,0.8-1.2,1.3c2.2,2.2,4.5,4.5,6.7,6.7C44.8-18,45.2-18.4,45.6-18.8z"/>
	<path class="st1" d="M19.6-25.2c0,0.6,0,1.1,0,1.6c-0.1,0-0.2,0-0.3,0c-3.4,0-6.7,0-10.1,0c-2,0-3.5-1.3-3.9-3.2
		c-0.1-0.4-0.1-0.8-0.1-1.2c0-8.3,0-16.7,0-25c0-2.6,1.7-4.3,4.3-4.3c10.5,0,20.9,0,31.4,0c2.6,0,4.3,1.7,4.3,4.3
		c0,8.4,0,16.7,0,25.1c0,1.1-0.3,2-1,2.8c-0.4-0.3-0.8-0.7-1.2-1c0.7-0.7,0.6-1.6,0.6-2.5c0-8.1,0-16.2,0-24.4
		c0-1.8-0.9-2.7-2.7-2.7c-10.4,0-20.9,0-31.3,0c-1.8,0-2.7,0.9-2.7,2.7c0,8.3,0,16.6,0,24.9c0,1.8,0.9,2.7,2.7,2.7
		c3.1,0,6.3,0,9.4,0C19.2-25.2,19.3-25.2,19.6-25.2z"/>
	<path class="st1" d="M40.4-58.9c-0.5,0-1,0-1.6,0c0-0.2,0-0.4,0-0.6c0-1.5-1-2.6-2.6-2.6c-5.8,0-11.7,0-17.5,0c-4.7,0-9.3,0-14,0
		c-1.8,0-2.8,0.9-2.8,2.7C2-51,2-42.7,2-34.4c0,1.3,0.5,2.2,1.8,2.7c-0.1,0.5-0.2,1-0.4,1.5c-0.8-0.2-1.5-0.6-2-1.2
		c-0.7-0.8-1-1.7-1-2.7c0-8.5,0-17,0-25.5c0-2.4,1.8-4.1,4.2-4.1c10.5,0,21.1,0,31.6,0C38.9-63.7,40.7-61.7,40.4-58.9z"/>
	<path class="st1" d="M13.2-42c0.5,0,1,0,1.5,0c0,3.2,0,6.4,0,9.6c-0.5,0-1,0-1.5,0C13.2-35.7,13.2-38.8,13.2-42z"/>
	<path class="st1" d="M16.4-39.6c0.5,0,1,0,1.5,0c0,2.4,0,4.8,0,7.2c-0.5,0-1,0-1.5,0C16.4-34.9,16.4-37.2,16.4-39.6z"/>
	<path class="st1" d="M11.6-32.5c-0.5,0-1,0-1.5,0c0-1.6,0-3.1,0-4.7c0.5,0,1,0,1.5,0C11.6-35.6,11.6-34.1,11.6-32.5z"/>
	<path class="st1" d="M5.2-58.9c-0.5,0-1,0-1.5,0c0-0.5,0-1,0-1.5c0.5,0,1,0,1.5,0C5.2-59.9,5.2-59.4,5.2-58.9z"/>
	<path class="st1" d="M8.4-60.4c0,0.5,0,1,0,1.6c-0.5,0-1,0-1.5,0c0-0.5,0-1,0-1.6C7.4-60.4,7.9-60.4,8.4-60.4z"/>
	<path class="st1" d="M10-58.9c0-0.5,0-1,0-1.5c0.5,0,1,0,1.5,0c0,0.5,0,1,0,1.5C11.1-58.9,10.6-58.9,10-58.9z"/>
	<path class="st1" d="M16.4-52.5c-0.6,0-1,0-1.5,0c0-0.5,0-1,0-1.6c0.5,0,1,0,1.5,0C16.4-53.5,16.4-53,16.4-52.5z"/>
	<path class="st1" d="M10-54c0,0.5,0,1,0,1.5c-0.5,0-1,0-1.6,0c0-0.5,0-1,0-1.5C8.9-54,9.4-54,10-54z"/>
	<path class="st1" d="M11.6-54c0.5,0,1,0,1.5,0c0,0.5,0,1,0,1.5c-0.5,0-1,0-1.5,0C11.6-53,11.6-53.5,11.6-54z"/>
	<path class="st1" d="M30-40.5c4.4,0,8,3.6,8,8c0,4.4-3.6,8-8,8c-4.4,0-8-3.6-8-8C22-36.9,25.6-40.5,30-40.5z M26-37.3
		c-2,1.4-2.9,4.6-2.1,6.5c4.1,0,8.2,0,12.3,0c0.8-2.2-0.3-5.3-2.2-6.5c0,1.6,0,3.2,0,4.8c-0.5,0-1.1,0-1.6,0c0-0.2,0-0.4,0-0.5
		c0-1.6,0-3.3,0-4.9c0-0.2-0.1-0.4-0.2-0.5c-0.4-0.2-0.9-0.3-1.4-0.4c0,2.2,0,4.3,0,6.4c-0.6,0-1,0-1.6,0c0-2.1,0-4.2,0-6.3
		c-0.4,0.1-0.8,0.2-1.2,0.3c-0.3,0.1-0.4,0.2-0.4,0.6c0,1.6,0,3.2,0,4.8c0,0.2,0,0.4,0,0.7c-0.6,0-1.1,0-1.6,0
		C26-34.1,26-35.7,26-37.3z M35.5-29.2c-3.7,0-7.3,0-11.1,0c1.4,2.1,3.2,3.2,5.6,3.1C32.4-26.1,34.2-27.2,35.5-29.2z"/>
</g>
<g>
	<path d="M205.6,4c1.1,1.1,2.2,2.2,3.3,3.3c-0.4,0.7-0.9,1.4-1.3,2.2c-0.4,0.6,0,1.5,0.7,1.7c0.4,0.1,0.8,0.2,1.3,0.3
		c0.4,0.1,0.8,0.2,1.3,0.3c0,1.5,0,3,0,4.6c-0.8,0.2-1.7,0.4-2.5,0.6c-0.7,0.2-1.1,1.1-0.7,1.7c0.4,0.7,0.9,1.5,1.3,2.2
		c-1.1,1.1-2.2,2.1-3.3,3.3c-0.7-0.4-1.4-0.9-2.2-1.3c-0.6-0.4-1.5,0-1.7,0.7c-0.2,0.8-0.4,1.7-0.6,2.5c-1.5,0-3,0-4.6,0
		c-0.2-0.8-0.4-1.7-0.6-2.5c-0.2-0.7-1.1-1.1-1.7-0.7c-0.7,0.4-1.5,0.9-2.2,1.3c-1.1-1.1-2.2-2.2-3.3-3.3c0.4-0.7,0.8-1.4,1.3-2.1
		c0.5-0.8,0.1-1.7-0.8-1.9c-0.8-0.2-1.6-0.4-2.4-0.6c0-1.5,0-3,0-4.6c0.8-0.2,1.7-0.4,2.5-0.6c0.7-0.2,1.1-1.1,0.7-1.7
		c-0.4-0.7-0.9-1.5-1.3-2.2c1.1-1.1,2.2-2.2,3.3-3.3c0.7,0.4,1.4,0.9,2.2,1.3c0.6,0.4,1.5,0,1.7-0.7c0.2-0.8,0.4-1.7,0.6-2.5
		c1.5,0,3,0,4.6,0c0.2,0.8,0.4,1.7,0.6,2.5c0.2,0.7,1.1,1.1,1.7,0.7C204.2,4.9,205,4.4,205.6,4z M208.6,14.6
		c0.1-1.1,0.1-1.2-0.4-1.2c-1.7-0.1-2.5-1-2.8-2.5c0-0.2-0.2-0.4-0.3-0.6c-0.2-0.4-0.2-0.7,0.1-1.1c0.4-0.5,0.7-1.1,1-1.6
		c-0.3-0.3-0.5-0.6-0.7-0.9c-0.6,0.4-1.2,0.8-1.7,1c-0.2,0.1-0.6,0.2-0.9,0.1c-0.8-0.3-1.6-0.6-2.4-1c-0.2-0.1-0.4-0.4-0.5-0.6
		c-0.2-0.6-0.3-1.3-0.5-1.9c-1.1-0.1-1.2-0.1-1.2,0.4c-0.1,1.8-1.1,2.6-2.7,3c-0.2,0-0.4,0.2-0.6,0.2c-0.3,0-0.7,0.1-0.9-0.1
		c-0.6-0.3-1.1-0.7-1.6-1c-0.3,0.3-0.6,0.5-1,0.8c1.8,1.4,1.3,2.9,0.5,4.4c-0.1,0.1-0.1,0.3-0.2,0.4c-0.2,0.2-0.4,0.4-0.6,0.5
		c-0.6,0.2-1.3,0.3-1.9,0.5c-0.1,1.1-0.1,1.2,0.4,1.2c1.7,0,2.5,1.1,2.9,2.6c0,0.2,0.1,0.4,0.2,0.6c0.2,0.4,0.2,0.7-0.1,1.1
		c-0.4,0.5-0.7,1.1-0.9,1.5c0.3,0.4,0.5,0.7,0.7,1c0.8-0.5,1.5-1.1,2.2-1.2c0.8,0,1.6,0.5,2.3,0.9c0.1,0.1,0.3,0.1,0.4,0.2
		c0.2,0.2,0.4,0.4,0.5,0.6c0.2,0.6,0.3,1.3,0.5,1.9c0.4,0,0.8,0,1.1,0c0.3-0.8,0.3-1.8,0.8-2.4c0.5-0.6,1.6-0.7,2.3-1.1
		c0.5-0.3,1-0.3,1.4,0.1c0.4,0.3,1,0.6,1.4,0.9c0.3-0.3,0.6-0.5,1-0.8c-1.6-1.3-1.4-2.7-0.6-4.3c0.4-0.7,0.7-1.2,1.5-1.3
		C207.7,14.9,208.1,14.8,208.6,14.6z"/>
	<path d="M225.1,39.2c-5.9,0-11.6,0-17.4,0c0-0.2,0-0.4,0-0.6c0-3.8,0-7.6,0-11.4c0-0.4,0.1-0.7,0.5-0.9c2.6-1.5,5.2-3,7.8-4.4
		c0.2-0.1,0.6-0.1,0.8,0c2.6,1.5,5.3,3,7.9,4.5c0.2,0.1,0.4,0.4,0.4,0.6C225.1,31,225.1,35,225.1,39.2z M211.9,28.3c3,0,5.8,0,8.8,0
		c0,2.9,0,5.8,0,8.7c0.7,0,1.4,0,2.1,0c0-0.1,0-0.2,0-0.2c0-2.8,0-5.7,0-8.5c0-0.2-0.2-0.5-0.4-0.7c-1.9-1.1-3.7-2.1-5.6-3.2
		c-0.4-0.2-0.6-0.2-1,0c-1.8,1.1-3.7,2.1-5.6,3.2c-0.4,0.2-0.5,0.5-0.5,0.9c0,2.6,0,5.3,0,7.9c0,0.2,0,0.4,0,0.6c0.8,0,1.5,0,2.2,0
		C211.9,34.1,211.9,31.2,211.9,28.3z M214.2,32.6c1.5,0,2.9,0,4.3,0c0-0.7,0-1.4,0-2.1c-1.4,0-2.9,0-4.3,0
		C214.2,31.2,214.2,31.9,214.2,32.6z M214.2,37c1.5,0,2.9,0,4.3,0c0-0.7,0-1.4,0-2.1c-1.5,0-2.9,0-4.3,0
		C214.2,35.6,214.2,36.3,214.2,37z"/>
	<path d="M194.5,28.3c0.8,0,1.4,0,2.2,0c0,1.5,0.1,2.9,0,4.4c-0.5,6.9-5.3,12.4-12.1,13.9c-8.7,1.9-17.4-4.3-18.4-13.1
		c-0.9-8.3,4.5-15.6,12.8-17c1.8-0.3,3.7-0.2,5.6-0.3c0,0.8,0,1.5,0,2.3c-1,0-1.9,0-2.9,0c-1.7,0-3.3,0.2-4.9,0.8
		c-5.5,2-9.2,7.8-8.5,13.5c0.7,6.4,5.4,11.2,11.4,11.8c7.1,0.8,13.4-3.9,14.6-10.9c0.1-0.8,0.1-1.7,0.2-2.5
		C194.5,30.2,194.5,29.3,194.5,28.3z"/>
	<path d="M203.2-0.2c-0.7,0-1.4,0-2.1,0c-0.2-3.4-0.1-6.7,1.5-9.8c3-5.8,7.8-8.7,14.3-8.7c7.5,0.1,14,6.1,14.7,13.6
		c0.8,8.3-4.6,15.4-12.8,16.8c-0.7,0.1-1.4,0.2-2,0.2c-1.2,0-2.4,0-3.6,0c0-0.7,0-1.4,0-2.2c0.6,0,1.2,0,1.7,0c2,0,4-0.1,5.9-0.8
		c5.7-2,9.2-7.7,8.6-13.4c-0.6-6.4-5.3-11.2-11.5-11.9c-7.7-0.9-14.5,5-14.7,12.8C203.2-2.5,203.2-1.4,203.2-0.2z"/>
	<path d="M213.1,18.4c0-0.8,0-1.4,0-2.2c1.5,0,2.9-0.1,4.4,0c6.9,0.5,12.4,5.3,13.9,12.1c2,8.7-4.4,17.5-13.3,18.4
		c-8.3,0.8-15.4-4.6-16.8-12.8c-0.1-0.6-0.2-1.3-0.2-1.9c0-1.2,0-2.4,0-3.7c0.7,0,1.4,0,2.2,0c0,1,0,1.9,0,2.9
		c0,1.7,0.2,3.3,0.8,4.8c2,5.6,7.6,9.2,13.4,8.6c6.4-0.6,11.2-5.3,11.9-11.5c0.8-7-3.9-13.3-10.9-14.5c-0.8-0.1-1.7-0.1-2.5-0.2
		C215,18.4,214,18.4,213.1,18.4z"/>
	<path d="M184.6,9.7c0,0.7,0,1.4,0,2.1c-4.8,0.4-9.3-0.3-13.1-3.5c-8.2-6.9-6.9-19.9,2.5-25.1c9.3-5.1,20.9,0.5,22.5,11.1
		c0.3,1.8,0.2,3.6,0.3,5.5c-0.8,0-1.5,0-2.3,0c0-1,0-2,0-3c0-2-0.4-3.9-1.2-5.7c-2.4-5.3-8.2-8.4-14-7.5
		c-5.8,0.9-10.3,5.6-10.9,11.3c-0.9,7.9,5,14.6,13,14.7C182.4,9.7,183.4,9.7,184.6,9.7z"/>
	<path d="M216.3,4.2c-1.8,0-3.5,0-5.3,0c-2,0-3.4-1.4-3.4-3.4c0-2.8,0-5.6,0-8.5c0-2,1.4-3.4,3.4-3.4c3.6,0,7.1,0,10.7,0
		c2,0,3.4,1.4,3.4,3.4c0,2.9,0,5.7,0,8.6c0,1.9-1.4,3.3-3.3,3.3C219.9,4.2,218.1,4.2,216.3,4.2z M218.5-8.9c0,2.2,0,4.4,0,6.5
		c-2.2,0-4.3,0-6.5,0c0-2.2,0-4.3,0-6.5c-0.4,0-0.7,0-1,0c-0.7,0-1.2,0.4-1.2,1.2c0,2.9,0,5.7,0,8.6c0,0.7,0.4,1.2,1.1,1.2
		c3.6,0,7.2,0,10.8,0c0.7,0,1.2-0.4,1.2-1.1c0-2.9,0-5.8,0-8.7c0-0.7-0.4-1.1-1.1-1.1C220.7-8.9,219.6-8.9,218.5-8.9z M214.2-8.9
		c0,1.5,0,2.9,0,4.3c0.7,0,1.4,0,2.1,0c0-1.5,0-2.9,0-4.3C215.6-8.9,214.9-8.9,214.2-8.9z"/>
	<path d="M189-10.4c0,2,0,3.8,0,5.7c0,1.9,0,3.7,0,5.6c0.4,0,0.7,0,1,0c0,0.7,0,1.4,0,2.2c-5.8,0-11.6,0-17.4,0c0-0.7,0-1.4,0-2.1
		c0.3,0,0.6,0,1,0c0-2.8,0-5.6,0-8.4c1-0.3,1.8-0.6,2.8-0.9c0.4-0.1,0.6-0.3,0.6-0.8c0-1.3,0-2.7,0-4.1c0.7,0,1.4,0,2.2,0
		c0,1.3,0,2.5,0,3.9c1.1-0.4,2.2-0.7,3.3-1.1c0,0.7,0,1.4,0,2.2c0.7-0.2,1.3-0.4,1.9-0.7c0.1-0.1,0.3-0.3,0.3-0.5c0-1.2,0-2.5,0-3.8
		c0.7,0,1.4,0,2.2,0c0,1.1,0,2.3,0,3.5C187.5-9.9,188.2-10.1,189-10.4z M180.2,0.9c0-2.8,0-5.5,0-8.3c-1.3,0.4-2.5,0.8-3.7,1.2
		c-0.5,0.1-0.7,0.4-0.7,0.9c0,1.8,0,3.7,0,5.5c0,0.2,0,0.4,0,0.6C177.4,0.9,178.8,0.9,180.2,0.9z M182.4,0.9c1.5,0,2.9,0,4.3,0
		c0-2.8,0-5.5,0-8.3c-1.4,0.5-2.7,0.9-4,1.4c-0.1,0-0.3,0.3-0.3,0.4C182.4-3.4,182.4-1.3,182.4,0.9z"/>
	<path d="M181.3,41.4c-1.4,0-2.8,0-4.2,0c-2,0-3.4-1.4-3.4-3.4c0-1.4,0-2.7,0-4.1c0-1.2,0.5-2.1,1.4-2.8c0.8-0.6,1.5-1.2,2.3-1.7
		c0.4-0.3,0.5-0.5,0.3-1c-0.4-1.1-0.8-2.2-0.7-3.4c0.1-2.4,2-4.3,4.4-4.3c2.4,0,4.4,1.9,4.3,4.3c0,1-0.3,2.1-0.6,3.1
		c-0.2,0.7-0.1,1.1,0.5,1.5c0.7,0.4,1.4,1,2,1.5c0.9,0.7,1.4,1.6,1.4,2.8c0,1.4,0,2.7,0,4.1c0,2-1.4,3.4-3.4,3.4
		C184.2,41.4,182.7,41.4,181.3,41.4z M181.3,39.2c1.4,0,2.8,0,4.2,0c0.9,0,1.3-0.4,1.3-1.3c0-1.3,0-2.6,0-3.9c0-0.6-0.2-1-0.7-1.3
		c-1.2-0.8-2.3-1.7-3.4-2.6c-0.3-0.3-0.5-0.5-0.3-0.9c0.3-0.9,0.7-1.8,0.9-2.7c0.1-0.6,0.2-1.2,0.2-1.7c-0.1-1-0.9-1.9-2-2
		c-1-0.1-2,0.5-2.2,1.5c-0.1,0.7-0.1,1.4,0.1,2.1c0.2,1,0.6,1.9,0.9,2.8c0.1,0.4,0.1,0.6-0.3,0.8c-1.2,0.9-2.4,1.7-3.5,2.7
		c-0.3,0.3-0.6,0.8-0.6,1.2c-0.1,1.3,0,2.6,0,3.9c0,1,0.4,1.4,1.4,1.4C178.6,39.2,180,39.2,181.3,39.2z"/>
	<path d="M198.8,18.4c-2.4,0-4.4-2-4.4-4.4c0-2.4,2-4.4,4.4-4.4c2.4,0,4.4,2,4.3,4.4C203.2,16.5,201.2,18.4,198.8,18.4z M201,14.1
		c0-1.2-1-2.2-2.2-2.2c-1.2,0-2.2,1-2.2,2.2c0,1.2,1,2.2,2.2,2.2C200,16.2,201,15.3,201,14.1z"/>
</g>
</svg>
