<svg width="48" height="48" viewBox="0 0 48 48" fill="none" xmlns="http://www.w3.org/2000/svg">
<g clip-path="url(#clip0_1854_2273)">
<path d="M8.15012 48.2799C8.12012 47.9099 8.08012 47.5399 8.07012 47.1699C8.06012 46.5899 8.07012 46.0099 8.07012 45.4199C8.53012 45.4199 8.87012 45.4199 9.19012 45.4199C9.19012 46.3999 9.19012 47.3399 9.19012 48.2799C8.84012 48.2799 8.49012 48.2799 8.15012 48.2799Z" fill="#00BAA4"/>
<path d="M46.06 26.94C46.08 27.06 46.09 27.14 46.12 27.21C46.67 28.29 46.57 29.37 46.2 30.5C45.81 31.68 45.57 32.91 45.21 34.1C44.97 34.91 44.64 35.69 44.36 36.44C44.46 36.84 44.62 37.26 44.65 37.69C44.7 38.57 44.66 39.46 44.66 40.31C44.74 40.36 44.76 40.39 44.79 40.39C45.89 40.46 45.9 40.47 45.91 41.59C45.94 43.6 45.97 45.61 46 47.61C46 47.78 46 47.95 46 48.15C45.62 48.15 45.28 48.15 44.83 48.15C44.83 45.97 44.83 43.78 44.83 41.63C39.75 41.63 34.78 41.63 29.81 41.63C29.81 43.85 29.81 45.98 29.81 48.14C29.47 48.14 29.12 48.14 28.73 48.14C28.72 47.86 28.7 47.58 28.69 47.3C28.66 45.29 28.63 43.28 28.61 41.27C28.6 40.7 28.79 40.52 29.38 40.51C29.49 40.51 29.6 40.51 29.78 40.51C29.78 40.04 29.78 39.59 29.78 39.14C29.78 38.7 29.78 38.25 29.76 37.81C29.73 37.27 29.82 36.8 30.24 36.53C29.9 35.67 29.57 34.84 29.2 33.91C28.85 34.14 28.47 34.39 28.09 34.63C27.85 34.78 27.62 34.95 27.36 35.06C25.38 35.96 23.39 36.84 21.4 37.73C21.01 37.91 20.63 38.05 20.26 37.7C19.9 37.35 20 36.98 20.17 36.57C20.8 34.97 19.98 33.2 18.36 32.66C16.76 32.12 15.05 33 14.57 34.64C14.29 35.6 14.42 36.5 15.11 37.25C15.52 37.7 16.01 38.09 16.48 38.49C17.04 38.97 17.01 39.68 16.34 39.99C13.77 41.16 11.19 42.3 8.56001 43.48C8.48001 43.31 8.40001 43.17 8.33001 43.02C5.67001 37.09 3.02001 31.16 0.360014 25.22C-0.389986 23.54 0.0300137 22.4 1.69001 21.64C1.77001 21.6 1.86001 21.56 1.92001 21.53C1.94001 21.49 1.96001 21.47 1.95001 21.46C1.44001 20.51 1.68001 19.59 1.96001 18.63C2.36001 17.28 2.66001 15.91 3.06001 14.57C3.26001 13.88 3.59001 13.23 3.88001 12.49C3.55001 12.18 3.50001 11.68 3.51001 11.15C3.53001 10.33 3.51001 9.50996 3.51001 8.66996C3.42001 8.64996 3.37001 8.61996 3.31001 8.61996C2.33001 8.55996 2.28001 8.49996 2.27001 7.52996C2.24001 5.12996 2.21001 2.71996 2.18001 0.319961C2.18001 0.129961 2.18001 -0.0500391 2.18001 -0.280039C2.55001 -0.280039 2.89001 -0.280039 3.35001 -0.280039C3.35001 2.26996 3.35001 4.82996 3.35001 7.35996C8.43001 7.35996 13.4 7.35996 18.37 7.35996C18.37 4.75996 18.37 2.25996 18.37 -0.290039C18.7 -0.290039 19.04 -0.290039 19.44 -0.290039C19.45 -0.140039 19.47 0.0299609 19.47 0.189961C19.51 2.63996 19.54 5.08996 19.58 7.53996C19.59 8.29996 19.45 8.44996 18.68 8.46996C18.6 8.46996 18.53 8.47996 18.41 8.48996C18.41 9.39996 18.39 10.29 18.42 11.19C18.43 11.71 18.35 12.17 17.88 12.46C18.15 12.99 18.4 13.48 18.68 14.03C21.29 12.94 23.91 11.85 26.58 10.74C25.65 10.14 25 9.37996 24.68 8.35996C24.36 7.32996 24.44 6.32996 24.9 5.35996C25.69 3.67996 27.53 2.73996 29.38 3.09996C30.54 3.31996 31.44 3.94996 32.08 4.93996C32.72 5.92996 32.67 7.03996 32.64 8.19996C35.15 7.15996 37.6 6.12996 40.09 5.09996C40.7 6.55996 41.29 7.96996 41.87 9.37996C43.83 14.08 45.8 18.78 47.76 23.49C48.36 24.93 47.86 26.12 46.43 26.75C46.31 26.81 46.2 26.87 46.06 26.94ZM2.33001 22.65C1.19001 23 0.880014 23.64 1.34001 24.66C3.86001 30.3 6.38001 35.93 8.90001 41.56C8.96001 41.7 9.04001 41.83 9.12001 41.98C11.24 41.03 13.3 40.1 15.41 39.16C14.54 38.4 13.72 37.67 13.42 36.56C13.12 35.45 13.29 34.4 13.86 33.41C14.77 31.84 16.66 31.06 18.43 31.52C19.31 31.75 20.05 32.22 20.62 32.94C21.42 33.97 21.67 35.14 21.42 36.46C21.61 36.38 21.74 36.33 21.87 36.28C23.54 35.53 25.21 34.79 26.88 34.04C27.55 33.74 27.66 33.45 27.35 32.77C26.49 30.86 25.63 28.94 24.77 27.03C24.39 26.17 24.81 25.58 25.73 25.62C26.25 25.64 26.77 25.67 27.29 25.62C28.74 25.49 29.77 24.35 29.78 22.9C29.79 21.42 28.73 20.17 27.32 20C25.85 19.82 24.61 20.56 24.06 21.96C23.91 22.35 23.68 22.64 23.25 22.64C22.84 22.65 22.59 22.38 22.46 22.01C22.43 21.94 22.4 21.86 22.37 21.79C21.47 19.74 20.58 17.69 19.67 15.63C19.42 15.06 19.29 15.02 18.73 15.27C15.69 16.63 12.65 17.99 9.62001 19.36C9.46001 19.43 9.31001 19.57 9.18001 19.7C8.68001 20.16 8.18001 20.61 7.70001 21.09C7.60001 21.19 7.51001 21.37 7.53001 21.5C7.64001 22.31 7.81001 23.12 7.92001 23.93C8.04001 24.89 8.33001 25.84 8.14001 26.84C7.86001 28.37 6.96001 29.24 5.60001 29.23C4.87001 29.22 4.29001 28.81 4.07001 28.11C3.94001 27.71 3.81001 27.3 3.68001 26.89C3.24001 25.46 2.78001 24.06 2.33001 22.65ZM28.65 32.94C28.81 32.88 28.93 32.85 29.04 32.8C31.88 31.61 34.72 30.43 37.55 29.23C38.52 28.82 39.48 28.37 40.43 27.92C40.54 27.87 40.64 27.62 40.62 27.48C40.49 26.53 40.34 25.58 40.17 24.63C39.96 23.47 39.79 22.32 40.33 21.2C40.78 20.27 41.54 19.81 42.56 19.78C43.27 19.76 43.87 20.21 44.1 20.9C44.2 21.21 44.3 21.53 44.4 21.85C44.82 23.17 45.25 24.48 45.67 25.8C46.76 25.54 47.09 24.86 46.66 23.84C44.56 18.82 42.46 13.8 40.36 8.77996C40.06 8.06996 39.76 7.35996 39.46 6.63996C39.25 6.72996 39.07 6.78996 38.9 6.85996C36.85 7.71996 34.8 8.57996 32.74 9.42996C31.93 9.76996 31.33 9.26996 31.42 8.38996C31.48 7.86996 31.51 7.34996 31.48 6.82996C31.38 5.14996 29.89 4.01996 28.12 4.23996C26.58 4.42996 25.38 6.03996 25.64 7.55996C25.84 8.74996 26.5 9.55996 27.64 9.98996C28.14 10.18 28.39 10.5 28.23 10.91C28.13 11.17 27.88 11.44 27.62 11.55C25.65 12.39 23.66 13.2 21.68 14.02C21.27 14.19 20.85 14.37 20.45 14.54C21.39 16.65 22.32 18.71 23.26 20.8C24.72 18.51 26.93 18.35 28.39 18.91C30.17 19.59 31.23 21.36 31 23.29C30.89 24.23 30.51 25.08 29.84 25.78C28.82 26.87 27.5 27.06 26.04 27C26.92 29 27.78 30.95 28.65 32.94ZM38.45 30.18C38.35 30.17 38.32 30.16 38.3 30.17C35.77 31.22 33.23 32.28 30.71 33.35C30.59 33.4 30.46 33.64 30.48 33.77C30.59 34.63 30.91 35.42 31.5 36.07C31.63 36.21 31.87 36.33 32.05 36.33C35.58 36.35 39.1 36.34 42.63 36.33C42.77 36.33 42.97 36.27 43.03 36.17C43.34 35.64 43.72 35.13 43.89 34.55C44.43 32.75 44.88 30.93 45.36 29.12C45.41 28.94 45.41 28.71 45.35 28.53C44.6 26.15 43.83 23.79 43.08 21.41C42.94 20.96 42.64 20.81 42.26 20.95C41.96 21.06 41.63 21.28 41.46 21.55C41.11 22.09 41.01 22.72 41.12 23.37C41.38 24.94 41.64 26.51 41.91 28.09C41.96 28.35 41.89 28.48 41.64 28.59C40.73 28.97 40.06 29.62 39.6 30.49C39.43 30.82 39.25 31.15 39.06 31.52C38.71 31.36 38.39 31.21 38.05 31.05C38.18 30.75 38.3 30.48 38.45 30.18ZM17.63 14.51C17.36 14.02 17.12 13.56 16.86 13.12C16.69 12.82 16.44 12.7 16.08 12.72C15.53 12.76 14.97 12.75 14.42 12.75C11.48 12.77 8.54001 12.78 5.60001 12.81C5.41001 12.81 5.14001 12.86 5.06001 12.98C4.76001 13.42 4.44001 13.88 4.29001 14.38C3.76001 16.21 3.29001 18.06 2.80001 19.9C2.76001 20.05 2.76001 20.24 2.81001 20.4C3.57001 22.8 4.34001 25.2 5.10001 27.61C5.23001 28.01 5.51001 28.17 5.86001 28.04C6.18001 27.92 6.59001 27.71 6.69001 27.43C6.91001 26.88 7.09001 26.24 7.03001 25.66C6.85001 24.06 6.54001 22.48 6.27001 20.9C6.22001 20.61 6.29001 20.48 6.56001 20.37C7.31001 20.06 7.88001 19.53 8.35001 18.87C8.49001 18.68 8.69001 18.5 8.91001 18.4C10.76 17.56 12.62 16.73 14.48 15.9C15.51 15.46 16.53 15 17.63 14.51ZM17.26 11.59C17.26 10.65 17.24 9.81996 17.27 8.97996C17.28 8.58996 17.15 8.49996 16.78 8.49996C14.96 8.52996 13.15 8.54996 11.33 8.55996C9.26001 8.57996 7.19001 8.58996 5.12001 8.60996C4.96001 8.60996 4.67001 8.74996 4.67001 8.83996C4.64001 9.75996 4.65001 10.69 4.65001 11.59C8.92001 11.59 13.07 11.59 17.26 11.59ZM30.92 37.53C30.92 38.38 30.94 39.17 30.91 39.96C30.89 40.39 31.05 40.5 31.46 40.49C33.12 40.45 34.78 40.44 36.43 40.43C38.63 40.41 40.82 40.41 43.02 40.39C43.2 40.39 43.52 40.28 43.52 40.21C43.55 39.32 43.54 38.43 43.54 37.54C39.27 37.53 35.12 37.53 30.92 37.53Z" fill="#00BAA4"/>
<path d="M41 2.64006C40.67 2.64006 40.34 2.64006 39.99 2.64006C39.99 1.70006 39.99 0.780064 39.99 -0.139936C40.08 -0.169936 40.12 -0.199936 40.16 -0.199936C41.16 -0.239936 41.16 -0.239936 41.11 0.760064C41.08 1.36006 41.07 1.96006 41.05 2.56006C41.06 2.57006 41.04 2.59006 41 2.64006Z" fill="#00BAA4"/>
<path d="M4.76996 43.77C5.12996 43.96 5.43996 44.11 5.77996 44.29C5.33996 45.14 4.91996 45.95 4.47996 46.81C4.13996 46.64 3.81996 46.48 3.45996 46.3C3.89996 45.45 4.31996 44.63 4.76996 43.77Z" fill="#00BAA4"/>
<path d="M35.3601 1.79002C35.7101 1.61002 36.0201 1.45002 36.3701 1.27002C36.8101 2.12002 37.2301 2.94002 37.6701 3.79002C37.3301 3.97002 37.0101 4.13002 36.6601 4.31002C36.2201 3.46002 35.8001 2.64002 35.3601 1.79002Z" fill="#00BAA4"/>
<path d="M44.48 4.36005C44.11 4.16005 43.81 4.00005 43.48 3.82005C43.92 2.97005 44.34 2.16005 44.78 1.30005C45.13 1.48005 45.44 1.64005 45.79 1.82005C45.35 2.68005 44.92 3.50005 44.48 4.36005Z" fill="#00BAA4"/>
<path d="M12.5901 43.72C13.0301 44.56 13.4501 45.38 13.8901 46.24C13.5501 46.42 13.2301 46.58 12.8801 46.77C12.4401 45.92 12.0201 45.1 11.5801 44.25C11.9301 44.07 12.2401 43.91 12.5901 43.72Z" fill="#00BAA4"/>
</g>
<defs>
<clipPath id="clip0_1854_2273">
<rect width="48" height="48" fill="white"/>
</clipPath>
</defs>
</svg>
