<?xml version="1.0" encoding="utf-8"?>
<!-- Generator: Adobe Illustrator 26.0.1, SVG Export Plug-In . SVG Version: 6.00 Build 0)  -->
<svg version="1.1" id="Layer_1" xmlns="http://www.w3.org/2000/svg" xmlns:xlink="http://www.w3.org/1999/xlink" x="0px" y="0px"
	 viewBox="0 0 48 48" style="enable-background:new 0 0 48 48;" xml:space="preserve">
<style type="text/css">
	.st0{fill:#414141;}
</style>
<g>
	<path class="st0" d="M8.15,48.28c-0.03-0.37-0.07-0.74-0.08-1.11c-0.01-0.58,0-1.16,0-1.75c0.46,0,0.8,0,1.12,0
		c0,0.98,0,1.92,0,2.86C8.84,48.28,8.49,48.28,8.15,48.28z"/>
	<path class="st0" d="M46.06,26.94c0.02,0.12,0.03,0.2,0.06,0.27c0.55,1.08,0.45,2.16,0.08,3.29c-0.39,1.18-0.63,2.41-0.99,3.6
		c-0.24,0.81-0.57,1.59-0.85,2.34c0.1,0.4,0.26,0.82,0.29,1.25c0.05,0.88,0.01,1.77,0.01,2.62c0.08,0.05,0.1,0.08,0.13,0.08
		c1.1,0.07,1.11,0.08,1.12,1.2c0.03,2.01,0.06,4.02,0.09,6.02c0,0.17,0,0.34,0,0.54c-0.38,0-0.72,0-1.17,0c0-2.18,0-4.37,0-6.52
		c-5.08,0-10.05,0-15.02,0c0,2.22,0,4.35,0,6.51c-0.34,0-0.69,0-1.08,0c-0.01-0.28-0.03-0.56-0.04-0.84
		c-0.03-2.01-0.06-4.02-0.08-6.03c-0.01-0.57,0.18-0.75,0.77-0.76c0.11,0,0.22,0,0.4,0c0-0.47,0-0.92,0-1.37
		c0-0.44,0-0.89-0.02-1.33c-0.03-0.54,0.06-1.01,0.48-1.28c-0.34-0.86-0.67-1.69-1.04-2.62c-0.35,0.23-0.73,0.48-1.11,0.72
		c-0.24,0.15-0.47,0.32-0.73,0.43c-1.98,0.9-3.97,1.78-5.96,2.67c-0.39,0.18-0.77,0.32-1.14-0.03c-0.36-0.35-0.26-0.72-0.09-1.13
		c0.63-1.6-0.19-3.37-1.81-3.91c-1.6-0.54-3.31,0.34-3.79,1.98c-0.28,0.96-0.15,1.86,0.54,2.61c0.41,0.45,0.9,0.84,1.37,1.24
		c0.56,0.48,0.53,1.19-0.14,1.5c-2.57,1.17-5.15,2.31-7.78,3.49c-0.08-0.17-0.16-0.31-0.23-0.46c-2.66-5.93-5.31-11.86-7.97-17.8
		c-0.75-1.68-0.33-2.82,1.33-3.58c0.08-0.04,0.17-0.08,0.23-0.11c0.02-0.04,0.04-0.06,0.03-0.07c-0.51-0.95-0.27-1.87,0.01-2.83
		c0.4-1.35,0.7-2.72,1.1-4.06c0.2-0.69,0.53-1.34,0.82-2.08c-0.33-0.31-0.38-0.81-0.37-1.34c0.02-0.82,0-1.64,0-2.48
		c-0.09-0.02-0.14-0.05-0.2-0.05C2.33,8.56,2.28,8.5,2.27,7.53c-0.03-2.4-0.06-4.81-0.09-7.21c0-0.19,0-0.37,0-0.6
		c0.37,0,0.71,0,1.17,0c0,2.55,0,5.11,0,7.64c5.08,0,10.05,0,15.02,0c0-2.6,0-5.1,0-7.65c0.33,0,0.67,0,1.07,0
		c0.01,0.15,0.03,0.32,0.03,0.48c0.04,2.45,0.07,4.9,0.11,7.35c0.01,0.76-0.13,0.91-0.9,0.93c-0.08,0-0.15,0.01-0.27,0.02
		c0,0.91-0.02,1.8,0.01,2.7c0.01,0.52-0.07,0.98-0.54,1.27c0.27,0.53,0.52,1.02,0.8,1.57c2.61-1.09,5.23-2.18,7.9-3.29
		c-0.93-0.6-1.58-1.36-1.9-2.38c-0.32-1.03-0.24-2.03,0.22-3c0.79-1.68,2.63-2.62,4.48-2.26c1.16,0.22,2.06,0.85,2.7,1.84
		c0.64,0.99,0.59,2.1,0.56,3.26c2.51-1.04,4.96-2.07,7.45-3.1c0.61,1.46,1.2,2.87,1.78,4.28c1.96,4.7,3.93,9.4,5.89,14.11
		c0.6,1.44,0.1,2.63-1.33,3.26C46.31,26.81,46.2,26.87,46.06,26.94z M2.33,22.65C1.19,23,0.88,23.64,1.34,24.66
		C3.86,30.3,6.38,35.93,8.9,41.56c0.06,0.14,0.14,0.27,0.22,0.42c2.12-0.95,4.18-1.88,6.29-2.82c-0.87-0.76-1.69-1.49-1.99-2.6
		c-0.3-1.11-0.13-2.16,0.44-3.15c0.91-1.57,2.8-2.35,4.57-1.89c0.88,0.23,1.62,0.7,2.19,1.42c0.8,1.03,1.05,2.2,0.8,3.52
		c0.19-0.08,0.32-0.13,0.45-0.18c1.67-0.75,3.34-1.49,5.01-2.24c0.67-0.3,0.78-0.59,0.47-1.27c-0.86-1.91-1.72-3.83-2.58-5.74
		c-0.38-0.86,0.04-1.45,0.96-1.41c0.52,0.02,1.04,0.05,1.56,0c1.45-0.13,2.48-1.27,2.49-2.72c0.01-1.48-1.05-2.73-2.46-2.9
		c-1.47-0.18-2.71,0.56-3.26,1.96c-0.15,0.39-0.38,0.68-0.81,0.68c-0.41,0.01-0.66-0.26-0.79-0.63c-0.03-0.07-0.06-0.15-0.09-0.22
		c-0.9-2.05-1.79-4.1-2.7-6.16c-0.25-0.57-0.38-0.61-0.94-0.36c-3.04,1.36-6.08,2.72-9.11,4.09c-0.16,0.07-0.31,0.21-0.44,0.34
		c-0.5,0.46-1,0.91-1.48,1.39c-0.1,0.1-0.19,0.28-0.17,0.41c0.11,0.81,0.28,1.62,0.39,2.43c0.12,0.96,0.41,1.91,0.22,2.91
		c-0.28,1.53-1.18,2.4-2.54,2.39c-0.73-0.01-1.31-0.42-1.53-1.12c-0.13-0.4-0.26-0.81-0.39-1.22C3.24,25.46,2.78,24.06,2.33,22.65z
		 M28.65,32.94c0.16-0.06,0.28-0.09,0.39-0.14c2.84-1.19,5.68-2.37,8.51-3.57c0.97-0.41,1.93-0.86,2.88-1.31
		c0.11-0.05,0.21-0.3,0.19-0.44c-0.13-0.95-0.28-1.9-0.45-2.85c-0.21-1.16-0.38-2.31,0.16-3.43c0.45-0.93,1.21-1.39,2.23-1.42
		c0.71-0.02,1.31,0.43,1.54,1.12c0.1,0.31,0.2,0.63,0.3,0.95c0.42,1.32,0.85,2.63,1.27,3.95c1.09-0.26,1.42-0.94,0.99-1.96
		c-2.1-5.02-4.2-10.04-6.3-15.06c-0.3-0.71-0.6-1.42-0.9-2.14c-0.21,0.09-0.39,0.15-0.56,0.22c-2.05,0.86-4.1,1.72-6.16,2.57
		c-0.81,0.34-1.41-0.16-1.32-1.04c0.06-0.52,0.09-1.04,0.06-1.56c-0.1-1.68-1.59-2.81-3.36-2.59c-1.54,0.19-2.74,1.8-2.48,3.32
		c0.2,1.19,0.86,2,2,2.43c0.5,0.19,0.75,0.51,0.59,0.92c-0.1,0.26-0.35,0.53-0.61,0.64c-1.97,0.84-3.96,1.65-5.94,2.47
		c-0.41,0.17-0.83,0.35-1.23,0.52c0.94,2.11,1.87,4.17,2.81,6.26c1.46-2.29,3.67-2.45,5.13-1.89c1.78,0.68,2.84,2.45,2.61,4.38
		c-0.11,0.94-0.49,1.79-1.16,2.49c-1.02,1.09-2.34,1.28-3.8,1.22C26.92,29,27.78,30.95,28.65,32.94z M38.45,30.18
		c-0.1-0.01-0.13-0.02-0.15-0.01c-2.53,1.05-5.07,2.11-7.59,3.18c-0.12,0.05-0.25,0.29-0.23,0.42c0.11,0.86,0.43,1.65,1.02,2.3
		c0.13,0.14,0.37,0.26,0.55,0.26c3.53,0.02,7.05,0.01,10.58,0c0.14,0,0.34-0.06,0.4-0.16c0.31-0.53,0.69-1.04,0.86-1.62
		c0.54-1.8,0.99-3.62,1.47-5.43c0.05-0.18,0.05-0.41-0.01-0.59c-0.75-2.38-1.52-4.74-2.27-7.12c-0.14-0.45-0.44-0.6-0.82-0.46
		c-0.3,0.11-0.63,0.33-0.8,0.6c-0.35,0.54-0.45,1.17-0.34,1.82c0.26,1.57,0.52,3.14,0.79,4.72c0.05,0.26-0.02,0.39-0.27,0.5
		c-0.91,0.38-1.58,1.03-2.04,1.9c-0.17,0.33-0.35,0.66-0.54,1.03c-0.35-0.16-0.67-0.31-1.01-0.47
		C38.18,30.75,38.3,30.48,38.45,30.18z M17.63,14.51c-0.27-0.49-0.51-0.95-0.77-1.39c-0.17-0.3-0.42-0.42-0.78-0.4
		c-0.55,0.04-1.11,0.03-1.66,0.03c-2.94,0.02-5.88,0.03-8.82,0.06c-0.19,0-0.46,0.05-0.54,0.17c-0.3,0.44-0.62,0.9-0.77,1.4
		c-0.53,1.83-1,3.68-1.49,5.52c-0.04,0.15-0.04,0.34,0.01,0.5c0.76,2.4,1.53,4.8,2.29,7.21c0.13,0.4,0.41,0.56,0.76,0.43
		c0.32-0.12,0.73-0.33,0.83-0.61c0.22-0.55,0.4-1.19,0.34-1.77c-0.18-1.6-0.49-3.18-0.76-4.76c-0.05-0.29,0.02-0.42,0.29-0.53
		c0.75-0.31,1.32-0.84,1.79-1.5c0.14-0.19,0.34-0.37,0.56-0.47c1.85-0.84,3.71-1.67,5.57-2.5C15.51,15.46,16.53,15,17.63,14.51z
		 M17.26,11.59c0-0.94-0.02-1.77,0.01-2.61c0.01-0.39-0.12-0.48-0.49-0.48c-1.82,0.03-3.63,0.05-5.45,0.06
		C9.26,8.58,7.19,8.59,5.12,8.61c-0.16,0-0.45,0.14-0.45,0.23c-0.03,0.92-0.02,1.85-0.02,2.75C8.92,11.59,13.07,11.59,17.26,11.59z
		 M30.92,37.53c0,0.85,0.02,1.64-0.01,2.43c-0.02,0.43,0.14,0.54,0.55,0.53c1.66-0.04,3.32-0.05,4.97-0.06
		c2.2-0.02,4.39-0.02,6.59-0.04c0.18,0,0.5-0.11,0.5-0.18c0.03-0.89,0.02-1.78,0.02-2.67C39.27,37.53,35.12,37.53,30.92,37.53z"/>
	<path class="st0" d="M41,2.64c-0.33,0-0.66,0-1.01,0c0-0.94,0-1.86,0-2.78c0.09-0.03,0.13-0.06,0.17-0.06c1-0.04,1-0.04,0.95,0.96
		c-0.03,0.6-0.04,1.2-0.06,1.8C41.06,2.57,41.04,2.59,41,2.64z"/>
	<path class="st0" d="M4.77,43.77c0.36,0.19,0.67,0.34,1.01,0.52c-0.44,0.85-0.86,1.66-1.3,2.52c-0.34-0.17-0.66-0.33-1.02-0.51
		C3.9,45.45,4.32,44.63,4.77,43.77z"/>
	<path class="st0" d="M35.36,1.79c0.35-0.18,0.66-0.34,1.01-0.52c0.44,0.85,0.86,1.67,1.3,2.52c-0.34,0.18-0.66,0.34-1.01,0.52
		C36.22,3.46,35.8,2.64,35.36,1.79z"/>
	<path class="st0" d="M44.48,4.36c-0.37-0.2-0.67-0.36-1-0.54c0.44-0.85,0.86-1.66,1.3-2.52c0.35,0.18,0.66,0.34,1.01,0.52
		C45.35,2.68,44.92,3.5,44.48,4.36z"/>
	<path class="st0" d="M12.59,43.72c0.44,0.84,0.86,1.66,1.3,2.52c-0.34,0.18-0.66,0.34-1.01,0.53c-0.44-0.85-0.86-1.67-1.3-2.52
		C11.93,44.07,12.24,43.91,12.59,43.72z"/>
</g>
<g>
	<path class="st0" d="M110.51,19.46c1.48-0.16,2.94-0.31,4.42-0.46c-0.03-0.08-0.05-0.19-0.1-0.28c-1.08-1.97-1.58-4.09-1.59-6.34
		c-0.01-1.52,0.01-3.04-0.01-4.55c-0.01-0.53,0.2-0.8,0.69-0.99c2.49-0.95,4.96-1.93,7.45-2.88c0.27-0.1,0.64-0.1,0.91,0
		c2.49,0.94,4.96,1.93,7.45,2.87c0.5,0.19,0.68,0.47,0.67,1c-0.03,1.68,0,3.36-0.02,5.03c-0.03,2.32-0.69,4.46-1.9,6.44
		c-0.07,0.12-0.15,0.24-0.25,0.41c0.63,0.37,1.25,0.75,1.89,1.09c0.08,0.05,0.24-0.01,0.35-0.06c0.82-0.35,1.64-0.69,2.45-1.07
		c0.12-0.06,0.24-0.27,0.25-0.41c0.01-0.84,0.47-1.51,1.3-1.74c1.72-0.49,3.43-0.97,5.16-1.43c1-0.27,1.85,0.22,2.15,1.22
		c0.57,1.94,1.13,3.89,1.69,5.83c0.76,2.63,1.52,5.27,2.27,7.9c0.34,1.19-0.13,2.04-1.33,2.37c-1.52,0.43-3.04,0.85-4.56,1.26
		c-1.39,0.38-1.88,0.18-2.62-1.07c-1.29,0.69-2.66,1.1-4.11,1.28c-0.09,0.01-0.2,0.11-0.24,0.19c-0.46,1.04-1.29,1.59-2.39,1.75
		c0.86,2.56-1.49,4.64-3.85,3.64c-0.23,1.24-0.91,2.12-2.15,2.42c-1.25,0.3-2.25-0.2-3.09-1.22c-0.34,1.27-1.06,2.11-2.31,2.36
		c-1.28,0.26-2.21-0.37-3.02-1.32c-0.6,0.32-1.2,0.45-1.84,0.23c-0.63-0.22-1.03-0.67-1.27-1.27c-1.9,0.77-3.43-0.8-2.95-2.43
		c-0.42-0.41-0.93-0.72-1.17-1.18c-0.24-0.46-0.23-1.05-0.34-1.68c-0.7-0.26-1.26-0.81-1.38-1.73c-0.01-0.08-0.04-0.17-0.01-0.24
		c0.2-0.56-0.15-0.85-0.57-1.17c-0.06,0.16-0.11,0.32-0.17,0.47c-0.33,0.87-1.18,1.32-2.08,1.08c-1.71-0.46-3.41-0.94-5.11-1.42
		c-1.08-0.31-1.56-1.17-1.25-2.25c1.14-3.98,2.29-7.96,3.43-11.94c0.18-0.63,0.35-1.26,0.54-1.88c0.3-0.99,1.16-1.48,2.16-1.2
		c1.69,0.45,3.38,0.93,5.07,1.39C110.13,17.77,110.51,18.49,110.51,19.46z M116.8,41.93c0.23,0.23,0.4,0.4,0.58,0.56
		c0.67,0.63,1.65,0.66,2.3,0.08c0.67-0.59,0.74-1.58,0.17-2.33c-0.03-0.04-0.06-0.07-0.09-0.11c-0.19-0.26-0.22-0.55,0.02-0.78
		c0.26-0.25,0.56-0.2,0.81,0.04c0.68,0.67,1.35,1.36,2.04,2.03c0.54,0.52,1.25,0.63,1.9,0.33c0.64-0.3,1-0.95,0.95-1.68
		c-0.04-0.54-0.37-0.9-0.72-1.26c-1.29-1.29-2.58-2.58-3.86-3.87c-0.28-0.28-0.35-0.6-0.05-0.88c0.28-0.27,0.59-0.17,0.84,0.09
		c0.07,0.07,0.14,0.14,0.2,0.2c1.57,1.57,3.14,3.14,4.71,4.71c0.51,0.52,1.11,0.69,1.79,0.48c1.22-0.38,1.54-1.88,0.6-2.83
		c-1.57-1.59-3.16-3.17-4.74-4.75c-0.1-0.1-0.27-0.19-0.29-0.31c-0.04-0.24-0.09-0.55,0.02-0.73c0.18-0.28,0.5-0.24,0.76-0.03
		c0.1,0.08,0.18,0.18,0.27,0.27c1.36,1.35,2.71,2.72,4.08,4.05c0.22,0.21,0.52,0.38,0.82,0.45c0.77,0.18,1.47-0.17,1.83-0.82
		c0.36-0.67,0.25-1.47-0.35-2.06c-2.65-2.66-5.3-5.32-7.97-7.97c-1.04-1.03-2.43-0.98-3.43,0.09c-0.8,0.85-1.57,1.72-2.37,2.57
		c-1.1,1.17-2.76,1.33-4.04,0.41c-1.24-0.89-1.61-2.54-0.87-3.93c0.69-1.3,1.54-2.5,2.58-3.55c0.07-0.07,0.12-0.16,0.18-0.24
		c-0.02-0.04-0.03-0.09-0.05-0.13c-1.66,0.21-3.32,0.41-4.98,0.64c-0.15,0.02-0.36,0.17-0.4,0.3c-1.05,3.59-2.08,7.19-3.11,10.79
		c-0.03,0.1,0,0.25,0.06,0.33c0.24,0.29,0.51,0.56,0.8,0.87c0.6-0.61,1.11-1.17,1.65-1.68c1.09-1.03,2.84-0.57,3.29,0.85
		c0.06,0.19,0.08,0.4,0.13,0.62c1.26,0.13,1.94,0.85,2.07,2.07c1.3,0.21,1.81,0.73,2.04,2.02c0.03,0.01,0.05,0.04,0.08,0.04
		c0.89,0.08,1.55,0.51,1.84,1.38c0.3,0.89,0,1.62-0.66,2.25C117.77,40.98,117.31,41.44,116.8,41.93z M133.53,20.66
		c-0.2,0.08-0.34,0.13-0.49,0.19c-0.85,0.36-1.69,0.75-2.55,1.08c-0.23,0.09-0.6,0.08-0.79-0.05c-2.06-1.39-4.36-2.15-6.75-2.69
		c-2.69-0.61-5.02,0.09-6.88,2.07c-0.88,0.93-1.6,2.03-2.29,3.11c-0.61,0.95-0.35,2.04,0.49,2.64c0.81,0.58,1.88,0.44,2.63-0.36
		c0.74-0.79,1.47-1.6,2.21-2.4c1.57-1.68,3.62-1.71,5.26-0.08c2.42,2.42,4.83,4.84,7.25,7.25c0.67,0.67,1.35,1.32,1.44,2.32
		c0.89-0.01,2.52-0.51,3.51-1.04c0.29-0.15,0.36-0.3,0.27-0.64c-0.84-2.87-1.67-5.75-2.49-8.63
		C134.07,22.52,133.81,21.61,133.53,20.66z M109.38,19.22c-0.04-0.4-0.25-0.56-0.58-0.65c-1.64-0.45-3.28-0.92-4.92-1.38
		c-0.54-0.15-0.78,0.01-0.94,0.57c-1.31,4.52-2.61,9.03-3.91,13.55c-0.19,0.65-0.07,0.87,0.58,1.05c1.55,0.44,3.1,0.87,4.65,1.3
		c0.77,0.21,0.96,0.11,1.18-0.66c1.2-4.18,2.4-8.36,3.6-12.54C109.15,20.03,109.27,19.61,109.38,19.22z M140.09,17.14
		c-0.06,0-0.12,0-0.18,0.02c-1.73,0.48-3.47,0.95-5.2,1.45c-0.38,0.11-0.48,0.43-0.37,0.81c1.33,4.59,2.65,9.19,3.98,13.78
		c0.15,0.53,0.38,0.65,0.94,0.5c1.58-0.43,3.17-0.87,4.75-1.31c0.74-0.21,0.84-0.4,0.63-1.14c-0.67-2.31-1.33-4.62-2-6.94
		c-0.63-2.19-1.27-4.38-1.9-6.57C140.63,17.41,140.5,17.14,140.09,17.14z M117.18,11.55c-0.15,2.09,0.25,4.07,1.39,5.85
		c0.46,0.72,0.46,0.71,1.31,0.56c0.09-0.02,0.19-0.02,0.28-0.03c1.26-0.18,2.48,0.04,3.69,0.34c0.41,0.1,0.68,0.04,0.86-0.32
		c0.46-0.89,0.99-1.75,1.35-2.68c0.66-1.71,0.44-3.53,0.45-5.31c0-0.1-0.21-0.25-0.34-0.31c-1.33-0.53-2.67-1.06-4.01-1.56
		c-0.2-0.07-0.47-0.06-0.67,0.01c-0.91,0.33-1.81,0.69-2.72,1.05c-0.53,0.21-1.28,0.29-1.54,0.68
		C116.97,10.24,117.18,10.96,117.18,11.55z M125.69,18.75c0.46,0.16,0.97,0.34,1.49,0.52c0.77-1.09,1.3-2.24,1.66-3.48
		c0.75-2.6,0.36-5.27,0.48-7.89c-0.1-0.05-0.15-0.09-0.21-0.11c-2.35-0.91-4.69-1.83-7.04-2.73c-0.16-0.06-0.38-0.04-0.54,0.02
		c-2.27,0.87-4.54,1.76-6.82,2.64c-0.25,0.1-0.37,0.21-0.37,0.51c0.02,1.47-0.01,2.94,0.02,4.41c0.04,2.1,0.57,4.06,1.64,5.88
		c0.28,0.47,0.73,0.62,1.24,0.38c0.24-0.11,0.47-0.25,0.61-0.33c-0.47-1.07-1-2.07-1.37-3.13c-0.68-1.96-0.44-4.01-0.43-6.03
		c0-0.2,0.29-0.5,0.51-0.59c1.62-0.66,3.26-1.3,4.9-1.91c0.23-0.09,0.54-0.08,0.77,0c1.61,0.6,3.2,1.25,4.81,1.86
		c0.45,0.17,0.61,0.45,0.6,0.91c-0.02,0.69-0.01,1.37,0,2.06c0.01,1.28-0.02,2.57-0.48,3.78C126.75,16.62,126.19,17.66,125.69,18.75
		z M111.89,40.89c0.32-0.18,0.57-0.28,0.77-0.45c0.35-0.3,0.66-0.65,0.99-0.98c0.66-0.67,1.33-1.33,1.97-2.02
		c0.35-0.37,0.31-0.86-0.03-1.2c-0.32-0.32-0.82-0.38-1.17-0.05c-1.07,1.03-2.14,2.06-3.15,3.15c-0.18,0.19-0.18,0.68-0.08,0.96
		C111.28,40.53,111.63,40.68,111.89,40.89z M113,33.85c-0.28,0.1-0.47,0.11-0.57,0.21c-0.88,0.86-1.75,1.71-2.59,2.61
		c-0.31,0.33-0.2,0.86,0.13,1.16c0.33,0.31,0.79,0.35,1.12,0.03c0.85-0.82,1.69-1.64,2.48-2.52c0.17-0.19,0.19-0.65,0.08-0.91
		C113.56,34.17,113.21,34.01,113,33.85z M117.11,37.95c-0.29,0.12-0.5,0.15-0.63,0.27c-0.78,0.75-1.55,1.51-2.3,2.3
		c-0.33,0.35-0.27,0.84,0.05,1.17c0.31,0.32,0.84,0.39,1.17,0.08c0.8-0.75,1.58-1.53,2.32-2.35c0.16-0.18,0.17-0.63,0.06-0.87
		C117.68,38.29,117.34,38.13,117.11,37.95z M109.21,35.38c0.1-0.05,0.33-0.11,0.48-0.25c0.61-0.58,1.22-1.17,1.79-1.79
		c0.36-0.38,0.31-0.91-0.05-1.24c-0.36-0.34-0.84-0.35-1.24,0.02c-0.47,0.43-0.91,0.89-1.35,1.35c-0.19,0.19-0.38,0.39-0.51,0.62
		C108,34.65,108.44,35.37,109.21,35.38z"/>
	<path class="st0" d="M105.45,19.17c1.03,0,1.81,0.78,1.82,1.82c0.01,1.05-0.79,1.83-1.85,1.83c-1.02-0.01-1.81-0.81-1.8-1.84
		C103.62,19.96,104.42,19.17,105.45,19.17z M105.45,21.7c0.41-0.01,0.73-0.34,0.72-0.74c-0.01-0.37-0.34-0.7-0.72-0.7
		c-0.4-0.01-0.73,0.32-0.73,0.73C104.71,21.4,105.03,21.7,105.45,21.7z"/>
	<path class="st0" d="M138.21,22.81c-1.04,0-1.89-0.82-1.88-1.83c0.01-1,0.83-1.82,1.84-1.81c1.01,0,1.84,0.81,1.85,1.81
		C140.04,21.97,139.21,22.81,138.21,22.81z M138.2,21.7c0.41-0.01,0.72-0.34,0.71-0.74c-0.01-0.38-0.34-0.7-0.71-0.7
		c-0.39,0-0.74,0.35-0.74,0.73C137.46,21.39,137.79,21.71,138.2,21.7z"/>
	<path class="st0" d="M120.76,14.77c1.04-1.05,2.02-2.03,3-3.01c0.49-0.49,0.8-0.56,1.09-0.26c0.26,0.28,0.18,0.57-0.3,1.05
		c-1.06,1.06-2.12,2.12-3.18,3.18c-0.49,0.49-0.7,0.48-1.19-0.01c-0.41-0.41-0.81-0.81-1.22-1.22c-0.27-0.27-0.38-0.58-0.08-0.87
		c0.3-0.3,0.61-0.18,0.88,0.09C120.07,14.05,120.39,14.38,120.76,14.77z"/>
</g>
<g>
	<path class="st0" d="M195.39,41.02c0,1.85,0,3.64,0,5.42c0,1.5-0.04,1.54-1.54,1.54c-10.98,0-21.97,0-32.95,0
		c-0.93,0-1.13-0.19-1.13-1.13c0-1.92,0-3.84,0-5.83c-0.18,0-0.35,0-0.52,0c-1.56,0-3.13,0-4.69,0c-0.73,0-0.98-0.25-0.98-0.99
		c0-3.35,0-6.71,0-10.06c0-1.67,0.89-2.99,2.45-3.65c2.14-0.9,4.27-1.79,6.42-2.67c0.3-0.13,0.4-0.28,0.44-0.62
		c0.12-1.05-0.17-1.77-1.11-2.43c-1.46-1.02-2.24-2.58-2.63-4.3c-1.69-0.28-2.51-1.05-2.54-2.35c-0.03-1.2,0.8-2.09,2.26-2.4
		c-0.34-0.67-0.65-1.34-1-1.99c-1.6-2.95,0.01-6.25,2.82-7.08c0.45-0.14,0.83-0.53,1.23-0.83c1.51-1.13,3.21-1.71,5.09-1.64
		c0.61,0.02,1.25,0.07,1.8,0.29c1.44,0.58,2.95,1.09,4.25,1.93c2.3,1.49,3.06,3.75,2.65,6.39c1.11,0,2.24,0,3.32,0
		c0-0.84-0.12-1.7,0.03-2.51c0.28-1.58,1.27-2.66,2.7-3.38c0.64-0.32,1.28-0.67,1.86-1.09c1.53-1.11,3.21-1.69,5.1-1.63
		c0.61,0.02,1.25,0.07,1.8,0.29c1.43,0.57,2.9,1.1,4.21,1.9c2.48,1.52,3.42,4.71,2.36,7.43c-0.25,0.64-0.54,1.27-0.82,1.94
		c0.73,0.09,1.35,0.36,1.79,0.94c0.34,0.46,0.5,0.97,0.46,1.54c-0.07,1.28-0.92,2.04-2.37,2.22c-0.39,0.87-0.72,1.73-1.16,2.52
		c-0.56,1.02-1.4,1.81-2.38,2.42c-0.23,0.14-0.33,0.3-0.32,0.57c0.03,0.55-0.17,1.22,0.09,1.61c0.25,0.38,0.93,0.49,1.44,0.7
		c1.71,0.72,3.41,1.42,5.12,2.13c1.82,0.75,2.65,2,2.65,3.96c0,3.27,0,6.55,0,9.82c0,0.77-0.24,1.01-1,1.01
		C198.87,41.02,197.16,41.02,195.39,41.02z M200.04,39.46c0-0.19,0-0.33,0-0.48c0-2.9,0-5.8,0-8.71c0-1.38-0.47-2.08-1.73-2.6
		c-2.32-0.97-4.63-1.94-6.95-2.89c-0.43-0.18-0.63-0.45-0.62-0.92c0.02-0.93,0.01-1.87,0-2.81c-0.01-0.4,0.17-0.66,0.51-0.85
		c1.88-1.02,2.99-2.58,3.3-4.71c0.08-0.56,0.36-0.77,0.92-0.78c0.23,0,0.45,0.01,0.68-0.01c0.46-0.03,0.78-0.36,0.79-0.77
		c0-0.4-0.32-0.74-0.78-0.78c-0.26-0.02-0.52,0-0.77-0.01c-0.46-0.02-0.74-0.3-0.77-0.76c-0.03-0.57,0-1.11,0.27-1.64
		c0.29-0.56,0.52-1.14,0.74-1.73c0.85-2.25-0.12-4.74-2.28-5.83c-0.59-0.3-1.2-0.54-1.8-0.83c-2.62-1.27-5.07-1-7.36,0.8
		c-0.5,0.39-1.08,0.68-1.66,0.94c-0.75,0.34-1.34,0.83-1.71,1.57c-0.42,0.83-0.44,1.68-0.17,2.58c0.26,0.84,0.78,1.36,1.61,1.62
		c0.3,0.1,0.59,0.26,0.88,0.4c0.93,0.46,1.72,1.09,2.31,1.94c1.37,1.99,1.58,4.1,0.63,6.32c-0.22,0.52-0.45,1.04-0.69,1.6
		c0.28,0,0.48,0,0.67,0c1.33,0.01,2.34,1.01,2.35,2.31c0,1.32-1.01,2.33-2.37,2.33c-0.29,0-0.57,0-0.84,0
		c-0.78,2.56-1.44,3.47-3.55,5.04c-0.1,0.07-0.19,0.22-0.19,0.34c-0.02,0.58-0.01,1.16-0.01,1.75c0.18,0.05,0.33,0.1,0.48,0.14
		c3.56,0.99,7.13,1.97,10.68,2.99c1.47,0.42,2.38,1.44,2.69,2.94c0.1,0.48,0.09,0.98,0.13,1.49
		C196.95,39.46,198.46,39.46,200.04,39.46z M169.71,20.1c-0.41-0.82-0.81-1.59-1.18-2.37c-1.14-2.43-0.15-5.34,2.3-6.4
		c1.03-0.45,1.83-1.18,2.77-1.72c0.11-0.06,0.19-0.21,0.25-0.34c0.99-2.26,0.07-4.91-2.13-6.04c-0.87-0.45-1.77-0.84-2.68-1.21
		c-1.15-0.47-2.34-0.54-3.56-0.3c-1.26,0.24-2.29,0.92-3.27,1.68c-0.29,0.22-0.6,0.46-0.94,0.57c-2.19,0.71-3.08,2.75-2.07,4.81
		c0.38,0.78,0.84,1.53,1.14,2.34c0.17,0.46,0.17,1,0.14,1.5c-0.02,0.33-0.34,0.53-0.7,0.54c-0.24,0.01-0.48-0.01-0.73,0.01
		c-0.49,0.02-0.83,0.34-0.84,0.76c-0.01,0.42,0.33,0.75,0.82,0.78c0.21,0.01,0.42,0,0.63,0c0.58,0.01,0.86,0.23,0.94,0.81
		c0.3,2.09,1.39,3.64,3.24,4.65c0.4,0.22,0.58,0.51,0.57,0.97c-0.02,0.84-0.01,1.68-0.01,2.52c0,0.78-0.08,0.9-0.79,1.2
		c-2.27,0.94-4.55,1.89-6.82,2.83c-1.21,0.5-1.69,1.22-1.69,2.54c0,2.92,0,5.84,0,8.76c0,0.16,0.01,0.31,0.02,0.46
		c1.56,0,3.08,0,4.63,0c0-0.23,0-0.42,0-0.61c0-1.88,1.1-3.35,2.91-3.86c2.14-0.6,4.28-1.19,6.42-1.78
		c1.53-0.42,3.06-0.85,4.61-1.28c0-0.42-0.03-0.8,0.01-1.19c0.06-0.54-0.12-0.88-0.6-1.21c-1.67-1.13-2.67-2.75-3.14-4.74
		c-0.78-0.04-1.6,0.09-2.28-0.45c-0.67-0.53-1-1.2-0.96-2.05C166.8,20.94,167.75,20.23,169.71,20.1z M167.51,46.41
		c6.75,0,13.43,0,20.17,0c0-2.07,0-4.11,0-6.13c0.53,0,1.01,0,1.54,0c0,2.07,0,4.1,0,6.14c1.56,0,3.07,0,4.59,0
		c0.02-0.07,0.04-0.11,0.04-0.15c0-2.53,0.02-5.06-0.01-7.59c-0.01-1.03-0.66-1.87-1.65-2.15c-3.65-1.03-7.31-2.04-10.97-3.04
		c-0.15-0.04-0.41,0.03-0.53,0.15c-0.81,0.78-1.6,1.59-2.4,2.38c-0.52,0.52-0.88,0.51-1.4-0.01c-0.78-0.77-1.56-1.54-2.32-2.33
		c-0.23-0.24-0.43-0.26-0.72-0.18c-3.53,0.99-7.06,1.97-10.59,2.96c-1.34,0.38-1.94,1.16-1.94,2.57c0,2.29,0,4.58,0,6.87
		c0,0.17,0,0.34,0,0.53c1.57,0,3.09,0,4.67,0c0-2.07,0-4.1,0-6.14c0.53,0,1.01,0,1.52,0C167.51,42.33,167.51,44.35,167.51,46.41z
		 M172.43,18.25c-0.35,0.69-0.68,1.35-1.01,2.01c-0.03,0.07-0.04,0.16-0.04,0.24c0.02,1.19-0.03,2.39,0.09,3.57
		c0.31,2.89,2.72,5.09,5.73,5.34c2.72,0.23,5.45-1.66,6.28-4.33c0.38-1.23,0.2-2.49,0.31-3.74c0.1-1.22-0.63-2.07-1.06-3.08
		C179.29,20.77,175.89,20.76,172.43,18.25z M170.45,18.3c0.07-0.01,0.14-0.02,0.21-0.02c0.24-0.48,0.48-0.97,0.73-1.45
		c0.33-0.63,0.79-0.74,1.38-0.31c0.46,0.33,0.89,0.69,1.37,1c1.58,1.04,3.29,1.31,5.12,0.83c1.22-0.32,2.17-1.11,3.15-1.83
		c0.58-0.43,1.04-0.31,1.37,0.32c0.23,0.45,0.46,0.91,0.7,1.4c1.32-2.51,0.41-5.35-2.07-6.57c-0.63-0.31-1.29-0.59-1.93-0.89
		c-1.2-0.56-2.44-0.8-3.76-0.6c-0.82,0.12-1.6,0.36-2.37,0.87c1.37,0.46,2.38,1.26,3.09,2.49c-0.43,0.29-0.84,0.56-1.25,0.83
		c-0.29-0.34-0.52-0.67-0.81-0.95c-1.03-1.01-2.58-1.28-3.84-0.7c-1.22,0.56-2.04,1.81-1.87,3.15
		C169.78,16.68,170.18,17.48,170.45,18.3z M175.26,30.62c0,0.33-0.01,0.57,0,0.81c0.01,0.27-0.06,0.63,0.08,0.79
		c0.71,0.78,1.48,1.51,2.25,2.27c0.74-0.74,1.45-1.45,2.15-2.16c0.07-0.07,0.15-0.18,0.15-0.28c0.02-0.46,0.01-0.92,0.01-1.44
		C178.33,31.09,176.82,31.06,175.26,30.62z M169.82,21.67c-0.55,0.02-1.15-0.16-1.41,0.44c-0.1,0.22-0.05,0.6,0.09,0.79
		c0.33,0.46,0.85,0.31,1.33,0.28C169.82,22.68,169.82,22.2,169.82,21.67z M185.35,21.68c0,0.52,0,1.01,0,1.52
		c0.51,0,1.06,0.17,1.37-0.36c0.12-0.21,0.12-0.59,0-0.8C186.42,21.51,185.86,21.68,185.35,21.68z"/>
</g>
<g>
	<path class="st0" d="M72.64,48c-1.55-0.6-1.21-1.97-1.25-3.25c-0.71,0-1.37,0-2.04,0c-0.82,0-1.51-0.3-1.81-1.08
		c-0.32-0.83-0.31-1.72,0.02-2.56c0.09-0.24,0.12-0.4,0-0.64c-0.47-0.94-0.31-2.63,0.43-3.13c0.62-0.41,0.62-0.9,0.6-1.49
		c-0.02-0.52-0.02-1.03,0-1.55c0.05-1.45-0.52-2.55-1.77-3.33c-1.6-0.99-2.92-2.3-3.97-3.86c-2.01-3-2.88-6.29-2.31-9.87
		c0.91-5.74,4.2-9.56,9.64-11.54c0.77-0.28,1.6-0.4,2.41-0.55c0.56-0.1,0.9,0.12,0.97,0.54c0.07,0.44-0.22,0.77-0.78,0.85
		c-3,0.44-5.54,1.76-7.6,3.98c-1.81,1.96-2.94,4.26-3.24,6.92c-0.59,5.26,1.34,9.41,5.71,12.38c1.58,1.07,2.39,2.49,2.35,4.4
		c-0.02,0.84,0,1.69,0,2.57c2.99,0,5.97,0,9.01,0c0-0.68-0.03-1.38,0.01-2.08c0.05-0.76,0.09-1.53,0.26-2.26
		c0.24-0.99,0.89-1.73,1.69-2.35c0.89-0.69,1.82-1.33,2.61-2.12c1.94-1.93,3.07-4.29,3.49-7c0.02-0.11,0.05-0.21,0.07-0.32
		c0.11-0.42,0.41-0.57,0.82-0.52c0.36,0.05,0.61,0.4,0.55,0.8c-0.39,2.72-1.43,5.15-3.2,7.26c-0.95,1.14-2.07,2.07-3.3,2.89
		c-1.08,0.71-1.58,1.73-1.59,3.01c0,0.81,0.01,1.63-0.01,2.44c0,0.24,0.05,0.4,0.28,0.52c0.59,0.32,0.93,0.83,0.94,1.51
		c0.01,0.7,0.13,1.41-0.26,2.06c-0.05,0.08-0.02,0.24,0.03,0.34c0.39,0.79,0.31,1.62,0.16,2.43c-0.13,0.73-0.79,1.24-1.54,1.3
		c-0.62,0.04-1.25,0.03-1.87,0.04c-0.17,0-0.33,0.02-0.54,0.02c-0.04,1.24,0.31,2.62-1.25,3.22C75.14,48,73.89,48,72.64,48z
		 M74.5,40.08c1.56,0,3.13,0,4.69,0c1.07,0,1.07,0,1.07-1.04c0-0.74-0.05-0.79-0.81-0.79c-3.2,0-6.41,0-9.61,0
		c-1.05,0-1.05,0-1.04,1.07c0,0.7,0.06,0.76,0.79,0.76C71.21,40.08,72.86,40.08,74.5,40.08z M74.48,43.32c1.55,0,3.09,0,4.64,0
		c1.13,0,1.13,0,1.13-1.12c0-0.64-0.05-0.69-0.7-0.69c-3.2,0-6.41,0-9.61,0c-1.25,0-1.15-0.05-1.15,1.19c0,0.54,0.08,0.62,0.63,0.62
		C71.11,43.33,72.8,43.32,74.48,43.32z M76.21,44.79c-1.16,0-2.26,0-3.39,0c0,0.5-0.03,0.97,0.02,1.44
		c0.01,0.13,0.23,0.35,0.37,0.35c0.87,0.03,1.75,0.03,2.62,0c0.13,0,0.35-0.22,0.37-0.35C76.24,45.76,76.21,45.29,76.21,44.79z"/>
	<path class="st0" d="M71.01,12.57c0.47-0.19,0.85-0.35,1.26-0.52c0-0.64,0-1.28,0-1.92c0-0.76,0.34-1.16,1.08-1.19
		c0.78-0.03,1.56-0.03,2.34,0c0.72,0.03,1.07,0.43,1.07,1.15c0.01,0.64,0,1.28,0,1.95c0.39,0.17,0.79,0.33,1.24,0.52
		c0.43-0.44,0.85-0.9,1.3-1.34c0.62-0.61,1.12-0.61,1.74,0c0.49,0.48,0.98,0.97,1.46,1.46c0.6,0.61,0.59,1.12-0.01,1.74
		c-0.37,0.38-0.76,0.74-1.12,1.14c-0.09,0.1-0.13,0.34-0.08,0.47c0.37,0.93,0.38,0.93,1.41,0.93c0.34,0,0.69-0.01,1.03,0.01
		c0.62,0.03,0.99,0.37,1.02,0.99c0.03,0.83,0.03,1.66,0,2.48c-0.02,0.65-0.43,1.01-1.1,1.03c-0.55,0.01-1.09,0.02-1.64,0
		c-0.28-0.01-0.42,0.07-0.5,0.35c-0.08,0.28-0.22,0.55-0.37,0.89c0.44,0.42,0.89,0.84,1.33,1.28c0.63,0.63,0.62,1.14,0,1.77
		c-0.47,0.48-0.95,0.95-1.43,1.43c-0.62,0.61-1.12,0.61-1.74,0.01c-0.36-0.35-0.72-0.7-1.06-1.06c-0.2-0.21-0.36-0.21-0.64-0.14
		c-0.77,0.18-0.95,0.64-0.86,1.35c0.05,0.37,0.02,0.75,0,1.12c-0.03,0.58-0.4,0.97-0.98,0.98c-0.84,0.02-1.69,0.02-2.53,0
		c-0.58-0.01-0.96-0.41-0.98-0.99c-0.02-0.58-0.02-1.16,0-1.73c0.01-0.27-0.1-0.38-0.34-0.52c-0.65-0.4-1.13-0.27-1.56,0.32
		c-0.21,0.29-0.49,0.52-0.76,0.76c-0.5,0.45-1.02,0.46-1.5,0.01c-0.58-0.55-1.14-1.11-1.69-1.69c-0.47-0.5-0.46-1.03,0.03-1.54
		c0.45-0.47,0.94-0.92,1.41-1.38c-0.14-0.36-0.26-0.7-0.42-1.01c-0.05-0.1-0.23-0.2-0.35-0.2c-0.55-0.02-1.09,0-1.64-0.01
		c-0.78-0.01-1.17-0.37-1.19-1.13c-0.02-0.77-0.02-1.53,0-2.3c0.02-0.72,0.4-1.07,1.13-1.08c0.55-0.01,1.09-0.02,1.64,0
		c0.26,0.01,0.35-0.12,0.48-0.32c0.42-0.66,0.28-1.15-0.34-1.59c-0.29-0.21-0.52-0.49-0.76-0.76c-0.43-0.49-0.45-0.99,0-1.47
		c0.54-0.58,1.11-1.14,1.69-1.69c0.52-0.49,1.04-0.46,1.57,0.04c0.24,0.22,0.47,0.46,0.7,0.7C70.6,12.09,70.81,12.34,71.01,12.57z
		 M68.9,26.02c0.47-0.48,0.95-0.94,1.41-1.43c0.34-0.36,0.69-0.41,1.14-0.2c0.52,0.24,1.05,0.46,1.59,0.66
		c0.43,0.16,0.66,0.41,0.65,0.9c-0.02,0.68-0.01,1.36-0.01,2.05c0.59,0,1.13,0,1.69,0c0-0.69,0.02-1.34-0.01-1.99
		c-0.02-0.52,0.2-0.81,0.68-0.97c0.53-0.18,1.05-0.4,1.55-0.64c0.44-0.21,0.8-0.18,1.14,0.18c0.45,0.49,0.92,0.97,1.33,1.39
		c0.46-0.41,0.86-0.77,1.3-1.16c-0.5-0.49-0.98-0.96-1.47-1.42c-0.35-0.33-0.38-0.68-0.18-1.1c0.23-0.49,0.44-0.99,0.63-1.5
		c0.22-0.62,0.36-0.74,1.01-0.74c0.65,0,1.3,0,1.97,0c0-0.59,0-1.11,0-1.68c-0.68,0-1.33,0-1.98,0c-0.6,0-0.78-0.15-0.99-0.72
		c-0.18-0.5-0.38-0.99-0.6-1.47c-0.27-0.59-0.26-0.76,0.21-1.24c0.46-0.46,0.93-0.91,1.4-1.37c-0.43-0.42-0.8-0.8-1.22-1.21
		c-0.49,0.5-0.98,1-1.47,1.51c-0.3,0.31-0.62,0.35-1.02,0.17c-0.55-0.26-1.11-0.49-1.68-0.7c-0.43-0.15-0.63-0.41-0.62-0.87
		c0.02-0.68,0-1.37,0-2.05c-0.59,0-1.12,0-1.69,0c0,0.67,0,1.31,0,1.95c0,0.65-0.12,0.8-0.74,1.02c-0.48,0.17-0.96,0.37-1.42,0.58
		c-0.61,0.28-0.79,0.27-1.28-0.22c-0.45-0.45-0.89-0.92-1.3-1.33c-0.44,0.4-0.83,0.77-1.26,1.16c0.51,0.5,0.99,0.98,1.49,1.46
		c0.33,0.32,0.36,0.65,0.17,1.06c-0.23,0.51-0.45,1.02-0.65,1.55c-0.22,0.59-0.39,0.73-1.03,0.73c-0.65,0-1.3,0-1.94,0
		c0,0.59,0,1.12,0,1.68c0.7,0,1.37,0.01,2.04,0c0.48-0.01,0.75,0.2,0.9,0.65c0.18,0.51,0.38,1.02,0.61,1.51
		c0.28,0.62,0.27,0.79-0.22,1.28c-0.45,0.45-0.91,0.89-1.37,1.34C68.11,25.24,68.48,25.61,68.9,26.02z"/>
	<path class="st0" d="M76.23,5.11c1.66,0.2,3.22,0.66,4.68,1.43c3.96,2.09,6.43,5.33,7.44,9.68c0.09,0.39,0.15,0.8,0.2,1.2
		c0.05,0.41-0.21,0.76-0.59,0.83c-0.34,0.07-0.69-0.16-0.79-0.57c-0.25-0.98-0.38-2-0.74-2.93c-1.73-4.49-4.98-7.19-9.71-8.12
		c-0.24-0.05-0.49-0.09-0.73-0.15c-0.39-0.11-0.56-0.38-0.52-0.77C75.51,5.34,75.84,5.1,76.23,5.11z"/>
	<path class="st0" d="M75.24,1.89c0,0.36,0.02,0.72,0,1.07c-0.03,0.47-0.33,0.77-0.71,0.77c-0.38,0-0.7-0.31-0.71-0.77
		c-0.02-0.73-0.03-1.47,0-2.2C73.82,0.28,74.12,0,74.52,0c0.4,0,0.67,0.28,0.72,0.77c0,0.03,0,0.06,0,0.09
		C75.24,1.2,75.24,1.54,75.24,1.89C75.24,1.89,75.24,1.89,75.24,1.89z"/>
	<path class="st0" d="M57.17,19.89c-0.39,0-0.78,0.01-1.17,0c-0.42-0.02-0.67-0.27-0.68-0.68c-0.01-0.42,0.26-0.69,0.66-0.71
		c0.79-0.04,1.59-0.03,2.38-0.01c0.44,0.02,0.71,0.34,0.68,0.74c-0.03,0.43-0.29,0.63-0.7,0.67c-0.05,0-0.09,0.01-0.14,0.01
		c-0.34,0-0.69,0-1.03,0C57.17,19.9,57.17,19.9,57.17,19.89z"/>
	<path class="st0" d="M91.82,19.89c-0.39,0-0.78,0.02-1.17,0c-0.39-0.02-0.63-0.25-0.66-0.65c-0.03-0.43,0.23-0.71,0.63-0.73
		c0.82-0.04,1.65-0.04,2.47,0c0.38,0.02,0.63,0.3,0.62,0.7c-0.01,0.41-0.26,0.67-0.68,0.68C92.63,19.91,92.23,19.89,91.82,19.89
		C91.82,19.89,91.82,19.89,91.82,19.89z"/>
	<path class="st0" d="M63.88,30.6c-0.15,0.25-0.23,0.46-0.37,0.61c-0.48,0.51-0.98,1-1.49,1.49c-0.38,0.36-0.76,0.38-1.07,0.07
		c-0.3-0.3-0.28-0.7,0.08-1.07c0.51-0.53,1.03-1.04,1.56-1.55c0.23-0.22,0.53-0.34,0.81-0.14C63.58,30.15,63.71,30.39,63.88,30.6z"
		/>
	<path class="st0" d="M85.89,29.83c0.25,0.15,0.46,0.22,0.61,0.36c0.52,0.49,1.03,1,1.52,1.52c0.35,0.37,0.36,0.78,0.05,1.07
		c-0.3,0.29-0.68,0.28-1.04-0.07c-0.53-0.51-1.07-1.01-1.54-1.57c-0.16-0.19-0.22-0.55-0.16-0.79
		C85.39,30.16,85.68,30.02,85.89,29.83z"/>
	<path class="st0" d="M63.14,8.54c-0.25-0.13-0.45-0.19-0.59-0.32C62.02,7.72,61.5,7.2,61,6.67c-0.34-0.35-0.35-0.74-0.06-1.04
		c0.28-0.29,0.7-0.3,1.04,0.02c0.54,0.52,1.09,1.03,1.57,1.6c0.16,0.18,0.21,0.55,0.15,0.79C63.64,8.25,63.34,8.37,63.14,8.54z"/>
	<path class="st0" d="M85.88,8.51c-0.16-0.12-0.43-0.23-0.51-0.42c-0.09-0.21-0.09-0.57,0.04-0.72c0.56-0.64,1.17-1.24,1.8-1.82
		c0.27-0.25,0.62-0.19,0.88,0.08c0.27,0.27,0.32,0.61,0.07,0.88c-0.58,0.63-1.2,1.22-1.81,1.81C86.26,8.42,86.09,8.43,85.88,8.51z"
		/>
	<path class="st0" d="M78.28,19.21c-0.01,2.09-1.71,3.77-3.79,3.76c-2.06-0.02-3.73-1.71-3.73-3.78c0.01-2.07,1.67-3.74,3.75-3.75
		C76.58,15.42,78.29,17.12,78.28,19.21z M76.87,19.2c0-1.3-1.05-2.34-2.36-2.34c-1.3,0-2.35,1.06-2.34,2.36
		c0.01,1.26,1.07,2.32,2.33,2.34C75.77,21.57,76.87,20.48,76.87,19.2z"/>
</g>
</svg>
