<svg width="48" height="48" viewBox="0 0 48 48" fill="none" xmlns="http://www.w3.org/2000/svg">
<g clip-path="url(#clip0_1859_2422)">
<path d="M44 28.5C49.3 33 49.2 40.4 44.9 44.8C40.5 49.1 33 49.3 28.5 44C28.4 44.8 28.2 45.6 28.1 46.4C27.9 48.1 27.8 48 26.2 48C24.5 48 22.8 48 21.1 48C20.4 48 20.2 47.8 20.1 47.2C19.9 46.1 19.8 45 19.6 44C19.6 43.7 19.5 43.6 19.2 43.5C17.3 43 15.5 42.3 13.8 41.2C13.6 41.1 13.4 41.1 13.2 41.2C12.3 41.9 11.4 42.5 10.5 43.1C9.9 43.5 9.6 43.5 9.2 43C7.8 41.6 6.4 40.2 5.1 38.9C4.6 38.4 4.6 38.1 5 37.6C5.6 36.7 6.3 35.8 6.9 34.9C7.1 34.7 7.1 34.5 6.9 34.3C5.9 32.6 5.1 30.8 4.7 28.9C4.6 28.6 4.5 28.5 4.2 28.5C3 28.3 1.9 28.1 0.9 28C0.3 27.9 0 27.6 0 27C0 25 0 23 0 21C0 20.4 0.2 20.1 0.9 20C2 19.8 3.1 19.7 4.1 19.5C4.4 19.5 4.5 19.4 4.6 19.1C5.1 17.2 5.8 15.4 6.8 13.7C6.9 13.5 7 13.3 6.8 13.1C6.1 12.2 5.5 11.3 4.8 10.4C4.4 9.9 4.5 9.6 4.9 9.1C6.3 7.7 7.7 6.3 9.1 4.9C9.6 4.4 9.8 4.4 10.4 4.8C11.3 5.4 12.2 6.1 13.1 6.7C13.3 6.9 13.5 6.9 13.8 6.7C15.5 5.7 17.2 5 19.1 4.5C19.4 4.4 19.5 4.3 19.6 4C19.8 2.9 19.9 1.8 20.1 0.8C20.1 0.2 20.4 0 21 0C23 0 25 0 27 0C27.6 0 27.8 0.2 27.9 0.8C28.1 1.9 28.3 3 28.4 4C28.4 4.3 28.5 4.5 28.9 4.6C30.8 5.1 32.6 5.8 34.2 6.8C34.4 6.9 34.6 6.9 34.8 6.8C35.7 6.1 36.6 5.5 37.5 4.8C38 4.4 38.3 4.4 38.8 4.9C40.2 6.3 41.6 7.7 43 9.1C43.4 9.5 43.5 9.8 43.1 10.3C42.4 11.2 41.8 12.1 41.1 13C40.9 13.2 40.9 13.4 41.1 13.6C42.1 15.3 42.9 17.1 43.3 19C43.4 19.3 43.5 19.4 43.8 19.4C44.9 19.6 46 19.7 47 19.9C47.6 20 47.8 20.3 47.8 20.9C47.8 22.9 47.8 24.9 47.8 26.9C47.8 27.5 47.6 27.8 46.9 27.9C46.1 28.1 45.1 28.3 44 28.5ZM9.9 41.6C10.9 40.9 11.8 40.2 12.8 39.5C13.2 39.2 13.5 39.2 13.9 39.5C15.8 40.7 17.9 41.6 20.1 42.1C20.6 42.2 20.8 42.5 20.9 43C21.1 44 21.3 45.1 21.4 46.1C21.4 46.5 21.6 46.5 21.9 46.5C23.1 46.5 24.3 46.5 25.4 46.5C26.4 46.5 26.4 46.5 26.5 45.5C26.7 44.4 26.9 43.4 27.1 42.3C27.1 42.2 27.1 42.1 27.1 42.1C26.7 41.2 26.4 40.3 26 39.4C21.4 40 17.3 38.8 13.7 35.8C10.1 32.7 8.3 28.8 8.3 24.1C8.3 15.9 14.5 9.3 22.3 8.6C26.5 8.2 30.4 9.3 33.6 12.1C38 15.8 39.8 20.6 39.2 26.3C39.8 26.5 40.5 26.7 41.1 27C41.6 27.2 42.1 27.5 42.7 27.1H42.8C43.8 26.9 44.9 26.8 45.9 26.6C46.2 26.6 46.2 26.5 46.2 26.2C46.2 24.8 46.2 23.3 46.2 21.9C46.2 21.7 46.1 21.6 45.9 21.5C44.9 21.4 43.9 21.2 42.8 21C42.1 20.9 41.9 20.7 41.7 20C41.2 17.9 40.4 15.9 39.3 14.1C38.8 13.4 38.9 13.3 39.4 12.5C40 11.6 40.7 10.7 41.3 9.9C40.1 8.7 39 7.6 37.8 6.4C36.9 7.1 35.9 7.7 35 8.4C34.6 8.7 34.2 8.7 33.8 8.4C31.9 7.2 29.9 6.3 27.6 5.8C27.3 5.8 27.1 5.5 27 5C26.8 3.9 26.7 2.9 26.5 1.9C26.5 1.7 26.4 1.6 26.1 1.6C24.7 1.6 23.2 1.6 21.8 1.6C21.6 1.6 21.5 1.6 21.4 1.9C21.3 2.9 21.1 4 20.9 5C20.8 5.7 20.6 5.9 20 6C17.8 6.5 15.8 7.3 13.9 8.5C13.3 8.9 13.1 8.8 12.6 8.4C11.7 7.7 10.7 7 9.8 6.4C8.7 7.6 7.6 8.8 6.4 9.9C7.1 10.8 7.7 11.8 8.4 12.7C8.7 13.1 8.7 13.5 8.4 14C7.2 15.9 6.3 17.9 5.9 20.1C5.8 20.8 5.6 20.9 4.9 21C3.9 21.2 2.8 21.3 1.8 21.5C1.7 21.5 1.5 21.7 1.5 21.8C1.5 23.3 1.5 24.7 1.5 26.2C1.5 26.3 1.7 26.5 1.8 26.5C2.8 26.7 3.9 26.8 4.9 27C5.6 27.1 5.8 27.3 5.9 27.9C6.4 30 7.2 32 8.4 33.9C8.8 34.5 8.8 34.7 8.4 35.3C7.7 36.2 7.1 37.1 6.4 38C7.6 39.2 8.8 40.4 9.9 41.6ZM26 21.5C27.1 21.8 28.1 21.9 29.1 22.2C31.4 22.9 32.4 24.2 32.4 26.6C32.4 26.7 32.4 26.9 32.4 27.1C34.2 26.3 36 26 37.8 26.1C38.7 19.9 35.4 13.9 29.7 11.3C24 8.7 17.4 10.3 13.3 15C9.3 19.7 8.9 26.5 12.4 31.7C15.9 36.9 21.8 38.6 25.9 37.8C26.1 36.4 26.3 34.9 26.4 33.5C26.3 33.5 26.1 33.5 25.9 33.5C22.8 33.5 19.7 33.5 16.6 33.5C15.9 33.5 15.6 33.2 15.6 32.6C15.6 30.4 15.6 28.1 15.6 25.9C15.6 24.7 16.2 23.7 17.2 23C17.9 22.6 18.7 22.3 19.5 22C20.2 21.8 21 21.7 21.8 21.5C20.3 20.2 19.7 18.6 19.8 16.7C19.9 14.2 21.4 12.7 23.9 12.7C25.9 12.6 27.5 13.7 28 15.5C28.5 17.7 28.1 19.7 26.4 21.3C26.3 21.3 26.2 21.4 26 21.5ZM37 27.6C31.8 27.6 27.6 31.8 27.6 37C27.6 42.2 31.8 46.5 37 46.5C42.2 46.5 46.5 42.2 46.5 37.1C46.5 31.8 42.2 27.6 37 27.6ZM28.9 29.4C28.9 29.4 29 29.4 29 29.5C29.2 29.3 29.3 29.2 29.5 29C29.9 28.6 30.5 28.3 30.7 27.8C30.9 27.3 30.7 26.6 30.8 26C30.8 25.2 30.5 24.6 29.8 24.2C29.3 23.9 28.7 23.7 28.1 23.5C25.8 22.9 23.5 22.8 21.2 23.2C20.3 23.4 19.4 23.6 18.5 24C17.6 24.4 17.1 25.1 17.2 26.1C17.2 27.9 17.2 29.6 17.2 31.4C17.2 31.6 17.2 31.7 17.2 31.9C17.8 31.9 18.4 31.9 19.1 31.9C19.1 31.7 19.1 31.5 19.1 31.4C19.1 30.1 19.1 28.9 19.1 27.6C19.1 27 19.4 26.6 19.9 26.6C20.4 26.6 20.7 27 20.7 27.6C20.7 28.4 20.7 29.2 20.7 30C20.7 30.6 20.7 31.2 20.7 31.9C20.9 31.9 21 31.9 21.2 31.9C23.1 31.9 25 31.9 26.9 31.9C27.3 31.9 27.5 31.8 27.4 31.3C27.4 30 27.4 28.8 27.4 27.5C27.4 26.9 27.7 26.5 28.2 26.6C28.7 26.6 29 27 29 27.6C28.9 28.2 28.9 28.8 28.9 29.4ZM26.6 17.3C26.6 15.4 26 14.5 24.7 14.2C24.2 14.1 23.6 14.2 23.1 14.3C22.3 14.5 21.7 15 21.5 15.8C21.1 17.3 21.3 18.6 22.3 19.8C23.2 20.9 24.7 20.9 25.6 19.8C26.4 19 26.6 18 26.6 17.3Z" fill="#00BAA4"/>
<path d="M35.4 37.3998C36.6 36.1998 37.8 35.0998 38.9 33.9998C39.3 33.5998 39.7 33.1998 40.1 32.7998C41.1 31.7998 42.5 31.7998 43.4 32.7998C44.3 33.6998 44.3 35.0998 43.3 35.9998C41.3 38.0998 39.2 40.0998 37.2 42.1998C36.2 43.1998 34.8 43.1998 33.8 42.1998C32.8 41.1998 31.7 40.1998 30.7 39.0998C29.7 38.0998 29.7 36.6998 30.6 35.7998C31.5 34.8998 32.9 34.8998 33.9 35.7998C34.5 36.3998 34.9 36.8998 35.4 37.3998ZM32.2 36.5998C32 36.7998 31.7 36.9998 31.6 37.1998C31.4 37.4998 31.6 37.7998 31.8 37.9998C32.8 38.9998 33.8 39.9998 34.8 40.9998C35.3 41.4998 35.7 41.4998 36.2 40.9998C37.8 39.3998 39.4 37.7998 41 36.0998C41.4 35.6998 41.8 35.2998 42.2 34.8998C42.5 34.5998 42.5 34.1998 42.2 33.8998C41.9 33.5998 41.5 33.5998 41.1 33.8998C41 33.9998 40.9 34.0998 40.9 34.0998C39.3 35.6998 37.8 37.2998 36.2 38.8998C35.6 39.4998 35.3 39.4998 34.7 38.8998C34.1 38.2998 33.5 37.6998 32.8 37.0998C32.7 36.8998 32.5 36.7998 32.2 36.5998Z" fill="#00BAA4"/>
</g>
<defs>
<clipPath id="clip0_1859_2422">
<rect width="48" height="48" fill="white"/>
</clipPath>
</defs>
</svg>
