<svg width="48" height="48" viewBox="0 0 48 48" fill="none" xmlns="http://www.w3.org/2000/svg">
<g clip-path="url(#clip0_1854_2301)">
<path d="M22.12 47.9999C20.57 47.3999 20.91 46.0299 20.87 44.7499C20.16 44.7499 19.5 44.7499 18.83 44.7499C18.01 44.7499 17.32 44.4499 17.02 43.6699C16.7 42.8399 16.71 41.9499 17.04 41.1099C17.13 40.8699 17.16 40.7099 17.04 40.4699C16.57 39.5299 16.73 37.8399 17.47 37.3399C18.09 36.9299 18.09 36.4399 18.07 35.8499C18.05 35.3299 18.05 34.8199 18.07 34.2999C18.12 32.8499 17.55 31.7499 16.3 30.9699C14.7 29.9799 13.38 28.6699 12.33 27.1099C10.32 24.1099 9.45001 20.8199 10.02 17.2399C10.93 11.4999 14.22 7.67989 19.66 5.69989C20.43 5.41989 21.26 5.29989 22.07 5.14989C22.63 5.04989 22.97 5.26989 23.04 5.68989C23.11 6.12989 22.82 6.45989 22.26 6.53989C19.26 6.97989 16.72 8.29989 14.66 10.5199C12.85 12.4799 11.72 14.7799 11.42 17.4399C10.83 22.6999 12.76 26.8499 17.13 29.8199C18.71 30.8899 19.52 32.3099 19.48 34.2199C19.46 35.0599 19.48 35.9099 19.48 36.7899C22.47 36.7899 25.45 36.7899 28.49 36.7899C28.49 36.1099 28.46 35.4099 28.5 34.7099C28.55 33.9499 28.59 33.1799 28.76 32.4499C29 31.4599 29.65 30.7199 30.45 30.0999C31.34 29.4099 32.27 28.7699 33.06 27.9799C35 26.0499 36.13 23.6899 36.55 20.9799C36.57 20.8699 36.6 20.7699 36.62 20.6599C36.73 20.2399 37.03 20.0899 37.44 20.1399C37.8 20.1899 38.05 20.5399 37.99 20.9399C37.6 23.6599 36.56 26.0899 34.79 28.1999C33.84 29.3399 32.72 30.2699 31.49 31.0899C30.41 31.7999 29.91 32.8199 29.9 34.0999C29.9 34.9099 29.91 35.7299 29.89 36.5399C29.89 36.7799 29.94 36.9399 30.17 37.0599C30.76 37.3799 31.1 37.8899 31.11 38.5699C31.12 39.2699 31.24 39.9799 30.85 40.6299C30.8 40.7099 30.83 40.8699 30.88 40.9699C31.27 41.7599 31.19 42.5899 31.04 43.3999C30.91 44.1299 30.25 44.6399 29.5 44.6999C28.88 44.7399 28.25 44.7299 27.63 44.7399C27.46 44.7399 27.3 44.7599 27.09 44.7599C27.05 45.9999 27.4 47.3799 25.84 47.9799C24.62 47.9999 23.37 47.9999 22.12 47.9999ZM23.98 40.0799C25.54 40.0799 27.11 40.0799 28.67 40.0799C29.74 40.0799 29.74 40.0799 29.74 39.0399C29.74 38.2999 29.69 38.2499 28.93 38.2499C25.73 38.2499 22.52 38.2499 19.32 38.2499C18.27 38.2499 18.27 38.2499 18.28 39.3199C18.28 40.0199 18.34 40.0799 19.07 40.0799C20.7 40.0799 22.34 40.0799 23.98 40.0799ZM23.96 43.3199C25.51 43.3199 27.05 43.3199 28.6 43.3199C29.73 43.3199 29.73 43.3199 29.73 42.1999C29.73 41.5599 29.68 41.5099 29.03 41.5099C25.83 41.5099 22.62 41.5099 19.42 41.5099C18.17 41.5099 18.27 41.4599 18.27 42.6999C18.27 43.2399 18.35 43.3199 18.9 43.3199C20.59 43.3299 22.28 43.3199 23.96 43.3199ZM25.7 44.7899C24.54 44.7899 23.44 44.7899 22.31 44.7899C22.31 45.2899 22.28 45.7599 22.33 46.2299C22.34 46.3599 22.56 46.5799 22.7 46.5799C23.57 46.6099 24.45 46.6099 25.32 46.5799C25.45 46.5799 25.67 46.3599 25.69 46.2299C25.72 45.7599 25.7 45.2899 25.7 44.7899Z" fill="#00BAA4"/>
<path d="M20.4901 12.57C20.9601 12.38 21.3401 12.22 21.7501 12.05C21.7501 11.41 21.7501 10.77 21.7501 10.13C21.7501 9.36998 22.0901 8.96998 22.8301 8.93998C23.6101 8.90998 24.3901 8.90998 25.1701 8.93998C25.8901 8.96998 26.2401 9.36998 26.2401 10.09C26.2501 10.73 26.2401 11.37 26.2401 12.04C26.6301 12.21 27.0301 12.37 27.4801 12.56C27.9101 12.12 28.3301 11.66 28.7801 11.22C29.4001 10.61 29.9001 10.61 30.5201 11.22C31.0101 11.7 31.5001 12.19 31.9801 12.68C32.5801 13.29 32.5701 13.8 31.9701 14.42C31.6001 14.8 31.2101 15.16 30.8501 15.56C30.7601 15.66 30.7201 15.9 30.7701 16.03C31.1401 16.96 31.1501 16.96 32.1801 16.96C32.5201 16.96 32.8701 16.95 33.2101 16.97C33.8301 17 34.2001 17.34 34.2301 17.96C34.2601 18.79 34.2601 19.62 34.2301 20.44C34.2101 21.09 33.8001 21.45 33.1301 21.47C32.5801 21.48 32.0401 21.49 31.4901 21.47C31.2101 21.46 31.0701 21.54 30.9901 21.82C30.9101 22.1 30.7701 22.37 30.6201 22.71C31.0601 23.13 31.5101 23.55 31.9501 23.99C32.5801 24.62 32.5701 25.13 31.9501 25.76C31.4801 26.24 31.0001 26.71 30.5201 27.19C29.9001 27.8 29.4001 27.8 28.7801 27.2C28.4201 26.85 28.0601 26.5 27.7201 26.14C27.5201 25.93 27.3601 25.93 27.0801 26C26.3101 26.18 26.1301 26.64 26.2201 27.35C26.2701 27.72 26.2401 28.1 26.2201 28.47C26.1901 29.05 25.8201 29.44 25.2401 29.45C24.4001 29.47 23.5501 29.47 22.7101 29.45C22.1301 29.44 21.7501 29.04 21.7301 28.46C21.7101 27.88 21.7101 27.3 21.7301 26.73C21.7401 26.46 21.6301 26.35 21.3901 26.21C20.7401 25.81 20.2601 25.94 19.8301 26.53C19.6201 26.82 19.3401 27.05 19.0701 27.29C18.5701 27.74 18.0501 27.75 17.5701 27.3C16.9901 26.75 16.4301 26.19 15.8801 25.61C15.4101 25.11 15.4201 24.58 15.9101 24.07C16.3601 23.6 16.8501 23.15 17.3201 22.69C17.1801 22.33 17.0601 21.99 16.9001 21.68C16.8501 21.58 16.6701 21.48 16.5501 21.48C16.0001 21.46 15.4601 21.48 14.9101 21.47C14.1301 21.46 13.7401 21.1 13.7201 20.34C13.7001 19.57 13.7001 18.81 13.7201 18.04C13.7401 17.32 14.1201 16.97 14.8501 16.96C15.4001 16.95 15.9401 16.94 16.4901 16.96C16.7501 16.97 16.8401 16.84 16.9701 16.64C17.3901 15.98 17.2501 15.49 16.6301 15.05C16.3401 14.84 16.1101 14.56 15.8701 14.29C15.4401 13.8 15.4201 13.3 15.8701 12.82C16.4101 12.24 16.9801 11.68 17.5601 11.13C18.0801 10.64 18.6001 10.67 19.1301 11.17C19.3701 11.39 19.6001 11.63 19.8301 11.87C20.0801 12.09 20.2901 12.34 20.4901 12.57ZM18.3801 26.02C18.8501 25.54 19.3301 25.08 19.7901 24.59C20.1301 24.23 20.4801 24.18 20.9301 24.39C21.4501 24.63 21.9801 24.85 22.5201 25.05C22.9501 25.21 23.1801 25.46 23.1701 25.95C23.1501 26.63 23.1601 27.31 23.1601 28C23.7501 28 24.2901 28 24.8501 28C24.8501 27.31 24.8701 26.66 24.8401 26.01C24.8201 25.49 25.0401 25.2 25.5201 25.04C26.0501 24.86 26.5701 24.64 27.0701 24.4C27.5101 24.19 27.8701 24.22 28.2101 24.58C28.6601 25.07 29.1301 25.55 29.5401 25.97C30.0001 25.56 30.4001 25.2 30.8401 24.81C30.3401 24.32 29.8601 23.85 29.3701 23.39C29.0201 23.06 28.9901 22.71 29.1901 22.29C29.4201 21.8 29.6301 21.3 29.8201 20.79C30.0401 20.17 30.1801 20.05 30.8301 20.05C31.4801 20.05 32.1301 20.05 32.8001 20.05C32.8001 19.46 32.8001 18.94 32.8001 18.37C32.1201 18.37 31.4701 18.37 30.8201 18.37C30.2201 18.37 30.0401 18.22 29.8301 17.65C29.6501 17.15 29.4501 16.66 29.2301 16.18C28.9601 15.59 28.9701 15.42 29.4401 14.94C29.9001 14.48 30.3701 14.03 30.8401 13.57C30.4101 13.15 30.0401 12.77 29.6201 12.36C29.1301 12.86 28.6401 13.36 28.1501 13.87C27.8501 14.18 27.5301 14.22 27.1301 14.04C26.5801 13.78 26.0201 13.55 25.4501 13.34C25.0201 13.19 24.8201 12.93 24.8301 12.47C24.8501 11.79 24.8301 11.1 24.8301 10.42C24.2401 10.42 23.7101 10.42 23.1401 10.42C23.1401 11.09 23.1401 11.73 23.1401 12.37C23.1401 13.02 23.0201 13.17 22.4001 13.39C21.9201 13.56 21.4401 13.76 20.9801 13.97C20.3701 14.25 20.1901 14.24 19.7001 13.75C19.2501 13.3 18.8101 12.83 18.4001 12.42C17.9601 12.82 17.5701 13.19 17.1401 13.58C17.6501 14.08 18.1301 14.56 18.6301 15.04C18.9601 15.36 18.9901 15.69 18.8001 16.1C18.5701 16.61 18.3501 17.12 18.1501 17.65C17.9301 18.24 17.7601 18.38 17.1201 18.38C16.4701 18.38 15.8201 18.38 15.1801 18.38C15.1801 18.97 15.1801 19.5 15.1801 20.06C15.8801 20.06 16.5501 20.07 17.2201 20.06C17.7001 20.05 17.9701 20.26 18.1201 20.71C18.3001 21.22 18.5001 21.73 18.7301 22.22C19.0101 22.84 19.0001 23.01 18.5101 23.5C18.0601 23.95 17.6001 24.39 17.1401 24.84C17.5901 25.24 17.9601 25.61 18.3801 26.02Z" fill="#00BAA4"/>
<path d="M25.71 5.10992C27.37 5.30992 28.93 5.76992 30.39 6.53992C34.35 8.62992 36.82 11.8699 37.83 16.2199C37.92 16.6099 37.98 17.0199 38.03 17.4199C38.08 17.8299 37.82 18.1799 37.44 18.2499C37.1 18.3199 36.75 18.0899 36.65 17.6799C36.4 16.6999 36.27 15.6799 35.91 14.7499C34.18 10.2599 30.93 7.55992 26.2 6.62992C25.96 6.57992 25.71 6.53992 25.47 6.47992C25.08 6.36992 24.91 6.09992 24.95 5.70992C24.99 5.33992 25.32 5.09992 25.71 5.10992Z" fill="#00BAA4"/>
<path d="M24.7202 1.89C24.7202 2.25 24.7402 2.61 24.7202 2.96C24.6802 3.43 24.3802 3.73 24.0002 3.73C23.6202 3.73 23.3002 3.42 23.2902 2.96C23.2702 2.23 23.2602 1.49 23.2902 0.76C23.3002 0.28 23.6002 0 24.0002 0C24.4002 0 24.6702 0.28 24.7202 0.77C24.7202 0.8 24.7202 0.83 24.7202 0.86C24.7202 1.2 24.7202 1.54 24.7202 1.89Z" fill="#00BAA4"/>
<path d="M6.65007 19.8899C6.26007 19.8899 5.87007 19.8999 5.48007 19.8899C5.06007 19.8699 4.81007 19.6199 4.80007 19.2099C4.79007 18.7899 5.06007 18.5199 5.46007 18.4999C6.25007 18.4599 7.05007 18.4699 7.84007 18.4899C8.28007 18.5099 8.55007 18.8299 8.52007 19.2299C8.49007 19.6599 8.23007 19.8599 7.82007 19.8999C7.77007 19.8999 7.73007 19.9099 7.68007 19.9099C7.34007 19.9099 6.99007 19.9099 6.65007 19.9099C6.65007 19.8999 6.65007 19.8999 6.65007 19.8899Z" fill="#00BAA4"/>
<path d="M41.3001 19.89C40.9101 19.89 40.5201 19.91 40.1301 19.89C39.7401 19.87 39.5001 19.64 39.4701 19.24C39.4401 18.81 39.7001 18.53 40.1001 18.51C40.9201 18.47 41.7501 18.47 42.5701 18.51C42.9501 18.53 43.2001 18.81 43.1901 19.21C43.1801 19.62 42.9301 19.88 42.5101 19.89C42.1101 19.91 41.7101 19.89 41.3001 19.89Z" fill="#00BAA4"/>
<path d="M13.3601 30.6001C13.2101 30.8501 13.1301 31.0601 12.9901 31.2101C12.5101 31.7201 12.0101 32.2101 11.5001 32.7001C11.1201 33.0601 10.7401 33.0801 10.4301 32.7701C10.1301 32.4701 10.1501 32.0701 10.5101 31.7001C11.0201 31.1701 11.5401 30.6601 12.0701 30.1501C12.3001 29.9301 12.6001 29.8101 12.8801 30.0101C13.0601 30.1501 13.1901 30.3901 13.3601 30.6001Z" fill="#00BAA4"/>
<path d="M35.3702 29.8301C35.6202 29.9801 35.8302 30.0501 35.9802 30.1901C36.5002 30.6801 37.0102 31.1901 37.5002 31.7101C37.8502 32.0801 37.8602 32.4901 37.5502 32.7801C37.2502 33.0701 36.8702 33.0601 36.5102 32.7101C35.9802 32.2001 35.4402 31.7001 34.9702 31.1401C34.8102 30.9501 34.7502 30.5901 34.8102 30.3501C34.8702 30.1601 35.1602 30.0201 35.3702 29.8301Z" fill="#00BAA4"/>
<path d="M12.6201 8.5399C12.3701 8.4099 12.1701 8.3499 12.0301 8.2199C11.5001 7.7199 10.9801 7.1999 10.4801 6.6699C10.1401 6.3199 10.1301 5.9299 10.4201 5.6299C10.7001 5.3399 11.1201 5.3299 11.4601 5.6499C12.0001 6.1699 12.5501 6.6799 13.0301 7.2499C13.1901 7.4299 13.2401 7.7999 13.1801 8.0399C13.1201 8.2499 12.8201 8.3699 12.6201 8.5399Z" fill="#00BAA4"/>
<path d="M35.3601 8.51011C35.2001 8.39011 34.9301 8.28011 34.8501 8.09011C34.7601 7.88011 34.7601 7.52011 34.8901 7.37011C35.4501 6.73011 36.0601 6.13011 36.6901 5.55011C36.9601 5.30011 37.3101 5.36011 37.5701 5.63011C37.8401 5.90011 37.8901 6.24011 37.6401 6.51011C37.0601 7.14011 36.4401 7.7301 35.8301 8.3201C35.7401 8.4201 35.5801 8.43011 35.3601 8.51011Z" fill="#00BAA4"/>
<path d="M27.76 19.2101C27.75 21.3001 26.05 22.9801 23.97 22.9701C21.91 22.9501 20.24 21.2601 20.24 19.1901C20.25 17.1201 21.91 15.4501 23.99 15.4401C26.06 15.4201 27.77 17.1201 27.76 19.2101ZM26.35 19.2001C26.35 17.9001 25.3 16.8601 23.99 16.8601C22.69 16.8601 21.64 17.9201 21.65 19.2201C21.66 20.4801 22.72 21.5401 23.98 21.5601C25.25 21.5701 26.35 20.4801 26.35 19.2001Z" fill="#00BAA4"/>
</g>
<defs>
<clipPath id="clip0_1854_2301">
<rect width="48" height="48" fill="white"/>
</clipPath>
</defs>
</svg>
