<svg width="48" height="48" viewBox="0 0 48 48" fill="none" xmlns="http://www.w3.org/2000/svg">
<g clip-path="url(#clip0_1854_2329)">
<path d="M12.68 19.46C14.16 19.3 15.62 19.15 17.1 19C17.07 18.92 17.05 18.81 17 18.72C15.92 16.75 15.42 14.63 15.41 12.38C15.4 10.86 15.42 9.34001 15.4 7.83001C15.39 7.30001 15.6 7.03001 16.09 6.84001C18.58 5.89001 21.05 4.91001 23.54 3.96001C23.81 3.86001 24.18 3.86001 24.45 3.96001C26.94 4.90001 29.41 5.89001 31.9 6.83001C32.4 7.02001 32.58 7.30001 32.57 7.83001C32.54 9.51001 32.57 11.19 32.55 12.86C32.52 15.18 31.86 17.32 30.65 19.3C30.58 19.42 30.5 19.54 30.4 19.71C31.03 20.08 31.65 20.46 32.29 20.8C32.37 20.85 32.53 20.79 32.64 20.74C33.46 20.39 34.28 20.05 35.09 19.67C35.21 19.61 35.33 19.4 35.34 19.26C35.35 18.42 35.81 17.75 36.64 17.52C38.36 17.03 40.07 16.55 41.8 16.09C42.8 15.82 43.65 16.31 43.95 17.31C44.52 19.25 45.08 21.2 45.64 23.14C46.4 25.77 47.16 28.41 47.91 31.04C48.25 32.23 47.78 33.08 46.58 33.41C45.06 33.84 43.54 34.26 42.02 34.67C40.63 35.05 40.14 34.85 39.4 33.6C38.11 34.29 36.74 34.7 35.29 34.88C35.2 34.89 35.09 34.99 35.05 35.07C34.59 36.11 33.76 36.66 32.66 36.82C33.52 39.38 31.17 41.46 28.81 40.46C28.58 41.7 27.9 42.58 26.66 42.88C25.41 43.18 24.41 42.68 23.57 41.66C23.23 42.93 22.51 43.77 21.26 44.02C19.98 44.28 19.05 43.65 18.24 42.7C17.64 43.02 17.04 43.15 16.4 42.93C15.77 42.71 15.37 42.26 15.13 41.66C13.23 42.43 11.7 40.86 12.18 39.23C11.76 38.82 11.25 38.51 11.01 38.05C10.77 37.59 10.78 37 10.67 36.37C9.97005 36.11 9.41005 35.56 9.29005 34.64C9.28005 34.56 9.25005 34.47 9.28005 34.4C9.48005 33.84 9.13005 33.55 8.71005 33.23C8.65005 33.39 8.60005 33.55 8.54005 33.7C8.21005 34.57 7.36005 35.02 6.46005 34.78C4.75005 34.32 3.05005 33.84 1.35005 33.36C0.270047 33.05 -0.209953 32.19 0.100047 31.11C1.24005 27.13 2.39005 23.15 3.53005 19.17C3.71005 18.54 3.88005 17.91 4.07005 17.29C4.37005 16.3 5.23005 15.81 6.23005 16.09C7.92005 16.54 9.61005 17.02 11.3 17.48C12.3 17.77 12.68 18.49 12.68 19.46ZM18.97 41.93C19.2 42.16 19.37 42.33 19.55 42.49C20.22 43.12 21.2 43.15 21.85 42.57C22.52 41.98 22.59 40.99 22.02 40.24C21.99 40.2 21.96 40.17 21.93 40.13C21.74 39.87 21.71 39.58 21.95 39.35C22.21 39.1 22.51 39.15 22.76 39.39C23.44 40.06 24.11 40.75 24.8 41.42C25.34 41.94 26.05 42.05 26.7 41.75C27.34 41.45 27.7 40.8 27.65 40.07C27.61 39.53 27.28 39.17 26.93 38.81C25.64 37.52 24.35 36.23 23.07 34.94C22.79 34.66 22.72 34.34 23.02 34.06C23.3 33.79 23.61 33.89 23.86 34.15C23.93 34.22 24 34.29 24.06 34.35C25.63 35.92 27.2 37.49 28.77 39.06C29.28 39.58 29.88 39.75 30.56 39.54C31.78 39.16 32.1 37.66 31.16 36.71C29.59 35.12 28 33.54 26.42 31.96C26.32 31.86 26.15 31.77 26.13 31.65C26.09 31.41 26.04 31.1 26.15 30.92C26.33 30.64 26.65 30.68 26.91 30.89C27.01 30.97 27.09 31.07 27.18 31.16C28.54 32.51 29.89 33.88 31.26 35.21C31.48 35.42 31.78 35.59 32.08 35.66C32.85 35.84 33.55 35.49 33.91 34.84C34.27 34.17 34.16 33.37 33.56 32.78C30.91 30.12 28.26 27.46 25.59 24.81C24.55 23.78 23.16 23.83 22.16 24.9C21.36 25.75 20.59 26.62 19.79 27.47C18.69 28.64 17.03 28.8 15.75 27.88C14.51 26.99 14.14 25.34 14.88 23.95C15.57 22.65 16.42 21.45 17.46 20.4C17.53 20.33 17.58 20.24 17.64 20.16C17.62 20.12 17.61 20.07 17.59 20.03C15.93 20.24 14.27 20.44 12.61 20.67C12.46 20.69 12.25 20.84 12.21 20.97C11.16 24.56 10.13 28.16 9.10005 31.76C9.07005 31.86 9.10005 32.01 9.16005 32.09C9.40005 32.38 9.67005 32.65 9.96005 32.96C10.56 32.35 11.07 31.79 11.61 31.28C12.7 30.25 14.45 30.71 14.9 32.13C14.96 32.32 14.98 32.53 15.03 32.75C16.29 32.88 16.97 33.6 17.1 34.82C18.4 35.03 18.91 35.55 19.14 36.84C19.17 36.85 19.19 36.88 19.22 36.88C20.11 36.96 20.77 37.39 21.06 38.26C21.36 39.15 21.06 39.88 20.4 40.51C19.94 40.98 19.47 41.44 18.97 41.93ZM35.7 20.66C35.5 20.74 35.36 20.79 35.21 20.85C34.36 21.21 33.52 21.6 32.66 21.93C32.43 22.02 32.06 22.01 31.87 21.88C29.81 20.49 27.51 19.73 25.12 19.19C22.43 18.58 20.1 19.28 18.24 21.26C17.36 22.19 16.64 23.29 15.95 24.37C15.34 25.32 15.6 26.41 16.44 27.01C17.25 27.59 18.32 27.45 19.07 26.65C19.81 25.86 20.54 25.05 21.28 24.25C22.85 22.57 24.9 22.54 26.54 24.17C28.96 26.59 31.37 29.01 33.79 31.42C34.46 32.09 35.14 32.74 35.23 33.74C36.12 33.73 37.75 33.23 38.74 32.7C39.03 32.55 39.1 32.4 39.01 32.06C38.17 29.19 37.34 26.31 36.52 23.43C36.24 22.52 35.98 21.61 35.7 20.66ZM11.55 19.22C11.51 18.82 11.3 18.66 10.97 18.57C9.33005 18.12 7.69005 17.65 6.05005 17.19C5.51005 17.04 5.27005 17.2 5.11005 17.76C3.80005 22.28 2.50005 26.79 1.20005 31.31C1.00005 31.96 1.12005 32.18 1.76005 32.36C3.31005 32.8 4.86005 33.23 6.41005 33.66C7.18005 33.87 7.37005 33.77 7.59005 33C8.79005 28.82 9.99005 24.64 11.19 20.46C11.32 20.03 11.44 19.61 11.55 19.22ZM42.26 17.14C42.2 17.14 42.14 17.14 42.08 17.16C40.35 17.64 38.61 18.11 36.88 18.61C36.5 18.72 36.4 19.04 36.51 19.42C37.84 24.01 39.16 28.61 40.49 33.2C40.64 33.73 40.87 33.85 41.43 33.7C43.01 33.27 44.6 32.83 46.18 32.39C46.92 32.18 47.02 31.99 46.81 31.25C46.14 28.94 45.48 26.63 44.81 24.31C44.18 22.12 43.54 19.93 42.91 17.74C42.8 17.41 42.66 17.14 42.26 17.14ZM19.35 11.55C19.2 13.64 19.6 15.62 20.74 17.4C21.2 18.12 21.2 18.11 22.05 17.96C22.14 17.94 22.24 17.94 22.33 17.93C23.59 17.75 24.81 17.97 26.02 18.27C26.43 18.37 26.7 18.31 26.88 17.95C27.34 17.06 27.87 16.2 28.23 15.27C28.89 13.56 28.67 11.74 28.68 9.96001C28.68 9.86001 28.47 9.71001 28.34 9.65001C27.01 9.12001 25.67 8.59001 24.33 8.09001C24.13 8.02001 23.86 8.03001 23.66 8.10001C22.75 8.43001 21.85 8.79001 20.94 9.15001C20.41 9.36001 19.66 9.44001 19.4 9.83001C19.14 10.24 19.35 10.96 19.35 11.55ZM27.86 18.75C28.32 18.91 28.83 19.09 29.35 19.27C30.12 18.18 30.65 17.03 31.01 15.79C31.76 13.19 31.37 10.52 31.49 7.90001C31.39 7.85001 31.34 7.81001 31.28 7.79001C28.93 6.88001 26.59 5.96001 24.24 5.06001C24.08 5.00001 23.86 5.02001 23.7 5.08001C21.43 5.95001 19.16 6.84001 16.88 7.72001C16.63 7.82001 16.51 7.93001 16.51 8.23001C16.53 9.70001 16.5 11.17 16.53 12.64C16.57 14.74 17.1 16.7 18.17 18.52C18.45 18.99 18.9 19.14 19.41 18.9C19.65 18.79 19.88 18.65 20.02 18.57C19.55 17.5 19.02 16.5 18.65 15.44C17.97 13.48 18.21 11.43 18.22 9.41001C18.22 9.21001 18.51 8.91001 18.73 8.82001C20.35 8.16001 21.99 7.52001 23.63 6.91001C23.86 6.82001 24.17 6.83001 24.4 6.91001C26.01 7.51001 27.6 8.16001 29.21 8.77001C29.66 8.94001 29.82 9.22001 29.81 9.68001C29.79 10.37 29.8 11.05 29.81 11.74C29.82 13.02 29.79 14.31 29.33 15.52C28.91 16.62 28.36 17.66 27.86 18.75ZM14.06 40.89C14.38 40.71 14.63 40.61 14.83 40.44C15.18 40.14 15.49 39.79 15.82 39.46C16.48 38.79 17.15 38.13 17.79 37.44C18.14 37.07 18.1 36.58 17.76 36.24C17.44 35.92 16.94 35.86 16.59 36.19C15.52 37.22 14.45 38.25 13.44 39.34C13.26 39.53 13.26 40.02 13.36 40.3C13.45 40.53 13.79 40.68 14.06 40.89ZM15.17 33.85C14.89 33.95 14.7 33.96 14.6 34.06C13.72 34.92 12.85 35.77 12.01 36.67C11.7 37 11.81 37.53 12.14 37.83C12.47 38.14 12.93 38.18 13.26 37.86C14.11 37.04 14.95 36.22 15.74 35.34C15.91 35.15 15.93 34.69 15.82 34.43C15.72 34.17 15.38 34.01 15.17 33.85ZM19.28 37.95C18.99 38.07 18.78 38.1 18.65 38.22C17.87 38.97 17.1 39.73 16.35 40.52C16.02 40.87 16.08 41.36 16.4 41.69C16.71 42.01 17.24 42.08 17.57 41.77C18.37 41.02 19.15 40.24 19.89 39.42C20.05 39.24 20.06 38.79 19.95 38.55C19.85 38.29 19.51 38.13 19.28 37.95ZM11.38 35.38C11.48 35.33 11.71 35.27 11.86 35.13C12.47 34.55 13.08 33.96 13.65 33.34C14.01 32.96 13.96 32.43 13.6 32.1C13.24 31.76 12.76 31.75 12.36 32.12C11.89 32.55 11.45 33.01 11.01 33.47C10.82 33.66 10.63 33.86 10.5 34.09C10.17 34.65 10.61 35.37 11.38 35.38Z" fill="#00BAA4"/>
<path d="M7.62003 19.1699C8.65003 19.1699 9.43003 19.9499 9.44003 20.9899C9.45003 22.0399 8.65003 22.8199 7.59003 22.8199C6.57003 22.7999 5.78003 21.9999 5.78003 20.9699C5.78003 19.9599 6.59003 19.1699 7.62003 19.1699ZM7.62003 21.6999C8.03003 21.6899 8.35003 21.3599 8.34003 20.9599C8.33003 20.5899 8.00003 20.2599 7.62003 20.2599C7.22003 20.2499 6.89003 20.5799 6.89003 20.9899C6.88003 21.3999 7.20003 21.6999 7.62003 21.6999Z" fill="#00BAA4"/>
<path d="M40.3801 22.81C39.3401 22.81 38.4901 21.99 38.5001 20.98C38.5101 19.98 39.3301 19.16 40.3401 19.17C41.3501 19.17 42.1801 19.98 42.1901 20.98C42.2101 21.97 41.3801 22.81 40.3801 22.81ZM40.3701 21.7C40.7801 21.69 41.0901 21.36 41.0801 20.96C41.0701 20.58 40.7401 20.26 40.3701 20.26C39.9801 20.26 39.6301 20.61 39.6301 20.99C39.6301 21.39 39.9601 21.71 40.3701 21.7Z" fill="#00BAA4"/>
<path d="M22.9302 14.77C23.9702 13.72 24.9502 12.74 25.9302 11.76C26.4202 11.27 26.7302 11.2 27.0202 11.5C27.2802 11.78 27.2002 12.07 26.7202 12.55C25.6602 13.61 24.6002 14.67 23.5402 15.73C23.0502 16.22 22.8402 16.21 22.3502 15.72C21.9402 15.31 21.5402 14.91 21.1302 14.5C20.8602 14.23 20.7502 13.92 21.0502 13.63C21.3502 13.33 21.6602 13.45 21.9302 13.72C22.2402 14.05 22.5502 14.38 22.9302 14.77Z" fill="#00BAA4"/>
</g>
<defs>
<clipPath id="clip0_1854_2329">
<rect width="48" height="48" fill="white"/>
</clipPath>
</defs>
</svg>
