<svg width="48" height="48" viewBox="0 0 48 48" fill="none" xmlns="http://www.w3.org/2000/svg">
<g clip-path="url(#clip0_1859_2385)">
<path d="M0 45.2998C0.6 44.4998 0.6 43.5998 0.6 42.5998C0.5 40.1998 0.9 37.8998 2 35.7998C2.3 35.2998 2.6 34.7998 2.9 34.2998C3.1 33.9998 3.2 33.5998 3.2 33.2998C3.2 32.6998 3.1 32.0998 3.1 31.5998C3 29.7998 4.3 28.4998 6.1 28.4998C8.5 28.4998 10.8 28.4998 13.2 28.4998C13.9 28.4998 14.2 28.1998 14.3 27.4998C14.3 26.8998 14.3 26.2998 14.3 25.6998C14.3 25.5998 14.2 25.3998 14.1 25.3998C12.1 23.9998 11 22.0998 10.6 19.6998C10.3 19.6998 10 19.6998 9.7 19.6998C8.4 19.6998 7.5 18.7998 7.4 17.4998C7.4 16.5998 7.4 15.5998 7.4 14.6998C7.4 13.9998 7.7 13.2998 8.4 12.8998C8.7 12.6998 8.7 12.4998 8.7 12.2998C8.7 11.3998 8.7 10.4998 8.7 9.4998C8.7 5.7998 11.7 2.8998 15.4 2.7998C17.9 2.7998 20.3 2.7998 22.8 2.7998C24.5 2.7998 25.7 3.8998 25.9 5.5998C25.9 5.7998 26 5.9998 26.3 5.9998C27.9 5.9998 29 7.1998 29 8.9998C29 9.9998 29 11.0998 29 12.0998C29 12.3998 29.1 12.4998 29.3 12.6998C29.9 13.0998 30.3 13.6998 30.3 14.4998C30.3 16.2998 30.3 18.0998 30.3 19.8998C30.3 21.3998 29 22.6998 27.5 22.5998C26.6 22.5998 25.9 22.6998 25.4 23.5998C25 24.1998 24.3 24.5998 23.8 25.0998C23.7 25.1998 23.5 25.4998 23.5 25.6998C23.5 26.1998 23.5 26.6998 23.5 27.1998C23.5 27.9998 23.9 28.2998 24.6 28.2998C26.9 28.2998 29.2 28.2998 31.5 28.2998C33.5 28.2998 34.8 29.6998 34.6 31.6998C34.5 32.2998 34.5 32.8998 34.5 33.4998C34.5 33.6998 34.6 33.7998 34.7 33.9998C36.4 36.3998 37.2 38.9998 37.2 41.8998C37.2 42.2998 37.2 42.6998 37.2 43.1998C37.2 43.7998 37.2 44.2998 37.5 44.7998C38.1 45.8998 37.5 47.2998 36.3 47.7998C36.2 47.8998 36 47.8998 35.9 47.9998C24.6 47.9998 13.3 47.9998 2 47.9998C1.1 47.6998 0.4 47.1998 0.1 46.1998C0 45.8998 0 45.5998 0 45.2998ZM16.1 43.4998C16.1 43.3998 16.1 43.2998 16.1 43.1998C15.9 42.3998 15.4 41.6998 14.9 41.0998C13 38.7998 13.7 35.2998 16.2 33.7998C17.1 33.2998 18 33.6998 18 34.7998C18 35.4998 18 36.2998 18 36.9998C18 38.2998 17.8 38.0998 19.1 38.0998C19.5 38.0998 19.7 37.9998 19.7 37.4998C19.7 36.4998 19.7 35.5998 19.7 34.5998C19.7 33.6998 20.6 33.1998 21.3 33.6998C21.8 33.9998 22.3 34.4998 22.7 34.9998C24.2 36.8998 24.1 39.4998 22.5 41.2998C22 41.8998 21.5 42.5998 21.4 43.4998C25.1 43.4998 28.7 43.4998 32.4 43.4998C32.4 42.8998 32.4 42.3998 32.5 41.8998C32.7 38.3998 32.9 34.8998 33.1 31.3998C33.1 30.4998 32.6 29.8998 31.8 29.7998C31.6 29.7998 31.4 29.7998 31.2 29.7998C23 29.7998 14.7 29.7998 6.5 29.7998C4.9 29.7998 4.4 30.2998 4.5 31.8998C4.5 31.9998 4.5 32.0998 4.5 32.0998C4.6 33.9998 4.7 35.9998 4.8 37.8998C4.8 38.4998 4.6 38.7998 4.2 38.7998C3.8 38.7998 3.5 38.5998 3.4 37.9998C3.4 37.3998 3.3 36.8998 3.3 36.2998C2 38.4998 1.8 40.8998 2 43.2998C2.6 43.2998 3.1 43.2998 3.7 43.2998C3.7 42.5998 3.6 41.9998 3.6 41.3998C3.6 40.8998 3.9 40.5998 4.3 40.5998C4.7 40.5998 5 40.8998 5 41.3998C5 41.9998 5.1 42.6998 5.1 43.2998C8.8 43.4998 12.5 43.4998 16.1 43.4998ZM11.9 15.9998C11.9 17.0998 11.9 18.1998 11.9 19.2998C11.9 19.5998 12 19.7998 12 20.0998C13 24.0998 17.4 26.3998 21.2 24.8998C21.8 24.6998 22.4 24.2998 23 23.9998C23 23.8998 23 23.8998 22.9 23.7998C22.7 23.7998 22.4 23.7998 22.2 23.7998C21.2 23.6998 20.4 22.9998 20.3 22.0998C20.2 21.0998 20.8 20.1998 21.7 19.9998C22.9 19.7998 24.2 19.5998 25.4 20.3998C25.9 18.8998 25.6 17.3998 25.7 15.8998C24.3 15.5998 24.1 15.1998 24.1 13.7998C24.1 13.0998 24.1 12.2998 24.1 11.5998C24.1 10.3998 23.3 9.6998 22.1 9.7998C21.8 9.7998 21.6 9.8998 21.3 9.9998C20.1 10.2998 19 10.4998 17.8 10.2998C17.1 10.1998 16.4 9.9998 15.7 9.8998C14.4 9.5998 13.4 10.3998 13.4 11.6998C13.4 12.2998 13.4 12.7998 13.4 13.3998C13.4 13.5998 13.4 13.6998 13.4 13.8998C13.5 15.1998 13.2 15.5998 11.9 15.9998ZM25.6 14.4998C26.2 14.2998 26.6 14.0998 27.1 13.9998C27.5 13.8998 27.6 13.5998 27.6 13.2998C27.6 11.7998 27.6 10.2998 27.6 8.7998C27.6 7.8998 26.9 7.2998 26 7.1998C25 7.1998 24.4 6.5998 24.4 5.5998C24.3 4.6998 23.7 4.0998 22.8 4.0998C20.2 4.0998 17.6 4.0998 15 4.0998C12.6 4.0998 10.4 6.0998 10.2 8.4998C10 10.0998 10 11.6998 10 13.3998C10 13.5998 10.2 13.7998 10.3 13.8998C10.8 14.0998 11.4 14.2998 12 14.4998C12 14.1998 12 13.9998 12 13.7998C12 12.7998 11.9 11.7998 12.1 10.8998C12.4 8.9998 14.3 7.9998 16.3 8.4998C18 8.9998 19.7 8.9998 21.4 8.4998C23.7 7.8998 25.6 9.3998 25.6 11.6998C25.6 12.6998 25.6 13.4998 25.6 14.4998ZM18.8 44.9998C13.4 44.9998 8 44.9998 2.6 44.9998C2.4 44.9998 2.3 44.9998 2.1 44.9998C1.7 44.9998 1.4 45.3998 1.4 45.6998C1.4 46.0998 1.7 46.3998 2.1 46.4998C2.3 46.4998 2.5 46.4998 2.7 46.4998C13.5 46.4998 24.3 46.4998 35.1 46.4998C35.3 46.4998 35.5 46.4998 35.7 46.4998C36.1 46.3998 36.4 46.0998 36.3 45.6998C36.3 45.1998 36 44.9998 35.3 44.9998C29.7 44.9998 24.3 44.9998 18.8 44.9998ZM20 43.4998C20.2 42.1998 20.7 41.1998 21.5 40.2998C22.2 39.3998 22.5 38.3998 22.3 37.2998C22.1 36.4998 21.8 35.8998 21.2 35.3998C21.2 35.4998 21.1 35.4998 21.1 35.4998C21.1 36.2998 21.1 37.0998 21.1 37.8998C21.1 38.7998 20.4 39.4998 19.4 39.5998C19 39.5998 18.6 39.5998 18.1 39.5998C17.3 39.5998 16.7 38.9998 16.5 38.2998C16.4 37.8998 16.4 37.5998 16.4 37.1998C16.4 36.5998 16.4 36.0998 16.4 35.4998C16.3 35.5998 16.2 35.6998 16.1 35.6998C14.8 36.9998 14.7 39.0998 15.9 40.4998C16.6 41.3998 17.2 42.2998 17.4 43.4998C17.4 43.5998 17.6 43.7998 17.7 43.7998C18.6 43.4998 19.3 43.4998 20 43.4998ZM15.5 28.3998C17.7 28.3998 19.9 28.3998 22.1 28.3998C22.1 27.6998 22 26.8998 22 26.2998C21 26.4998 19.9 26.6998 18.8 26.6998C17.7 26.6998 16.7 26.3998 15.6 26.2998C15.6 26.8998 15.6 27.5998 15.5 28.3998ZM35.6 43.4998C36 41.2998 35.2 37.3998 34.3 36.4998C34.2 38.8998 34 41.1998 33.9 43.4998C34.5 43.4998 35 43.4998 35.6 43.4998ZM8.8 14.4998C8.8 15.3998 8.8 16.3998 8.8 17.3998C8.8 17.7998 9.2 17.9998 9.5 17.9998C9.8 17.9998 10.1 17.9998 10.4 17.9998C10.4 17.1998 10.4 16.3998 10.4 15.5998C10.4 15.4998 10.3 15.3998 10.2 15.2998C9.7 15.0998 9.3 14.7998 8.8 14.4998ZM27.2 18.0998C27.5 18.0998 27.7 18.0998 27.9 18.0998C28.6 18.0998 28.9 17.7998 28.9 17.0998C28.9 16.8998 28.9 16.6998 28.9 16.4998C28.9 15.7998 28.9 15.0998 28.9 14.4998C28.4 14.7998 27.9 15.0998 27.4 15.3998C27.3 15.4998 27.2 15.5998 27.2 15.6998C27.2 16.4998 27.2 17.1998 27.2 18.0998ZM28.8 19.4998C28.3 19.4998 27.8 19.4998 27.4 19.4998C27.3 19.4998 27.1 19.5998 27.1 19.6998C27 20.1998 26.9 20.6998 26.8 21.1998C28.2 21.3998 29 20.6998 28.8 19.4998ZM23.2 21.3998C22.9 21.3998 22.6 21.2998 22.3 21.3998C22.1 21.4998 21.9 21.6998 21.8 21.7998C21.7 22.0998 21.9 22.2998 22.3 22.2998C22.9 22.2998 23.5 22.2998 24.1 22.2998C24.3 22.2998 24.5 21.9998 24.6 21.7998C24.7 21.4998 24.4 21.2998 24.1 21.2998C23.8 21.3998 23.5 21.3998 23.2 21.3998Z" fill="#00BAA4"/>
<path d="M35.4002 14.5C35.7002 13.9 36.1002 13.4 36.4002 12.8C36.8002 12.2 37.1002 11.6 37.5002 11C37.9002 10.3 38.5002 10 39.3002 10C41.2002 10 43.1002 10 45.0002 10C46.1002 10 46.6002 9.50003 46.6002 8.40003C46.6002 8.10003 46.6002 7.80003 46.6002 7.50003C46.6002 7.10003 46.9002 6.80003 47.3002 6.80003C47.7002 6.70003 48.0002 7.00003 48.0002 7.40003C48.0002 8.10003 48.0002 8.70003 47.9002 9.40003C47.6002 10.6 46.5002 11.4 45.3002 11.4C43.4002 11.4 41.5002 11.4 39.5002 11.4C39.1002 11.4 38.8002 11.5 38.6002 11.9C37.8002 13.3 36.9002 14.7 36.1002 16.1C35.6002 16.9 34.6002 17 34.1002 16.3C33.9002 16.1 33.9002 15.8 33.9002 15.5C33.9002 14.4 33.9002 13.3 33.9002 12.3C33.9002 11.7 33.8002 11.6 33.2002 11.5C31.9002 11.4 30.7002 10.3 30.7002 8.90003C30.7002 6.90003 30.7002 4.80003 30.7002 2.80003C30.7002 1.30003 31.9002 0.20003 33.4002 0.20003C37.4002 0.20003 41.3002 0.20003 45.3002 0.20003C46.8002 3.03593e-05 48.0002 1.20003 48.0002 2.80003C48.0002 3.20003 48.0002 3.70003 48.0002 4.10003C48.0002 4.60003 47.7002 4.90003 47.3002 4.90003C46.9002 4.90003 46.6002 4.60003 46.6002 4.20003C46.6002 3.80003 46.6002 3.50003 46.6002 3.10003C46.6002 2.00003 46.1002 1.50003 45.0002 1.50003C43.7002 1.50003 42.5002 1.50003 41.2002 1.50003C38.7002 1.50003 36.2002 1.50003 33.7002 1.50003C32.5002 1.50003 32.0002 2.00003 32.0002 3.20003C32.0002 5.00003 32.0002 6.70003 32.0002 8.50003C32.0002 9.60003 32.4002 10 33.5002 10.1C34.5002 10.2 35.2002 11 35.2002 12C35.3002 12.8 35.3002 13.6 35.4002 14.5Z" fill="#00BAA4"/>
<path d="M39.2998 8.1998C37.7998 8.1998 36.2998 8.1998 34.7998 8.1998C34.5998 8.1998 34.4998 8.1998 34.2998 8.1998C33.9998 8.0998 33.7998 7.8998 33.7998 7.5998C33.7998 7.1998 33.9998 6.9998 34.2998 6.8998C34.4998 6.8998 34.6998 6.7998 34.8998 6.7998C37.8998 6.7998 40.7998 6.7998 43.7998 6.7998C43.8998 6.7998 43.9998 6.7998 43.9998 6.7998C44.4998 6.7998 44.8998 7.0998 44.7998 7.4998C44.7998 7.8998 44.4998 8.1998 43.9998 8.1998C42.7998 8.1998 41.6998 8.1998 40.4998 8.1998C40.0998 8.1998 39.6998 8.1998 39.2998 8.1998Z" fill="#00BAA4"/>
<path d="M41.0998 4.9C40.0998 4.9 39.1998 4.9 38.1998 4.9C37.5998 4.9 37.2998 4.6 37.2998 4.2C37.2998 3.7 37.5998 3.5 38.1998 3.5C40.0998 3.5 41.9998 3.5 43.9998 3.5C44.5998 3.5 44.8998 3.8 44.8998 4.2C44.8998 4.6 44.5998 4.9 43.9998 4.9C42.9998 4.9 41.9998 4.9 41.0998 4.9Z" fill="#00BAA4"/>
<path d="M34.9998 4.9001C34.0998 4.9001 33.7998 4.6001 33.7998 4.1001C33.8998 3.6001 34.1998 3.4001 35.0998 3.5001C35.5998 3.5001 35.8998 3.8001 35.8998 4.2001C35.8998 4.6001 35.6998 4.8001 35.2998 4.9001C35.2998 4.9001 35.0998 4.9001 34.9998 4.9001Z" fill="#00BAA4"/>
</g>
<defs>
<clipPath id="clip0_1859_2385">
<rect width="48" height="48" fill="white"/>
</clipPath>
</defs>
</svg>
