<svg width="48" height="48" viewBox="0 0 48 48" fill="none" xmlns="http://www.w3.org/2000/svg">
<g clip-path="url(#clip0_1854_2357)">
<path d="M41.81 41.0201C41.81 42.8701 41.81 44.6601 41.81 46.4401C41.81 47.9401 41.77 47.9801 40.27 47.9801C29.29 47.9801 18.3 47.9801 7.32 47.9801C6.39 47.9801 6.19 47.7901 6.19 46.8501C6.19 44.9301 6.19 43.0101 6.19 41.0201C6.01 41.0201 5.84 41.0201 5.67 41.0201C4.11 41.0201 2.54 41.0201 0.98 41.0201C0.25 41.0201 0 40.7701 0 40.0301C0 36.6801 0 33.3201 0 29.9701C0 28.3001 0.89 26.9801 2.45 26.3201C4.59 25.4201 6.72 24.5301 8.87 23.6501C9.17 23.5201 9.27 23.3701 9.31 23.0301C9.43 21.9801 9.14 21.2601 8.2 20.6001C6.74 19.5801 5.96 18.0201 5.57 16.3001C3.88 16.0201 3.06 15.2501 3.03 13.9501C3 12.7501 3.83 11.8601 5.29 11.5501C4.95 10.8801 4.64 10.2101 4.29 9.56007C2.69 6.62007 4.3 3.33007 7.11 2.49007C7.56 2.35007 7.94 1.96007 8.34 1.66007C9.85 0.530074 11.55 -0.0499261 13.43 0.0200739C14.04 0.0400739 14.68 0.0900739 15.23 0.310074C16.67 0.890074 18.18 1.40007 19.48 2.24007C21.78 3.73007 22.54 5.99007 22.13 8.63007C23.24 8.63007 24.37 8.63007 25.45 8.63007C25.45 7.79007 25.33 6.93007 25.48 6.12007C25.76 4.54007 26.75 3.46007 28.18 2.74007C28.82 2.42007 29.46 2.07007 30.04 1.65007C31.57 0.540074 33.25 -0.0399261 35.14 0.0200739C35.75 0.0400739 36.39 0.0900739 36.94 0.310074C38.37 0.880074 39.84 1.41007 41.15 2.21007C43.63 3.73007 44.57 6.92007 43.51 9.64007C43.26 10.2801 42.97 10.9101 42.69 11.5801C43.42 11.6701 44.04 11.9401 44.48 12.5201C44.82 12.9801 44.98 13.4901 44.94 14.0601C44.87 15.3401 44.02 16.1001 42.57 16.2801C42.18 17.1501 41.85 18.0101 41.41 18.8001C40.85 19.8201 40.01 20.6101 39.03 21.2201C38.8 21.3601 38.7 21.5201 38.71 21.7901C38.74 22.3401 38.54 23.0101 38.8 23.4001C39.05 23.7801 39.73 23.8901 40.24 24.1001C41.95 24.8201 43.65 25.5201 45.36 26.2301C47.18 26.9801 48.01 28.2301 48.01 30.1901C48.01 33.4601 48.01 36.7401 48.01 40.0101C48.01 40.7801 47.77 41.0201 47.01 41.0201C45.29 41.0201 43.58 41.0201 41.81 41.0201ZM46.45 39.4601C46.45 39.2701 46.45 39.1301 46.45 38.9801C46.45 36.0801 46.45 33.1801 46.45 30.2701C46.45 28.8901 45.98 28.1901 44.72 27.6701C42.4 26.7001 40.09 25.7301 37.77 24.7801C37.34 24.6001 37.14 24.3301 37.15 23.8601C37.17 22.9301 37.16 21.9901 37.15 21.0501C37.14 20.6501 37.32 20.3901 37.66 20.2001C39.54 19.1801 40.65 17.6201 40.96 15.4901C41.04 14.9301 41.32 14.7201 41.88 14.7101C42.11 14.7101 42.33 14.7201 42.56 14.7001C43.02 14.6701 43.34 14.3401 43.35 13.9301C43.35 13.5301 43.03 13.1901 42.57 13.1501C42.31 13.1301 42.05 13.1501 41.8 13.1401C41.34 13.1201 41.06 12.8401 41.03 12.3801C41 11.8101 41.03 11.2701 41.3 10.7401C41.59 10.1801 41.82 9.60007 42.04 9.01007C42.89 6.76007 41.92 4.27007 39.76 3.18007C39.17 2.88007 38.56 2.64007 37.96 2.35007C35.34 1.08007 32.89 1.35007 30.6 3.15007C30.1 3.54007 29.52 3.83007 28.94 4.09007C28.19 4.43007 27.6 4.92007 27.23 5.66007C26.81 6.49007 26.79 7.34007 27.06 8.24007C27.32 9.08007 27.84 9.60007 28.67 9.86007C28.97 9.96007 29.26 10.1201 29.55 10.2601C30.48 10.7201 31.27 11.3501 31.86 12.2001C33.23 14.1901 33.44 16.3001 32.49 18.5201C32.27 19.0401 32.04 19.5601 31.8 20.1201C32.08 20.1201 32.28 20.1201 32.47 20.1201C33.8 20.1301 34.81 21.1301 34.82 22.4301C34.82 23.7501 33.81 24.7601 32.45 24.7601C32.16 24.7601 31.88 24.7601 31.61 24.7601C30.83 27.3201 30.17 28.2301 28.06 29.8001C27.96 29.8701 27.87 30.0201 27.87 30.1401C27.85 30.7201 27.86 31.3001 27.86 31.8901C28.04 31.9401 28.19 31.9901 28.34 32.0301C31.9 33.0201 35.47 34.0001 39.02 35.0201C40.49 35.4401 41.4 36.4601 41.71 37.9601C41.81 38.4401 41.8 38.9401 41.84 39.4501C43.37 39.4601 44.88 39.4601 46.45 39.4601ZM16.13 20.1001C15.72 19.2801 15.32 18.5101 14.95 17.7301C13.81 15.3001 14.8 12.3901 17.25 11.3301C18.28 10.8801 19.08 10.1501 20.02 9.61007C20.13 9.55007 20.21 9.40007 20.27 9.27007C21.26 7.01007 20.34 4.36007 18.14 3.23007C17.27 2.78007 16.37 2.39007 15.46 2.02007C14.31 1.55007 13.12 1.48007 11.9 1.72007C10.64 1.96007 9.61 2.64007 8.63 3.40007C8.35 3.61007 8.04 3.85007 7.7 3.96007C5.52 4.67007 4.63 6.70007 5.64 8.76007C6.02 9.54007 6.48 10.2901 6.78 11.1001C6.95 11.5601 6.95 12.1001 6.92 12.6001C6.9 12.9301 6.58 13.1301 6.22 13.1401C5.98 13.1501 5.74 13.1301 5.49 13.1501C5 13.1801 4.66 13.4901 4.65 13.9201C4.64 14.3401 4.98 14.6701 5.47 14.7001C5.68 14.7101 5.89 14.7001 6.1 14.7001C6.68 14.7101 6.96 14.9301 7.04 15.5101C7.34 17.6001 8.43 19.1501 10.28 20.1601C10.68 20.3801 10.86 20.6701 10.85 21.1301C10.83 21.9701 10.84 22.8101 10.84 23.6501C10.84 24.4301 10.76 24.5501 10.05 24.8501C7.78 25.7901 5.5 26.7401 3.23 27.6801C2.02 28.1801 1.54 28.9001 1.54 30.2201C1.54 33.1401 1.54 36.0601 1.54 38.9801C1.54 39.1401 1.55 39.2901 1.56 39.4401C3.12 39.4401 4.64 39.4401 6.19 39.4401C6.19 39.2101 6.19 39.0201 6.19 38.8301C6.19 36.9501 7.29 35.4801 9.1 34.9701C11.24 34.3701 13.38 33.7801 15.52 33.1901C17.05 32.7701 18.58 32.3401 20.13 31.9101C20.13 31.4901 20.1 31.1101 20.14 30.7201C20.2 30.1801 20.02 29.8401 19.54 29.5101C17.87 28.3801 16.87 26.7601 16.4 24.7701C15.62 24.7301 14.8 24.8601 14.12 24.3201C13.45 23.7901 13.12 23.1201 13.16 22.2701C13.22 20.9401 14.17 20.2301 16.13 20.1001ZM13.93 46.4101C20.68 46.4101 27.36 46.4101 34.1 46.4101C34.1 44.3401 34.1 42.3001 34.1 40.2801C34.63 40.2801 35.11 40.2801 35.64 40.2801C35.64 42.3501 35.64 44.3801 35.64 46.4201C37.2 46.4201 38.71 46.4201 40.23 46.4201C40.25 46.3501 40.27 46.3101 40.27 46.2701C40.27 43.7401 40.29 41.2101 40.26 38.6801C40.25 37.6501 39.6 36.8101 38.61 36.5301C34.96 35.5001 31.3 34.4901 27.64 33.4901C27.49 33.4501 27.23 33.5201 27.11 33.6401C26.3 34.4201 25.51 35.2301 24.71 36.0201C24.19 36.5401 23.83 36.5301 23.31 36.0101C22.53 35.2401 21.75 34.4701 20.99 33.6801C20.76 33.4401 20.56 33.4201 20.27 33.5001C16.74 34.4901 13.21 35.4701 9.68 36.4601C8.34 36.8401 7.74 37.6201 7.74 39.0301C7.74 41.3201 7.74 43.6101 7.74 45.9001C7.74 46.0701 7.74 46.2401 7.74 46.4301C9.31 46.4301 10.83 46.4301 12.41 46.4301C12.41 44.3601 12.41 42.3301 12.41 40.2901C12.94 40.2901 13.42 40.2901 13.93 40.2901C13.93 42.3301 13.93 44.3501 13.93 46.4101ZM18.85 18.2501C18.5 18.9401 18.17 19.6001 17.84 20.2601C17.81 20.3301 17.8 20.4201 17.8 20.5001C17.82 21.6901 17.77 22.8901 17.89 24.0701C18.2 26.9601 20.61 29.1601 23.62 29.4101C26.34 29.6401 29.07 27.7501 29.9 25.0801C30.28 23.8501 30.1 22.5901 30.21 21.3401C30.31 20.1201 29.58 19.2701 29.15 18.2601C25.71 20.7701 22.31 20.7601 18.85 18.2501ZM16.87 18.3001C16.94 18.2901 17.01 18.2801 17.08 18.2801C17.32 17.8001 17.56 17.3101 17.81 16.8301C18.14 16.2001 18.6 16.0901 19.19 16.5201C19.65 16.8501 20.08 17.2101 20.56 17.5201C22.14 18.5601 23.85 18.8301 25.68 18.3501C26.9 18.0301 27.85 17.2401 28.83 16.5201C29.41 16.0901 29.87 16.2101 30.2 16.8401C30.43 17.2901 30.66 17.7501 30.9 18.2401C32.22 15.7301 31.31 12.8901 28.83 11.6701C28.2 11.3601 27.54 11.0801 26.9 10.7801C25.7 10.2201 24.46 9.98007 23.14 10.1801C22.32 10.3001 21.54 10.5401 20.77 11.0501C22.14 11.5101 23.15 12.3101 23.86 13.5401C23.43 13.8301 23.02 14.1001 22.61 14.3701C22.32 14.0301 22.09 13.7001 21.8 13.4201C20.77 12.4101 19.22 12.1401 17.96 12.7201C16.74 13.2801 15.92 14.5301 16.09 15.8701C16.2 16.6801 16.6 17.4801 16.87 18.3001ZM21.68 30.6201C21.68 30.9501 21.67 31.1901 21.68 31.4301C21.69 31.7001 21.62 32.0601 21.76 32.2201C22.47 33.0001 23.24 33.7301 24.01 34.4901C24.75 33.7501 25.46 33.0401 26.16 32.3301C26.23 32.2601 26.31 32.1501 26.31 32.0501C26.33 31.5901 26.32 31.1301 26.32 30.6101C24.75 31.0901 23.24 31.0601 21.68 30.6201ZM16.24 21.6701C15.69 21.6901 15.09 21.5101 14.83 22.1101C14.73 22.3301 14.78 22.7101 14.92 22.9001C15.25 23.3601 15.77 23.2101 16.25 23.1801C16.24 22.6801 16.24 22.2001 16.24 21.6701ZM31.77 21.6801C31.77 22.2001 31.77 22.6901 31.77 23.2001C32.28 23.2001 32.83 23.3701 33.14 22.8401C33.26 22.6301 33.26 22.2501 33.14 22.0401C32.83 21.5101 32.28 21.6801 31.77 21.6801Z" fill="#00BAA4"/>
</g>
<defs>
<clipPath id="clip0_1854_2357">
<rect width="48" height="48" fill="white"/>
</clipPath>
</defs>
</svg>
