<svg width="46" height="46" viewBox="0 0 46 46" fill="none" xmlns="http://www.w3.org/2000/svg">
<path d="M23.5591 21.3432L23.5626 21.3432C25.7359 21.3509 27.8237 20.4968 29.3685 18.968C30.9133 17.4393 31.7892 15.3606 31.8043 13.1873L31.8043 13.1873V13.1838C31.8043 11.5737 31.3278 9.99965 30.435 8.65978C29.5422 7.3199 28.2729 6.27412 26.7869 5.65411C25.301 5.03411 23.6649 4.86759 22.0845 5.17552C20.5041 5.48345 19.0502 6.25207 17.9057 7.3846C16.7613 8.51714 15.9775 9.96295 15.653 11.54C15.3285 13.1171 15.4779 14.7549 16.0823 16.2472C16.6867 17.7396 17.7192 19.0197 19.0496 19.9265C20.3801 20.8333 21.9491 21.3263 23.5591 21.3432ZM21.1081 9.50056C21.8331 9.00109 22.6895 8.72677 23.5698 8.71196C24.7649 8.70621 25.9138 9.17347 26.7658 10.0118C27.6177 10.8501 28.1034 11.9914 28.1168 13.1865C28.1162 14.0669 27.8557 14.9275 27.3679 15.6605C26.8797 16.3943 26.1855 16.9674 25.3726 17.3079C24.5597 17.6484 23.6643 17.7411 22.7989 17.5743C21.9335 17.4076 21.1366 16.9888 20.5084 16.3706C19.8802 15.7525 19.4487 14.9624 19.268 14.0998C19.0874 13.2372 19.1657 12.3404 19.493 11.5221C19.8204 10.7038 20.3823 10.0005 21.1081 9.50056Z" fill="#3A4253" stroke="#3A4253"/>
<path d="M23.5589 21.3432L23.5624 21.3432C25.7358 21.3509 27.8235 20.4968 29.3683 18.968C30.9131 17.4393 31.7891 15.3606 31.8042 13.1873V13.1838C31.8041 11.5737 31.3277 9.99965 30.4348 8.65978C29.542 7.3199 28.2727 6.27412 26.7868 5.65411C25.3009 5.03411 23.6647 4.86759 22.0843 5.17552C20.504 5.48345 19.05 6.25207 17.9056 7.3846C16.7611 8.51714 15.9773 9.96295 15.6528 11.54C15.3284 13.1171 15.4778 14.7549 16.0822 16.2472C16.6866 17.7396 17.719 19.0197 19.0495 19.9265C20.3799 20.8333 21.9489 21.3263 23.5589 21.3432ZM28.7534 22.6219L28.7358 22.2202L28.3396 22.1513C22.2718 21.0954 16.0252 22.0564 10.5553 24.8873L10.5488 24.8907L10.5424 24.8942C10.0809 25.1505 9.69866 25.5288 9.43765 25.9877C9.17793 26.4444 9.04815 26.9634 9.06233 27.4884V32.2651C9.06233 32.7541 9.25658 33.2231 9.60235 33.5688C9.94812 33.9146 10.4171 34.1089 10.9061 34.1089C11.3951 34.1089 11.864 33.9146 12.2098 33.5688C12.5556 33.2231 12.7498 32.7541 12.7498 32.2651V27.9667C17.5667 25.6237 23.0133 24.8937 28.2819 25.8898L28.902 26.0071L28.8743 25.3766L28.7534 22.6219ZM21.1079 9.50056C21.833 9.00109 22.6893 8.72677 23.5696 8.71196C24.7648 8.70621 25.9137 9.17347 26.7656 10.0118C27.6175 10.8501 28.1032 11.9914 28.1167 13.1865C28.1161 14.0669 27.8555 14.9275 27.3678 15.6605C26.8796 16.3943 26.1854 16.9674 25.3725 17.3079C24.5596 17.6484 23.6642 17.7411 22.7987 17.5743C21.9333 17.4076 21.1365 16.9888 20.5083 16.3706C19.8801 15.7525 19.4486 14.9624 19.2679 14.0998C19.0872 13.2372 19.1655 12.3404 19.4929 11.5221C19.8203 10.7038 20.3821 10.0005 21.1079 9.50056Z" fill="#3A4253" stroke="#3A4253"/>
<path d="M43.1562 27.9892H34.6531V26.5005C34.6531 26.0115 34.4589 25.5425 34.1131 25.1968C33.7673 24.851 33.2984 24.6567 32.8094 24.6567C32.3204 24.6567 31.8514 24.851 31.5056 25.1968C31.1599 25.5425 30.9656 26.0115 30.9656 26.5005V27.9892H21.6562C21.1673 27.9892 20.6983 28.1835 20.3525 28.5293C20.0067 28.875 19.8125 29.344 19.8125 29.833V43.2705C19.8125 43.7595 20.0067 44.2284 20.3525 44.5742C20.6983 44.92 21.1673 45.1142 21.6562 45.1142H43.1562C43.6452 45.1142 44.1142 44.92 44.46 44.5742C44.8057 44.2284 45 43.7595 45 43.2705V29.833C45 29.344 44.8057 28.875 44.46 28.5293C44.1142 28.1835 43.6452 27.9892 43.1562 27.9892ZM41.3125 41.4267H23.5V31.6767H30.9656V31.7277C30.9656 32.2167 31.1599 32.6856 31.5056 33.0314C31.8514 33.3772 32.3204 33.5714 32.8094 33.5714C33.2984 33.5714 33.7673 33.3772 34.1131 33.0314C34.4589 32.6856 34.6531 32.2167 34.6531 31.7277V31.6767H41.3125V41.4267Z" fill="#3A4253" stroke="#3A4253"/>
<path d="M43.5363 17.6055L43.5376 17.6062C43.9798 17.8398 44.3498 18.1898 44.6075 18.6184C44.8653 19.047 45.001 19.5379 45 20.038M43.5363 17.6055L44.5 20.037M43.5363 17.6055C40.8465 16.1945 37.9202 15.2994 34.9082 14.9624M43.5363 17.6055L33.3428 14.8343M45 20.038L44.5 20.037M45 20.038V20.037H44.5M45 20.038V24.2027C45 24.6917 44.8057 25.1606 44.46 25.5064C44.1142 25.8522 43.6452 26.0464 43.1562 26.0464C42.6673 26.0464 42.1983 25.8522 41.8525 25.5064C41.5067 25.1606 41.3125 24.6917 41.3125 24.2027V20.617M44.5 20.037V24.2027C44.5 24.5591 44.3584 24.9008 44.1064 25.1528C43.8544 25.4048 43.5126 25.5464 43.1562 25.5464C42.7999 25.5464 42.4581 25.4048 42.2061 25.1528C41.9541 24.9008 41.8125 24.5591 41.8125 24.2027V20.3058M41.3125 20.617C41.4048 20.6616 41.4968 20.7068 41.5885 20.7528L41.8125 20.3058M41.3125 20.617C38.6374 19.3252 35.7159 18.6193 32.7437 18.5481L31.9298 18.5287L32.3152 17.8116C32.7464 17.0094 33.0602 16.1495 33.2472 15.2581L33.3362 14.8339L33.3428 14.8343M41.3125 20.617V20.3058H41.8125M41.8125 20.3058L33.3428 14.8343M32.7556 18.0483L32.7676 17.5484C32.8462 17.5503 32.9248 17.5526 33.0033 17.5553C32.9254 17.7218 32.8428 17.8862 32.7556 18.0483ZM32.7556 18.0483L33.196 18.285C33.2346 18.2133 33.2722 18.1412 33.3091 18.0687C33.1248 18.0595 32.9403 18.0527 32.7556 18.0483ZM33.3428 14.8343L33.2737 15.2637L33.2425 15.4573L33.6713 15.3471L33.7386 15.3298L33.982 15.2672C34.2985 15.1859 34.6079 15.0838 34.9082 14.9624M33.3428 14.8343L33.3639 14.7035C33.4456 14.1959 33.4884 13.6828 33.4919 13.1687C33.4922 12.773 33.4666 12.3778 33.4155 11.9855L33.368 11.6216L33.7009 11.4672C34.3268 11.177 34.8576 10.7155 35.2321 10.1361C35.6052 9.55872 35.8077 8.88786 35.8165 8.20063C35.8025 7.53018 35.6074 6.87596 35.252 6.30722C34.8952 5.73637 34.3902 5.27306 33.7908 4.96667C33.1914 4.66029 32.5201 4.52232 31.8484 4.56748C31.1768 4.61264 30.53 4.83923 29.977 5.2231L29.6874 5.4241L29.4008 5.21892C28.6523 4.68306 27.8339 4.25231 26.9684 3.9387L26.2372 3.67375L26.7818 3.11851C27.4749 2.41177 28.302 1.85031 29.2146 1.46694C30.127 1.0837 31.1066 0.886138 32.0961 0.885796C34.0457 0.878335 35.919 1.64257 37.3069 3.01164C38.6951 4.38093 39.485 6.24394 39.504 8.19373L39.5041 8.20247L39.504 8.20247C39.4915 9.82417 38.9432 11.3962 37.9445 12.674C37.1471 13.6942 36.0982 14.4811 34.9082 14.9624M33.3428 14.8343L33.7688 14.8618C33.8058 14.8642 33.8427 14.8667 33.8797 14.8693C34.2235 14.8931 34.5664 14.9241 34.9082 14.9624M33.9919 13.1705C33.9895 13.5295 33.9688 13.888 33.93 14.2447C33.8647 14.2637 33.7991 14.2817 33.733 14.2987L33.8575 14.783L34.3511 14.8625C34.3639 14.783 34.3758 14.7035 34.3869 14.6239C35.6335 14.1937 36.7336 13.4112 37.5506 12.3661C38.4814 11.1752 38.9924 9.71003 39.0041 8.19861C38.9863 6.38092 38.25 4.64412 36.9558 3.36761C35.6617 2.09109 33.9149 1.37861 32.0972 1.3858C31.1737 1.386 30.2596 1.5703 29.4082 1.92792C28.7284 2.21349 28.0995 2.60499 27.5444 3.08684L33.9919 13.1705ZM33.9919 13.1705C33.9922 12.7526 33.9653 12.3352 33.9112 11.9208L33.9919 13.1705ZM28.1197 35.2724H27.6197V35.7724V37.6536V38.1536H28.1197H36.1284H36.6284V37.6536V35.7724V35.2724H36.1284H28.1197ZM11.3102 14.995C8.22995 15.3052 5.22908 16.1926 2.46674 17.6174L2.46673 17.6173L2.46241 17.6196C2.02264 17.8519 1.65427 18.1994 1.39668 18.6248C1.1391 19.0502 1.00199 19.5377 1 20.035V20.037V24.2027C1 24.6917 1.19425 25.1606 1.54002 25.5064C1.88579 25.8522 2.35476 26.0464 2.84375 26.0464C3.33274 26.0464 3.80171 25.8522 4.14748 25.5064C4.49325 25.1606 4.6875 24.6917 4.6875 24.2027V20.618C7.70036 19.1731 11.016 18.4674 14.3591 18.5615L15.2307 18.5861L14.8116 17.8214C14.4076 17.0844 14.1058 16.2962 13.9141 15.4786L13.9437 15.4809L13.8155 14.8337C13.7075 14.2885 13.6477 13.7348 13.6369 13.1791V12.2836V11.8461L13.2032 11.788C12.2781 11.6642 11.4364 11.1884 10.8533 10.4596C10.2702 9.73087 9.99067 8.80529 10.0728 7.87559C10.155 6.94588 10.5926 6.08368 11.2944 5.46848C11.9963 4.85327 12.9084 4.53246 13.8409 4.57283L13.8521 4.57332L13.8634 4.57329C14.8367 4.57153 15.7722 4.94997 16.4704 5.62796L16.7916 5.93977L17.1369 5.65495C17.8036 5.105 18.536 4.63977 19.3171 4.26988L19.9133 3.98759L19.4804 3.48987C18.4998 2.36234 17.2006 1.55841 15.754 1.18402C14.3074 0.809642 12.7812 0.882386 11.3768 1.39267C9.97235 1.90295 8.75548 2.82682 7.88659 4.04251C7.01769 5.25819 6.53756 6.70863 6.50946 8.20264L6.5093 8.21148L6.50944 8.22031C6.5397 10.0496 7.25081 11.8019 8.50387 13.1349C9.28915 13.9703 10.2519 14.6035 11.3102 14.995Z" fill="#3A4253" stroke="#3A4253"/>
</svg>
