<svg width="43" height="42" viewBox="0 0 43 42" fill="none" xmlns="http://www.w3.org/2000/svg">
<path d="M31.2727 0.477051H3.90909C2.87233 0.477051 1.87804 0.8889 1.14495 1.622C0.411849 2.35509 0 3.34939 0 4.38614V21.977H3.90909V4.38614H31.2727V0.477051Z" fill="#3A4253"/>
<path d="M39.0908 8.29541H11.7272C10.6905 8.29541 9.69616 8.70726 8.96306 9.44036C8.22996 10.1735 7.81812 11.1677 7.81812 12.2045V31.75C7.81812 32.7867 8.22996 33.781 8.96306 34.5141C9.69616 35.2472 10.6905 35.659 11.7272 35.659H22.5358V38.6495H19.5454V41.5227H31.2727V38.63H28.3017V35.659H39.0908C40.1276 35.659 41.1219 35.2472 41.855 34.5141C42.5881 33.781 42.9999 32.7867 42.9999 31.75V12.2045C42.9999 11.1677 42.5881 10.1735 41.855 9.44036C41.1219 8.70726 40.1276 8.29541 39.0908 8.29541ZM39.0908 31.75H11.7272V12.2045H39.0908V31.75Z" fill="#3A4253"/>
</svg>
