<svg width="27" height="35" viewBox="0 0 27 35" fill="none" xmlns="http://www.w3.org/2000/svg">
<path d="M17.8138 0.164062H12.173V8.76544C11.3303 8.54582 10.6347 8.47257 9.71867 8.47257C3.82156 8.47257 0.0117188 12.2087 0.0117188 17.9594C0.0117188 23.9302 3.60174 27.0435 10.4883 27.0435C12.7949 27.0435 14.9197 26.8238 17.8139 26.2744V0.164062H17.8138ZM12.173 22.3555C11.367 22.4651 10.8543 22.5014 10.2317 22.5014C7.33779 22.5014 5.7626 20.8535 5.7626 17.8496C5.7626 14.7729 7.41077 13.0146 10.2686 13.0146C10.9641 13.0146 11.5133 13.0878 12.173 13.3075V22.3555ZM26.7882 0.194375V5.98192H21.147V0.194375H26.7882ZM21.147 8.87528H26.7882V21.9523C26.7882 26.4577 26.4581 28.6186 25.4692 30.487C24.5537 32.2821 23.3448 33.4172 20.8537 34.6627L15.6155 32.1718C18.106 30.9999 19.3158 29.9748 20.0846 28.399C20.8903 26.7872 21.147 24.9192 21.147 20.0105V8.87528Z" fill="#3A4253"/>
</svg>
