<svg width="52" height="19" viewBox="0 0 52 19" fill="none" xmlns="http://www.w3.org/2000/svg">
<path d="M51.7891 2.91216H46.5446V18.1403H43.5164V2.91216H38.2847V0.416076H51.7891V2.91216ZM37.2286 18.1403H26.9839V0.416076H36.8227V2.91216H30.0121V7.93251H36.2872V10.4165H30.0121V15.6583H37.2286V18.1403ZM22.9741 18.1403H19.6633L10.9466 5.11234C10.7285 4.7881 10.5449 4.44422 10.3983 4.08572H10.3218C10.3898 4.46618 10.4238 5.2774 10.4238 6.52142V18.1403H7.49769V0.416076H11.0231L19.4487 13.1381C19.8036 13.6634 20.0331 14.0278 20.1351 14.2251H20.1861C20.1011 13.756 20.0586 12.9589 20.0586 11.8397V0.414062H22.9741V18.1403ZM4.48019 16.7453C4.48019 16.9646 4.43241 17.1818 4.33958 17.3844C4.24675 17.5869 4.1107 17.771 3.9392 17.926C3.76769 18.081 3.56411 18.2038 3.34008 18.2876C3.11605 18.3713 2.87597 18.4143 2.63356 18.4141C2.39115 18.4141 2.15112 18.3708 1.92719 18.2868C1.70326 18.2029 1.49982 18.0798 1.32852 17.9246C1.15721 17.7694 1.02139 17.5852 0.928829 17.3825C0.836265 17.1798 0.788771 16.9626 0.789064 16.7433C0.789653 16.3011 0.984244 15.8771 1.33009 15.5646C1.67594 15.2521 2.14476 15.0766 2.63356 15.0766C2.87597 15.0763 3.11605 15.1193 3.34008 15.203C3.56411 15.2868 3.76769 15.4097 3.9392 15.5646C4.1107 15.7196 4.24675 15.9037 4.33958 16.1063C4.43241 16.3088 4.48019 16.526 4.48019 16.7453Z" fill="#3A4253"/>
</svg>
