<svg width="14" height="21" viewBox="0 0 14 21" fill="none" xmlns="http://www.w3.org/2000/svg">
<path d="M7.00391 0.445068C3.13391 0.445068 0.00390625 3.57507 0.00390625 7.44507C0.00390625 12.6951 7.00391 20.4451 7.00391 20.4451C7.00391 20.4451 14.0039 12.6951 14.0039 7.44507C14.0039 3.57507 10.8739 0.445068 7.00391 0.445068ZM2.00391 7.44507C2.00391 4.68507 4.24391 2.44507 7.00391 2.44507C9.76391 2.44507 12.0039 4.68507 12.0039 7.44507C12.0039 10.3251 9.12391 14.6351 7.00391 17.3251C4.92391 14.6551 2.00391 10.2951 2.00391 7.44507Z" fill="#00BAA4"/>
<path d="M7.00391 9.94507C8.38462 9.94507 9.50391 8.82578 9.50391 7.44507C9.50391 6.06436 8.38462 4.94507 7.00391 4.94507C5.62319 4.94507 4.50391 6.06436 4.50391 7.44507C4.50391 8.82578 5.62319 9.94507 7.00391 9.94507Z" fill="#00BAA4"/>
</svg>
