<svg width="211" height="64" viewBox="0 0 211 64" fill="none" xmlns="http://www.w3.org/2000/svg">
<g clip-path="url(#clip0_1466_6082)">
<path d="M0.499982 32C0.496003 36.5088 1.47307 40.9641 3.36286 45.0543C5.25266 49.1445 8.00957 52.7708 11.4408 55.6798L0.63631 29.0913C0.545421 30.0495 0.499982 31.019 0.499982 32Z" fill="#00BAA4"/>
<path d="M36.4453 18.8038V1.37467C34.7744 1.09501 33.0835 0.953859 31.3895 0.952637C25.5259 0.954412 19.7836 2.63046 14.8329 5.7852C9.88223 8.93994 5.9273 13.4432 3.42969 18.7696H6.45176L17.3699 48.7116L28.3561 18.7696L36.4453 18.8038Z" fill="#00BAA4"/>
<path d="M36.4448 48.2757V26.8315H34.877L21.5162 59.9104H17.8125C22.0527 62.0071 26.7193 63.0886 31.4459 63.0699C36.0759 63.0772 40.6475 62.0321 44.818 60.013C39.7509 59.032 36.4448 55.6899 36.4448 48.2757Z" fill="#00BAA4"/>
<path d="M45.7383 4.54443V18.8025H53.8615V26.7871H45.7383V46.7712C45.7383 50.3985 47.806 52.0524 50.9531 52.0524H51.0212C52.3857 52.0234 53.7202 51.6458 54.899 50.9553C56.0778 50.2648 57.0619 49.2841 57.7584 48.1058C60.7334 43.2482 62.3066 37.6567 62.3029 31.9542C62.2944 26.3032 60.7465 20.7621 57.8268 15.9307C54.9071 11.0994 50.7267 7.1619 45.7383 4.54443Z" fill="#00BAA4"/>
<path d="M81.6877 42.5976H77.734L69.5312 22.0659H74.462L79.7677 36.4153L85.0734 22.0659H89.8905L81.6877 42.5976Z" fill="#3A4253"/>
<path d="M99.3446 42.4374V40.7492C98.8117 41.3539 98.1674 41.8497 97.4473 42.2092C96.5811 42.5882 95.6424 42.7712 94.6979 42.7453C93.9932 42.7512 93.2918 42.6473 92.6188 42.4374C91.9962 42.2578 91.419 41.9467 90.926 41.5248C90.444 41.1152 90.0564 40.6053 89.7899 40.0306C89.4972 39.3868 89.3535 38.6849 89.3695 37.9774V37.8748C89.3457 37.1103 89.5055 36.3513 89.8353 35.6619C90.1336 35.0492 90.5738 34.5173 91.1191 34.1106C91.7156 33.6853 92.3861 33.3758 93.096 33.1981C93.9235 32.9851 94.7752 32.8815 95.6295 32.8901C96.3263 32.8817 97.0224 32.939 97.7086 33.0612C98.2931 33.1822 98.8697 33.3384 99.4355 33.5289V33.3122C99.4612 32.918 99.3991 32.5231 99.2536 32.1561C99.1082 31.7891 98.8831 31.4592 98.5948 31.1906C97.8761 30.6535 96.9888 30.3943 96.0953 30.4605C95.3322 30.4474 94.5701 30.5201 93.8231 30.6773C93.1277 30.8383 92.4443 31.0479 91.7781 31.3046L90.642 27.8827C91.5058 27.5092 92.3987 27.2078 93.3118 26.9816C94.4287 26.721 95.5738 26.6022 96.7202 26.628C99.1439 26.628 100.905 27.2211 102.003 28.4074C103.171 29.7804 103.762 31.5555 103.65 33.3578V42.4374H99.3446ZM99.4355 36.141C99.0174 35.9613 98.5839 35.8201 98.1403 35.7189C97.64 35.6115 97.1296 35.5579 96.6179 35.5592C95.8216 35.5097 95.0291 35.7047 94.3457 36.1182C94.0822 36.2893 93.868 36.5268 93.7245 36.807C93.581 37.0872 93.5131 37.4003 93.5277 37.7151V37.7721C93.5162 38.0432 93.5713 38.313 93.6882 38.5577C93.8051 38.8024 93.9802 39.0144 94.198 39.1751C94.7089 39.5241 95.3191 39.6963 95.9363 39.6656C96.8343 39.7103 97.7205 39.4446 98.4471 38.9128C98.7493 38.6803 98.9924 38.3792 99.1563 38.0342C99.3202 37.6892 99.4003 37.3101 99.3901 36.928L99.4355 36.141Z" fill="#3A4253"/>
<path d="M114.917 42.437V33.7681C114.976 32.9212 114.725 32.0818 114.213 31.4069C113.966 31.1341 113.661 30.9207 113.321 30.7824C112.98 30.6442 112.613 30.5847 112.247 30.6085C111.873 30.5889 111.499 30.6499 111.15 30.7877C110.801 30.9254 110.485 31.1366 110.225 31.4069C109.694 32.0739 109.43 32.9161 109.486 33.7681V42.437H105.078V26.8557H109.486V29.08C109.744 28.7487 110.021 28.4326 110.316 28.1333C110.617 27.8262 110.953 27.5545 111.315 27.3234C111.693 27.0825 112.102 26.8945 112.531 26.7645C113.022 26.6222 113.531 26.5531 114.042 26.5592C114.757 26.5213 115.471 26.6393 116.136 26.9051C116.801 27.171 117.4 27.5783 117.894 28.099C118.87 29.2931 119.364 30.8113 119.28 32.3537V42.437H114.917Z" fill="#3A4253"/>
<path d="M120.918 25.134V21.1987H125.553V25.134H120.918ZM121.032 42.4604V26.8563H125.44V42.4376L121.032 42.4604Z" fill="#3A4253"/>
<path d="M127.473 42.4376V21.1987H131.881V42.4376H127.473Z" fill="#3A4253"/>
<path d="M133.914 42.4376V21.1987H138.345V42.4376H133.914Z" fill="#3A4253"/>
<path d="M149.253 42.4374V40.7492C148.704 41.3505 148.044 41.8386 147.31 42.1864C146.44 42.5653 145.497 42.7482 144.549 42.7225C143.848 42.7272 143.151 42.6233 142.481 42.4145C141.857 42.2311 141.277 41.9204 140.777 41.502C140.294 41.0931 139.907 40.5831 139.641 40.0078C139.348 39.364 139.205 38.6621 139.221 37.9546V37.8748C139.199 37.1117 139.355 36.3541 139.675 35.6619C139.981 35.0508 140.425 34.5197 140.97 34.1106C141.566 33.6831 142.237 33.3734 142.947 33.1981C143.775 32.9843 144.626 32.8807 145.481 32.8901C146.174 32.8811 146.866 32.9384 147.548 33.0612C148.133 33.1808 148.71 33.337 149.275 33.5289V33.3122C149.304 32.9178 149.243 32.5221 149.097 32.1547C148.951 31.7873 148.725 31.4577 148.435 31.1906C147.721 30.6524 146.837 30.393 145.947 30.4605C145.183 30.4474 144.421 30.5201 143.674 30.6773C142.979 30.8383 142.296 31.0479 141.629 31.3046L140.493 27.8827C141.357 27.5092 142.25 27.2078 143.163 26.9816C144.28 26.721 145.425 26.6022 146.571 26.628C148.991 26.628 150.741 27.2211 151.854 28.4074C153.017 29.7834 153.607 31.5563 153.502 33.3578V42.4374H149.253ZM149.332 36.141C148.918 35.9613 148.488 35.82 148.048 35.7189C147.547 35.6236 147.036 35.5815 146.526 35.5935C145.73 35.5468 144.938 35.7415 144.254 36.1524C143.994 36.3265 143.783 36.565 143.642 36.8447C143.501 37.1244 143.434 37.436 143.447 37.7493V37.8063C143.433 38.0779 143.486 38.3487 143.603 38.5939C143.721 38.8391 143.897 39.0508 144.117 39.2093C144.628 39.5583 145.239 39.7305 145.856 39.6998C146.75 39.7466 147.634 39.4806 148.355 38.947C148.659 38.7158 148.903 38.415 149.067 38.0697C149.231 37.7244 149.31 37.3446 149.298 36.9622L149.332 36.141Z" fill="#3A4253"/>
<path d="M161.262 24.1875H154.445V22.0659H170.351V24.1875H163.534V42.4379H161.262V24.1875Z" fill="#3A4253"/>
<path d="M167.373 34.9768V34.9198C167.373 30.5739 170.418 27.0835 174.564 27.0835C179.007 27.0835 181.551 30.6309 181.551 35.068C181.551 35.3532 181.551 35.5357 181.551 35.798H169.634C169.678 37.1707 170.256 38.4715 171.243 39.4222C172.23 40.3728 173.549 40.898 174.917 40.8853C175.81 40.8936 176.695 40.7083 177.51 40.3422C178.326 39.9761 179.053 39.4377 179.643 38.7637L181.029 40.0185C180.282 40.9286 179.338 41.6555 178.269 42.1438C177.2 42.632 176.034 42.8687 174.86 42.8359C173.846 42.8418 172.841 42.64 171.908 42.2427C170.974 41.8454 170.131 41.261 169.43 40.5253C168.729 39.7896 168.185 38.9181 167.832 37.9641C167.478 37.01 167.322 35.9935 167.373 34.9768ZM179.291 34.0985C179.063 31.3609 177.496 28.977 174.508 28.977C171.894 28.977 169.963 31.1556 169.634 34.0985H179.291Z" fill="#3A4253"/>
<path d="M182.219 35.0011C182.206 33.9778 182.394 32.9618 182.774 32.0119C183.153 31.0619 183.716 30.1968 184.43 29.4662C185.144 28.7357 185.995 28.1542 186.933 27.7553C187.872 27.3564 188.88 27.148 189.9 27.1421C191.036 27.1166 192.164 27.3437 193.203 27.8071C194.242 28.2705 195.167 28.9588 195.91 29.8226L194.433 31.3967C193.885 30.7086 193.195 30.1483 192.41 29.7544C191.626 29.3605 190.765 29.1425 189.888 29.1154C189.153 29.1372 188.429 29.3062 187.759 29.6124C187.089 29.9187 186.487 30.356 185.987 30.8988C185.488 31.4416 185.102 32.0789 184.851 32.7736C184.6 33.4682 184.489 34.2061 184.526 34.9441V35.0011C184.495 35.751 184.615 36.4993 184.877 37.2021C185.139 37.9049 185.539 38.5479 186.052 39.0932C186.566 39.6385 187.183 40.0751 187.867 40.3773C188.551 40.6795 189.289 40.8411 190.036 40.8527C190.911 40.816 191.768 40.5938 192.551 40.2006C193.335 39.8074 194.026 39.2521 194.58 38.5714L196.001 39.9059C195.266 40.8253 194.334 41.565 193.273 42.0689C192.212 42.5728 191.05 42.8278 189.877 42.8146C188.862 42.8101 187.858 42.6041 186.923 42.2083C185.988 41.8125 185.14 41.2348 184.428 40.5085C183.716 39.7822 183.154 38.9216 182.775 37.9764C182.396 37.0312 182.207 36.02 182.219 35.0011Z" fill="#3A4253"/>
<path d="M197.423 21.1987H199.696V30.0273C200.2 29.1108 200.946 28.3513 201.852 27.8322C202.758 27.3131 203.788 27.0544 204.831 27.0845C208.455 27.0845 210.58 29.5255 210.58 33.1071V42.4376H208.307V33.6432C208.307 30.8486 206.796 29.0806 204.16 29.0806C203.545 29.0618 202.932 29.1724 202.362 29.4052C201.791 29.638 201.276 29.988 200.848 30.4326C200.42 30.8772 200.089 31.4067 199.877 31.9871C199.665 32.5675 199.576 33.1859 199.616 33.8029V42.4376H197.344L197.423 21.1987Z" fill="#3A4253"/>
</g>
<defs>
<clipPath id="clip0_1466_6082">
<rect width="210" height="62.0285" fill="white" transform="translate(0.5 0.98584)"/>
</clipPath>
</defs>
</svg>
