<svg width="210" height="63" viewBox="0 0 210 63" fill="none" xmlns="http://www.w3.org/2000/svg">
<g clip-path="url(#clip0_1559_127)">
<path d="M-1.84156e-05 31.0141C-0.00399703 35.523 0.973069 39.9782 2.86286 44.0684C4.75266 48.1586 7.50957 51.785 10.9408 54.694L0.13631 28.1055C0.0454207 29.0636 -1.84156e-05 30.0332 -1.84156e-05 31.0141Z" fill="#00BAA4"/>
<path d="M35.9453 17.816V0.386878C34.2744 0.107216 32.5835 -0.0339344 30.8895 -0.0351562C25.0259 -0.033381 19.2836 1.64267 14.3329 4.79741C9.38223 7.95215 5.4273 12.4555 2.92969 17.7818H5.95176L16.8699 47.7238L27.8561 17.7818L35.9453 17.816Z" fill="#00BAA4"/>
<path d="M35.9448 47.2918V25.8477H34.377L21.0162 58.9265H17.3125C21.5527 61.0232 26.2193 62.1047 30.9459 62.086C35.5759 62.0933 40.1475 61.0482 44.318 59.0291C39.2509 58.0482 35.9448 54.706 35.9448 47.2918Z" fill="#00BAA4"/>
<path d="M45.2383 3.55859V17.8167H53.3615V25.8012H45.2383V45.7854C45.2383 49.4127 47.306 51.0666 50.4531 51.0666H50.5212C51.8857 51.0376 53.2202 50.66 54.399 49.9694C55.5778 49.2789 56.5619 48.2983 57.2584 47.12C60.2334 42.2623 61.8066 36.6708 61.8029 30.9684C61.7944 25.3173 60.2465 19.7762 57.3268 14.9449C54.4071 10.1136 50.2267 6.17606 45.2383 3.55859Z" fill="#00BAA4"/>
<path d="M81.1877 41.6098H77.234L69.0312 21.0781H73.962L79.2677 35.4275L84.5734 21.0781H89.3905L81.1877 41.6098Z" fill="white"/>
<path d="M98.8446 41.4515V39.7634C98.3117 40.3681 97.6674 40.8638 96.9473 41.2234C96.0811 41.6024 95.1424 41.7854 94.1979 41.7595C93.4932 41.7654 92.7918 41.6615 92.1188 41.4515C91.4962 41.2719 90.919 40.9608 90.426 40.539C89.944 40.1293 89.5564 39.6195 89.2899 39.0447C88.9972 38.401 88.8535 37.699 88.8695 36.9916V36.8889C88.8457 36.1245 89.0055 35.3655 89.3353 34.6761C89.6336 34.0634 90.0738 33.5314 90.6191 33.1248C91.2156 32.6994 91.8861 32.3899 92.596 32.2123C93.4235 31.9992 94.2752 31.8957 95.1295 31.9043C95.8263 31.8959 96.5224 31.9531 97.2086 32.0754C97.7931 32.1964 98.3697 32.3525 98.9355 32.543V32.3263C98.9612 31.9322 98.8991 31.5373 98.7536 31.1703C98.6082 30.8033 98.3831 30.4734 98.0948 30.2047C97.3761 29.6676 96.4888 29.4085 95.5953 29.4747C94.8322 29.4616 94.0701 29.5343 93.3231 29.6914C92.6277 29.8524 91.9443 30.0621 91.2781 30.3188L90.142 26.8968C91.0058 26.5234 91.8987 26.222 92.8118 25.9957C93.9287 25.7351 95.0738 25.6163 96.2202 25.6421C98.6439 25.6421 100.405 26.2353 101.503 27.4215C102.671 28.7945 103.262 30.5697 103.15 32.3719V41.4515H98.8446ZM98.9355 35.1551C98.5174 34.9755 98.0839 34.8342 97.6403 34.7331C97.14 34.6256 96.6296 34.5721 96.1179 34.5734C95.3216 34.5239 94.5291 34.7188 93.8457 35.1323C93.5822 35.3035 93.368 35.541 93.2245 35.8212C93.081 36.1014 93.0131 36.4145 93.0277 36.7292V36.7863C93.0162 37.0574 93.0713 37.3272 93.1882 37.5719C93.3051 37.8165 93.4802 38.0286 93.698 38.1893C94.2089 38.5382 94.8191 38.7104 95.4363 38.6797C96.3343 38.7245 97.2205 38.4588 97.9471 37.9269C98.2493 37.6945 98.4924 37.3934 98.6563 37.0484C98.8202 36.7034 98.9003 36.3243 98.8901 35.9422L98.9355 35.1551Z" fill="white"/>
<path d="M114.417 41.4512V32.7822C114.476 31.9354 114.225 31.0959 113.713 30.4211C113.466 30.1483 113.161 29.9348 112.821 29.7966C112.48 29.6583 112.113 29.5989 111.747 29.6226C111.373 29.603 110.999 29.6641 110.65 29.8018C110.301 29.9396 109.985 30.1507 109.725 30.4211C109.194 31.0881 108.93 31.9302 108.986 32.7822V41.4512H104.578V25.8699H108.986V28.0942C109.244 27.7629 109.521 27.4468 109.816 27.1474C110.117 26.8404 110.453 26.5687 110.815 26.3376C111.193 26.0967 111.602 25.9087 112.031 25.7786C112.522 25.6364 113.031 25.5672 113.542 25.5733C114.257 25.5354 114.971 25.6535 115.636 25.9193C116.301 26.1851 116.9 26.5924 117.394 27.1132C118.37 28.3072 118.864 29.8254 118.78 31.3678V41.4512H114.417Z" fill="white"/>
<path d="M120.418 24.1462V20.2109H125.053V24.1462H120.418ZM120.532 41.4726V25.8685H124.94V41.4498L120.532 41.4726Z" fill="white"/>
<path d="M126.973 41.4498V20.2109H131.381V41.4498H126.973Z" fill="white"/>
<path d="M133.414 41.4498V20.2109H137.845V41.4498H133.414Z" fill="white"/>
<path d="M148.753 41.4515V39.7634C148.204 40.3646 147.544 40.8528 146.81 41.2006C145.94 41.5794 144.997 41.7624 144.049 41.7367C143.348 41.7414 142.651 41.6375 141.981 41.4287C141.357 41.2452 140.777 40.9346 140.277 40.5162C139.794 40.1073 139.407 39.5973 139.141 39.0219C138.848 38.3782 138.705 37.6762 138.721 36.9688V36.8889C138.699 36.1259 138.855 35.3683 139.175 34.6761C139.481 34.065 139.925 33.5339 140.47 33.1248C141.066 32.6973 141.737 32.3876 142.447 32.2123C143.275 31.9984 144.126 31.8949 144.981 31.9043C145.674 31.8953 146.366 31.9526 147.048 32.0754C147.633 32.1949 148.21 32.3511 148.775 32.543V32.3263C148.804 31.9319 148.743 31.5363 148.597 31.1689C148.451 30.8015 148.225 30.4719 147.935 30.2047C147.221 29.6665 146.337 29.4071 145.447 29.4747C144.683 29.4616 143.921 29.5343 143.174 29.6914C142.479 29.8524 141.796 30.0621 141.129 30.3188L139.993 26.8968C140.857 26.5234 141.75 26.222 142.663 25.9957C143.78 25.7351 144.925 25.6163 146.071 25.6421C148.491 25.6421 150.241 26.2353 151.354 27.4215C152.517 28.7975 153.107 30.5705 153.002 32.3719V41.4515H148.753ZM148.832 35.1551C148.418 34.9754 147.988 34.8342 147.548 34.7331C147.047 34.6377 146.536 34.5957 146.026 34.6076C145.23 34.561 144.438 34.7557 143.754 35.1665C143.494 35.3407 143.283 35.5791 143.142 35.8588C143.001 36.1386 142.934 36.4501 142.947 36.7634V36.8205C142.933 37.092 142.986 37.3629 143.103 37.6081C143.221 37.8533 143.397 38.0649 143.617 38.2235C144.128 38.5724 144.739 38.7447 145.356 38.714C146.25 38.7608 147.134 38.4947 147.855 37.9611C148.159 37.73 148.403 37.4291 148.567 37.0838C148.731 36.7385 148.81 36.3588 148.798 35.9764L148.832 35.1551Z" fill="white"/>
<path d="M160.762 23.1997H153.945V21.0781H169.851V23.1997H163.034V41.4501H160.762V23.1997Z" fill="white"/>
<path d="M166.873 33.991V33.9339C166.873 29.5881 169.918 26.0977 174.064 26.0977C178.507 26.0977 181.051 29.6451 181.051 34.0822C181.051 34.3674 181.051 34.5499 181.051 34.8122H169.134C169.178 36.1849 169.756 37.4856 170.743 38.4363C171.73 39.387 173.049 39.9122 174.417 39.8995C175.31 39.9077 176.195 39.7225 177.01 39.3564C177.826 38.9902 178.553 38.4518 179.143 37.7779L180.529 39.0326C179.782 39.9428 178.838 40.6697 177.769 41.1579C176.7 41.6462 175.534 41.8829 174.36 41.85C173.346 41.856 172.341 41.6541 171.408 41.2568C170.474 40.8595 169.631 40.2752 168.93 39.5395C168.229 38.8038 167.685 37.9323 167.332 36.9782C166.978 36.0242 166.822 35.0077 166.873 33.991ZM178.791 33.1127C178.563 30.3751 176.996 27.9911 174.008 27.9911C171.394 27.9911 169.463 30.1698 169.134 33.1127H178.791Z" fill="white"/>
<path d="M181.719 34.0133C181.706 32.99 181.894 31.974 182.274 31.0241C182.653 30.0741 183.216 29.209 183.93 28.4784C184.644 27.7479 185.495 27.1664 186.433 26.7675C187.372 26.3686 188.38 26.1602 189.4 26.1543C190.536 26.1288 191.664 26.3559 192.703 26.8193C193.742 27.2827 194.667 27.971 195.41 28.8348L193.933 30.4089C193.385 29.7208 192.695 29.1605 191.91 28.7666C191.126 28.3727 190.265 28.1547 189.388 28.1276C188.653 28.1494 187.929 28.3184 187.259 28.6247C186.589 28.9309 185.987 29.3682 185.487 29.911C184.988 30.4538 184.602 31.0911 184.351 31.7858C184.1 32.4804 183.989 33.2183 184.026 33.9563V34.0133C183.995 34.7632 184.115 35.5115 184.377 36.2143C184.639 36.9171 185.039 37.5601 185.552 38.1054C186.066 38.6507 186.683 39.0873 187.367 39.3895C188.051 39.6917 188.789 39.8533 189.536 39.8649C190.411 39.8282 191.268 39.606 192.051 39.2128C192.835 38.8196 193.526 38.2643 194.08 37.5836L195.501 38.9181C194.766 39.8375 193.834 40.5772 192.773 41.0811C191.712 41.5851 190.55 41.84 189.377 41.8268C188.362 41.8223 187.358 41.6163 186.423 41.2205C185.488 40.8247 184.64 40.247 183.928 39.5207C183.216 38.7944 182.654 37.9338 182.275 36.9886C181.896 36.0434 181.707 35.0322 181.719 34.0133Z" fill="white"/>
<path d="M196.923 20.2109H199.196V29.0395C199.7 28.123 200.446 27.3635 201.352 26.8444C202.258 26.3253 203.288 26.0666 204.331 26.0967C207.955 26.0967 210.08 28.5377 210.08 32.1193V41.4498H207.807V32.6554C207.807 29.8608 206.296 28.0928 203.66 28.0928C203.045 28.074 202.432 28.1846 201.862 28.4174C201.291 28.6502 200.776 29.0002 200.348 29.4448C199.92 29.8894 199.589 30.4189 199.377 30.9993C199.165 31.5797 199.076 32.1981 199.116 32.8151V41.4498H196.844L196.923 20.2109Z" fill="white"/>
</g>
<defs>
<clipPath id="clip0_1559_127">
<rect width="210" height="62.0285" fill="white"/>
</clipPath>
</defs>
</svg>
