<svg width="19" height="30" viewBox="0 0 19 30" fill="none" xmlns="http://www.w3.org/2000/svg">
<path d="M2.62391 30C1.90233 30 1.28462 29.733 0.770773 29.1989C0.256924 28.6648 0 28.0227 0 27.2727V2.72727C0 1.97727 0.256924 1.33523 0.770773 0.801136C1.28462 0.267045 1.90233 0 2.62391 0H15.7434C16.465 0 17.0827 0.267045 17.5966 0.801136C18.1104 1.33523 18.3673 1.97727 18.3673 2.72727V27.2727C18.3673 28.0227 18.1104 28.6648 17.5966 29.1989C17.0827 29.733 16.465 30 15.7434 30H2.62391ZM2.62391 23.1818V27.2727H15.7434V23.1818H2.62391ZM9.18367 26.5909C9.55539 26.5909 9.86698 26.4602 10.1184 26.1989C10.3699 25.9375 10.4956 25.6136 10.4956 25.2273C10.4956 24.8409 10.3699 24.517 10.1184 24.2557C9.86698 23.9943 9.55539 23.8636 9.18367 23.8636C8.81195 23.8636 8.50036 23.9943 8.24891 24.2557C7.99745 24.517 7.87172 24.8409 7.87172 25.2273C7.87172 25.6136 7.99745 25.9375 8.24891 26.1989C8.50036 26.4602 8.81195 26.5909 9.18367 26.5909ZM2.62391 20.4545H15.7434V6.81818H2.62391V20.4545ZM2.62391 4.09091H15.7434V2.72727H2.62391V4.09091Z" fill="#09B5AB"/>
</svg>
