<svg width="53" height="26" viewBox="0 0 53 26" fill="none" xmlns="http://www.w3.org/2000/svg">
<path d="M18.2855 8.08545C17.1483 6.76956 15.339 6.11152 12.8586 6.11152H4.61422L0.789062 26.0066H5.07618L6.09322 20.7174H9.76552C11.3859 20.7174 12.7189 20.5457 13.7656 20.2009C14.8119 19.8572 15.7631 19.2802 16.6191 18.4702C17.3377 17.8027 17.9185 17.0665 18.3639 16.2612C18.8085 15.4564 19.1245 14.5683 19.3114 13.5968C19.765 11.2384 19.4227 9.40154 18.2855 8.08545ZM14.88 13.2929C14.5835 14.8327 14.0128 15.9316 13.167 16.59C12.3207 17.2486 11.0331 17.5777 9.30489 17.5777H6.69671L8.29764 9.25104H11.2352C12.8641 9.25104 13.9496 9.55483 14.4922 10.1627C15.0345 10.7709 15.164 11.8142 14.88 13.2929ZM35.2347 11.4593L33.4549 20.7174H29.1338L30.826 11.9147C31.0184 10.9132 30.9479 10.2301 30.6132 9.86605C30.2791 9.50177 29.5674 9.31938 28.4791 9.31938H25.0798L22.8887 20.7174H18.6351L22.4602 0.822266H26.7138L25.6969 6.11152H29.4864C31.8703 6.11152 33.515 6.53236 34.4202 7.37269C35.3255 8.21355 35.5965 9.57589 35.2347 11.4593ZM51.749 8.08545C50.6118 6.76956 48.8024 6.11152 46.3225 6.11152H38.0781L34.2529 26.0066H38.5401L39.5571 20.7174H43.2294C44.8498 20.7174 46.1823 20.5457 47.2291 20.2009C48.2754 19.8572 49.2266 19.2802 50.0826 18.4702C50.8011 17.8027 51.3824 17.0665 51.8275 16.2612C52.2721 15.4564 52.588 14.5683 52.7748 13.5968C53.2284 11.2384 52.8865 9.40154 51.749 8.08545ZM48.3437 13.2929C48.0474 14.8327 47.4767 15.9316 46.6304 16.59C45.7845 17.2486 44.4966 17.5777 42.7683 17.5777H40.1606L41.7615 9.25104H44.6988C46.3277 9.25104 47.4131 9.55483 47.9561 10.1627C48.4983 10.7709 48.6274 11.8142 48.3437 13.2929Z" fill="#3A4253"/>
</svg>
