<svg width="43" height="44" viewBox="0 0 43 44" fill="none" xmlns="http://www.w3.org/2000/svg">
<path fill-rule="evenodd" clip-rule="evenodd" d="M27.5514 40.5988C26.5392 40.5988 25.7203 39.7561 25.7203 38.7144C25.7203 37.6727 26.5392 36.8321 27.5514 36.8321C28.5636 36.8321 29.3827 37.6727 29.3827 38.7144C29.3827 39.7561 28.5636 40.5988 27.5514 40.5988ZM21.9402 43.9141C32.604 43.9141 31.9384 39.1553 31.9384 39.1553L31.9258 34.2254H21.7513V32.7452H35.9662C35.9662 32.7452 42.7891 33.5428 42.7891 22.4708C42.7891 11.3987 36.8356 11.789 36.8356 11.789H33.2802V16.9288C33.2802 16.9288 33.4714 23.0555 27.4213 23.0555H17.3287C17.3287 23.0555 11.6587 22.9634 11.6587 28.6971V38.1758C11.6587 38.1758 10.7976 43.9141 21.9402 43.9141ZM16.0287 4.22935C17.0409 4.22935 17.8578 5.07203 17.8578 6.11375C17.8578 7.15546 17.0409 7.99605 16.0287 7.99605C15.0165 7.99605 14.1976 7.15546 14.1976 6.11375C14.1976 5.07203 15.0165 4.22935 16.0287 4.22935ZM21.6379 0.914062C10.9762 0.914062 11.6419 5.67283 11.6419 5.67283L11.6545 10.6027H21.829V12.0829H7.61195C7.61195 12.0829 0.789062 11.2854 0.789062 22.3574C0.789062 33.4294 6.74466 33.0391 6.74466 33.0391H10.2979V27.8993C10.2979 27.8993 10.1068 21.7726 16.159 21.7726H26.2494C26.2494 21.7726 31.9195 21.8648 31.9195 16.131V6.6523C31.9195 6.6523 32.7805 0.914062 21.6379 0.914062Z" fill="#3A4253"/>
</svg>
