<svg width="54" height="34" viewBox="0 0 54 34" fill="none" xmlns="http://www.w3.org/2000/svg">
<path d="M14.0391 11.9141C15.8057 4.58073 20.2224 0.914062 27.2891 0.914062C37.8891 0.914062 39.2141 9.16406 44.5141 10.5391C48.0474 11.4557 51.1391 10.0807 53.7891 6.41406C52.0224 13.7474 47.6057 17.4141 40.5391 17.4141C29.9391 17.4141 28.6141 9.16406 23.3141 7.78906C19.7807 6.8724 16.6891 8.2474 14.0391 11.9141ZM0.789062 28.4141C2.55573 21.0807 6.9724 17.4141 14.0391 17.4141C24.6391 17.4141 25.9641 25.6641 31.2641 27.0391C34.7974 27.9557 37.8891 26.5807 40.5391 22.9141C38.7724 30.2474 34.3557 33.9141 27.2891 33.9141C16.6891 33.9141 15.3641 25.6641 10.0641 24.2891C6.53073 23.3724 3.43906 24.7474 0.789062 28.4141Z" fill="#3A4253"/>
</svg>
