<svg width="45" height="40" viewBox="0 0 45 40" fill="none" xmlns="http://www.w3.org/2000/svg">
<path d="M36.9647 13.5545C36.496 13.3953 36.024 13.2471 35.5485 13.1098C35.6274 12.7909 35.7001 12.4702 35.7667 12.1476C36.8391 6.9628 36.1379 2.7858 33.7446 1.41078C31.453 0.0913425 27.6949 1.46636 23.9037 4.75402C23.5309 5.07841 23.1658 5.41252 22.8083 5.75635C22.57 5.52794 22.3256 5.30439 22.075 5.0857C18.1014 1.57024 14.1187 0.08952 11.7281 1.4691C9.43653 2.79127 8.75548 6.71768 9.72069 11.6318C9.81724 12.1178 9.92571 12.6017 10.0461 13.0834C9.48237 13.2429 8.93789 13.4133 8.41724 13.5937C3.76444 15.2111 0.789062 17.747 0.789062 20.3768C0.789062 23.094 3.9826 25.8185 8.83431 27.4705C9.22785 27.6036 9.62506 27.7272 10.0259 27.8414C9.89577 28.3572 9.78058 28.8787 9.68036 29.406C8.76373 34.2354 9.4787 38.0689 11.7657 39.3828C14.1278 40.7396 18.0904 39.3455 21.9531 35.9831C22.2586 35.717 22.5642 35.4361 22.8697 35.1402C23.2559 35.5114 23.6531 35.8716 24.0613 36.2209C27.8012 39.4266 31.4943 40.7214 33.7776 39.4038C36.1379 38.0424 36.9051 33.9238 35.9088 28.913C35.8324 28.5303 35.7444 28.1397 35.6448 27.7412C35.9234 27.6592 36.1963 27.5744 36.4633 27.4869C41.5048 25.8222 44.7891 23.1304 44.7891 20.3795C44.7872 17.737 41.7165 15.1847 36.9647 13.5545ZM25.1402 6.1664C28.3878 3.34984 31.4237 2.23816 32.8078 3.03274C34.2808 3.87925 34.8537 7.29266 33.9279 11.7694C33.8668 12.061 33.8008 12.3517 33.7299 12.6415C31.7918 12.2032 29.8265 11.894 27.847 11.7157C26.7136 10.0927 25.4712 8.54771 24.1283 7.09128C24.457 6.77418 24.7937 6.46588 25.1384 6.1664H25.1402ZM13.7804 22.6238C14.1783 23.3892 14.5941 24.1452 15.028 24.8918C15.4698 25.6536 15.9302 26.4041 16.4093 27.1434C15.0473 26.9962 13.6938 26.7794 12.3542 26.4937C12.7428 25.2435 13.2213 23.9451 13.7804 22.6238ZM13.7804 18.2199C13.2305 16.9269 12.7648 15.6549 12.3826 14.4265C13.6384 14.1468 14.9766 13.9181 16.3717 13.7449C15.9043 14.4703 15.4545 15.2062 15.0225 15.9528C14.5904 16.6994 14.1755 17.4551 13.7777 18.2199H13.7804ZM14.7796 20.4223C15.3589 19.2213 15.9828 18.0434 16.6513 16.8886C17.3192 15.7344 18.0302 14.6067 18.7843 13.5053C20.0933 13.4069 21.4352 13.355 22.7909 13.355C24.1466 13.355 25.4968 13.4069 26.8048 13.5062C27.5509 14.6051 28.2577 15.729 28.925 16.8777C29.5923 18.0264 30.2244 19.1989 30.8215 20.395C30.2324 21.6002 29.6018 22.783 28.9296 23.9432C28.2629 25.0974 27.5601 26.2286 26.8213 27.3366C25.5151 27.4277 24.1631 27.4778 22.7881 27.4778C21.4132 27.4778 20.0868 27.435 18.8045 27.3521C18.0449 26.2471 17.3281 25.1145 16.6541 23.9542C15.98 22.7939 15.3543 21.6166 14.7768 20.4223H14.7796ZM30.5566 24.8791C30.9996 24.1149 31.4249 23.3406 31.8325 22.5564C32.3913 23.8158 32.8844 25.1029 33.3101 26.4126C31.9548 26.716 30.5844 26.9487 29.2045 27.1097C29.6702 26.3753 30.1209 25.6317 30.5566 24.8791ZM31.8142 18.2208C31.4084 17.4524 30.9865 16.693 30.5483 15.9428C30.1206 15.2029 29.6748 14.4721 29.211 13.7504C30.6143 13.9272 31.9608 14.1623 33.223 14.4493C32.8172 15.7291 32.347 16.9879 31.8142 18.2208ZM22.8092 8.42985C23.7245 9.42407 24.5888 10.4636 25.3987 11.5444C23.6663 11.4624 21.9326 11.4624 20.1978 11.5444C21.053 10.4199 21.9283 9.3766 22.8092 8.42985ZM12.6741 3.08832C14.1462 2.23907 17.4011 3.4528 20.8321 6.48441C21.0511 6.6785 21.272 6.8817 21.492 7.09219C20.1422 8.54841 18.891 10.0921 17.7467 11.7129C15.7716 11.8899 13.8101 12.1942 11.8748 12.6242C11.7629 12.1771 11.6621 11.7269 11.5723 11.2737C10.7427 7.06121 11.2918 3.88563 12.6741 3.08832ZM10.5282 26.0372C10.1616 25.9333 9.79952 25.8206 9.44204 25.6991C7.29712 24.9702 5.52528 24.0189 4.30892 22.9828C3.21996 22.0543 2.66815 21.1276 2.66815 20.3768C2.66815 18.7812 5.05688 16.7456 9.04055 15.3651C9.54103 15.192 10.0458 15.0337 10.5548 14.8903C11.1465 16.7805 11.863 18.6297 12.6997 20.426C11.853 22.2471 11.1276 24.1215 10.5282 26.0372ZM20.7147 34.5725C19.0071 36.0596 17.2966 37.1139 15.7888 37.6451C14.434 38.1217 13.3551 38.1354 12.7034 37.7609C11.3156 36.9636 10.7381 33.8846 11.5255 29.755C11.619 29.269 11.726 28.783 11.8464 28.297C13.8011 28.7156 15.7822 29.0015 17.776 29.1526C18.9315 30.782 20.193 32.3344 21.5525 33.7998C21.2794 34.0668 20.9998 34.3238 20.7147 34.5725ZM22.8615 32.4567C21.9705 31.499 21.0814 30.4393 20.2143 29.3003C21.0569 29.3331 21.9149 29.3495 22.7881 29.3495C23.6846 29.3495 24.5719 29.3303 25.4464 29.2911C24.6394 30.3893 23.7766 31.4458 22.8615 32.4567ZM34.2753 35.0619C34.0132 36.4688 33.4861 37.4073 32.8344 37.7827C31.4475 38.5828 28.4822 37.5431 25.285 34.8013C24.9184 34.4878 24.5517 34.1516 24.1787 33.7989C25.5117 32.3277 26.7437 30.7691 27.8663 29.1335C29.8711 28.9647 31.8618 28.6587 33.8244 28.2177C33.9142 28.5786 33.9936 28.9321 34.0627 29.2784C34.5036 31.4926 34.5668 33.4955 34.2753 35.0619ZM35.8703 25.7092C35.6301 25.7884 35.3826 25.865 35.1315 25.9397C34.5161 24.0407 33.7716 22.1854 32.9031 20.3868C33.739 18.6121 34.4544 16.7838 35.0444 14.914C35.4944 15.0443 35.9317 15.181 36.3524 15.3259C40.4241 16.7219 42.9081 18.7885 42.9081 20.3768C42.9081 22.0716 40.2252 24.2713 35.8703 25.7092Z" fill="#3A4253"/>
</svg>
