<svg width="16" height="21" viewBox="0 0 16 21" fill="none" xmlns="http://www.w3.org/2000/svg">
<path d="M8 9.78125C9.19086 9.78125 10.1562 8.81586 10.1562 7.625C10.1562 6.43414 9.19086 5.46875 8 5.46875C6.80914 5.46875 5.84375 6.43414 5.84375 7.625C5.84375 8.81586 6.80914 9.78125 8 9.78125Z" stroke="#00BAA4" stroke-width="2" stroke-linecap="round" stroke-linejoin="round"/>
<path d="M8 1.15674C4.42871 1.15674 1.53125 3.91449 1.53125 7.31104C1.53125 11.2192 5.84375 17.4126 7.42725 19.5518C7.49298 19.6421 7.57913 19.7156 7.67866 19.7662C7.7782 19.8169 7.88831 19.8433 8 19.8433C8.11169 19.8433 8.2218 19.8169 8.32134 19.7662C8.42088 19.7156 8.50702 19.6421 8.57275 19.5518C10.1562 17.4135 14.4688 11.2224 14.4688 7.31104C14.4688 3.91449 11.5713 1.15674 8 1.15674Z" stroke="#00BAA4" stroke-width="2" stroke-linecap="round" stroke-linejoin="round"/>
</svg>
